M48
; DRILL file {KiCad (5.1.5)-3} date 14/01/2020 15:58:54
; FORMAT={-:-/ absolute / metric / decimal}
; #@! TF.CreationDate,2020-01-14T15:58:54+01:00
; #@! TF.GenerationSoftware,Kicad,Pcbnew,(5.1.5)-3
; #@! TF.FileFunction,Plated,1,2,PTH
FMAT,2
METRIC
T1C0.400
T2C0.700
T3C0.800
T4C1.000
T5C1.300
T6C3.000
T7C3.200
%
G90
G05
T1
X4.0Y-43.0
X11.0Y-33.0
X18.0Y-3.055
X34.0Y-3.055
T2
X26.035Y-13.335
X1.945Y-10.795
X4.445Y-10.795
X56.515Y-6.985
X59.015Y-6.985
X35.795Y-29.745
X38.295Y-29.745
X28.535Y-13.335
T3
X1.905Y-47.625
X3.175Y-107.315
X10.795Y-13.97
X11.0Y-44.0
X11.0Y-44.0
X12.7Y-5.08
X13.97Y-7.62
X15.24Y-8.89
X20.0Y-11.0
X22.225Y-13.97
X22.225Y-20.955
X22.225Y-28.575
X22.646Y-17.994
X24.13Y-30.48
X25.4Y-20.955
X30.48Y-33.655
X33.655Y-6.985
X33.655Y-30.48
X34.29Y-34.29
X36.195Y-8.255
X37.455Y-35.5
X40.64Y-29.845
X45.085Y-28.575
X47.625Y-36.83
X54.61Y-27.94
X54.61Y-36.83
X56.515Y-29.845
X57.785Y-22.225
X60.325Y-2.54
X66.675Y-31.115
X73.66Y-36.83
X80.645Y-17.78
X19.05Y-33.655
X19.05Y-41.275
X26.295Y-17.125
X26.295Y-24.745
X28.835Y-17.125
X28.835Y-24.745
X31.375Y-17.125
X31.375Y-24.745
X33.915Y-17.125
X33.915Y-24.745
X36.455Y-17.125
X36.455Y-24.745
X38.995Y-17.125
X38.995Y-24.745
X41.535Y-17.125
X41.535Y-24.745
X44.075Y-17.125
X44.075Y-24.745
X46.615Y-17.125
X46.615Y-24.745
X49.155Y-17.125
X49.155Y-24.745
X51.695Y-17.125
X51.695Y-24.745
X54.235Y-17.125
X54.235Y-24.745
X56.775Y-17.125
X56.775Y-24.745
X59.315Y-17.125
X59.315Y-24.745
X5.715Y-33.655
X5.715Y-41.275
X1.905Y-17.145
X1.905Y-19.685
X1.905Y-22.225
X1.905Y-24.765
X9.525Y-17.145
X9.525Y-19.685
X9.525Y-22.225
X9.525Y-24.765
X23.495Y-33.655
X23.495Y-41.275
X14.605Y-33.655
X14.605Y-41.275
X46.295Y-10.745
X48.795Y-10.745
X2.54Y-33.655
X2.54Y-41.275
X60.325Y-34.925
X68.475Y-12.241
X76.095Y-12.241
X78.74Y-37.465
X78.74Y-45.085
T4
X71.295Y-20.745
X71.295Y-23.285
X71.295Y-25.825
X71.295Y-28.365
X71.295Y-30.905
X71.295Y-33.445
X56.515Y-10.795
X59.055Y-10.795
X27.225Y-40.005
X29.765Y-40.005
X32.305Y-40.005
X34.845Y-40.005
X37.385Y-40.005
X39.925Y-40.005
X42.465Y-40.005
X45.005Y-40.005
X47.545Y-40.005
X50.085Y-40.005
X52.625Y-40.005
X55.165Y-40.005
X57.705Y-40.005
X60.245Y-40.005
X62.785Y-40.005
X65.325Y-40.005
T5
X53.5Y-101.3
X60.0Y-101.3
X21.5Y-90.6
X28.0Y-90.6
X37.5Y-101.3
X44.0Y-101.3
X5.5Y-90.6
X12.0Y-90.6
X69.5Y-90.6
X76.0Y-90.6
X69.5Y-48.0
X76.0Y-48.0
X21.5Y-112.0
X28.0Y-112.0
X53.5Y-48.26
X60.0Y-48.26
X5.5Y-112.0
X12.0Y-112.0
X37.5Y-48.26
X44.0Y-48.26
X69.5Y-112.0
X76.0Y-112.0
X69.5Y-69.3
X76.0Y-69.3
X53.5Y-69.3
X60.0Y-69.3
X21.5Y-58.6
X28.0Y-58.6
X37.5Y-69.3
X44.0Y-69.3
X5.5Y-58.6
X12.0Y-58.6
X53.5Y-90.6
X60.0Y-90.6
X21.5Y-80.0
X28.0Y-80.0
X37.5Y-90.6
X44.0Y-90.6
X5.5Y-80.0
X12.0Y-80.0
X69.5Y-80.0
X76.0Y-80.0
X53.5Y-112.0
X60.0Y-112.0
X21.5Y-101.3
X28.0Y-101.3
X37.5Y-112.0
X44.0Y-112.0
X5.5Y-101.3
X12.0Y-101.3
X69.5Y-101.3
X76.0Y-101.3
X69.5Y-58.5
X76.0Y-58.5
X53.5Y-58.5
X60.0Y-58.5
X21.5Y-48.0
X28.0Y-48.0
X37.5Y-58.6
X44.0Y-58.6
X5.5Y-48.0
X12.0Y-48.0
X53.5Y-80.0
X60.0Y-80.0
X21.5Y-69.3
X28.0Y-69.3
X37.5Y-80.0
X44.0Y-80.0
X5.5Y-69.3
X12.0Y-69.3
T6
X10.025Y-8.505
X10.025Y-40.005
X70.525Y-8.505
X70.525Y-40.005
T7
X79.0Y-117.0
X79.0Y-3.0
X3.0Y-3.0
X3.0Y-117.0
T0
M30
