G04 #@! TF.GenerationSoftware,KiCad,Pcbnew,(5.1.5)-3*
G04 #@! TF.CreationDate,2020-01-14T15:58:57+01:00*
G04 #@! TF.ProjectId,calculatrice,63616c63-756c-4617-9472-6963652e6b69,rev?*
G04 #@! TF.SameCoordinates,Original*
G04 #@! TF.FileFunction,Copper,L1,Top*
G04 #@! TF.FilePolarity,Positive*
%FSLAX46Y46*%
G04 Gerber Fmt 4.6, Leading zero omitted, Abs format (unit mm)*
G04 Created by KiCad (PCBNEW (5.1.5)-3) date 2020-01-14 15:58:57*
%MOMM*%
%LPD*%
G04 APERTURE LIST*
%ADD10R,2.032000X2.032000*%
%ADD11O,2.032000X2.032000*%
%ADD12O,1.600000X2.000000*%
%ADD13O,1.500000X2.000000*%
%ADD14C,4.000000*%
%ADD15O,1.600000X2.300000*%
%ADD16C,1.200000*%
%ADD17R,1.200000X1.200000*%
%ADD18C,4.064000*%
%ADD19C,2.000000*%
%ADD20C,1.524000*%
%ADD21O,2.300000X1.600000*%
%ADD22R,1.300000X1.300000*%
%ADD23C,1.300000*%
%ADD24R,2.032000X1.727200*%
%ADD25O,2.032000X1.727200*%
%ADD26C,1.651000*%
%ADD27C,0.100000*%
%ADD28R,1.600000X1.600000*%
%ADD29O,1.600000X1.600000*%
%ADD30C,1.500000*%
%ADD31C,0.800000*%
%ADD32C,0.500000*%
G04 APERTURE END LIST*
D10*
X56515000Y-10795000D03*
D11*
X59055000Y-10795000D03*
D12*
X65325000Y-40005000D03*
D13*
X62785000Y-40005000D03*
X60245000Y-40005000D03*
X57705000Y-40005000D03*
X55165000Y-40005000D03*
X52625000Y-40005000D03*
X50085000Y-40005000D03*
X47545000Y-40005000D03*
X45005000Y-40005000D03*
X42465000Y-40005000D03*
X39925000Y-40005000D03*
X37385000Y-40005000D03*
X34845000Y-40005000D03*
X32305000Y-40005000D03*
X29765000Y-40005000D03*
X27225000Y-40005000D03*
D14*
X70525000Y-40005000D03*
X70525000Y-8505000D03*
X10025000Y-8505000D03*
X10025000Y-40005000D03*
D15*
X26295000Y-24745000D03*
X28835000Y-24745000D03*
X31375000Y-24745000D03*
X33915000Y-24745000D03*
X36455000Y-24745000D03*
X38995000Y-24745000D03*
X41535000Y-24745000D03*
X44075000Y-24745000D03*
X46615000Y-24745000D03*
X49155000Y-24745000D03*
X51695000Y-24745000D03*
X54235000Y-24745000D03*
X56775000Y-24745000D03*
X59315000Y-24745000D03*
X59315000Y-17125000D03*
X56775000Y-17125000D03*
X54235000Y-17125000D03*
X51695000Y-17125000D03*
X49155000Y-17125000D03*
X46615000Y-17125000D03*
X44075000Y-17125000D03*
X41535000Y-17125000D03*
X38995000Y-17125000D03*
X36455000Y-17125000D03*
X33915000Y-17125000D03*
X31375000Y-17125000D03*
X28835000Y-17125000D03*
X26295000Y-17125000D03*
D16*
X59015000Y-6985000D03*
D17*
X56515000Y-6985000D03*
D18*
X3000000Y-117000000D03*
D19*
X60325000Y-34925000D03*
D20*
X78740000Y-37465000D03*
X78740000Y-45085000D03*
D21*
X1905000Y-17145000D03*
X1905000Y-19685000D03*
X1905000Y-22225000D03*
X1905000Y-24765000D03*
X9525000Y-24765000D03*
X9525000Y-22225000D03*
X9525000Y-19685000D03*
X9525000Y-17145000D03*
D17*
X38295000Y-29745000D03*
D16*
X35795000Y-29745000D03*
X1945000Y-10795000D03*
D17*
X4445000Y-10795000D03*
X26035000Y-13335000D03*
D16*
X28535000Y-13335000D03*
D22*
X46295000Y-10745000D03*
D23*
X48795000Y-10745000D03*
D24*
X71295000Y-20745000D03*
D25*
X71295000Y-23285000D03*
X71295000Y-25825000D03*
X71295000Y-28365000D03*
X71295000Y-30905000D03*
X71295000Y-33445000D03*
D26*
X68475000Y-12241000D03*
X76095000Y-12241000D03*
D14*
X3000000Y-3000000D03*
X79000000Y-3000000D03*
D18*
X79000000Y-117000000D03*
G04 #@! TA.AperFunction,ComponentPad*
D27*
G36*
X6049009Y-46502408D02*
G01*
X6097545Y-46509607D01*
X6145142Y-46521530D01*
X6191342Y-46538060D01*
X6235698Y-46559039D01*
X6277785Y-46584265D01*
X6317197Y-46613495D01*
X6353553Y-46646447D01*
X6386505Y-46682803D01*
X6415735Y-46722215D01*
X6440961Y-46764302D01*
X6461940Y-46808658D01*
X6478470Y-46854858D01*
X6490393Y-46902455D01*
X6497592Y-46950991D01*
X6500000Y-47000000D01*
X6500000Y-49000000D01*
X6497592Y-49049009D01*
X6490393Y-49097545D01*
X6478470Y-49145142D01*
X6461940Y-49191342D01*
X6440961Y-49235698D01*
X6415735Y-49277785D01*
X6386505Y-49317197D01*
X6353553Y-49353553D01*
X6317197Y-49386505D01*
X6277785Y-49415735D01*
X6235698Y-49440961D01*
X6191342Y-49461940D01*
X6145142Y-49478470D01*
X6097545Y-49490393D01*
X6049009Y-49497592D01*
X6000000Y-49500000D01*
X5000000Y-49500000D01*
X4950991Y-49497592D01*
X4902455Y-49490393D01*
X4854858Y-49478470D01*
X4808658Y-49461940D01*
X4764302Y-49440961D01*
X4722215Y-49415735D01*
X4682803Y-49386505D01*
X4646447Y-49353553D01*
X4613495Y-49317197D01*
X4584265Y-49277785D01*
X4559039Y-49235698D01*
X4538060Y-49191342D01*
X4521530Y-49145142D01*
X4509607Y-49097545D01*
X4502408Y-49049009D01*
X4500000Y-49000000D01*
X4500000Y-47000000D01*
X4502408Y-46950991D01*
X4509607Y-46902455D01*
X4521530Y-46854858D01*
X4538060Y-46808658D01*
X4559039Y-46764302D01*
X4584265Y-46722215D01*
X4613495Y-46682803D01*
X4646447Y-46646447D01*
X4682803Y-46613495D01*
X4722215Y-46584265D01*
X4764302Y-46559039D01*
X4808658Y-46538060D01*
X4854858Y-46521530D01*
X4902455Y-46509607D01*
X4950991Y-46502408D01*
X5000000Y-46500000D01*
X6000000Y-46500000D01*
X6049009Y-46502408D01*
G37*
G04 #@! TD.AperFunction*
G04 #@! TA.AperFunction,ComponentPad*
G36*
X12549009Y-46502408D02*
G01*
X12597545Y-46509607D01*
X12645142Y-46521530D01*
X12691342Y-46538060D01*
X12735698Y-46559039D01*
X12777785Y-46584265D01*
X12817197Y-46613495D01*
X12853553Y-46646447D01*
X12886505Y-46682803D01*
X12915735Y-46722215D01*
X12940961Y-46764302D01*
X12961940Y-46808658D01*
X12978470Y-46854858D01*
X12990393Y-46902455D01*
X12997592Y-46950991D01*
X13000000Y-47000000D01*
X13000000Y-49000000D01*
X12997592Y-49049009D01*
X12990393Y-49097545D01*
X12978470Y-49145142D01*
X12961940Y-49191342D01*
X12940961Y-49235698D01*
X12915735Y-49277785D01*
X12886505Y-49317197D01*
X12853553Y-49353553D01*
X12817197Y-49386505D01*
X12777785Y-49415735D01*
X12735698Y-49440961D01*
X12691342Y-49461940D01*
X12645142Y-49478470D01*
X12597545Y-49490393D01*
X12549009Y-49497592D01*
X12500000Y-49500000D01*
X11500000Y-49500000D01*
X11450991Y-49497592D01*
X11402455Y-49490393D01*
X11354858Y-49478470D01*
X11308658Y-49461940D01*
X11264302Y-49440961D01*
X11222215Y-49415735D01*
X11182803Y-49386505D01*
X11146447Y-49353553D01*
X11113495Y-49317197D01*
X11084265Y-49277785D01*
X11059039Y-49235698D01*
X11038060Y-49191342D01*
X11021530Y-49145142D01*
X11009607Y-49097545D01*
X11002408Y-49049009D01*
X11000000Y-49000000D01*
X11000000Y-47000000D01*
X11002408Y-46950991D01*
X11009607Y-46902455D01*
X11021530Y-46854858D01*
X11038060Y-46808658D01*
X11059039Y-46764302D01*
X11084265Y-46722215D01*
X11113495Y-46682803D01*
X11146447Y-46646447D01*
X11182803Y-46613495D01*
X11222215Y-46584265D01*
X11264302Y-46559039D01*
X11308658Y-46538060D01*
X11354858Y-46521530D01*
X11402455Y-46509607D01*
X11450991Y-46502408D01*
X11500000Y-46500000D01*
X12500000Y-46500000D01*
X12549009Y-46502408D01*
G37*
G04 #@! TD.AperFunction*
G04 #@! TA.AperFunction,ComponentPad*
G36*
X12549009Y-57102408D02*
G01*
X12597545Y-57109607D01*
X12645142Y-57121530D01*
X12691342Y-57138060D01*
X12735698Y-57159039D01*
X12777785Y-57184265D01*
X12817197Y-57213495D01*
X12853553Y-57246447D01*
X12886505Y-57282803D01*
X12915735Y-57322215D01*
X12940961Y-57364302D01*
X12961940Y-57408658D01*
X12978470Y-57454858D01*
X12990393Y-57502455D01*
X12997592Y-57550991D01*
X13000000Y-57600000D01*
X13000000Y-59600000D01*
X12997592Y-59649009D01*
X12990393Y-59697545D01*
X12978470Y-59745142D01*
X12961940Y-59791342D01*
X12940961Y-59835698D01*
X12915735Y-59877785D01*
X12886505Y-59917197D01*
X12853553Y-59953553D01*
X12817197Y-59986505D01*
X12777785Y-60015735D01*
X12735698Y-60040961D01*
X12691342Y-60061940D01*
X12645142Y-60078470D01*
X12597545Y-60090393D01*
X12549009Y-60097592D01*
X12500000Y-60100000D01*
X11500000Y-60100000D01*
X11450991Y-60097592D01*
X11402455Y-60090393D01*
X11354858Y-60078470D01*
X11308658Y-60061940D01*
X11264302Y-60040961D01*
X11222215Y-60015735D01*
X11182803Y-59986505D01*
X11146447Y-59953553D01*
X11113495Y-59917197D01*
X11084265Y-59877785D01*
X11059039Y-59835698D01*
X11038060Y-59791342D01*
X11021530Y-59745142D01*
X11009607Y-59697545D01*
X11002408Y-59649009D01*
X11000000Y-59600000D01*
X11000000Y-57600000D01*
X11002408Y-57550991D01*
X11009607Y-57502455D01*
X11021530Y-57454858D01*
X11038060Y-57408658D01*
X11059039Y-57364302D01*
X11084265Y-57322215D01*
X11113495Y-57282803D01*
X11146447Y-57246447D01*
X11182803Y-57213495D01*
X11222215Y-57184265D01*
X11264302Y-57159039D01*
X11308658Y-57138060D01*
X11354858Y-57121530D01*
X11402455Y-57109607D01*
X11450991Y-57102408D01*
X11500000Y-57100000D01*
X12500000Y-57100000D01*
X12549009Y-57102408D01*
G37*
G04 #@! TD.AperFunction*
G04 #@! TA.AperFunction,ComponentPad*
G36*
X6049009Y-57102408D02*
G01*
X6097545Y-57109607D01*
X6145142Y-57121530D01*
X6191342Y-57138060D01*
X6235698Y-57159039D01*
X6277785Y-57184265D01*
X6317197Y-57213495D01*
X6353553Y-57246447D01*
X6386505Y-57282803D01*
X6415735Y-57322215D01*
X6440961Y-57364302D01*
X6461940Y-57408658D01*
X6478470Y-57454858D01*
X6490393Y-57502455D01*
X6497592Y-57550991D01*
X6500000Y-57600000D01*
X6500000Y-59600000D01*
X6497592Y-59649009D01*
X6490393Y-59697545D01*
X6478470Y-59745142D01*
X6461940Y-59791342D01*
X6440961Y-59835698D01*
X6415735Y-59877785D01*
X6386505Y-59917197D01*
X6353553Y-59953553D01*
X6317197Y-59986505D01*
X6277785Y-60015735D01*
X6235698Y-60040961D01*
X6191342Y-60061940D01*
X6145142Y-60078470D01*
X6097545Y-60090393D01*
X6049009Y-60097592D01*
X6000000Y-60100000D01*
X5000000Y-60100000D01*
X4950991Y-60097592D01*
X4902455Y-60090393D01*
X4854858Y-60078470D01*
X4808658Y-60061940D01*
X4764302Y-60040961D01*
X4722215Y-60015735D01*
X4682803Y-59986505D01*
X4646447Y-59953553D01*
X4613495Y-59917197D01*
X4584265Y-59877785D01*
X4559039Y-59835698D01*
X4538060Y-59791342D01*
X4521530Y-59745142D01*
X4509607Y-59697545D01*
X4502408Y-59649009D01*
X4500000Y-59600000D01*
X4500000Y-57600000D01*
X4502408Y-57550991D01*
X4509607Y-57502455D01*
X4521530Y-57454858D01*
X4538060Y-57408658D01*
X4559039Y-57364302D01*
X4584265Y-57322215D01*
X4613495Y-57282803D01*
X4646447Y-57246447D01*
X4682803Y-57213495D01*
X4722215Y-57184265D01*
X4764302Y-57159039D01*
X4808658Y-57138060D01*
X4854858Y-57121530D01*
X4902455Y-57109607D01*
X4950991Y-57102408D01*
X5000000Y-57100000D01*
X6000000Y-57100000D01*
X6049009Y-57102408D01*
G37*
G04 #@! TD.AperFunction*
G04 #@! TA.AperFunction,ComponentPad*
G36*
X6049009Y-67802408D02*
G01*
X6097545Y-67809607D01*
X6145142Y-67821530D01*
X6191342Y-67838060D01*
X6235698Y-67859039D01*
X6277785Y-67884265D01*
X6317197Y-67913495D01*
X6353553Y-67946447D01*
X6386505Y-67982803D01*
X6415735Y-68022215D01*
X6440961Y-68064302D01*
X6461940Y-68108658D01*
X6478470Y-68154858D01*
X6490393Y-68202455D01*
X6497592Y-68250991D01*
X6500000Y-68300000D01*
X6500000Y-70300000D01*
X6497592Y-70349009D01*
X6490393Y-70397545D01*
X6478470Y-70445142D01*
X6461940Y-70491342D01*
X6440961Y-70535698D01*
X6415735Y-70577785D01*
X6386505Y-70617197D01*
X6353553Y-70653553D01*
X6317197Y-70686505D01*
X6277785Y-70715735D01*
X6235698Y-70740961D01*
X6191342Y-70761940D01*
X6145142Y-70778470D01*
X6097545Y-70790393D01*
X6049009Y-70797592D01*
X6000000Y-70800000D01*
X5000000Y-70800000D01*
X4950991Y-70797592D01*
X4902455Y-70790393D01*
X4854858Y-70778470D01*
X4808658Y-70761940D01*
X4764302Y-70740961D01*
X4722215Y-70715735D01*
X4682803Y-70686505D01*
X4646447Y-70653553D01*
X4613495Y-70617197D01*
X4584265Y-70577785D01*
X4559039Y-70535698D01*
X4538060Y-70491342D01*
X4521530Y-70445142D01*
X4509607Y-70397545D01*
X4502408Y-70349009D01*
X4500000Y-70300000D01*
X4500000Y-68300000D01*
X4502408Y-68250991D01*
X4509607Y-68202455D01*
X4521530Y-68154858D01*
X4538060Y-68108658D01*
X4559039Y-68064302D01*
X4584265Y-68022215D01*
X4613495Y-67982803D01*
X4646447Y-67946447D01*
X4682803Y-67913495D01*
X4722215Y-67884265D01*
X4764302Y-67859039D01*
X4808658Y-67838060D01*
X4854858Y-67821530D01*
X4902455Y-67809607D01*
X4950991Y-67802408D01*
X5000000Y-67800000D01*
X6000000Y-67800000D01*
X6049009Y-67802408D01*
G37*
G04 #@! TD.AperFunction*
G04 #@! TA.AperFunction,ComponentPad*
G36*
X12549009Y-67802408D02*
G01*
X12597545Y-67809607D01*
X12645142Y-67821530D01*
X12691342Y-67838060D01*
X12735698Y-67859039D01*
X12777785Y-67884265D01*
X12817197Y-67913495D01*
X12853553Y-67946447D01*
X12886505Y-67982803D01*
X12915735Y-68022215D01*
X12940961Y-68064302D01*
X12961940Y-68108658D01*
X12978470Y-68154858D01*
X12990393Y-68202455D01*
X12997592Y-68250991D01*
X13000000Y-68300000D01*
X13000000Y-70300000D01*
X12997592Y-70349009D01*
X12990393Y-70397545D01*
X12978470Y-70445142D01*
X12961940Y-70491342D01*
X12940961Y-70535698D01*
X12915735Y-70577785D01*
X12886505Y-70617197D01*
X12853553Y-70653553D01*
X12817197Y-70686505D01*
X12777785Y-70715735D01*
X12735698Y-70740961D01*
X12691342Y-70761940D01*
X12645142Y-70778470D01*
X12597545Y-70790393D01*
X12549009Y-70797592D01*
X12500000Y-70800000D01*
X11500000Y-70800000D01*
X11450991Y-70797592D01*
X11402455Y-70790393D01*
X11354858Y-70778470D01*
X11308658Y-70761940D01*
X11264302Y-70740961D01*
X11222215Y-70715735D01*
X11182803Y-70686505D01*
X11146447Y-70653553D01*
X11113495Y-70617197D01*
X11084265Y-70577785D01*
X11059039Y-70535698D01*
X11038060Y-70491342D01*
X11021530Y-70445142D01*
X11009607Y-70397545D01*
X11002408Y-70349009D01*
X11000000Y-70300000D01*
X11000000Y-68300000D01*
X11002408Y-68250991D01*
X11009607Y-68202455D01*
X11021530Y-68154858D01*
X11038060Y-68108658D01*
X11059039Y-68064302D01*
X11084265Y-68022215D01*
X11113495Y-67982803D01*
X11146447Y-67946447D01*
X11182803Y-67913495D01*
X11222215Y-67884265D01*
X11264302Y-67859039D01*
X11308658Y-67838060D01*
X11354858Y-67821530D01*
X11402455Y-67809607D01*
X11450991Y-67802408D01*
X11500000Y-67800000D01*
X12500000Y-67800000D01*
X12549009Y-67802408D01*
G37*
G04 #@! TD.AperFunction*
G04 #@! TA.AperFunction,ComponentPad*
G36*
X12549009Y-78502408D02*
G01*
X12597545Y-78509607D01*
X12645142Y-78521530D01*
X12691342Y-78538060D01*
X12735698Y-78559039D01*
X12777785Y-78584265D01*
X12817197Y-78613495D01*
X12853553Y-78646447D01*
X12886505Y-78682803D01*
X12915735Y-78722215D01*
X12940961Y-78764302D01*
X12961940Y-78808658D01*
X12978470Y-78854858D01*
X12990393Y-78902455D01*
X12997592Y-78950991D01*
X13000000Y-79000000D01*
X13000000Y-81000000D01*
X12997592Y-81049009D01*
X12990393Y-81097545D01*
X12978470Y-81145142D01*
X12961940Y-81191342D01*
X12940961Y-81235698D01*
X12915735Y-81277785D01*
X12886505Y-81317197D01*
X12853553Y-81353553D01*
X12817197Y-81386505D01*
X12777785Y-81415735D01*
X12735698Y-81440961D01*
X12691342Y-81461940D01*
X12645142Y-81478470D01*
X12597545Y-81490393D01*
X12549009Y-81497592D01*
X12500000Y-81500000D01*
X11500000Y-81500000D01*
X11450991Y-81497592D01*
X11402455Y-81490393D01*
X11354858Y-81478470D01*
X11308658Y-81461940D01*
X11264302Y-81440961D01*
X11222215Y-81415735D01*
X11182803Y-81386505D01*
X11146447Y-81353553D01*
X11113495Y-81317197D01*
X11084265Y-81277785D01*
X11059039Y-81235698D01*
X11038060Y-81191342D01*
X11021530Y-81145142D01*
X11009607Y-81097545D01*
X11002408Y-81049009D01*
X11000000Y-81000000D01*
X11000000Y-79000000D01*
X11002408Y-78950991D01*
X11009607Y-78902455D01*
X11021530Y-78854858D01*
X11038060Y-78808658D01*
X11059039Y-78764302D01*
X11084265Y-78722215D01*
X11113495Y-78682803D01*
X11146447Y-78646447D01*
X11182803Y-78613495D01*
X11222215Y-78584265D01*
X11264302Y-78559039D01*
X11308658Y-78538060D01*
X11354858Y-78521530D01*
X11402455Y-78509607D01*
X11450991Y-78502408D01*
X11500000Y-78500000D01*
X12500000Y-78500000D01*
X12549009Y-78502408D01*
G37*
G04 #@! TD.AperFunction*
G04 #@! TA.AperFunction,ComponentPad*
G36*
X6049009Y-78502408D02*
G01*
X6097545Y-78509607D01*
X6145142Y-78521530D01*
X6191342Y-78538060D01*
X6235698Y-78559039D01*
X6277785Y-78584265D01*
X6317197Y-78613495D01*
X6353553Y-78646447D01*
X6386505Y-78682803D01*
X6415735Y-78722215D01*
X6440961Y-78764302D01*
X6461940Y-78808658D01*
X6478470Y-78854858D01*
X6490393Y-78902455D01*
X6497592Y-78950991D01*
X6500000Y-79000000D01*
X6500000Y-81000000D01*
X6497592Y-81049009D01*
X6490393Y-81097545D01*
X6478470Y-81145142D01*
X6461940Y-81191342D01*
X6440961Y-81235698D01*
X6415735Y-81277785D01*
X6386505Y-81317197D01*
X6353553Y-81353553D01*
X6317197Y-81386505D01*
X6277785Y-81415735D01*
X6235698Y-81440961D01*
X6191342Y-81461940D01*
X6145142Y-81478470D01*
X6097545Y-81490393D01*
X6049009Y-81497592D01*
X6000000Y-81500000D01*
X5000000Y-81500000D01*
X4950991Y-81497592D01*
X4902455Y-81490393D01*
X4854858Y-81478470D01*
X4808658Y-81461940D01*
X4764302Y-81440961D01*
X4722215Y-81415735D01*
X4682803Y-81386505D01*
X4646447Y-81353553D01*
X4613495Y-81317197D01*
X4584265Y-81277785D01*
X4559039Y-81235698D01*
X4538060Y-81191342D01*
X4521530Y-81145142D01*
X4509607Y-81097545D01*
X4502408Y-81049009D01*
X4500000Y-81000000D01*
X4500000Y-79000000D01*
X4502408Y-78950991D01*
X4509607Y-78902455D01*
X4521530Y-78854858D01*
X4538060Y-78808658D01*
X4559039Y-78764302D01*
X4584265Y-78722215D01*
X4613495Y-78682803D01*
X4646447Y-78646447D01*
X4682803Y-78613495D01*
X4722215Y-78584265D01*
X4764302Y-78559039D01*
X4808658Y-78538060D01*
X4854858Y-78521530D01*
X4902455Y-78509607D01*
X4950991Y-78502408D01*
X5000000Y-78500000D01*
X6000000Y-78500000D01*
X6049009Y-78502408D01*
G37*
G04 #@! TD.AperFunction*
G04 #@! TA.AperFunction,ComponentPad*
G36*
X12549009Y-89102408D02*
G01*
X12597545Y-89109607D01*
X12645142Y-89121530D01*
X12691342Y-89138060D01*
X12735698Y-89159039D01*
X12777785Y-89184265D01*
X12817197Y-89213495D01*
X12853553Y-89246447D01*
X12886505Y-89282803D01*
X12915735Y-89322215D01*
X12940961Y-89364302D01*
X12961940Y-89408658D01*
X12978470Y-89454858D01*
X12990393Y-89502455D01*
X12997592Y-89550991D01*
X13000000Y-89600000D01*
X13000000Y-91600000D01*
X12997592Y-91649009D01*
X12990393Y-91697545D01*
X12978470Y-91745142D01*
X12961940Y-91791342D01*
X12940961Y-91835698D01*
X12915735Y-91877785D01*
X12886505Y-91917197D01*
X12853553Y-91953553D01*
X12817197Y-91986505D01*
X12777785Y-92015735D01*
X12735698Y-92040961D01*
X12691342Y-92061940D01*
X12645142Y-92078470D01*
X12597545Y-92090393D01*
X12549009Y-92097592D01*
X12500000Y-92100000D01*
X11500000Y-92100000D01*
X11450991Y-92097592D01*
X11402455Y-92090393D01*
X11354858Y-92078470D01*
X11308658Y-92061940D01*
X11264302Y-92040961D01*
X11222215Y-92015735D01*
X11182803Y-91986505D01*
X11146447Y-91953553D01*
X11113495Y-91917197D01*
X11084265Y-91877785D01*
X11059039Y-91835698D01*
X11038060Y-91791342D01*
X11021530Y-91745142D01*
X11009607Y-91697545D01*
X11002408Y-91649009D01*
X11000000Y-91600000D01*
X11000000Y-89600000D01*
X11002408Y-89550991D01*
X11009607Y-89502455D01*
X11021530Y-89454858D01*
X11038060Y-89408658D01*
X11059039Y-89364302D01*
X11084265Y-89322215D01*
X11113495Y-89282803D01*
X11146447Y-89246447D01*
X11182803Y-89213495D01*
X11222215Y-89184265D01*
X11264302Y-89159039D01*
X11308658Y-89138060D01*
X11354858Y-89121530D01*
X11402455Y-89109607D01*
X11450991Y-89102408D01*
X11500000Y-89100000D01*
X12500000Y-89100000D01*
X12549009Y-89102408D01*
G37*
G04 #@! TD.AperFunction*
G04 #@! TA.AperFunction,ComponentPad*
G36*
X6049009Y-89102408D02*
G01*
X6097545Y-89109607D01*
X6145142Y-89121530D01*
X6191342Y-89138060D01*
X6235698Y-89159039D01*
X6277785Y-89184265D01*
X6317197Y-89213495D01*
X6353553Y-89246447D01*
X6386505Y-89282803D01*
X6415735Y-89322215D01*
X6440961Y-89364302D01*
X6461940Y-89408658D01*
X6478470Y-89454858D01*
X6490393Y-89502455D01*
X6497592Y-89550991D01*
X6500000Y-89600000D01*
X6500000Y-91600000D01*
X6497592Y-91649009D01*
X6490393Y-91697545D01*
X6478470Y-91745142D01*
X6461940Y-91791342D01*
X6440961Y-91835698D01*
X6415735Y-91877785D01*
X6386505Y-91917197D01*
X6353553Y-91953553D01*
X6317197Y-91986505D01*
X6277785Y-92015735D01*
X6235698Y-92040961D01*
X6191342Y-92061940D01*
X6145142Y-92078470D01*
X6097545Y-92090393D01*
X6049009Y-92097592D01*
X6000000Y-92100000D01*
X5000000Y-92100000D01*
X4950991Y-92097592D01*
X4902455Y-92090393D01*
X4854858Y-92078470D01*
X4808658Y-92061940D01*
X4764302Y-92040961D01*
X4722215Y-92015735D01*
X4682803Y-91986505D01*
X4646447Y-91953553D01*
X4613495Y-91917197D01*
X4584265Y-91877785D01*
X4559039Y-91835698D01*
X4538060Y-91791342D01*
X4521530Y-91745142D01*
X4509607Y-91697545D01*
X4502408Y-91649009D01*
X4500000Y-91600000D01*
X4500000Y-89600000D01*
X4502408Y-89550991D01*
X4509607Y-89502455D01*
X4521530Y-89454858D01*
X4538060Y-89408658D01*
X4559039Y-89364302D01*
X4584265Y-89322215D01*
X4613495Y-89282803D01*
X4646447Y-89246447D01*
X4682803Y-89213495D01*
X4722215Y-89184265D01*
X4764302Y-89159039D01*
X4808658Y-89138060D01*
X4854858Y-89121530D01*
X4902455Y-89109607D01*
X4950991Y-89102408D01*
X5000000Y-89100000D01*
X6000000Y-89100000D01*
X6049009Y-89102408D01*
G37*
G04 #@! TD.AperFunction*
G04 #@! TA.AperFunction,ComponentPad*
G36*
X6049009Y-99802408D02*
G01*
X6097545Y-99809607D01*
X6145142Y-99821530D01*
X6191342Y-99838060D01*
X6235698Y-99859039D01*
X6277785Y-99884265D01*
X6317197Y-99913495D01*
X6353553Y-99946447D01*
X6386505Y-99982803D01*
X6415735Y-100022215D01*
X6440961Y-100064302D01*
X6461940Y-100108658D01*
X6478470Y-100154858D01*
X6490393Y-100202455D01*
X6497592Y-100250991D01*
X6500000Y-100300000D01*
X6500000Y-102300000D01*
X6497592Y-102349009D01*
X6490393Y-102397545D01*
X6478470Y-102445142D01*
X6461940Y-102491342D01*
X6440961Y-102535698D01*
X6415735Y-102577785D01*
X6386505Y-102617197D01*
X6353553Y-102653553D01*
X6317197Y-102686505D01*
X6277785Y-102715735D01*
X6235698Y-102740961D01*
X6191342Y-102761940D01*
X6145142Y-102778470D01*
X6097545Y-102790393D01*
X6049009Y-102797592D01*
X6000000Y-102800000D01*
X5000000Y-102800000D01*
X4950991Y-102797592D01*
X4902455Y-102790393D01*
X4854858Y-102778470D01*
X4808658Y-102761940D01*
X4764302Y-102740961D01*
X4722215Y-102715735D01*
X4682803Y-102686505D01*
X4646447Y-102653553D01*
X4613495Y-102617197D01*
X4584265Y-102577785D01*
X4559039Y-102535698D01*
X4538060Y-102491342D01*
X4521530Y-102445142D01*
X4509607Y-102397545D01*
X4502408Y-102349009D01*
X4500000Y-102300000D01*
X4500000Y-100300000D01*
X4502408Y-100250991D01*
X4509607Y-100202455D01*
X4521530Y-100154858D01*
X4538060Y-100108658D01*
X4559039Y-100064302D01*
X4584265Y-100022215D01*
X4613495Y-99982803D01*
X4646447Y-99946447D01*
X4682803Y-99913495D01*
X4722215Y-99884265D01*
X4764302Y-99859039D01*
X4808658Y-99838060D01*
X4854858Y-99821530D01*
X4902455Y-99809607D01*
X4950991Y-99802408D01*
X5000000Y-99800000D01*
X6000000Y-99800000D01*
X6049009Y-99802408D01*
G37*
G04 #@! TD.AperFunction*
G04 #@! TA.AperFunction,ComponentPad*
G36*
X12549009Y-99802408D02*
G01*
X12597545Y-99809607D01*
X12645142Y-99821530D01*
X12691342Y-99838060D01*
X12735698Y-99859039D01*
X12777785Y-99884265D01*
X12817197Y-99913495D01*
X12853553Y-99946447D01*
X12886505Y-99982803D01*
X12915735Y-100022215D01*
X12940961Y-100064302D01*
X12961940Y-100108658D01*
X12978470Y-100154858D01*
X12990393Y-100202455D01*
X12997592Y-100250991D01*
X13000000Y-100300000D01*
X13000000Y-102300000D01*
X12997592Y-102349009D01*
X12990393Y-102397545D01*
X12978470Y-102445142D01*
X12961940Y-102491342D01*
X12940961Y-102535698D01*
X12915735Y-102577785D01*
X12886505Y-102617197D01*
X12853553Y-102653553D01*
X12817197Y-102686505D01*
X12777785Y-102715735D01*
X12735698Y-102740961D01*
X12691342Y-102761940D01*
X12645142Y-102778470D01*
X12597545Y-102790393D01*
X12549009Y-102797592D01*
X12500000Y-102800000D01*
X11500000Y-102800000D01*
X11450991Y-102797592D01*
X11402455Y-102790393D01*
X11354858Y-102778470D01*
X11308658Y-102761940D01*
X11264302Y-102740961D01*
X11222215Y-102715735D01*
X11182803Y-102686505D01*
X11146447Y-102653553D01*
X11113495Y-102617197D01*
X11084265Y-102577785D01*
X11059039Y-102535698D01*
X11038060Y-102491342D01*
X11021530Y-102445142D01*
X11009607Y-102397545D01*
X11002408Y-102349009D01*
X11000000Y-102300000D01*
X11000000Y-100300000D01*
X11002408Y-100250991D01*
X11009607Y-100202455D01*
X11021530Y-100154858D01*
X11038060Y-100108658D01*
X11059039Y-100064302D01*
X11084265Y-100022215D01*
X11113495Y-99982803D01*
X11146447Y-99946447D01*
X11182803Y-99913495D01*
X11222215Y-99884265D01*
X11264302Y-99859039D01*
X11308658Y-99838060D01*
X11354858Y-99821530D01*
X11402455Y-99809607D01*
X11450991Y-99802408D01*
X11500000Y-99800000D01*
X12500000Y-99800000D01*
X12549009Y-99802408D01*
G37*
G04 #@! TD.AperFunction*
G04 #@! TA.AperFunction,ComponentPad*
G36*
X6049009Y-110502408D02*
G01*
X6097545Y-110509607D01*
X6145142Y-110521530D01*
X6191342Y-110538060D01*
X6235698Y-110559039D01*
X6277785Y-110584265D01*
X6317197Y-110613495D01*
X6353553Y-110646447D01*
X6386505Y-110682803D01*
X6415735Y-110722215D01*
X6440961Y-110764302D01*
X6461940Y-110808658D01*
X6478470Y-110854858D01*
X6490393Y-110902455D01*
X6497592Y-110950991D01*
X6500000Y-111000000D01*
X6500000Y-113000000D01*
X6497592Y-113049009D01*
X6490393Y-113097545D01*
X6478470Y-113145142D01*
X6461940Y-113191342D01*
X6440961Y-113235698D01*
X6415735Y-113277785D01*
X6386505Y-113317197D01*
X6353553Y-113353553D01*
X6317197Y-113386505D01*
X6277785Y-113415735D01*
X6235698Y-113440961D01*
X6191342Y-113461940D01*
X6145142Y-113478470D01*
X6097545Y-113490393D01*
X6049009Y-113497592D01*
X6000000Y-113500000D01*
X5000000Y-113500000D01*
X4950991Y-113497592D01*
X4902455Y-113490393D01*
X4854858Y-113478470D01*
X4808658Y-113461940D01*
X4764302Y-113440961D01*
X4722215Y-113415735D01*
X4682803Y-113386505D01*
X4646447Y-113353553D01*
X4613495Y-113317197D01*
X4584265Y-113277785D01*
X4559039Y-113235698D01*
X4538060Y-113191342D01*
X4521530Y-113145142D01*
X4509607Y-113097545D01*
X4502408Y-113049009D01*
X4500000Y-113000000D01*
X4500000Y-111000000D01*
X4502408Y-110950991D01*
X4509607Y-110902455D01*
X4521530Y-110854858D01*
X4538060Y-110808658D01*
X4559039Y-110764302D01*
X4584265Y-110722215D01*
X4613495Y-110682803D01*
X4646447Y-110646447D01*
X4682803Y-110613495D01*
X4722215Y-110584265D01*
X4764302Y-110559039D01*
X4808658Y-110538060D01*
X4854858Y-110521530D01*
X4902455Y-110509607D01*
X4950991Y-110502408D01*
X5000000Y-110500000D01*
X6000000Y-110500000D01*
X6049009Y-110502408D01*
G37*
G04 #@! TD.AperFunction*
G04 #@! TA.AperFunction,ComponentPad*
G36*
X12549009Y-110502408D02*
G01*
X12597545Y-110509607D01*
X12645142Y-110521530D01*
X12691342Y-110538060D01*
X12735698Y-110559039D01*
X12777785Y-110584265D01*
X12817197Y-110613495D01*
X12853553Y-110646447D01*
X12886505Y-110682803D01*
X12915735Y-110722215D01*
X12940961Y-110764302D01*
X12961940Y-110808658D01*
X12978470Y-110854858D01*
X12990393Y-110902455D01*
X12997592Y-110950991D01*
X13000000Y-111000000D01*
X13000000Y-113000000D01*
X12997592Y-113049009D01*
X12990393Y-113097545D01*
X12978470Y-113145142D01*
X12961940Y-113191342D01*
X12940961Y-113235698D01*
X12915735Y-113277785D01*
X12886505Y-113317197D01*
X12853553Y-113353553D01*
X12817197Y-113386505D01*
X12777785Y-113415735D01*
X12735698Y-113440961D01*
X12691342Y-113461940D01*
X12645142Y-113478470D01*
X12597545Y-113490393D01*
X12549009Y-113497592D01*
X12500000Y-113500000D01*
X11500000Y-113500000D01*
X11450991Y-113497592D01*
X11402455Y-113490393D01*
X11354858Y-113478470D01*
X11308658Y-113461940D01*
X11264302Y-113440961D01*
X11222215Y-113415735D01*
X11182803Y-113386505D01*
X11146447Y-113353553D01*
X11113495Y-113317197D01*
X11084265Y-113277785D01*
X11059039Y-113235698D01*
X11038060Y-113191342D01*
X11021530Y-113145142D01*
X11009607Y-113097545D01*
X11002408Y-113049009D01*
X11000000Y-113000000D01*
X11000000Y-111000000D01*
X11002408Y-110950991D01*
X11009607Y-110902455D01*
X11021530Y-110854858D01*
X11038060Y-110808658D01*
X11059039Y-110764302D01*
X11084265Y-110722215D01*
X11113495Y-110682803D01*
X11146447Y-110646447D01*
X11182803Y-110613495D01*
X11222215Y-110584265D01*
X11264302Y-110559039D01*
X11308658Y-110538060D01*
X11354858Y-110521530D01*
X11402455Y-110509607D01*
X11450991Y-110502408D01*
X11500000Y-110500000D01*
X12500000Y-110500000D01*
X12549009Y-110502408D01*
G37*
G04 #@! TD.AperFunction*
G04 #@! TA.AperFunction,ComponentPad*
G36*
X28549009Y-46502408D02*
G01*
X28597545Y-46509607D01*
X28645142Y-46521530D01*
X28691342Y-46538060D01*
X28735698Y-46559039D01*
X28777785Y-46584265D01*
X28817197Y-46613495D01*
X28853553Y-46646447D01*
X28886505Y-46682803D01*
X28915735Y-46722215D01*
X28940961Y-46764302D01*
X28961940Y-46808658D01*
X28978470Y-46854858D01*
X28990393Y-46902455D01*
X28997592Y-46950991D01*
X29000000Y-47000000D01*
X29000000Y-49000000D01*
X28997592Y-49049009D01*
X28990393Y-49097545D01*
X28978470Y-49145142D01*
X28961940Y-49191342D01*
X28940961Y-49235698D01*
X28915735Y-49277785D01*
X28886505Y-49317197D01*
X28853553Y-49353553D01*
X28817197Y-49386505D01*
X28777785Y-49415735D01*
X28735698Y-49440961D01*
X28691342Y-49461940D01*
X28645142Y-49478470D01*
X28597545Y-49490393D01*
X28549009Y-49497592D01*
X28500000Y-49500000D01*
X27500000Y-49500000D01*
X27450991Y-49497592D01*
X27402455Y-49490393D01*
X27354858Y-49478470D01*
X27308658Y-49461940D01*
X27264302Y-49440961D01*
X27222215Y-49415735D01*
X27182803Y-49386505D01*
X27146447Y-49353553D01*
X27113495Y-49317197D01*
X27084265Y-49277785D01*
X27059039Y-49235698D01*
X27038060Y-49191342D01*
X27021530Y-49145142D01*
X27009607Y-49097545D01*
X27002408Y-49049009D01*
X27000000Y-49000000D01*
X27000000Y-47000000D01*
X27002408Y-46950991D01*
X27009607Y-46902455D01*
X27021530Y-46854858D01*
X27038060Y-46808658D01*
X27059039Y-46764302D01*
X27084265Y-46722215D01*
X27113495Y-46682803D01*
X27146447Y-46646447D01*
X27182803Y-46613495D01*
X27222215Y-46584265D01*
X27264302Y-46559039D01*
X27308658Y-46538060D01*
X27354858Y-46521530D01*
X27402455Y-46509607D01*
X27450991Y-46502408D01*
X27500000Y-46500000D01*
X28500000Y-46500000D01*
X28549009Y-46502408D01*
G37*
G04 #@! TD.AperFunction*
G04 #@! TA.AperFunction,ComponentPad*
G36*
X22049009Y-46502408D02*
G01*
X22097545Y-46509607D01*
X22145142Y-46521530D01*
X22191342Y-46538060D01*
X22235698Y-46559039D01*
X22277785Y-46584265D01*
X22317197Y-46613495D01*
X22353553Y-46646447D01*
X22386505Y-46682803D01*
X22415735Y-46722215D01*
X22440961Y-46764302D01*
X22461940Y-46808658D01*
X22478470Y-46854858D01*
X22490393Y-46902455D01*
X22497592Y-46950991D01*
X22500000Y-47000000D01*
X22500000Y-49000000D01*
X22497592Y-49049009D01*
X22490393Y-49097545D01*
X22478470Y-49145142D01*
X22461940Y-49191342D01*
X22440961Y-49235698D01*
X22415735Y-49277785D01*
X22386505Y-49317197D01*
X22353553Y-49353553D01*
X22317197Y-49386505D01*
X22277785Y-49415735D01*
X22235698Y-49440961D01*
X22191342Y-49461940D01*
X22145142Y-49478470D01*
X22097545Y-49490393D01*
X22049009Y-49497592D01*
X22000000Y-49500000D01*
X21000000Y-49500000D01*
X20950991Y-49497592D01*
X20902455Y-49490393D01*
X20854858Y-49478470D01*
X20808658Y-49461940D01*
X20764302Y-49440961D01*
X20722215Y-49415735D01*
X20682803Y-49386505D01*
X20646447Y-49353553D01*
X20613495Y-49317197D01*
X20584265Y-49277785D01*
X20559039Y-49235698D01*
X20538060Y-49191342D01*
X20521530Y-49145142D01*
X20509607Y-49097545D01*
X20502408Y-49049009D01*
X20500000Y-49000000D01*
X20500000Y-47000000D01*
X20502408Y-46950991D01*
X20509607Y-46902455D01*
X20521530Y-46854858D01*
X20538060Y-46808658D01*
X20559039Y-46764302D01*
X20584265Y-46722215D01*
X20613495Y-46682803D01*
X20646447Y-46646447D01*
X20682803Y-46613495D01*
X20722215Y-46584265D01*
X20764302Y-46559039D01*
X20808658Y-46538060D01*
X20854858Y-46521530D01*
X20902455Y-46509607D01*
X20950991Y-46502408D01*
X21000000Y-46500000D01*
X22000000Y-46500000D01*
X22049009Y-46502408D01*
G37*
G04 #@! TD.AperFunction*
G04 #@! TA.AperFunction,ComponentPad*
G36*
X22049009Y-57102408D02*
G01*
X22097545Y-57109607D01*
X22145142Y-57121530D01*
X22191342Y-57138060D01*
X22235698Y-57159039D01*
X22277785Y-57184265D01*
X22317197Y-57213495D01*
X22353553Y-57246447D01*
X22386505Y-57282803D01*
X22415735Y-57322215D01*
X22440961Y-57364302D01*
X22461940Y-57408658D01*
X22478470Y-57454858D01*
X22490393Y-57502455D01*
X22497592Y-57550991D01*
X22500000Y-57600000D01*
X22500000Y-59600000D01*
X22497592Y-59649009D01*
X22490393Y-59697545D01*
X22478470Y-59745142D01*
X22461940Y-59791342D01*
X22440961Y-59835698D01*
X22415735Y-59877785D01*
X22386505Y-59917197D01*
X22353553Y-59953553D01*
X22317197Y-59986505D01*
X22277785Y-60015735D01*
X22235698Y-60040961D01*
X22191342Y-60061940D01*
X22145142Y-60078470D01*
X22097545Y-60090393D01*
X22049009Y-60097592D01*
X22000000Y-60100000D01*
X21000000Y-60100000D01*
X20950991Y-60097592D01*
X20902455Y-60090393D01*
X20854858Y-60078470D01*
X20808658Y-60061940D01*
X20764302Y-60040961D01*
X20722215Y-60015735D01*
X20682803Y-59986505D01*
X20646447Y-59953553D01*
X20613495Y-59917197D01*
X20584265Y-59877785D01*
X20559039Y-59835698D01*
X20538060Y-59791342D01*
X20521530Y-59745142D01*
X20509607Y-59697545D01*
X20502408Y-59649009D01*
X20500000Y-59600000D01*
X20500000Y-57600000D01*
X20502408Y-57550991D01*
X20509607Y-57502455D01*
X20521530Y-57454858D01*
X20538060Y-57408658D01*
X20559039Y-57364302D01*
X20584265Y-57322215D01*
X20613495Y-57282803D01*
X20646447Y-57246447D01*
X20682803Y-57213495D01*
X20722215Y-57184265D01*
X20764302Y-57159039D01*
X20808658Y-57138060D01*
X20854858Y-57121530D01*
X20902455Y-57109607D01*
X20950991Y-57102408D01*
X21000000Y-57100000D01*
X22000000Y-57100000D01*
X22049009Y-57102408D01*
G37*
G04 #@! TD.AperFunction*
G04 #@! TA.AperFunction,ComponentPad*
G36*
X28549009Y-57102408D02*
G01*
X28597545Y-57109607D01*
X28645142Y-57121530D01*
X28691342Y-57138060D01*
X28735698Y-57159039D01*
X28777785Y-57184265D01*
X28817197Y-57213495D01*
X28853553Y-57246447D01*
X28886505Y-57282803D01*
X28915735Y-57322215D01*
X28940961Y-57364302D01*
X28961940Y-57408658D01*
X28978470Y-57454858D01*
X28990393Y-57502455D01*
X28997592Y-57550991D01*
X29000000Y-57600000D01*
X29000000Y-59600000D01*
X28997592Y-59649009D01*
X28990393Y-59697545D01*
X28978470Y-59745142D01*
X28961940Y-59791342D01*
X28940961Y-59835698D01*
X28915735Y-59877785D01*
X28886505Y-59917197D01*
X28853553Y-59953553D01*
X28817197Y-59986505D01*
X28777785Y-60015735D01*
X28735698Y-60040961D01*
X28691342Y-60061940D01*
X28645142Y-60078470D01*
X28597545Y-60090393D01*
X28549009Y-60097592D01*
X28500000Y-60100000D01*
X27500000Y-60100000D01*
X27450991Y-60097592D01*
X27402455Y-60090393D01*
X27354858Y-60078470D01*
X27308658Y-60061940D01*
X27264302Y-60040961D01*
X27222215Y-60015735D01*
X27182803Y-59986505D01*
X27146447Y-59953553D01*
X27113495Y-59917197D01*
X27084265Y-59877785D01*
X27059039Y-59835698D01*
X27038060Y-59791342D01*
X27021530Y-59745142D01*
X27009607Y-59697545D01*
X27002408Y-59649009D01*
X27000000Y-59600000D01*
X27000000Y-57600000D01*
X27002408Y-57550991D01*
X27009607Y-57502455D01*
X27021530Y-57454858D01*
X27038060Y-57408658D01*
X27059039Y-57364302D01*
X27084265Y-57322215D01*
X27113495Y-57282803D01*
X27146447Y-57246447D01*
X27182803Y-57213495D01*
X27222215Y-57184265D01*
X27264302Y-57159039D01*
X27308658Y-57138060D01*
X27354858Y-57121530D01*
X27402455Y-57109607D01*
X27450991Y-57102408D01*
X27500000Y-57100000D01*
X28500000Y-57100000D01*
X28549009Y-57102408D01*
G37*
G04 #@! TD.AperFunction*
G04 #@! TA.AperFunction,ComponentPad*
G36*
X28549009Y-67802408D02*
G01*
X28597545Y-67809607D01*
X28645142Y-67821530D01*
X28691342Y-67838060D01*
X28735698Y-67859039D01*
X28777785Y-67884265D01*
X28817197Y-67913495D01*
X28853553Y-67946447D01*
X28886505Y-67982803D01*
X28915735Y-68022215D01*
X28940961Y-68064302D01*
X28961940Y-68108658D01*
X28978470Y-68154858D01*
X28990393Y-68202455D01*
X28997592Y-68250991D01*
X29000000Y-68300000D01*
X29000000Y-70300000D01*
X28997592Y-70349009D01*
X28990393Y-70397545D01*
X28978470Y-70445142D01*
X28961940Y-70491342D01*
X28940961Y-70535698D01*
X28915735Y-70577785D01*
X28886505Y-70617197D01*
X28853553Y-70653553D01*
X28817197Y-70686505D01*
X28777785Y-70715735D01*
X28735698Y-70740961D01*
X28691342Y-70761940D01*
X28645142Y-70778470D01*
X28597545Y-70790393D01*
X28549009Y-70797592D01*
X28500000Y-70800000D01*
X27500000Y-70800000D01*
X27450991Y-70797592D01*
X27402455Y-70790393D01*
X27354858Y-70778470D01*
X27308658Y-70761940D01*
X27264302Y-70740961D01*
X27222215Y-70715735D01*
X27182803Y-70686505D01*
X27146447Y-70653553D01*
X27113495Y-70617197D01*
X27084265Y-70577785D01*
X27059039Y-70535698D01*
X27038060Y-70491342D01*
X27021530Y-70445142D01*
X27009607Y-70397545D01*
X27002408Y-70349009D01*
X27000000Y-70300000D01*
X27000000Y-68300000D01*
X27002408Y-68250991D01*
X27009607Y-68202455D01*
X27021530Y-68154858D01*
X27038060Y-68108658D01*
X27059039Y-68064302D01*
X27084265Y-68022215D01*
X27113495Y-67982803D01*
X27146447Y-67946447D01*
X27182803Y-67913495D01*
X27222215Y-67884265D01*
X27264302Y-67859039D01*
X27308658Y-67838060D01*
X27354858Y-67821530D01*
X27402455Y-67809607D01*
X27450991Y-67802408D01*
X27500000Y-67800000D01*
X28500000Y-67800000D01*
X28549009Y-67802408D01*
G37*
G04 #@! TD.AperFunction*
G04 #@! TA.AperFunction,ComponentPad*
G36*
X22049009Y-67802408D02*
G01*
X22097545Y-67809607D01*
X22145142Y-67821530D01*
X22191342Y-67838060D01*
X22235698Y-67859039D01*
X22277785Y-67884265D01*
X22317197Y-67913495D01*
X22353553Y-67946447D01*
X22386505Y-67982803D01*
X22415735Y-68022215D01*
X22440961Y-68064302D01*
X22461940Y-68108658D01*
X22478470Y-68154858D01*
X22490393Y-68202455D01*
X22497592Y-68250991D01*
X22500000Y-68300000D01*
X22500000Y-70300000D01*
X22497592Y-70349009D01*
X22490393Y-70397545D01*
X22478470Y-70445142D01*
X22461940Y-70491342D01*
X22440961Y-70535698D01*
X22415735Y-70577785D01*
X22386505Y-70617197D01*
X22353553Y-70653553D01*
X22317197Y-70686505D01*
X22277785Y-70715735D01*
X22235698Y-70740961D01*
X22191342Y-70761940D01*
X22145142Y-70778470D01*
X22097545Y-70790393D01*
X22049009Y-70797592D01*
X22000000Y-70800000D01*
X21000000Y-70800000D01*
X20950991Y-70797592D01*
X20902455Y-70790393D01*
X20854858Y-70778470D01*
X20808658Y-70761940D01*
X20764302Y-70740961D01*
X20722215Y-70715735D01*
X20682803Y-70686505D01*
X20646447Y-70653553D01*
X20613495Y-70617197D01*
X20584265Y-70577785D01*
X20559039Y-70535698D01*
X20538060Y-70491342D01*
X20521530Y-70445142D01*
X20509607Y-70397545D01*
X20502408Y-70349009D01*
X20500000Y-70300000D01*
X20500000Y-68300000D01*
X20502408Y-68250991D01*
X20509607Y-68202455D01*
X20521530Y-68154858D01*
X20538060Y-68108658D01*
X20559039Y-68064302D01*
X20584265Y-68022215D01*
X20613495Y-67982803D01*
X20646447Y-67946447D01*
X20682803Y-67913495D01*
X20722215Y-67884265D01*
X20764302Y-67859039D01*
X20808658Y-67838060D01*
X20854858Y-67821530D01*
X20902455Y-67809607D01*
X20950991Y-67802408D01*
X21000000Y-67800000D01*
X22000000Y-67800000D01*
X22049009Y-67802408D01*
G37*
G04 #@! TD.AperFunction*
G04 #@! TA.AperFunction,ComponentPad*
G36*
X22049009Y-78502408D02*
G01*
X22097545Y-78509607D01*
X22145142Y-78521530D01*
X22191342Y-78538060D01*
X22235698Y-78559039D01*
X22277785Y-78584265D01*
X22317197Y-78613495D01*
X22353553Y-78646447D01*
X22386505Y-78682803D01*
X22415735Y-78722215D01*
X22440961Y-78764302D01*
X22461940Y-78808658D01*
X22478470Y-78854858D01*
X22490393Y-78902455D01*
X22497592Y-78950991D01*
X22500000Y-79000000D01*
X22500000Y-81000000D01*
X22497592Y-81049009D01*
X22490393Y-81097545D01*
X22478470Y-81145142D01*
X22461940Y-81191342D01*
X22440961Y-81235698D01*
X22415735Y-81277785D01*
X22386505Y-81317197D01*
X22353553Y-81353553D01*
X22317197Y-81386505D01*
X22277785Y-81415735D01*
X22235698Y-81440961D01*
X22191342Y-81461940D01*
X22145142Y-81478470D01*
X22097545Y-81490393D01*
X22049009Y-81497592D01*
X22000000Y-81500000D01*
X21000000Y-81500000D01*
X20950991Y-81497592D01*
X20902455Y-81490393D01*
X20854858Y-81478470D01*
X20808658Y-81461940D01*
X20764302Y-81440961D01*
X20722215Y-81415735D01*
X20682803Y-81386505D01*
X20646447Y-81353553D01*
X20613495Y-81317197D01*
X20584265Y-81277785D01*
X20559039Y-81235698D01*
X20538060Y-81191342D01*
X20521530Y-81145142D01*
X20509607Y-81097545D01*
X20502408Y-81049009D01*
X20500000Y-81000000D01*
X20500000Y-79000000D01*
X20502408Y-78950991D01*
X20509607Y-78902455D01*
X20521530Y-78854858D01*
X20538060Y-78808658D01*
X20559039Y-78764302D01*
X20584265Y-78722215D01*
X20613495Y-78682803D01*
X20646447Y-78646447D01*
X20682803Y-78613495D01*
X20722215Y-78584265D01*
X20764302Y-78559039D01*
X20808658Y-78538060D01*
X20854858Y-78521530D01*
X20902455Y-78509607D01*
X20950991Y-78502408D01*
X21000000Y-78500000D01*
X22000000Y-78500000D01*
X22049009Y-78502408D01*
G37*
G04 #@! TD.AperFunction*
G04 #@! TA.AperFunction,ComponentPad*
G36*
X28549009Y-78502408D02*
G01*
X28597545Y-78509607D01*
X28645142Y-78521530D01*
X28691342Y-78538060D01*
X28735698Y-78559039D01*
X28777785Y-78584265D01*
X28817197Y-78613495D01*
X28853553Y-78646447D01*
X28886505Y-78682803D01*
X28915735Y-78722215D01*
X28940961Y-78764302D01*
X28961940Y-78808658D01*
X28978470Y-78854858D01*
X28990393Y-78902455D01*
X28997592Y-78950991D01*
X29000000Y-79000000D01*
X29000000Y-81000000D01*
X28997592Y-81049009D01*
X28990393Y-81097545D01*
X28978470Y-81145142D01*
X28961940Y-81191342D01*
X28940961Y-81235698D01*
X28915735Y-81277785D01*
X28886505Y-81317197D01*
X28853553Y-81353553D01*
X28817197Y-81386505D01*
X28777785Y-81415735D01*
X28735698Y-81440961D01*
X28691342Y-81461940D01*
X28645142Y-81478470D01*
X28597545Y-81490393D01*
X28549009Y-81497592D01*
X28500000Y-81500000D01*
X27500000Y-81500000D01*
X27450991Y-81497592D01*
X27402455Y-81490393D01*
X27354858Y-81478470D01*
X27308658Y-81461940D01*
X27264302Y-81440961D01*
X27222215Y-81415735D01*
X27182803Y-81386505D01*
X27146447Y-81353553D01*
X27113495Y-81317197D01*
X27084265Y-81277785D01*
X27059039Y-81235698D01*
X27038060Y-81191342D01*
X27021530Y-81145142D01*
X27009607Y-81097545D01*
X27002408Y-81049009D01*
X27000000Y-81000000D01*
X27000000Y-79000000D01*
X27002408Y-78950991D01*
X27009607Y-78902455D01*
X27021530Y-78854858D01*
X27038060Y-78808658D01*
X27059039Y-78764302D01*
X27084265Y-78722215D01*
X27113495Y-78682803D01*
X27146447Y-78646447D01*
X27182803Y-78613495D01*
X27222215Y-78584265D01*
X27264302Y-78559039D01*
X27308658Y-78538060D01*
X27354858Y-78521530D01*
X27402455Y-78509607D01*
X27450991Y-78502408D01*
X27500000Y-78500000D01*
X28500000Y-78500000D01*
X28549009Y-78502408D01*
G37*
G04 #@! TD.AperFunction*
G04 #@! TA.AperFunction,ComponentPad*
G36*
X22049009Y-89102408D02*
G01*
X22097545Y-89109607D01*
X22145142Y-89121530D01*
X22191342Y-89138060D01*
X22235698Y-89159039D01*
X22277785Y-89184265D01*
X22317197Y-89213495D01*
X22353553Y-89246447D01*
X22386505Y-89282803D01*
X22415735Y-89322215D01*
X22440961Y-89364302D01*
X22461940Y-89408658D01*
X22478470Y-89454858D01*
X22490393Y-89502455D01*
X22497592Y-89550991D01*
X22500000Y-89600000D01*
X22500000Y-91600000D01*
X22497592Y-91649009D01*
X22490393Y-91697545D01*
X22478470Y-91745142D01*
X22461940Y-91791342D01*
X22440961Y-91835698D01*
X22415735Y-91877785D01*
X22386505Y-91917197D01*
X22353553Y-91953553D01*
X22317197Y-91986505D01*
X22277785Y-92015735D01*
X22235698Y-92040961D01*
X22191342Y-92061940D01*
X22145142Y-92078470D01*
X22097545Y-92090393D01*
X22049009Y-92097592D01*
X22000000Y-92100000D01*
X21000000Y-92100000D01*
X20950991Y-92097592D01*
X20902455Y-92090393D01*
X20854858Y-92078470D01*
X20808658Y-92061940D01*
X20764302Y-92040961D01*
X20722215Y-92015735D01*
X20682803Y-91986505D01*
X20646447Y-91953553D01*
X20613495Y-91917197D01*
X20584265Y-91877785D01*
X20559039Y-91835698D01*
X20538060Y-91791342D01*
X20521530Y-91745142D01*
X20509607Y-91697545D01*
X20502408Y-91649009D01*
X20500000Y-91600000D01*
X20500000Y-89600000D01*
X20502408Y-89550991D01*
X20509607Y-89502455D01*
X20521530Y-89454858D01*
X20538060Y-89408658D01*
X20559039Y-89364302D01*
X20584265Y-89322215D01*
X20613495Y-89282803D01*
X20646447Y-89246447D01*
X20682803Y-89213495D01*
X20722215Y-89184265D01*
X20764302Y-89159039D01*
X20808658Y-89138060D01*
X20854858Y-89121530D01*
X20902455Y-89109607D01*
X20950991Y-89102408D01*
X21000000Y-89100000D01*
X22000000Y-89100000D01*
X22049009Y-89102408D01*
G37*
G04 #@! TD.AperFunction*
G04 #@! TA.AperFunction,ComponentPad*
G36*
X28549009Y-89102408D02*
G01*
X28597545Y-89109607D01*
X28645142Y-89121530D01*
X28691342Y-89138060D01*
X28735698Y-89159039D01*
X28777785Y-89184265D01*
X28817197Y-89213495D01*
X28853553Y-89246447D01*
X28886505Y-89282803D01*
X28915735Y-89322215D01*
X28940961Y-89364302D01*
X28961940Y-89408658D01*
X28978470Y-89454858D01*
X28990393Y-89502455D01*
X28997592Y-89550991D01*
X29000000Y-89600000D01*
X29000000Y-91600000D01*
X28997592Y-91649009D01*
X28990393Y-91697545D01*
X28978470Y-91745142D01*
X28961940Y-91791342D01*
X28940961Y-91835698D01*
X28915735Y-91877785D01*
X28886505Y-91917197D01*
X28853553Y-91953553D01*
X28817197Y-91986505D01*
X28777785Y-92015735D01*
X28735698Y-92040961D01*
X28691342Y-92061940D01*
X28645142Y-92078470D01*
X28597545Y-92090393D01*
X28549009Y-92097592D01*
X28500000Y-92100000D01*
X27500000Y-92100000D01*
X27450991Y-92097592D01*
X27402455Y-92090393D01*
X27354858Y-92078470D01*
X27308658Y-92061940D01*
X27264302Y-92040961D01*
X27222215Y-92015735D01*
X27182803Y-91986505D01*
X27146447Y-91953553D01*
X27113495Y-91917197D01*
X27084265Y-91877785D01*
X27059039Y-91835698D01*
X27038060Y-91791342D01*
X27021530Y-91745142D01*
X27009607Y-91697545D01*
X27002408Y-91649009D01*
X27000000Y-91600000D01*
X27000000Y-89600000D01*
X27002408Y-89550991D01*
X27009607Y-89502455D01*
X27021530Y-89454858D01*
X27038060Y-89408658D01*
X27059039Y-89364302D01*
X27084265Y-89322215D01*
X27113495Y-89282803D01*
X27146447Y-89246447D01*
X27182803Y-89213495D01*
X27222215Y-89184265D01*
X27264302Y-89159039D01*
X27308658Y-89138060D01*
X27354858Y-89121530D01*
X27402455Y-89109607D01*
X27450991Y-89102408D01*
X27500000Y-89100000D01*
X28500000Y-89100000D01*
X28549009Y-89102408D01*
G37*
G04 #@! TD.AperFunction*
G04 #@! TA.AperFunction,ComponentPad*
G36*
X28549009Y-99802408D02*
G01*
X28597545Y-99809607D01*
X28645142Y-99821530D01*
X28691342Y-99838060D01*
X28735698Y-99859039D01*
X28777785Y-99884265D01*
X28817197Y-99913495D01*
X28853553Y-99946447D01*
X28886505Y-99982803D01*
X28915735Y-100022215D01*
X28940961Y-100064302D01*
X28961940Y-100108658D01*
X28978470Y-100154858D01*
X28990393Y-100202455D01*
X28997592Y-100250991D01*
X29000000Y-100300000D01*
X29000000Y-102300000D01*
X28997592Y-102349009D01*
X28990393Y-102397545D01*
X28978470Y-102445142D01*
X28961940Y-102491342D01*
X28940961Y-102535698D01*
X28915735Y-102577785D01*
X28886505Y-102617197D01*
X28853553Y-102653553D01*
X28817197Y-102686505D01*
X28777785Y-102715735D01*
X28735698Y-102740961D01*
X28691342Y-102761940D01*
X28645142Y-102778470D01*
X28597545Y-102790393D01*
X28549009Y-102797592D01*
X28500000Y-102800000D01*
X27500000Y-102800000D01*
X27450991Y-102797592D01*
X27402455Y-102790393D01*
X27354858Y-102778470D01*
X27308658Y-102761940D01*
X27264302Y-102740961D01*
X27222215Y-102715735D01*
X27182803Y-102686505D01*
X27146447Y-102653553D01*
X27113495Y-102617197D01*
X27084265Y-102577785D01*
X27059039Y-102535698D01*
X27038060Y-102491342D01*
X27021530Y-102445142D01*
X27009607Y-102397545D01*
X27002408Y-102349009D01*
X27000000Y-102300000D01*
X27000000Y-100300000D01*
X27002408Y-100250991D01*
X27009607Y-100202455D01*
X27021530Y-100154858D01*
X27038060Y-100108658D01*
X27059039Y-100064302D01*
X27084265Y-100022215D01*
X27113495Y-99982803D01*
X27146447Y-99946447D01*
X27182803Y-99913495D01*
X27222215Y-99884265D01*
X27264302Y-99859039D01*
X27308658Y-99838060D01*
X27354858Y-99821530D01*
X27402455Y-99809607D01*
X27450991Y-99802408D01*
X27500000Y-99800000D01*
X28500000Y-99800000D01*
X28549009Y-99802408D01*
G37*
G04 #@! TD.AperFunction*
G04 #@! TA.AperFunction,ComponentPad*
G36*
X22049009Y-99802408D02*
G01*
X22097545Y-99809607D01*
X22145142Y-99821530D01*
X22191342Y-99838060D01*
X22235698Y-99859039D01*
X22277785Y-99884265D01*
X22317197Y-99913495D01*
X22353553Y-99946447D01*
X22386505Y-99982803D01*
X22415735Y-100022215D01*
X22440961Y-100064302D01*
X22461940Y-100108658D01*
X22478470Y-100154858D01*
X22490393Y-100202455D01*
X22497592Y-100250991D01*
X22500000Y-100300000D01*
X22500000Y-102300000D01*
X22497592Y-102349009D01*
X22490393Y-102397545D01*
X22478470Y-102445142D01*
X22461940Y-102491342D01*
X22440961Y-102535698D01*
X22415735Y-102577785D01*
X22386505Y-102617197D01*
X22353553Y-102653553D01*
X22317197Y-102686505D01*
X22277785Y-102715735D01*
X22235698Y-102740961D01*
X22191342Y-102761940D01*
X22145142Y-102778470D01*
X22097545Y-102790393D01*
X22049009Y-102797592D01*
X22000000Y-102800000D01*
X21000000Y-102800000D01*
X20950991Y-102797592D01*
X20902455Y-102790393D01*
X20854858Y-102778470D01*
X20808658Y-102761940D01*
X20764302Y-102740961D01*
X20722215Y-102715735D01*
X20682803Y-102686505D01*
X20646447Y-102653553D01*
X20613495Y-102617197D01*
X20584265Y-102577785D01*
X20559039Y-102535698D01*
X20538060Y-102491342D01*
X20521530Y-102445142D01*
X20509607Y-102397545D01*
X20502408Y-102349009D01*
X20500000Y-102300000D01*
X20500000Y-100300000D01*
X20502408Y-100250991D01*
X20509607Y-100202455D01*
X20521530Y-100154858D01*
X20538060Y-100108658D01*
X20559039Y-100064302D01*
X20584265Y-100022215D01*
X20613495Y-99982803D01*
X20646447Y-99946447D01*
X20682803Y-99913495D01*
X20722215Y-99884265D01*
X20764302Y-99859039D01*
X20808658Y-99838060D01*
X20854858Y-99821530D01*
X20902455Y-99809607D01*
X20950991Y-99802408D01*
X21000000Y-99800000D01*
X22000000Y-99800000D01*
X22049009Y-99802408D01*
G37*
G04 #@! TD.AperFunction*
G04 #@! TA.AperFunction,ComponentPad*
G36*
X28549009Y-110502408D02*
G01*
X28597545Y-110509607D01*
X28645142Y-110521530D01*
X28691342Y-110538060D01*
X28735698Y-110559039D01*
X28777785Y-110584265D01*
X28817197Y-110613495D01*
X28853553Y-110646447D01*
X28886505Y-110682803D01*
X28915735Y-110722215D01*
X28940961Y-110764302D01*
X28961940Y-110808658D01*
X28978470Y-110854858D01*
X28990393Y-110902455D01*
X28997592Y-110950991D01*
X29000000Y-111000000D01*
X29000000Y-113000000D01*
X28997592Y-113049009D01*
X28990393Y-113097545D01*
X28978470Y-113145142D01*
X28961940Y-113191342D01*
X28940961Y-113235698D01*
X28915735Y-113277785D01*
X28886505Y-113317197D01*
X28853553Y-113353553D01*
X28817197Y-113386505D01*
X28777785Y-113415735D01*
X28735698Y-113440961D01*
X28691342Y-113461940D01*
X28645142Y-113478470D01*
X28597545Y-113490393D01*
X28549009Y-113497592D01*
X28500000Y-113500000D01*
X27500000Y-113500000D01*
X27450991Y-113497592D01*
X27402455Y-113490393D01*
X27354858Y-113478470D01*
X27308658Y-113461940D01*
X27264302Y-113440961D01*
X27222215Y-113415735D01*
X27182803Y-113386505D01*
X27146447Y-113353553D01*
X27113495Y-113317197D01*
X27084265Y-113277785D01*
X27059039Y-113235698D01*
X27038060Y-113191342D01*
X27021530Y-113145142D01*
X27009607Y-113097545D01*
X27002408Y-113049009D01*
X27000000Y-113000000D01*
X27000000Y-111000000D01*
X27002408Y-110950991D01*
X27009607Y-110902455D01*
X27021530Y-110854858D01*
X27038060Y-110808658D01*
X27059039Y-110764302D01*
X27084265Y-110722215D01*
X27113495Y-110682803D01*
X27146447Y-110646447D01*
X27182803Y-110613495D01*
X27222215Y-110584265D01*
X27264302Y-110559039D01*
X27308658Y-110538060D01*
X27354858Y-110521530D01*
X27402455Y-110509607D01*
X27450991Y-110502408D01*
X27500000Y-110500000D01*
X28500000Y-110500000D01*
X28549009Y-110502408D01*
G37*
G04 #@! TD.AperFunction*
G04 #@! TA.AperFunction,ComponentPad*
G36*
X22049009Y-110502408D02*
G01*
X22097545Y-110509607D01*
X22145142Y-110521530D01*
X22191342Y-110538060D01*
X22235698Y-110559039D01*
X22277785Y-110584265D01*
X22317197Y-110613495D01*
X22353553Y-110646447D01*
X22386505Y-110682803D01*
X22415735Y-110722215D01*
X22440961Y-110764302D01*
X22461940Y-110808658D01*
X22478470Y-110854858D01*
X22490393Y-110902455D01*
X22497592Y-110950991D01*
X22500000Y-111000000D01*
X22500000Y-113000000D01*
X22497592Y-113049009D01*
X22490393Y-113097545D01*
X22478470Y-113145142D01*
X22461940Y-113191342D01*
X22440961Y-113235698D01*
X22415735Y-113277785D01*
X22386505Y-113317197D01*
X22353553Y-113353553D01*
X22317197Y-113386505D01*
X22277785Y-113415735D01*
X22235698Y-113440961D01*
X22191342Y-113461940D01*
X22145142Y-113478470D01*
X22097545Y-113490393D01*
X22049009Y-113497592D01*
X22000000Y-113500000D01*
X21000000Y-113500000D01*
X20950991Y-113497592D01*
X20902455Y-113490393D01*
X20854858Y-113478470D01*
X20808658Y-113461940D01*
X20764302Y-113440961D01*
X20722215Y-113415735D01*
X20682803Y-113386505D01*
X20646447Y-113353553D01*
X20613495Y-113317197D01*
X20584265Y-113277785D01*
X20559039Y-113235698D01*
X20538060Y-113191342D01*
X20521530Y-113145142D01*
X20509607Y-113097545D01*
X20502408Y-113049009D01*
X20500000Y-113000000D01*
X20500000Y-111000000D01*
X20502408Y-110950991D01*
X20509607Y-110902455D01*
X20521530Y-110854858D01*
X20538060Y-110808658D01*
X20559039Y-110764302D01*
X20584265Y-110722215D01*
X20613495Y-110682803D01*
X20646447Y-110646447D01*
X20682803Y-110613495D01*
X20722215Y-110584265D01*
X20764302Y-110559039D01*
X20808658Y-110538060D01*
X20854858Y-110521530D01*
X20902455Y-110509607D01*
X20950991Y-110502408D01*
X21000000Y-110500000D01*
X22000000Y-110500000D01*
X22049009Y-110502408D01*
G37*
G04 #@! TD.AperFunction*
G04 #@! TA.AperFunction,ComponentPad*
G36*
X38049009Y-46762408D02*
G01*
X38097545Y-46769607D01*
X38145142Y-46781530D01*
X38191342Y-46798060D01*
X38235698Y-46819039D01*
X38277785Y-46844265D01*
X38317197Y-46873495D01*
X38353553Y-46906447D01*
X38386505Y-46942803D01*
X38415735Y-46982215D01*
X38440961Y-47024302D01*
X38461940Y-47068658D01*
X38478470Y-47114858D01*
X38490393Y-47162455D01*
X38497592Y-47210991D01*
X38500000Y-47260000D01*
X38500000Y-49260000D01*
X38497592Y-49309009D01*
X38490393Y-49357545D01*
X38478470Y-49405142D01*
X38461940Y-49451342D01*
X38440961Y-49495698D01*
X38415735Y-49537785D01*
X38386505Y-49577197D01*
X38353553Y-49613553D01*
X38317197Y-49646505D01*
X38277785Y-49675735D01*
X38235698Y-49700961D01*
X38191342Y-49721940D01*
X38145142Y-49738470D01*
X38097545Y-49750393D01*
X38049009Y-49757592D01*
X38000000Y-49760000D01*
X37000000Y-49760000D01*
X36950991Y-49757592D01*
X36902455Y-49750393D01*
X36854858Y-49738470D01*
X36808658Y-49721940D01*
X36764302Y-49700961D01*
X36722215Y-49675735D01*
X36682803Y-49646505D01*
X36646447Y-49613553D01*
X36613495Y-49577197D01*
X36584265Y-49537785D01*
X36559039Y-49495698D01*
X36538060Y-49451342D01*
X36521530Y-49405142D01*
X36509607Y-49357545D01*
X36502408Y-49309009D01*
X36500000Y-49260000D01*
X36500000Y-47260000D01*
X36502408Y-47210991D01*
X36509607Y-47162455D01*
X36521530Y-47114858D01*
X36538060Y-47068658D01*
X36559039Y-47024302D01*
X36584265Y-46982215D01*
X36613495Y-46942803D01*
X36646447Y-46906447D01*
X36682803Y-46873495D01*
X36722215Y-46844265D01*
X36764302Y-46819039D01*
X36808658Y-46798060D01*
X36854858Y-46781530D01*
X36902455Y-46769607D01*
X36950991Y-46762408D01*
X37000000Y-46760000D01*
X38000000Y-46760000D01*
X38049009Y-46762408D01*
G37*
G04 #@! TD.AperFunction*
G04 #@! TA.AperFunction,ComponentPad*
G36*
X44549009Y-46762408D02*
G01*
X44597545Y-46769607D01*
X44645142Y-46781530D01*
X44691342Y-46798060D01*
X44735698Y-46819039D01*
X44777785Y-46844265D01*
X44817197Y-46873495D01*
X44853553Y-46906447D01*
X44886505Y-46942803D01*
X44915735Y-46982215D01*
X44940961Y-47024302D01*
X44961940Y-47068658D01*
X44978470Y-47114858D01*
X44990393Y-47162455D01*
X44997592Y-47210991D01*
X45000000Y-47260000D01*
X45000000Y-49260000D01*
X44997592Y-49309009D01*
X44990393Y-49357545D01*
X44978470Y-49405142D01*
X44961940Y-49451342D01*
X44940961Y-49495698D01*
X44915735Y-49537785D01*
X44886505Y-49577197D01*
X44853553Y-49613553D01*
X44817197Y-49646505D01*
X44777785Y-49675735D01*
X44735698Y-49700961D01*
X44691342Y-49721940D01*
X44645142Y-49738470D01*
X44597545Y-49750393D01*
X44549009Y-49757592D01*
X44500000Y-49760000D01*
X43500000Y-49760000D01*
X43450991Y-49757592D01*
X43402455Y-49750393D01*
X43354858Y-49738470D01*
X43308658Y-49721940D01*
X43264302Y-49700961D01*
X43222215Y-49675735D01*
X43182803Y-49646505D01*
X43146447Y-49613553D01*
X43113495Y-49577197D01*
X43084265Y-49537785D01*
X43059039Y-49495698D01*
X43038060Y-49451342D01*
X43021530Y-49405142D01*
X43009607Y-49357545D01*
X43002408Y-49309009D01*
X43000000Y-49260000D01*
X43000000Y-47260000D01*
X43002408Y-47210991D01*
X43009607Y-47162455D01*
X43021530Y-47114858D01*
X43038060Y-47068658D01*
X43059039Y-47024302D01*
X43084265Y-46982215D01*
X43113495Y-46942803D01*
X43146447Y-46906447D01*
X43182803Y-46873495D01*
X43222215Y-46844265D01*
X43264302Y-46819039D01*
X43308658Y-46798060D01*
X43354858Y-46781530D01*
X43402455Y-46769607D01*
X43450991Y-46762408D01*
X43500000Y-46760000D01*
X44500000Y-46760000D01*
X44549009Y-46762408D01*
G37*
G04 #@! TD.AperFunction*
G04 #@! TA.AperFunction,ComponentPad*
G36*
X44549009Y-57102408D02*
G01*
X44597545Y-57109607D01*
X44645142Y-57121530D01*
X44691342Y-57138060D01*
X44735698Y-57159039D01*
X44777785Y-57184265D01*
X44817197Y-57213495D01*
X44853553Y-57246447D01*
X44886505Y-57282803D01*
X44915735Y-57322215D01*
X44940961Y-57364302D01*
X44961940Y-57408658D01*
X44978470Y-57454858D01*
X44990393Y-57502455D01*
X44997592Y-57550991D01*
X45000000Y-57600000D01*
X45000000Y-59600000D01*
X44997592Y-59649009D01*
X44990393Y-59697545D01*
X44978470Y-59745142D01*
X44961940Y-59791342D01*
X44940961Y-59835698D01*
X44915735Y-59877785D01*
X44886505Y-59917197D01*
X44853553Y-59953553D01*
X44817197Y-59986505D01*
X44777785Y-60015735D01*
X44735698Y-60040961D01*
X44691342Y-60061940D01*
X44645142Y-60078470D01*
X44597545Y-60090393D01*
X44549009Y-60097592D01*
X44500000Y-60100000D01*
X43500000Y-60100000D01*
X43450991Y-60097592D01*
X43402455Y-60090393D01*
X43354858Y-60078470D01*
X43308658Y-60061940D01*
X43264302Y-60040961D01*
X43222215Y-60015735D01*
X43182803Y-59986505D01*
X43146447Y-59953553D01*
X43113495Y-59917197D01*
X43084265Y-59877785D01*
X43059039Y-59835698D01*
X43038060Y-59791342D01*
X43021530Y-59745142D01*
X43009607Y-59697545D01*
X43002408Y-59649009D01*
X43000000Y-59600000D01*
X43000000Y-57600000D01*
X43002408Y-57550991D01*
X43009607Y-57502455D01*
X43021530Y-57454858D01*
X43038060Y-57408658D01*
X43059039Y-57364302D01*
X43084265Y-57322215D01*
X43113495Y-57282803D01*
X43146447Y-57246447D01*
X43182803Y-57213495D01*
X43222215Y-57184265D01*
X43264302Y-57159039D01*
X43308658Y-57138060D01*
X43354858Y-57121530D01*
X43402455Y-57109607D01*
X43450991Y-57102408D01*
X43500000Y-57100000D01*
X44500000Y-57100000D01*
X44549009Y-57102408D01*
G37*
G04 #@! TD.AperFunction*
G04 #@! TA.AperFunction,ComponentPad*
G36*
X38049009Y-57102408D02*
G01*
X38097545Y-57109607D01*
X38145142Y-57121530D01*
X38191342Y-57138060D01*
X38235698Y-57159039D01*
X38277785Y-57184265D01*
X38317197Y-57213495D01*
X38353553Y-57246447D01*
X38386505Y-57282803D01*
X38415735Y-57322215D01*
X38440961Y-57364302D01*
X38461940Y-57408658D01*
X38478470Y-57454858D01*
X38490393Y-57502455D01*
X38497592Y-57550991D01*
X38500000Y-57600000D01*
X38500000Y-59600000D01*
X38497592Y-59649009D01*
X38490393Y-59697545D01*
X38478470Y-59745142D01*
X38461940Y-59791342D01*
X38440961Y-59835698D01*
X38415735Y-59877785D01*
X38386505Y-59917197D01*
X38353553Y-59953553D01*
X38317197Y-59986505D01*
X38277785Y-60015735D01*
X38235698Y-60040961D01*
X38191342Y-60061940D01*
X38145142Y-60078470D01*
X38097545Y-60090393D01*
X38049009Y-60097592D01*
X38000000Y-60100000D01*
X37000000Y-60100000D01*
X36950991Y-60097592D01*
X36902455Y-60090393D01*
X36854858Y-60078470D01*
X36808658Y-60061940D01*
X36764302Y-60040961D01*
X36722215Y-60015735D01*
X36682803Y-59986505D01*
X36646447Y-59953553D01*
X36613495Y-59917197D01*
X36584265Y-59877785D01*
X36559039Y-59835698D01*
X36538060Y-59791342D01*
X36521530Y-59745142D01*
X36509607Y-59697545D01*
X36502408Y-59649009D01*
X36500000Y-59600000D01*
X36500000Y-57600000D01*
X36502408Y-57550991D01*
X36509607Y-57502455D01*
X36521530Y-57454858D01*
X36538060Y-57408658D01*
X36559039Y-57364302D01*
X36584265Y-57322215D01*
X36613495Y-57282803D01*
X36646447Y-57246447D01*
X36682803Y-57213495D01*
X36722215Y-57184265D01*
X36764302Y-57159039D01*
X36808658Y-57138060D01*
X36854858Y-57121530D01*
X36902455Y-57109607D01*
X36950991Y-57102408D01*
X37000000Y-57100000D01*
X38000000Y-57100000D01*
X38049009Y-57102408D01*
G37*
G04 #@! TD.AperFunction*
G04 #@! TA.AperFunction,ComponentPad*
G36*
X38049009Y-67802408D02*
G01*
X38097545Y-67809607D01*
X38145142Y-67821530D01*
X38191342Y-67838060D01*
X38235698Y-67859039D01*
X38277785Y-67884265D01*
X38317197Y-67913495D01*
X38353553Y-67946447D01*
X38386505Y-67982803D01*
X38415735Y-68022215D01*
X38440961Y-68064302D01*
X38461940Y-68108658D01*
X38478470Y-68154858D01*
X38490393Y-68202455D01*
X38497592Y-68250991D01*
X38500000Y-68300000D01*
X38500000Y-70300000D01*
X38497592Y-70349009D01*
X38490393Y-70397545D01*
X38478470Y-70445142D01*
X38461940Y-70491342D01*
X38440961Y-70535698D01*
X38415735Y-70577785D01*
X38386505Y-70617197D01*
X38353553Y-70653553D01*
X38317197Y-70686505D01*
X38277785Y-70715735D01*
X38235698Y-70740961D01*
X38191342Y-70761940D01*
X38145142Y-70778470D01*
X38097545Y-70790393D01*
X38049009Y-70797592D01*
X38000000Y-70800000D01*
X37000000Y-70800000D01*
X36950991Y-70797592D01*
X36902455Y-70790393D01*
X36854858Y-70778470D01*
X36808658Y-70761940D01*
X36764302Y-70740961D01*
X36722215Y-70715735D01*
X36682803Y-70686505D01*
X36646447Y-70653553D01*
X36613495Y-70617197D01*
X36584265Y-70577785D01*
X36559039Y-70535698D01*
X36538060Y-70491342D01*
X36521530Y-70445142D01*
X36509607Y-70397545D01*
X36502408Y-70349009D01*
X36500000Y-70300000D01*
X36500000Y-68300000D01*
X36502408Y-68250991D01*
X36509607Y-68202455D01*
X36521530Y-68154858D01*
X36538060Y-68108658D01*
X36559039Y-68064302D01*
X36584265Y-68022215D01*
X36613495Y-67982803D01*
X36646447Y-67946447D01*
X36682803Y-67913495D01*
X36722215Y-67884265D01*
X36764302Y-67859039D01*
X36808658Y-67838060D01*
X36854858Y-67821530D01*
X36902455Y-67809607D01*
X36950991Y-67802408D01*
X37000000Y-67800000D01*
X38000000Y-67800000D01*
X38049009Y-67802408D01*
G37*
G04 #@! TD.AperFunction*
G04 #@! TA.AperFunction,ComponentPad*
G36*
X44549009Y-67802408D02*
G01*
X44597545Y-67809607D01*
X44645142Y-67821530D01*
X44691342Y-67838060D01*
X44735698Y-67859039D01*
X44777785Y-67884265D01*
X44817197Y-67913495D01*
X44853553Y-67946447D01*
X44886505Y-67982803D01*
X44915735Y-68022215D01*
X44940961Y-68064302D01*
X44961940Y-68108658D01*
X44978470Y-68154858D01*
X44990393Y-68202455D01*
X44997592Y-68250991D01*
X45000000Y-68300000D01*
X45000000Y-70300000D01*
X44997592Y-70349009D01*
X44990393Y-70397545D01*
X44978470Y-70445142D01*
X44961940Y-70491342D01*
X44940961Y-70535698D01*
X44915735Y-70577785D01*
X44886505Y-70617197D01*
X44853553Y-70653553D01*
X44817197Y-70686505D01*
X44777785Y-70715735D01*
X44735698Y-70740961D01*
X44691342Y-70761940D01*
X44645142Y-70778470D01*
X44597545Y-70790393D01*
X44549009Y-70797592D01*
X44500000Y-70800000D01*
X43500000Y-70800000D01*
X43450991Y-70797592D01*
X43402455Y-70790393D01*
X43354858Y-70778470D01*
X43308658Y-70761940D01*
X43264302Y-70740961D01*
X43222215Y-70715735D01*
X43182803Y-70686505D01*
X43146447Y-70653553D01*
X43113495Y-70617197D01*
X43084265Y-70577785D01*
X43059039Y-70535698D01*
X43038060Y-70491342D01*
X43021530Y-70445142D01*
X43009607Y-70397545D01*
X43002408Y-70349009D01*
X43000000Y-70300000D01*
X43000000Y-68300000D01*
X43002408Y-68250991D01*
X43009607Y-68202455D01*
X43021530Y-68154858D01*
X43038060Y-68108658D01*
X43059039Y-68064302D01*
X43084265Y-68022215D01*
X43113495Y-67982803D01*
X43146447Y-67946447D01*
X43182803Y-67913495D01*
X43222215Y-67884265D01*
X43264302Y-67859039D01*
X43308658Y-67838060D01*
X43354858Y-67821530D01*
X43402455Y-67809607D01*
X43450991Y-67802408D01*
X43500000Y-67800000D01*
X44500000Y-67800000D01*
X44549009Y-67802408D01*
G37*
G04 #@! TD.AperFunction*
G04 #@! TA.AperFunction,ComponentPad*
G36*
X44549009Y-78502408D02*
G01*
X44597545Y-78509607D01*
X44645142Y-78521530D01*
X44691342Y-78538060D01*
X44735698Y-78559039D01*
X44777785Y-78584265D01*
X44817197Y-78613495D01*
X44853553Y-78646447D01*
X44886505Y-78682803D01*
X44915735Y-78722215D01*
X44940961Y-78764302D01*
X44961940Y-78808658D01*
X44978470Y-78854858D01*
X44990393Y-78902455D01*
X44997592Y-78950991D01*
X45000000Y-79000000D01*
X45000000Y-81000000D01*
X44997592Y-81049009D01*
X44990393Y-81097545D01*
X44978470Y-81145142D01*
X44961940Y-81191342D01*
X44940961Y-81235698D01*
X44915735Y-81277785D01*
X44886505Y-81317197D01*
X44853553Y-81353553D01*
X44817197Y-81386505D01*
X44777785Y-81415735D01*
X44735698Y-81440961D01*
X44691342Y-81461940D01*
X44645142Y-81478470D01*
X44597545Y-81490393D01*
X44549009Y-81497592D01*
X44500000Y-81500000D01*
X43500000Y-81500000D01*
X43450991Y-81497592D01*
X43402455Y-81490393D01*
X43354858Y-81478470D01*
X43308658Y-81461940D01*
X43264302Y-81440961D01*
X43222215Y-81415735D01*
X43182803Y-81386505D01*
X43146447Y-81353553D01*
X43113495Y-81317197D01*
X43084265Y-81277785D01*
X43059039Y-81235698D01*
X43038060Y-81191342D01*
X43021530Y-81145142D01*
X43009607Y-81097545D01*
X43002408Y-81049009D01*
X43000000Y-81000000D01*
X43000000Y-79000000D01*
X43002408Y-78950991D01*
X43009607Y-78902455D01*
X43021530Y-78854858D01*
X43038060Y-78808658D01*
X43059039Y-78764302D01*
X43084265Y-78722215D01*
X43113495Y-78682803D01*
X43146447Y-78646447D01*
X43182803Y-78613495D01*
X43222215Y-78584265D01*
X43264302Y-78559039D01*
X43308658Y-78538060D01*
X43354858Y-78521530D01*
X43402455Y-78509607D01*
X43450991Y-78502408D01*
X43500000Y-78500000D01*
X44500000Y-78500000D01*
X44549009Y-78502408D01*
G37*
G04 #@! TD.AperFunction*
G04 #@! TA.AperFunction,ComponentPad*
G36*
X38049009Y-78502408D02*
G01*
X38097545Y-78509607D01*
X38145142Y-78521530D01*
X38191342Y-78538060D01*
X38235698Y-78559039D01*
X38277785Y-78584265D01*
X38317197Y-78613495D01*
X38353553Y-78646447D01*
X38386505Y-78682803D01*
X38415735Y-78722215D01*
X38440961Y-78764302D01*
X38461940Y-78808658D01*
X38478470Y-78854858D01*
X38490393Y-78902455D01*
X38497592Y-78950991D01*
X38500000Y-79000000D01*
X38500000Y-81000000D01*
X38497592Y-81049009D01*
X38490393Y-81097545D01*
X38478470Y-81145142D01*
X38461940Y-81191342D01*
X38440961Y-81235698D01*
X38415735Y-81277785D01*
X38386505Y-81317197D01*
X38353553Y-81353553D01*
X38317197Y-81386505D01*
X38277785Y-81415735D01*
X38235698Y-81440961D01*
X38191342Y-81461940D01*
X38145142Y-81478470D01*
X38097545Y-81490393D01*
X38049009Y-81497592D01*
X38000000Y-81500000D01*
X37000000Y-81500000D01*
X36950991Y-81497592D01*
X36902455Y-81490393D01*
X36854858Y-81478470D01*
X36808658Y-81461940D01*
X36764302Y-81440961D01*
X36722215Y-81415735D01*
X36682803Y-81386505D01*
X36646447Y-81353553D01*
X36613495Y-81317197D01*
X36584265Y-81277785D01*
X36559039Y-81235698D01*
X36538060Y-81191342D01*
X36521530Y-81145142D01*
X36509607Y-81097545D01*
X36502408Y-81049009D01*
X36500000Y-81000000D01*
X36500000Y-79000000D01*
X36502408Y-78950991D01*
X36509607Y-78902455D01*
X36521530Y-78854858D01*
X36538060Y-78808658D01*
X36559039Y-78764302D01*
X36584265Y-78722215D01*
X36613495Y-78682803D01*
X36646447Y-78646447D01*
X36682803Y-78613495D01*
X36722215Y-78584265D01*
X36764302Y-78559039D01*
X36808658Y-78538060D01*
X36854858Y-78521530D01*
X36902455Y-78509607D01*
X36950991Y-78502408D01*
X37000000Y-78500000D01*
X38000000Y-78500000D01*
X38049009Y-78502408D01*
G37*
G04 #@! TD.AperFunction*
G04 #@! TA.AperFunction,ComponentPad*
G36*
X44549009Y-89102408D02*
G01*
X44597545Y-89109607D01*
X44645142Y-89121530D01*
X44691342Y-89138060D01*
X44735698Y-89159039D01*
X44777785Y-89184265D01*
X44817197Y-89213495D01*
X44853553Y-89246447D01*
X44886505Y-89282803D01*
X44915735Y-89322215D01*
X44940961Y-89364302D01*
X44961940Y-89408658D01*
X44978470Y-89454858D01*
X44990393Y-89502455D01*
X44997592Y-89550991D01*
X45000000Y-89600000D01*
X45000000Y-91600000D01*
X44997592Y-91649009D01*
X44990393Y-91697545D01*
X44978470Y-91745142D01*
X44961940Y-91791342D01*
X44940961Y-91835698D01*
X44915735Y-91877785D01*
X44886505Y-91917197D01*
X44853553Y-91953553D01*
X44817197Y-91986505D01*
X44777785Y-92015735D01*
X44735698Y-92040961D01*
X44691342Y-92061940D01*
X44645142Y-92078470D01*
X44597545Y-92090393D01*
X44549009Y-92097592D01*
X44500000Y-92100000D01*
X43500000Y-92100000D01*
X43450991Y-92097592D01*
X43402455Y-92090393D01*
X43354858Y-92078470D01*
X43308658Y-92061940D01*
X43264302Y-92040961D01*
X43222215Y-92015735D01*
X43182803Y-91986505D01*
X43146447Y-91953553D01*
X43113495Y-91917197D01*
X43084265Y-91877785D01*
X43059039Y-91835698D01*
X43038060Y-91791342D01*
X43021530Y-91745142D01*
X43009607Y-91697545D01*
X43002408Y-91649009D01*
X43000000Y-91600000D01*
X43000000Y-89600000D01*
X43002408Y-89550991D01*
X43009607Y-89502455D01*
X43021530Y-89454858D01*
X43038060Y-89408658D01*
X43059039Y-89364302D01*
X43084265Y-89322215D01*
X43113495Y-89282803D01*
X43146447Y-89246447D01*
X43182803Y-89213495D01*
X43222215Y-89184265D01*
X43264302Y-89159039D01*
X43308658Y-89138060D01*
X43354858Y-89121530D01*
X43402455Y-89109607D01*
X43450991Y-89102408D01*
X43500000Y-89100000D01*
X44500000Y-89100000D01*
X44549009Y-89102408D01*
G37*
G04 #@! TD.AperFunction*
G04 #@! TA.AperFunction,ComponentPad*
G36*
X38049009Y-89102408D02*
G01*
X38097545Y-89109607D01*
X38145142Y-89121530D01*
X38191342Y-89138060D01*
X38235698Y-89159039D01*
X38277785Y-89184265D01*
X38317197Y-89213495D01*
X38353553Y-89246447D01*
X38386505Y-89282803D01*
X38415735Y-89322215D01*
X38440961Y-89364302D01*
X38461940Y-89408658D01*
X38478470Y-89454858D01*
X38490393Y-89502455D01*
X38497592Y-89550991D01*
X38500000Y-89600000D01*
X38500000Y-91600000D01*
X38497592Y-91649009D01*
X38490393Y-91697545D01*
X38478470Y-91745142D01*
X38461940Y-91791342D01*
X38440961Y-91835698D01*
X38415735Y-91877785D01*
X38386505Y-91917197D01*
X38353553Y-91953553D01*
X38317197Y-91986505D01*
X38277785Y-92015735D01*
X38235698Y-92040961D01*
X38191342Y-92061940D01*
X38145142Y-92078470D01*
X38097545Y-92090393D01*
X38049009Y-92097592D01*
X38000000Y-92100000D01*
X37000000Y-92100000D01*
X36950991Y-92097592D01*
X36902455Y-92090393D01*
X36854858Y-92078470D01*
X36808658Y-92061940D01*
X36764302Y-92040961D01*
X36722215Y-92015735D01*
X36682803Y-91986505D01*
X36646447Y-91953553D01*
X36613495Y-91917197D01*
X36584265Y-91877785D01*
X36559039Y-91835698D01*
X36538060Y-91791342D01*
X36521530Y-91745142D01*
X36509607Y-91697545D01*
X36502408Y-91649009D01*
X36500000Y-91600000D01*
X36500000Y-89600000D01*
X36502408Y-89550991D01*
X36509607Y-89502455D01*
X36521530Y-89454858D01*
X36538060Y-89408658D01*
X36559039Y-89364302D01*
X36584265Y-89322215D01*
X36613495Y-89282803D01*
X36646447Y-89246447D01*
X36682803Y-89213495D01*
X36722215Y-89184265D01*
X36764302Y-89159039D01*
X36808658Y-89138060D01*
X36854858Y-89121530D01*
X36902455Y-89109607D01*
X36950991Y-89102408D01*
X37000000Y-89100000D01*
X38000000Y-89100000D01*
X38049009Y-89102408D01*
G37*
G04 #@! TD.AperFunction*
G04 #@! TA.AperFunction,ComponentPad*
G36*
X44549009Y-99802408D02*
G01*
X44597545Y-99809607D01*
X44645142Y-99821530D01*
X44691342Y-99838060D01*
X44735698Y-99859039D01*
X44777785Y-99884265D01*
X44817197Y-99913495D01*
X44853553Y-99946447D01*
X44886505Y-99982803D01*
X44915735Y-100022215D01*
X44940961Y-100064302D01*
X44961940Y-100108658D01*
X44978470Y-100154858D01*
X44990393Y-100202455D01*
X44997592Y-100250991D01*
X45000000Y-100300000D01*
X45000000Y-102300000D01*
X44997592Y-102349009D01*
X44990393Y-102397545D01*
X44978470Y-102445142D01*
X44961940Y-102491342D01*
X44940961Y-102535698D01*
X44915735Y-102577785D01*
X44886505Y-102617197D01*
X44853553Y-102653553D01*
X44817197Y-102686505D01*
X44777785Y-102715735D01*
X44735698Y-102740961D01*
X44691342Y-102761940D01*
X44645142Y-102778470D01*
X44597545Y-102790393D01*
X44549009Y-102797592D01*
X44500000Y-102800000D01*
X43500000Y-102800000D01*
X43450991Y-102797592D01*
X43402455Y-102790393D01*
X43354858Y-102778470D01*
X43308658Y-102761940D01*
X43264302Y-102740961D01*
X43222215Y-102715735D01*
X43182803Y-102686505D01*
X43146447Y-102653553D01*
X43113495Y-102617197D01*
X43084265Y-102577785D01*
X43059039Y-102535698D01*
X43038060Y-102491342D01*
X43021530Y-102445142D01*
X43009607Y-102397545D01*
X43002408Y-102349009D01*
X43000000Y-102300000D01*
X43000000Y-100300000D01*
X43002408Y-100250991D01*
X43009607Y-100202455D01*
X43021530Y-100154858D01*
X43038060Y-100108658D01*
X43059039Y-100064302D01*
X43084265Y-100022215D01*
X43113495Y-99982803D01*
X43146447Y-99946447D01*
X43182803Y-99913495D01*
X43222215Y-99884265D01*
X43264302Y-99859039D01*
X43308658Y-99838060D01*
X43354858Y-99821530D01*
X43402455Y-99809607D01*
X43450991Y-99802408D01*
X43500000Y-99800000D01*
X44500000Y-99800000D01*
X44549009Y-99802408D01*
G37*
G04 #@! TD.AperFunction*
G04 #@! TA.AperFunction,ComponentPad*
G36*
X38049009Y-99802408D02*
G01*
X38097545Y-99809607D01*
X38145142Y-99821530D01*
X38191342Y-99838060D01*
X38235698Y-99859039D01*
X38277785Y-99884265D01*
X38317197Y-99913495D01*
X38353553Y-99946447D01*
X38386505Y-99982803D01*
X38415735Y-100022215D01*
X38440961Y-100064302D01*
X38461940Y-100108658D01*
X38478470Y-100154858D01*
X38490393Y-100202455D01*
X38497592Y-100250991D01*
X38500000Y-100300000D01*
X38500000Y-102300000D01*
X38497592Y-102349009D01*
X38490393Y-102397545D01*
X38478470Y-102445142D01*
X38461940Y-102491342D01*
X38440961Y-102535698D01*
X38415735Y-102577785D01*
X38386505Y-102617197D01*
X38353553Y-102653553D01*
X38317197Y-102686505D01*
X38277785Y-102715735D01*
X38235698Y-102740961D01*
X38191342Y-102761940D01*
X38145142Y-102778470D01*
X38097545Y-102790393D01*
X38049009Y-102797592D01*
X38000000Y-102800000D01*
X37000000Y-102800000D01*
X36950991Y-102797592D01*
X36902455Y-102790393D01*
X36854858Y-102778470D01*
X36808658Y-102761940D01*
X36764302Y-102740961D01*
X36722215Y-102715735D01*
X36682803Y-102686505D01*
X36646447Y-102653553D01*
X36613495Y-102617197D01*
X36584265Y-102577785D01*
X36559039Y-102535698D01*
X36538060Y-102491342D01*
X36521530Y-102445142D01*
X36509607Y-102397545D01*
X36502408Y-102349009D01*
X36500000Y-102300000D01*
X36500000Y-100300000D01*
X36502408Y-100250991D01*
X36509607Y-100202455D01*
X36521530Y-100154858D01*
X36538060Y-100108658D01*
X36559039Y-100064302D01*
X36584265Y-100022215D01*
X36613495Y-99982803D01*
X36646447Y-99946447D01*
X36682803Y-99913495D01*
X36722215Y-99884265D01*
X36764302Y-99859039D01*
X36808658Y-99838060D01*
X36854858Y-99821530D01*
X36902455Y-99809607D01*
X36950991Y-99802408D01*
X37000000Y-99800000D01*
X38000000Y-99800000D01*
X38049009Y-99802408D01*
G37*
G04 #@! TD.AperFunction*
G04 #@! TA.AperFunction,ComponentPad*
G36*
X38049009Y-110502408D02*
G01*
X38097545Y-110509607D01*
X38145142Y-110521530D01*
X38191342Y-110538060D01*
X38235698Y-110559039D01*
X38277785Y-110584265D01*
X38317197Y-110613495D01*
X38353553Y-110646447D01*
X38386505Y-110682803D01*
X38415735Y-110722215D01*
X38440961Y-110764302D01*
X38461940Y-110808658D01*
X38478470Y-110854858D01*
X38490393Y-110902455D01*
X38497592Y-110950991D01*
X38500000Y-111000000D01*
X38500000Y-113000000D01*
X38497592Y-113049009D01*
X38490393Y-113097545D01*
X38478470Y-113145142D01*
X38461940Y-113191342D01*
X38440961Y-113235698D01*
X38415735Y-113277785D01*
X38386505Y-113317197D01*
X38353553Y-113353553D01*
X38317197Y-113386505D01*
X38277785Y-113415735D01*
X38235698Y-113440961D01*
X38191342Y-113461940D01*
X38145142Y-113478470D01*
X38097545Y-113490393D01*
X38049009Y-113497592D01*
X38000000Y-113500000D01*
X37000000Y-113500000D01*
X36950991Y-113497592D01*
X36902455Y-113490393D01*
X36854858Y-113478470D01*
X36808658Y-113461940D01*
X36764302Y-113440961D01*
X36722215Y-113415735D01*
X36682803Y-113386505D01*
X36646447Y-113353553D01*
X36613495Y-113317197D01*
X36584265Y-113277785D01*
X36559039Y-113235698D01*
X36538060Y-113191342D01*
X36521530Y-113145142D01*
X36509607Y-113097545D01*
X36502408Y-113049009D01*
X36500000Y-113000000D01*
X36500000Y-111000000D01*
X36502408Y-110950991D01*
X36509607Y-110902455D01*
X36521530Y-110854858D01*
X36538060Y-110808658D01*
X36559039Y-110764302D01*
X36584265Y-110722215D01*
X36613495Y-110682803D01*
X36646447Y-110646447D01*
X36682803Y-110613495D01*
X36722215Y-110584265D01*
X36764302Y-110559039D01*
X36808658Y-110538060D01*
X36854858Y-110521530D01*
X36902455Y-110509607D01*
X36950991Y-110502408D01*
X37000000Y-110500000D01*
X38000000Y-110500000D01*
X38049009Y-110502408D01*
G37*
G04 #@! TD.AperFunction*
G04 #@! TA.AperFunction,ComponentPad*
G36*
X44549009Y-110502408D02*
G01*
X44597545Y-110509607D01*
X44645142Y-110521530D01*
X44691342Y-110538060D01*
X44735698Y-110559039D01*
X44777785Y-110584265D01*
X44817197Y-110613495D01*
X44853553Y-110646447D01*
X44886505Y-110682803D01*
X44915735Y-110722215D01*
X44940961Y-110764302D01*
X44961940Y-110808658D01*
X44978470Y-110854858D01*
X44990393Y-110902455D01*
X44997592Y-110950991D01*
X45000000Y-111000000D01*
X45000000Y-113000000D01*
X44997592Y-113049009D01*
X44990393Y-113097545D01*
X44978470Y-113145142D01*
X44961940Y-113191342D01*
X44940961Y-113235698D01*
X44915735Y-113277785D01*
X44886505Y-113317197D01*
X44853553Y-113353553D01*
X44817197Y-113386505D01*
X44777785Y-113415735D01*
X44735698Y-113440961D01*
X44691342Y-113461940D01*
X44645142Y-113478470D01*
X44597545Y-113490393D01*
X44549009Y-113497592D01*
X44500000Y-113500000D01*
X43500000Y-113500000D01*
X43450991Y-113497592D01*
X43402455Y-113490393D01*
X43354858Y-113478470D01*
X43308658Y-113461940D01*
X43264302Y-113440961D01*
X43222215Y-113415735D01*
X43182803Y-113386505D01*
X43146447Y-113353553D01*
X43113495Y-113317197D01*
X43084265Y-113277785D01*
X43059039Y-113235698D01*
X43038060Y-113191342D01*
X43021530Y-113145142D01*
X43009607Y-113097545D01*
X43002408Y-113049009D01*
X43000000Y-113000000D01*
X43000000Y-111000000D01*
X43002408Y-110950991D01*
X43009607Y-110902455D01*
X43021530Y-110854858D01*
X43038060Y-110808658D01*
X43059039Y-110764302D01*
X43084265Y-110722215D01*
X43113495Y-110682803D01*
X43146447Y-110646447D01*
X43182803Y-110613495D01*
X43222215Y-110584265D01*
X43264302Y-110559039D01*
X43308658Y-110538060D01*
X43354858Y-110521530D01*
X43402455Y-110509607D01*
X43450991Y-110502408D01*
X43500000Y-110500000D01*
X44500000Y-110500000D01*
X44549009Y-110502408D01*
G37*
G04 #@! TD.AperFunction*
G04 #@! TA.AperFunction,ComponentPad*
G36*
X60549009Y-46762408D02*
G01*
X60597545Y-46769607D01*
X60645142Y-46781530D01*
X60691342Y-46798060D01*
X60735698Y-46819039D01*
X60777785Y-46844265D01*
X60817197Y-46873495D01*
X60853553Y-46906447D01*
X60886505Y-46942803D01*
X60915735Y-46982215D01*
X60940961Y-47024302D01*
X60961940Y-47068658D01*
X60978470Y-47114858D01*
X60990393Y-47162455D01*
X60997592Y-47210991D01*
X61000000Y-47260000D01*
X61000000Y-49260000D01*
X60997592Y-49309009D01*
X60990393Y-49357545D01*
X60978470Y-49405142D01*
X60961940Y-49451342D01*
X60940961Y-49495698D01*
X60915735Y-49537785D01*
X60886505Y-49577197D01*
X60853553Y-49613553D01*
X60817197Y-49646505D01*
X60777785Y-49675735D01*
X60735698Y-49700961D01*
X60691342Y-49721940D01*
X60645142Y-49738470D01*
X60597545Y-49750393D01*
X60549009Y-49757592D01*
X60500000Y-49760000D01*
X59500000Y-49760000D01*
X59450991Y-49757592D01*
X59402455Y-49750393D01*
X59354858Y-49738470D01*
X59308658Y-49721940D01*
X59264302Y-49700961D01*
X59222215Y-49675735D01*
X59182803Y-49646505D01*
X59146447Y-49613553D01*
X59113495Y-49577197D01*
X59084265Y-49537785D01*
X59059039Y-49495698D01*
X59038060Y-49451342D01*
X59021530Y-49405142D01*
X59009607Y-49357545D01*
X59002408Y-49309009D01*
X59000000Y-49260000D01*
X59000000Y-47260000D01*
X59002408Y-47210991D01*
X59009607Y-47162455D01*
X59021530Y-47114858D01*
X59038060Y-47068658D01*
X59059039Y-47024302D01*
X59084265Y-46982215D01*
X59113495Y-46942803D01*
X59146447Y-46906447D01*
X59182803Y-46873495D01*
X59222215Y-46844265D01*
X59264302Y-46819039D01*
X59308658Y-46798060D01*
X59354858Y-46781530D01*
X59402455Y-46769607D01*
X59450991Y-46762408D01*
X59500000Y-46760000D01*
X60500000Y-46760000D01*
X60549009Y-46762408D01*
G37*
G04 #@! TD.AperFunction*
G04 #@! TA.AperFunction,ComponentPad*
G36*
X54049009Y-46762408D02*
G01*
X54097545Y-46769607D01*
X54145142Y-46781530D01*
X54191342Y-46798060D01*
X54235698Y-46819039D01*
X54277785Y-46844265D01*
X54317197Y-46873495D01*
X54353553Y-46906447D01*
X54386505Y-46942803D01*
X54415735Y-46982215D01*
X54440961Y-47024302D01*
X54461940Y-47068658D01*
X54478470Y-47114858D01*
X54490393Y-47162455D01*
X54497592Y-47210991D01*
X54500000Y-47260000D01*
X54500000Y-49260000D01*
X54497592Y-49309009D01*
X54490393Y-49357545D01*
X54478470Y-49405142D01*
X54461940Y-49451342D01*
X54440961Y-49495698D01*
X54415735Y-49537785D01*
X54386505Y-49577197D01*
X54353553Y-49613553D01*
X54317197Y-49646505D01*
X54277785Y-49675735D01*
X54235698Y-49700961D01*
X54191342Y-49721940D01*
X54145142Y-49738470D01*
X54097545Y-49750393D01*
X54049009Y-49757592D01*
X54000000Y-49760000D01*
X53000000Y-49760000D01*
X52950991Y-49757592D01*
X52902455Y-49750393D01*
X52854858Y-49738470D01*
X52808658Y-49721940D01*
X52764302Y-49700961D01*
X52722215Y-49675735D01*
X52682803Y-49646505D01*
X52646447Y-49613553D01*
X52613495Y-49577197D01*
X52584265Y-49537785D01*
X52559039Y-49495698D01*
X52538060Y-49451342D01*
X52521530Y-49405142D01*
X52509607Y-49357545D01*
X52502408Y-49309009D01*
X52500000Y-49260000D01*
X52500000Y-47260000D01*
X52502408Y-47210991D01*
X52509607Y-47162455D01*
X52521530Y-47114858D01*
X52538060Y-47068658D01*
X52559039Y-47024302D01*
X52584265Y-46982215D01*
X52613495Y-46942803D01*
X52646447Y-46906447D01*
X52682803Y-46873495D01*
X52722215Y-46844265D01*
X52764302Y-46819039D01*
X52808658Y-46798060D01*
X52854858Y-46781530D01*
X52902455Y-46769607D01*
X52950991Y-46762408D01*
X53000000Y-46760000D01*
X54000000Y-46760000D01*
X54049009Y-46762408D01*
G37*
G04 #@! TD.AperFunction*
G04 #@! TA.AperFunction,ComponentPad*
G36*
X54049009Y-57002408D02*
G01*
X54097545Y-57009607D01*
X54145142Y-57021530D01*
X54191342Y-57038060D01*
X54235698Y-57059039D01*
X54277785Y-57084265D01*
X54317197Y-57113495D01*
X54353553Y-57146447D01*
X54386505Y-57182803D01*
X54415735Y-57222215D01*
X54440961Y-57264302D01*
X54461940Y-57308658D01*
X54478470Y-57354858D01*
X54490393Y-57402455D01*
X54497592Y-57450991D01*
X54500000Y-57500000D01*
X54500000Y-59500000D01*
X54497592Y-59549009D01*
X54490393Y-59597545D01*
X54478470Y-59645142D01*
X54461940Y-59691342D01*
X54440961Y-59735698D01*
X54415735Y-59777785D01*
X54386505Y-59817197D01*
X54353553Y-59853553D01*
X54317197Y-59886505D01*
X54277785Y-59915735D01*
X54235698Y-59940961D01*
X54191342Y-59961940D01*
X54145142Y-59978470D01*
X54097545Y-59990393D01*
X54049009Y-59997592D01*
X54000000Y-60000000D01*
X53000000Y-60000000D01*
X52950991Y-59997592D01*
X52902455Y-59990393D01*
X52854858Y-59978470D01*
X52808658Y-59961940D01*
X52764302Y-59940961D01*
X52722215Y-59915735D01*
X52682803Y-59886505D01*
X52646447Y-59853553D01*
X52613495Y-59817197D01*
X52584265Y-59777785D01*
X52559039Y-59735698D01*
X52538060Y-59691342D01*
X52521530Y-59645142D01*
X52509607Y-59597545D01*
X52502408Y-59549009D01*
X52500000Y-59500000D01*
X52500000Y-57500000D01*
X52502408Y-57450991D01*
X52509607Y-57402455D01*
X52521530Y-57354858D01*
X52538060Y-57308658D01*
X52559039Y-57264302D01*
X52584265Y-57222215D01*
X52613495Y-57182803D01*
X52646447Y-57146447D01*
X52682803Y-57113495D01*
X52722215Y-57084265D01*
X52764302Y-57059039D01*
X52808658Y-57038060D01*
X52854858Y-57021530D01*
X52902455Y-57009607D01*
X52950991Y-57002408D01*
X53000000Y-57000000D01*
X54000000Y-57000000D01*
X54049009Y-57002408D01*
G37*
G04 #@! TD.AperFunction*
G04 #@! TA.AperFunction,ComponentPad*
G36*
X60549009Y-57002408D02*
G01*
X60597545Y-57009607D01*
X60645142Y-57021530D01*
X60691342Y-57038060D01*
X60735698Y-57059039D01*
X60777785Y-57084265D01*
X60817197Y-57113495D01*
X60853553Y-57146447D01*
X60886505Y-57182803D01*
X60915735Y-57222215D01*
X60940961Y-57264302D01*
X60961940Y-57308658D01*
X60978470Y-57354858D01*
X60990393Y-57402455D01*
X60997592Y-57450991D01*
X61000000Y-57500000D01*
X61000000Y-59500000D01*
X60997592Y-59549009D01*
X60990393Y-59597545D01*
X60978470Y-59645142D01*
X60961940Y-59691342D01*
X60940961Y-59735698D01*
X60915735Y-59777785D01*
X60886505Y-59817197D01*
X60853553Y-59853553D01*
X60817197Y-59886505D01*
X60777785Y-59915735D01*
X60735698Y-59940961D01*
X60691342Y-59961940D01*
X60645142Y-59978470D01*
X60597545Y-59990393D01*
X60549009Y-59997592D01*
X60500000Y-60000000D01*
X59500000Y-60000000D01*
X59450991Y-59997592D01*
X59402455Y-59990393D01*
X59354858Y-59978470D01*
X59308658Y-59961940D01*
X59264302Y-59940961D01*
X59222215Y-59915735D01*
X59182803Y-59886505D01*
X59146447Y-59853553D01*
X59113495Y-59817197D01*
X59084265Y-59777785D01*
X59059039Y-59735698D01*
X59038060Y-59691342D01*
X59021530Y-59645142D01*
X59009607Y-59597545D01*
X59002408Y-59549009D01*
X59000000Y-59500000D01*
X59000000Y-57500000D01*
X59002408Y-57450991D01*
X59009607Y-57402455D01*
X59021530Y-57354858D01*
X59038060Y-57308658D01*
X59059039Y-57264302D01*
X59084265Y-57222215D01*
X59113495Y-57182803D01*
X59146447Y-57146447D01*
X59182803Y-57113495D01*
X59222215Y-57084265D01*
X59264302Y-57059039D01*
X59308658Y-57038060D01*
X59354858Y-57021530D01*
X59402455Y-57009607D01*
X59450991Y-57002408D01*
X59500000Y-57000000D01*
X60500000Y-57000000D01*
X60549009Y-57002408D01*
G37*
G04 #@! TD.AperFunction*
G04 #@! TA.AperFunction,ComponentPad*
G36*
X60549009Y-67802408D02*
G01*
X60597545Y-67809607D01*
X60645142Y-67821530D01*
X60691342Y-67838060D01*
X60735698Y-67859039D01*
X60777785Y-67884265D01*
X60817197Y-67913495D01*
X60853553Y-67946447D01*
X60886505Y-67982803D01*
X60915735Y-68022215D01*
X60940961Y-68064302D01*
X60961940Y-68108658D01*
X60978470Y-68154858D01*
X60990393Y-68202455D01*
X60997592Y-68250991D01*
X61000000Y-68300000D01*
X61000000Y-70300000D01*
X60997592Y-70349009D01*
X60990393Y-70397545D01*
X60978470Y-70445142D01*
X60961940Y-70491342D01*
X60940961Y-70535698D01*
X60915735Y-70577785D01*
X60886505Y-70617197D01*
X60853553Y-70653553D01*
X60817197Y-70686505D01*
X60777785Y-70715735D01*
X60735698Y-70740961D01*
X60691342Y-70761940D01*
X60645142Y-70778470D01*
X60597545Y-70790393D01*
X60549009Y-70797592D01*
X60500000Y-70800000D01*
X59500000Y-70800000D01*
X59450991Y-70797592D01*
X59402455Y-70790393D01*
X59354858Y-70778470D01*
X59308658Y-70761940D01*
X59264302Y-70740961D01*
X59222215Y-70715735D01*
X59182803Y-70686505D01*
X59146447Y-70653553D01*
X59113495Y-70617197D01*
X59084265Y-70577785D01*
X59059039Y-70535698D01*
X59038060Y-70491342D01*
X59021530Y-70445142D01*
X59009607Y-70397545D01*
X59002408Y-70349009D01*
X59000000Y-70300000D01*
X59000000Y-68300000D01*
X59002408Y-68250991D01*
X59009607Y-68202455D01*
X59021530Y-68154858D01*
X59038060Y-68108658D01*
X59059039Y-68064302D01*
X59084265Y-68022215D01*
X59113495Y-67982803D01*
X59146447Y-67946447D01*
X59182803Y-67913495D01*
X59222215Y-67884265D01*
X59264302Y-67859039D01*
X59308658Y-67838060D01*
X59354858Y-67821530D01*
X59402455Y-67809607D01*
X59450991Y-67802408D01*
X59500000Y-67800000D01*
X60500000Y-67800000D01*
X60549009Y-67802408D01*
G37*
G04 #@! TD.AperFunction*
G04 #@! TA.AperFunction,ComponentPad*
G36*
X54049009Y-67802408D02*
G01*
X54097545Y-67809607D01*
X54145142Y-67821530D01*
X54191342Y-67838060D01*
X54235698Y-67859039D01*
X54277785Y-67884265D01*
X54317197Y-67913495D01*
X54353553Y-67946447D01*
X54386505Y-67982803D01*
X54415735Y-68022215D01*
X54440961Y-68064302D01*
X54461940Y-68108658D01*
X54478470Y-68154858D01*
X54490393Y-68202455D01*
X54497592Y-68250991D01*
X54500000Y-68300000D01*
X54500000Y-70300000D01*
X54497592Y-70349009D01*
X54490393Y-70397545D01*
X54478470Y-70445142D01*
X54461940Y-70491342D01*
X54440961Y-70535698D01*
X54415735Y-70577785D01*
X54386505Y-70617197D01*
X54353553Y-70653553D01*
X54317197Y-70686505D01*
X54277785Y-70715735D01*
X54235698Y-70740961D01*
X54191342Y-70761940D01*
X54145142Y-70778470D01*
X54097545Y-70790393D01*
X54049009Y-70797592D01*
X54000000Y-70800000D01*
X53000000Y-70800000D01*
X52950991Y-70797592D01*
X52902455Y-70790393D01*
X52854858Y-70778470D01*
X52808658Y-70761940D01*
X52764302Y-70740961D01*
X52722215Y-70715735D01*
X52682803Y-70686505D01*
X52646447Y-70653553D01*
X52613495Y-70617197D01*
X52584265Y-70577785D01*
X52559039Y-70535698D01*
X52538060Y-70491342D01*
X52521530Y-70445142D01*
X52509607Y-70397545D01*
X52502408Y-70349009D01*
X52500000Y-70300000D01*
X52500000Y-68300000D01*
X52502408Y-68250991D01*
X52509607Y-68202455D01*
X52521530Y-68154858D01*
X52538060Y-68108658D01*
X52559039Y-68064302D01*
X52584265Y-68022215D01*
X52613495Y-67982803D01*
X52646447Y-67946447D01*
X52682803Y-67913495D01*
X52722215Y-67884265D01*
X52764302Y-67859039D01*
X52808658Y-67838060D01*
X52854858Y-67821530D01*
X52902455Y-67809607D01*
X52950991Y-67802408D01*
X53000000Y-67800000D01*
X54000000Y-67800000D01*
X54049009Y-67802408D01*
G37*
G04 #@! TD.AperFunction*
G04 #@! TA.AperFunction,ComponentPad*
G36*
X54049009Y-78502408D02*
G01*
X54097545Y-78509607D01*
X54145142Y-78521530D01*
X54191342Y-78538060D01*
X54235698Y-78559039D01*
X54277785Y-78584265D01*
X54317197Y-78613495D01*
X54353553Y-78646447D01*
X54386505Y-78682803D01*
X54415735Y-78722215D01*
X54440961Y-78764302D01*
X54461940Y-78808658D01*
X54478470Y-78854858D01*
X54490393Y-78902455D01*
X54497592Y-78950991D01*
X54500000Y-79000000D01*
X54500000Y-81000000D01*
X54497592Y-81049009D01*
X54490393Y-81097545D01*
X54478470Y-81145142D01*
X54461940Y-81191342D01*
X54440961Y-81235698D01*
X54415735Y-81277785D01*
X54386505Y-81317197D01*
X54353553Y-81353553D01*
X54317197Y-81386505D01*
X54277785Y-81415735D01*
X54235698Y-81440961D01*
X54191342Y-81461940D01*
X54145142Y-81478470D01*
X54097545Y-81490393D01*
X54049009Y-81497592D01*
X54000000Y-81500000D01*
X53000000Y-81500000D01*
X52950991Y-81497592D01*
X52902455Y-81490393D01*
X52854858Y-81478470D01*
X52808658Y-81461940D01*
X52764302Y-81440961D01*
X52722215Y-81415735D01*
X52682803Y-81386505D01*
X52646447Y-81353553D01*
X52613495Y-81317197D01*
X52584265Y-81277785D01*
X52559039Y-81235698D01*
X52538060Y-81191342D01*
X52521530Y-81145142D01*
X52509607Y-81097545D01*
X52502408Y-81049009D01*
X52500000Y-81000000D01*
X52500000Y-79000000D01*
X52502408Y-78950991D01*
X52509607Y-78902455D01*
X52521530Y-78854858D01*
X52538060Y-78808658D01*
X52559039Y-78764302D01*
X52584265Y-78722215D01*
X52613495Y-78682803D01*
X52646447Y-78646447D01*
X52682803Y-78613495D01*
X52722215Y-78584265D01*
X52764302Y-78559039D01*
X52808658Y-78538060D01*
X52854858Y-78521530D01*
X52902455Y-78509607D01*
X52950991Y-78502408D01*
X53000000Y-78500000D01*
X54000000Y-78500000D01*
X54049009Y-78502408D01*
G37*
G04 #@! TD.AperFunction*
G04 #@! TA.AperFunction,ComponentPad*
G36*
X60549009Y-78502408D02*
G01*
X60597545Y-78509607D01*
X60645142Y-78521530D01*
X60691342Y-78538060D01*
X60735698Y-78559039D01*
X60777785Y-78584265D01*
X60817197Y-78613495D01*
X60853553Y-78646447D01*
X60886505Y-78682803D01*
X60915735Y-78722215D01*
X60940961Y-78764302D01*
X60961940Y-78808658D01*
X60978470Y-78854858D01*
X60990393Y-78902455D01*
X60997592Y-78950991D01*
X61000000Y-79000000D01*
X61000000Y-81000000D01*
X60997592Y-81049009D01*
X60990393Y-81097545D01*
X60978470Y-81145142D01*
X60961940Y-81191342D01*
X60940961Y-81235698D01*
X60915735Y-81277785D01*
X60886505Y-81317197D01*
X60853553Y-81353553D01*
X60817197Y-81386505D01*
X60777785Y-81415735D01*
X60735698Y-81440961D01*
X60691342Y-81461940D01*
X60645142Y-81478470D01*
X60597545Y-81490393D01*
X60549009Y-81497592D01*
X60500000Y-81500000D01*
X59500000Y-81500000D01*
X59450991Y-81497592D01*
X59402455Y-81490393D01*
X59354858Y-81478470D01*
X59308658Y-81461940D01*
X59264302Y-81440961D01*
X59222215Y-81415735D01*
X59182803Y-81386505D01*
X59146447Y-81353553D01*
X59113495Y-81317197D01*
X59084265Y-81277785D01*
X59059039Y-81235698D01*
X59038060Y-81191342D01*
X59021530Y-81145142D01*
X59009607Y-81097545D01*
X59002408Y-81049009D01*
X59000000Y-81000000D01*
X59000000Y-79000000D01*
X59002408Y-78950991D01*
X59009607Y-78902455D01*
X59021530Y-78854858D01*
X59038060Y-78808658D01*
X59059039Y-78764302D01*
X59084265Y-78722215D01*
X59113495Y-78682803D01*
X59146447Y-78646447D01*
X59182803Y-78613495D01*
X59222215Y-78584265D01*
X59264302Y-78559039D01*
X59308658Y-78538060D01*
X59354858Y-78521530D01*
X59402455Y-78509607D01*
X59450991Y-78502408D01*
X59500000Y-78500000D01*
X60500000Y-78500000D01*
X60549009Y-78502408D01*
G37*
G04 #@! TD.AperFunction*
G04 #@! TA.AperFunction,ComponentPad*
G36*
X54049009Y-89102408D02*
G01*
X54097545Y-89109607D01*
X54145142Y-89121530D01*
X54191342Y-89138060D01*
X54235698Y-89159039D01*
X54277785Y-89184265D01*
X54317197Y-89213495D01*
X54353553Y-89246447D01*
X54386505Y-89282803D01*
X54415735Y-89322215D01*
X54440961Y-89364302D01*
X54461940Y-89408658D01*
X54478470Y-89454858D01*
X54490393Y-89502455D01*
X54497592Y-89550991D01*
X54500000Y-89600000D01*
X54500000Y-91600000D01*
X54497592Y-91649009D01*
X54490393Y-91697545D01*
X54478470Y-91745142D01*
X54461940Y-91791342D01*
X54440961Y-91835698D01*
X54415735Y-91877785D01*
X54386505Y-91917197D01*
X54353553Y-91953553D01*
X54317197Y-91986505D01*
X54277785Y-92015735D01*
X54235698Y-92040961D01*
X54191342Y-92061940D01*
X54145142Y-92078470D01*
X54097545Y-92090393D01*
X54049009Y-92097592D01*
X54000000Y-92100000D01*
X53000000Y-92100000D01*
X52950991Y-92097592D01*
X52902455Y-92090393D01*
X52854858Y-92078470D01*
X52808658Y-92061940D01*
X52764302Y-92040961D01*
X52722215Y-92015735D01*
X52682803Y-91986505D01*
X52646447Y-91953553D01*
X52613495Y-91917197D01*
X52584265Y-91877785D01*
X52559039Y-91835698D01*
X52538060Y-91791342D01*
X52521530Y-91745142D01*
X52509607Y-91697545D01*
X52502408Y-91649009D01*
X52500000Y-91600000D01*
X52500000Y-89600000D01*
X52502408Y-89550991D01*
X52509607Y-89502455D01*
X52521530Y-89454858D01*
X52538060Y-89408658D01*
X52559039Y-89364302D01*
X52584265Y-89322215D01*
X52613495Y-89282803D01*
X52646447Y-89246447D01*
X52682803Y-89213495D01*
X52722215Y-89184265D01*
X52764302Y-89159039D01*
X52808658Y-89138060D01*
X52854858Y-89121530D01*
X52902455Y-89109607D01*
X52950991Y-89102408D01*
X53000000Y-89100000D01*
X54000000Y-89100000D01*
X54049009Y-89102408D01*
G37*
G04 #@! TD.AperFunction*
G04 #@! TA.AperFunction,ComponentPad*
G36*
X60549009Y-89102408D02*
G01*
X60597545Y-89109607D01*
X60645142Y-89121530D01*
X60691342Y-89138060D01*
X60735698Y-89159039D01*
X60777785Y-89184265D01*
X60817197Y-89213495D01*
X60853553Y-89246447D01*
X60886505Y-89282803D01*
X60915735Y-89322215D01*
X60940961Y-89364302D01*
X60961940Y-89408658D01*
X60978470Y-89454858D01*
X60990393Y-89502455D01*
X60997592Y-89550991D01*
X61000000Y-89600000D01*
X61000000Y-91600000D01*
X60997592Y-91649009D01*
X60990393Y-91697545D01*
X60978470Y-91745142D01*
X60961940Y-91791342D01*
X60940961Y-91835698D01*
X60915735Y-91877785D01*
X60886505Y-91917197D01*
X60853553Y-91953553D01*
X60817197Y-91986505D01*
X60777785Y-92015735D01*
X60735698Y-92040961D01*
X60691342Y-92061940D01*
X60645142Y-92078470D01*
X60597545Y-92090393D01*
X60549009Y-92097592D01*
X60500000Y-92100000D01*
X59500000Y-92100000D01*
X59450991Y-92097592D01*
X59402455Y-92090393D01*
X59354858Y-92078470D01*
X59308658Y-92061940D01*
X59264302Y-92040961D01*
X59222215Y-92015735D01*
X59182803Y-91986505D01*
X59146447Y-91953553D01*
X59113495Y-91917197D01*
X59084265Y-91877785D01*
X59059039Y-91835698D01*
X59038060Y-91791342D01*
X59021530Y-91745142D01*
X59009607Y-91697545D01*
X59002408Y-91649009D01*
X59000000Y-91600000D01*
X59000000Y-89600000D01*
X59002408Y-89550991D01*
X59009607Y-89502455D01*
X59021530Y-89454858D01*
X59038060Y-89408658D01*
X59059039Y-89364302D01*
X59084265Y-89322215D01*
X59113495Y-89282803D01*
X59146447Y-89246447D01*
X59182803Y-89213495D01*
X59222215Y-89184265D01*
X59264302Y-89159039D01*
X59308658Y-89138060D01*
X59354858Y-89121530D01*
X59402455Y-89109607D01*
X59450991Y-89102408D01*
X59500000Y-89100000D01*
X60500000Y-89100000D01*
X60549009Y-89102408D01*
G37*
G04 #@! TD.AperFunction*
G04 #@! TA.AperFunction,ComponentPad*
G36*
X54049009Y-99802408D02*
G01*
X54097545Y-99809607D01*
X54145142Y-99821530D01*
X54191342Y-99838060D01*
X54235698Y-99859039D01*
X54277785Y-99884265D01*
X54317197Y-99913495D01*
X54353553Y-99946447D01*
X54386505Y-99982803D01*
X54415735Y-100022215D01*
X54440961Y-100064302D01*
X54461940Y-100108658D01*
X54478470Y-100154858D01*
X54490393Y-100202455D01*
X54497592Y-100250991D01*
X54500000Y-100300000D01*
X54500000Y-102300000D01*
X54497592Y-102349009D01*
X54490393Y-102397545D01*
X54478470Y-102445142D01*
X54461940Y-102491342D01*
X54440961Y-102535698D01*
X54415735Y-102577785D01*
X54386505Y-102617197D01*
X54353553Y-102653553D01*
X54317197Y-102686505D01*
X54277785Y-102715735D01*
X54235698Y-102740961D01*
X54191342Y-102761940D01*
X54145142Y-102778470D01*
X54097545Y-102790393D01*
X54049009Y-102797592D01*
X54000000Y-102800000D01*
X53000000Y-102800000D01*
X52950991Y-102797592D01*
X52902455Y-102790393D01*
X52854858Y-102778470D01*
X52808658Y-102761940D01*
X52764302Y-102740961D01*
X52722215Y-102715735D01*
X52682803Y-102686505D01*
X52646447Y-102653553D01*
X52613495Y-102617197D01*
X52584265Y-102577785D01*
X52559039Y-102535698D01*
X52538060Y-102491342D01*
X52521530Y-102445142D01*
X52509607Y-102397545D01*
X52502408Y-102349009D01*
X52500000Y-102300000D01*
X52500000Y-100300000D01*
X52502408Y-100250991D01*
X52509607Y-100202455D01*
X52521530Y-100154858D01*
X52538060Y-100108658D01*
X52559039Y-100064302D01*
X52584265Y-100022215D01*
X52613495Y-99982803D01*
X52646447Y-99946447D01*
X52682803Y-99913495D01*
X52722215Y-99884265D01*
X52764302Y-99859039D01*
X52808658Y-99838060D01*
X52854858Y-99821530D01*
X52902455Y-99809607D01*
X52950991Y-99802408D01*
X53000000Y-99800000D01*
X54000000Y-99800000D01*
X54049009Y-99802408D01*
G37*
G04 #@! TD.AperFunction*
G04 #@! TA.AperFunction,ComponentPad*
G36*
X60549009Y-99802408D02*
G01*
X60597545Y-99809607D01*
X60645142Y-99821530D01*
X60691342Y-99838060D01*
X60735698Y-99859039D01*
X60777785Y-99884265D01*
X60817197Y-99913495D01*
X60853553Y-99946447D01*
X60886505Y-99982803D01*
X60915735Y-100022215D01*
X60940961Y-100064302D01*
X60961940Y-100108658D01*
X60978470Y-100154858D01*
X60990393Y-100202455D01*
X60997592Y-100250991D01*
X61000000Y-100300000D01*
X61000000Y-102300000D01*
X60997592Y-102349009D01*
X60990393Y-102397545D01*
X60978470Y-102445142D01*
X60961940Y-102491342D01*
X60940961Y-102535698D01*
X60915735Y-102577785D01*
X60886505Y-102617197D01*
X60853553Y-102653553D01*
X60817197Y-102686505D01*
X60777785Y-102715735D01*
X60735698Y-102740961D01*
X60691342Y-102761940D01*
X60645142Y-102778470D01*
X60597545Y-102790393D01*
X60549009Y-102797592D01*
X60500000Y-102800000D01*
X59500000Y-102800000D01*
X59450991Y-102797592D01*
X59402455Y-102790393D01*
X59354858Y-102778470D01*
X59308658Y-102761940D01*
X59264302Y-102740961D01*
X59222215Y-102715735D01*
X59182803Y-102686505D01*
X59146447Y-102653553D01*
X59113495Y-102617197D01*
X59084265Y-102577785D01*
X59059039Y-102535698D01*
X59038060Y-102491342D01*
X59021530Y-102445142D01*
X59009607Y-102397545D01*
X59002408Y-102349009D01*
X59000000Y-102300000D01*
X59000000Y-100300000D01*
X59002408Y-100250991D01*
X59009607Y-100202455D01*
X59021530Y-100154858D01*
X59038060Y-100108658D01*
X59059039Y-100064302D01*
X59084265Y-100022215D01*
X59113495Y-99982803D01*
X59146447Y-99946447D01*
X59182803Y-99913495D01*
X59222215Y-99884265D01*
X59264302Y-99859039D01*
X59308658Y-99838060D01*
X59354858Y-99821530D01*
X59402455Y-99809607D01*
X59450991Y-99802408D01*
X59500000Y-99800000D01*
X60500000Y-99800000D01*
X60549009Y-99802408D01*
G37*
G04 #@! TD.AperFunction*
G04 #@! TA.AperFunction,ComponentPad*
G36*
X60549009Y-110502408D02*
G01*
X60597545Y-110509607D01*
X60645142Y-110521530D01*
X60691342Y-110538060D01*
X60735698Y-110559039D01*
X60777785Y-110584265D01*
X60817197Y-110613495D01*
X60853553Y-110646447D01*
X60886505Y-110682803D01*
X60915735Y-110722215D01*
X60940961Y-110764302D01*
X60961940Y-110808658D01*
X60978470Y-110854858D01*
X60990393Y-110902455D01*
X60997592Y-110950991D01*
X61000000Y-111000000D01*
X61000000Y-113000000D01*
X60997592Y-113049009D01*
X60990393Y-113097545D01*
X60978470Y-113145142D01*
X60961940Y-113191342D01*
X60940961Y-113235698D01*
X60915735Y-113277785D01*
X60886505Y-113317197D01*
X60853553Y-113353553D01*
X60817197Y-113386505D01*
X60777785Y-113415735D01*
X60735698Y-113440961D01*
X60691342Y-113461940D01*
X60645142Y-113478470D01*
X60597545Y-113490393D01*
X60549009Y-113497592D01*
X60500000Y-113500000D01*
X59500000Y-113500000D01*
X59450991Y-113497592D01*
X59402455Y-113490393D01*
X59354858Y-113478470D01*
X59308658Y-113461940D01*
X59264302Y-113440961D01*
X59222215Y-113415735D01*
X59182803Y-113386505D01*
X59146447Y-113353553D01*
X59113495Y-113317197D01*
X59084265Y-113277785D01*
X59059039Y-113235698D01*
X59038060Y-113191342D01*
X59021530Y-113145142D01*
X59009607Y-113097545D01*
X59002408Y-113049009D01*
X59000000Y-113000000D01*
X59000000Y-111000000D01*
X59002408Y-110950991D01*
X59009607Y-110902455D01*
X59021530Y-110854858D01*
X59038060Y-110808658D01*
X59059039Y-110764302D01*
X59084265Y-110722215D01*
X59113495Y-110682803D01*
X59146447Y-110646447D01*
X59182803Y-110613495D01*
X59222215Y-110584265D01*
X59264302Y-110559039D01*
X59308658Y-110538060D01*
X59354858Y-110521530D01*
X59402455Y-110509607D01*
X59450991Y-110502408D01*
X59500000Y-110500000D01*
X60500000Y-110500000D01*
X60549009Y-110502408D01*
G37*
G04 #@! TD.AperFunction*
G04 #@! TA.AperFunction,ComponentPad*
G36*
X54049009Y-110502408D02*
G01*
X54097545Y-110509607D01*
X54145142Y-110521530D01*
X54191342Y-110538060D01*
X54235698Y-110559039D01*
X54277785Y-110584265D01*
X54317197Y-110613495D01*
X54353553Y-110646447D01*
X54386505Y-110682803D01*
X54415735Y-110722215D01*
X54440961Y-110764302D01*
X54461940Y-110808658D01*
X54478470Y-110854858D01*
X54490393Y-110902455D01*
X54497592Y-110950991D01*
X54500000Y-111000000D01*
X54500000Y-113000000D01*
X54497592Y-113049009D01*
X54490393Y-113097545D01*
X54478470Y-113145142D01*
X54461940Y-113191342D01*
X54440961Y-113235698D01*
X54415735Y-113277785D01*
X54386505Y-113317197D01*
X54353553Y-113353553D01*
X54317197Y-113386505D01*
X54277785Y-113415735D01*
X54235698Y-113440961D01*
X54191342Y-113461940D01*
X54145142Y-113478470D01*
X54097545Y-113490393D01*
X54049009Y-113497592D01*
X54000000Y-113500000D01*
X53000000Y-113500000D01*
X52950991Y-113497592D01*
X52902455Y-113490393D01*
X52854858Y-113478470D01*
X52808658Y-113461940D01*
X52764302Y-113440961D01*
X52722215Y-113415735D01*
X52682803Y-113386505D01*
X52646447Y-113353553D01*
X52613495Y-113317197D01*
X52584265Y-113277785D01*
X52559039Y-113235698D01*
X52538060Y-113191342D01*
X52521530Y-113145142D01*
X52509607Y-113097545D01*
X52502408Y-113049009D01*
X52500000Y-113000000D01*
X52500000Y-111000000D01*
X52502408Y-110950991D01*
X52509607Y-110902455D01*
X52521530Y-110854858D01*
X52538060Y-110808658D01*
X52559039Y-110764302D01*
X52584265Y-110722215D01*
X52613495Y-110682803D01*
X52646447Y-110646447D01*
X52682803Y-110613495D01*
X52722215Y-110584265D01*
X52764302Y-110559039D01*
X52808658Y-110538060D01*
X52854858Y-110521530D01*
X52902455Y-110509607D01*
X52950991Y-110502408D01*
X53000000Y-110500000D01*
X54000000Y-110500000D01*
X54049009Y-110502408D01*
G37*
G04 #@! TD.AperFunction*
G04 #@! TA.AperFunction,ComponentPad*
G36*
X70049009Y-46502408D02*
G01*
X70097545Y-46509607D01*
X70145142Y-46521530D01*
X70191342Y-46538060D01*
X70235698Y-46559039D01*
X70277785Y-46584265D01*
X70317197Y-46613495D01*
X70353553Y-46646447D01*
X70386505Y-46682803D01*
X70415735Y-46722215D01*
X70440961Y-46764302D01*
X70461940Y-46808658D01*
X70478470Y-46854858D01*
X70490393Y-46902455D01*
X70497592Y-46950991D01*
X70500000Y-47000000D01*
X70500000Y-49000000D01*
X70497592Y-49049009D01*
X70490393Y-49097545D01*
X70478470Y-49145142D01*
X70461940Y-49191342D01*
X70440961Y-49235698D01*
X70415735Y-49277785D01*
X70386505Y-49317197D01*
X70353553Y-49353553D01*
X70317197Y-49386505D01*
X70277785Y-49415735D01*
X70235698Y-49440961D01*
X70191342Y-49461940D01*
X70145142Y-49478470D01*
X70097545Y-49490393D01*
X70049009Y-49497592D01*
X70000000Y-49500000D01*
X69000000Y-49500000D01*
X68950991Y-49497592D01*
X68902455Y-49490393D01*
X68854858Y-49478470D01*
X68808658Y-49461940D01*
X68764302Y-49440961D01*
X68722215Y-49415735D01*
X68682803Y-49386505D01*
X68646447Y-49353553D01*
X68613495Y-49317197D01*
X68584265Y-49277785D01*
X68559039Y-49235698D01*
X68538060Y-49191342D01*
X68521530Y-49145142D01*
X68509607Y-49097545D01*
X68502408Y-49049009D01*
X68500000Y-49000000D01*
X68500000Y-47000000D01*
X68502408Y-46950991D01*
X68509607Y-46902455D01*
X68521530Y-46854858D01*
X68538060Y-46808658D01*
X68559039Y-46764302D01*
X68584265Y-46722215D01*
X68613495Y-46682803D01*
X68646447Y-46646447D01*
X68682803Y-46613495D01*
X68722215Y-46584265D01*
X68764302Y-46559039D01*
X68808658Y-46538060D01*
X68854858Y-46521530D01*
X68902455Y-46509607D01*
X68950991Y-46502408D01*
X69000000Y-46500000D01*
X70000000Y-46500000D01*
X70049009Y-46502408D01*
G37*
G04 #@! TD.AperFunction*
G04 #@! TA.AperFunction,ComponentPad*
G36*
X76549009Y-46502408D02*
G01*
X76597545Y-46509607D01*
X76645142Y-46521530D01*
X76691342Y-46538060D01*
X76735698Y-46559039D01*
X76777785Y-46584265D01*
X76817197Y-46613495D01*
X76853553Y-46646447D01*
X76886505Y-46682803D01*
X76915735Y-46722215D01*
X76940961Y-46764302D01*
X76961940Y-46808658D01*
X76978470Y-46854858D01*
X76990393Y-46902455D01*
X76997592Y-46950991D01*
X77000000Y-47000000D01*
X77000000Y-49000000D01*
X76997592Y-49049009D01*
X76990393Y-49097545D01*
X76978470Y-49145142D01*
X76961940Y-49191342D01*
X76940961Y-49235698D01*
X76915735Y-49277785D01*
X76886505Y-49317197D01*
X76853553Y-49353553D01*
X76817197Y-49386505D01*
X76777785Y-49415735D01*
X76735698Y-49440961D01*
X76691342Y-49461940D01*
X76645142Y-49478470D01*
X76597545Y-49490393D01*
X76549009Y-49497592D01*
X76500000Y-49500000D01*
X75500000Y-49500000D01*
X75450991Y-49497592D01*
X75402455Y-49490393D01*
X75354858Y-49478470D01*
X75308658Y-49461940D01*
X75264302Y-49440961D01*
X75222215Y-49415735D01*
X75182803Y-49386505D01*
X75146447Y-49353553D01*
X75113495Y-49317197D01*
X75084265Y-49277785D01*
X75059039Y-49235698D01*
X75038060Y-49191342D01*
X75021530Y-49145142D01*
X75009607Y-49097545D01*
X75002408Y-49049009D01*
X75000000Y-49000000D01*
X75000000Y-47000000D01*
X75002408Y-46950991D01*
X75009607Y-46902455D01*
X75021530Y-46854858D01*
X75038060Y-46808658D01*
X75059039Y-46764302D01*
X75084265Y-46722215D01*
X75113495Y-46682803D01*
X75146447Y-46646447D01*
X75182803Y-46613495D01*
X75222215Y-46584265D01*
X75264302Y-46559039D01*
X75308658Y-46538060D01*
X75354858Y-46521530D01*
X75402455Y-46509607D01*
X75450991Y-46502408D01*
X75500000Y-46500000D01*
X76500000Y-46500000D01*
X76549009Y-46502408D01*
G37*
G04 #@! TD.AperFunction*
G04 #@! TA.AperFunction,ComponentPad*
G36*
X76549009Y-57002408D02*
G01*
X76597545Y-57009607D01*
X76645142Y-57021530D01*
X76691342Y-57038060D01*
X76735698Y-57059039D01*
X76777785Y-57084265D01*
X76817197Y-57113495D01*
X76853553Y-57146447D01*
X76886505Y-57182803D01*
X76915735Y-57222215D01*
X76940961Y-57264302D01*
X76961940Y-57308658D01*
X76978470Y-57354858D01*
X76990393Y-57402455D01*
X76997592Y-57450991D01*
X77000000Y-57500000D01*
X77000000Y-59500000D01*
X76997592Y-59549009D01*
X76990393Y-59597545D01*
X76978470Y-59645142D01*
X76961940Y-59691342D01*
X76940961Y-59735698D01*
X76915735Y-59777785D01*
X76886505Y-59817197D01*
X76853553Y-59853553D01*
X76817197Y-59886505D01*
X76777785Y-59915735D01*
X76735698Y-59940961D01*
X76691342Y-59961940D01*
X76645142Y-59978470D01*
X76597545Y-59990393D01*
X76549009Y-59997592D01*
X76500000Y-60000000D01*
X75500000Y-60000000D01*
X75450991Y-59997592D01*
X75402455Y-59990393D01*
X75354858Y-59978470D01*
X75308658Y-59961940D01*
X75264302Y-59940961D01*
X75222215Y-59915735D01*
X75182803Y-59886505D01*
X75146447Y-59853553D01*
X75113495Y-59817197D01*
X75084265Y-59777785D01*
X75059039Y-59735698D01*
X75038060Y-59691342D01*
X75021530Y-59645142D01*
X75009607Y-59597545D01*
X75002408Y-59549009D01*
X75000000Y-59500000D01*
X75000000Y-57500000D01*
X75002408Y-57450991D01*
X75009607Y-57402455D01*
X75021530Y-57354858D01*
X75038060Y-57308658D01*
X75059039Y-57264302D01*
X75084265Y-57222215D01*
X75113495Y-57182803D01*
X75146447Y-57146447D01*
X75182803Y-57113495D01*
X75222215Y-57084265D01*
X75264302Y-57059039D01*
X75308658Y-57038060D01*
X75354858Y-57021530D01*
X75402455Y-57009607D01*
X75450991Y-57002408D01*
X75500000Y-57000000D01*
X76500000Y-57000000D01*
X76549009Y-57002408D01*
G37*
G04 #@! TD.AperFunction*
G04 #@! TA.AperFunction,ComponentPad*
G36*
X70049009Y-57002408D02*
G01*
X70097545Y-57009607D01*
X70145142Y-57021530D01*
X70191342Y-57038060D01*
X70235698Y-57059039D01*
X70277785Y-57084265D01*
X70317197Y-57113495D01*
X70353553Y-57146447D01*
X70386505Y-57182803D01*
X70415735Y-57222215D01*
X70440961Y-57264302D01*
X70461940Y-57308658D01*
X70478470Y-57354858D01*
X70490393Y-57402455D01*
X70497592Y-57450991D01*
X70500000Y-57500000D01*
X70500000Y-59500000D01*
X70497592Y-59549009D01*
X70490393Y-59597545D01*
X70478470Y-59645142D01*
X70461940Y-59691342D01*
X70440961Y-59735698D01*
X70415735Y-59777785D01*
X70386505Y-59817197D01*
X70353553Y-59853553D01*
X70317197Y-59886505D01*
X70277785Y-59915735D01*
X70235698Y-59940961D01*
X70191342Y-59961940D01*
X70145142Y-59978470D01*
X70097545Y-59990393D01*
X70049009Y-59997592D01*
X70000000Y-60000000D01*
X69000000Y-60000000D01*
X68950991Y-59997592D01*
X68902455Y-59990393D01*
X68854858Y-59978470D01*
X68808658Y-59961940D01*
X68764302Y-59940961D01*
X68722215Y-59915735D01*
X68682803Y-59886505D01*
X68646447Y-59853553D01*
X68613495Y-59817197D01*
X68584265Y-59777785D01*
X68559039Y-59735698D01*
X68538060Y-59691342D01*
X68521530Y-59645142D01*
X68509607Y-59597545D01*
X68502408Y-59549009D01*
X68500000Y-59500000D01*
X68500000Y-57500000D01*
X68502408Y-57450991D01*
X68509607Y-57402455D01*
X68521530Y-57354858D01*
X68538060Y-57308658D01*
X68559039Y-57264302D01*
X68584265Y-57222215D01*
X68613495Y-57182803D01*
X68646447Y-57146447D01*
X68682803Y-57113495D01*
X68722215Y-57084265D01*
X68764302Y-57059039D01*
X68808658Y-57038060D01*
X68854858Y-57021530D01*
X68902455Y-57009607D01*
X68950991Y-57002408D01*
X69000000Y-57000000D01*
X70000000Y-57000000D01*
X70049009Y-57002408D01*
G37*
G04 #@! TD.AperFunction*
G04 #@! TA.AperFunction,ComponentPad*
G36*
X70049009Y-67802408D02*
G01*
X70097545Y-67809607D01*
X70145142Y-67821530D01*
X70191342Y-67838060D01*
X70235698Y-67859039D01*
X70277785Y-67884265D01*
X70317197Y-67913495D01*
X70353553Y-67946447D01*
X70386505Y-67982803D01*
X70415735Y-68022215D01*
X70440961Y-68064302D01*
X70461940Y-68108658D01*
X70478470Y-68154858D01*
X70490393Y-68202455D01*
X70497592Y-68250991D01*
X70500000Y-68300000D01*
X70500000Y-70300000D01*
X70497592Y-70349009D01*
X70490393Y-70397545D01*
X70478470Y-70445142D01*
X70461940Y-70491342D01*
X70440961Y-70535698D01*
X70415735Y-70577785D01*
X70386505Y-70617197D01*
X70353553Y-70653553D01*
X70317197Y-70686505D01*
X70277785Y-70715735D01*
X70235698Y-70740961D01*
X70191342Y-70761940D01*
X70145142Y-70778470D01*
X70097545Y-70790393D01*
X70049009Y-70797592D01*
X70000000Y-70800000D01*
X69000000Y-70800000D01*
X68950991Y-70797592D01*
X68902455Y-70790393D01*
X68854858Y-70778470D01*
X68808658Y-70761940D01*
X68764302Y-70740961D01*
X68722215Y-70715735D01*
X68682803Y-70686505D01*
X68646447Y-70653553D01*
X68613495Y-70617197D01*
X68584265Y-70577785D01*
X68559039Y-70535698D01*
X68538060Y-70491342D01*
X68521530Y-70445142D01*
X68509607Y-70397545D01*
X68502408Y-70349009D01*
X68500000Y-70300000D01*
X68500000Y-68300000D01*
X68502408Y-68250991D01*
X68509607Y-68202455D01*
X68521530Y-68154858D01*
X68538060Y-68108658D01*
X68559039Y-68064302D01*
X68584265Y-68022215D01*
X68613495Y-67982803D01*
X68646447Y-67946447D01*
X68682803Y-67913495D01*
X68722215Y-67884265D01*
X68764302Y-67859039D01*
X68808658Y-67838060D01*
X68854858Y-67821530D01*
X68902455Y-67809607D01*
X68950991Y-67802408D01*
X69000000Y-67800000D01*
X70000000Y-67800000D01*
X70049009Y-67802408D01*
G37*
G04 #@! TD.AperFunction*
G04 #@! TA.AperFunction,ComponentPad*
G36*
X76549009Y-67802408D02*
G01*
X76597545Y-67809607D01*
X76645142Y-67821530D01*
X76691342Y-67838060D01*
X76735698Y-67859039D01*
X76777785Y-67884265D01*
X76817197Y-67913495D01*
X76853553Y-67946447D01*
X76886505Y-67982803D01*
X76915735Y-68022215D01*
X76940961Y-68064302D01*
X76961940Y-68108658D01*
X76978470Y-68154858D01*
X76990393Y-68202455D01*
X76997592Y-68250991D01*
X77000000Y-68300000D01*
X77000000Y-70300000D01*
X76997592Y-70349009D01*
X76990393Y-70397545D01*
X76978470Y-70445142D01*
X76961940Y-70491342D01*
X76940961Y-70535698D01*
X76915735Y-70577785D01*
X76886505Y-70617197D01*
X76853553Y-70653553D01*
X76817197Y-70686505D01*
X76777785Y-70715735D01*
X76735698Y-70740961D01*
X76691342Y-70761940D01*
X76645142Y-70778470D01*
X76597545Y-70790393D01*
X76549009Y-70797592D01*
X76500000Y-70800000D01*
X75500000Y-70800000D01*
X75450991Y-70797592D01*
X75402455Y-70790393D01*
X75354858Y-70778470D01*
X75308658Y-70761940D01*
X75264302Y-70740961D01*
X75222215Y-70715735D01*
X75182803Y-70686505D01*
X75146447Y-70653553D01*
X75113495Y-70617197D01*
X75084265Y-70577785D01*
X75059039Y-70535698D01*
X75038060Y-70491342D01*
X75021530Y-70445142D01*
X75009607Y-70397545D01*
X75002408Y-70349009D01*
X75000000Y-70300000D01*
X75000000Y-68300000D01*
X75002408Y-68250991D01*
X75009607Y-68202455D01*
X75021530Y-68154858D01*
X75038060Y-68108658D01*
X75059039Y-68064302D01*
X75084265Y-68022215D01*
X75113495Y-67982803D01*
X75146447Y-67946447D01*
X75182803Y-67913495D01*
X75222215Y-67884265D01*
X75264302Y-67859039D01*
X75308658Y-67838060D01*
X75354858Y-67821530D01*
X75402455Y-67809607D01*
X75450991Y-67802408D01*
X75500000Y-67800000D01*
X76500000Y-67800000D01*
X76549009Y-67802408D01*
G37*
G04 #@! TD.AperFunction*
G04 #@! TA.AperFunction,ComponentPad*
G36*
X70049009Y-78502408D02*
G01*
X70097545Y-78509607D01*
X70145142Y-78521530D01*
X70191342Y-78538060D01*
X70235698Y-78559039D01*
X70277785Y-78584265D01*
X70317197Y-78613495D01*
X70353553Y-78646447D01*
X70386505Y-78682803D01*
X70415735Y-78722215D01*
X70440961Y-78764302D01*
X70461940Y-78808658D01*
X70478470Y-78854858D01*
X70490393Y-78902455D01*
X70497592Y-78950991D01*
X70500000Y-79000000D01*
X70500000Y-81000000D01*
X70497592Y-81049009D01*
X70490393Y-81097545D01*
X70478470Y-81145142D01*
X70461940Y-81191342D01*
X70440961Y-81235698D01*
X70415735Y-81277785D01*
X70386505Y-81317197D01*
X70353553Y-81353553D01*
X70317197Y-81386505D01*
X70277785Y-81415735D01*
X70235698Y-81440961D01*
X70191342Y-81461940D01*
X70145142Y-81478470D01*
X70097545Y-81490393D01*
X70049009Y-81497592D01*
X70000000Y-81500000D01*
X69000000Y-81500000D01*
X68950991Y-81497592D01*
X68902455Y-81490393D01*
X68854858Y-81478470D01*
X68808658Y-81461940D01*
X68764302Y-81440961D01*
X68722215Y-81415735D01*
X68682803Y-81386505D01*
X68646447Y-81353553D01*
X68613495Y-81317197D01*
X68584265Y-81277785D01*
X68559039Y-81235698D01*
X68538060Y-81191342D01*
X68521530Y-81145142D01*
X68509607Y-81097545D01*
X68502408Y-81049009D01*
X68500000Y-81000000D01*
X68500000Y-79000000D01*
X68502408Y-78950991D01*
X68509607Y-78902455D01*
X68521530Y-78854858D01*
X68538060Y-78808658D01*
X68559039Y-78764302D01*
X68584265Y-78722215D01*
X68613495Y-78682803D01*
X68646447Y-78646447D01*
X68682803Y-78613495D01*
X68722215Y-78584265D01*
X68764302Y-78559039D01*
X68808658Y-78538060D01*
X68854858Y-78521530D01*
X68902455Y-78509607D01*
X68950991Y-78502408D01*
X69000000Y-78500000D01*
X70000000Y-78500000D01*
X70049009Y-78502408D01*
G37*
G04 #@! TD.AperFunction*
G04 #@! TA.AperFunction,ComponentPad*
G36*
X76549009Y-78502408D02*
G01*
X76597545Y-78509607D01*
X76645142Y-78521530D01*
X76691342Y-78538060D01*
X76735698Y-78559039D01*
X76777785Y-78584265D01*
X76817197Y-78613495D01*
X76853553Y-78646447D01*
X76886505Y-78682803D01*
X76915735Y-78722215D01*
X76940961Y-78764302D01*
X76961940Y-78808658D01*
X76978470Y-78854858D01*
X76990393Y-78902455D01*
X76997592Y-78950991D01*
X77000000Y-79000000D01*
X77000000Y-81000000D01*
X76997592Y-81049009D01*
X76990393Y-81097545D01*
X76978470Y-81145142D01*
X76961940Y-81191342D01*
X76940961Y-81235698D01*
X76915735Y-81277785D01*
X76886505Y-81317197D01*
X76853553Y-81353553D01*
X76817197Y-81386505D01*
X76777785Y-81415735D01*
X76735698Y-81440961D01*
X76691342Y-81461940D01*
X76645142Y-81478470D01*
X76597545Y-81490393D01*
X76549009Y-81497592D01*
X76500000Y-81500000D01*
X75500000Y-81500000D01*
X75450991Y-81497592D01*
X75402455Y-81490393D01*
X75354858Y-81478470D01*
X75308658Y-81461940D01*
X75264302Y-81440961D01*
X75222215Y-81415735D01*
X75182803Y-81386505D01*
X75146447Y-81353553D01*
X75113495Y-81317197D01*
X75084265Y-81277785D01*
X75059039Y-81235698D01*
X75038060Y-81191342D01*
X75021530Y-81145142D01*
X75009607Y-81097545D01*
X75002408Y-81049009D01*
X75000000Y-81000000D01*
X75000000Y-79000000D01*
X75002408Y-78950991D01*
X75009607Y-78902455D01*
X75021530Y-78854858D01*
X75038060Y-78808658D01*
X75059039Y-78764302D01*
X75084265Y-78722215D01*
X75113495Y-78682803D01*
X75146447Y-78646447D01*
X75182803Y-78613495D01*
X75222215Y-78584265D01*
X75264302Y-78559039D01*
X75308658Y-78538060D01*
X75354858Y-78521530D01*
X75402455Y-78509607D01*
X75450991Y-78502408D01*
X75500000Y-78500000D01*
X76500000Y-78500000D01*
X76549009Y-78502408D01*
G37*
G04 #@! TD.AperFunction*
G04 #@! TA.AperFunction,ComponentPad*
G36*
X76549009Y-89102408D02*
G01*
X76597545Y-89109607D01*
X76645142Y-89121530D01*
X76691342Y-89138060D01*
X76735698Y-89159039D01*
X76777785Y-89184265D01*
X76817197Y-89213495D01*
X76853553Y-89246447D01*
X76886505Y-89282803D01*
X76915735Y-89322215D01*
X76940961Y-89364302D01*
X76961940Y-89408658D01*
X76978470Y-89454858D01*
X76990393Y-89502455D01*
X76997592Y-89550991D01*
X77000000Y-89600000D01*
X77000000Y-91600000D01*
X76997592Y-91649009D01*
X76990393Y-91697545D01*
X76978470Y-91745142D01*
X76961940Y-91791342D01*
X76940961Y-91835698D01*
X76915735Y-91877785D01*
X76886505Y-91917197D01*
X76853553Y-91953553D01*
X76817197Y-91986505D01*
X76777785Y-92015735D01*
X76735698Y-92040961D01*
X76691342Y-92061940D01*
X76645142Y-92078470D01*
X76597545Y-92090393D01*
X76549009Y-92097592D01*
X76500000Y-92100000D01*
X75500000Y-92100000D01*
X75450991Y-92097592D01*
X75402455Y-92090393D01*
X75354858Y-92078470D01*
X75308658Y-92061940D01*
X75264302Y-92040961D01*
X75222215Y-92015735D01*
X75182803Y-91986505D01*
X75146447Y-91953553D01*
X75113495Y-91917197D01*
X75084265Y-91877785D01*
X75059039Y-91835698D01*
X75038060Y-91791342D01*
X75021530Y-91745142D01*
X75009607Y-91697545D01*
X75002408Y-91649009D01*
X75000000Y-91600000D01*
X75000000Y-89600000D01*
X75002408Y-89550991D01*
X75009607Y-89502455D01*
X75021530Y-89454858D01*
X75038060Y-89408658D01*
X75059039Y-89364302D01*
X75084265Y-89322215D01*
X75113495Y-89282803D01*
X75146447Y-89246447D01*
X75182803Y-89213495D01*
X75222215Y-89184265D01*
X75264302Y-89159039D01*
X75308658Y-89138060D01*
X75354858Y-89121530D01*
X75402455Y-89109607D01*
X75450991Y-89102408D01*
X75500000Y-89100000D01*
X76500000Y-89100000D01*
X76549009Y-89102408D01*
G37*
G04 #@! TD.AperFunction*
G04 #@! TA.AperFunction,ComponentPad*
G36*
X70049009Y-89102408D02*
G01*
X70097545Y-89109607D01*
X70145142Y-89121530D01*
X70191342Y-89138060D01*
X70235698Y-89159039D01*
X70277785Y-89184265D01*
X70317197Y-89213495D01*
X70353553Y-89246447D01*
X70386505Y-89282803D01*
X70415735Y-89322215D01*
X70440961Y-89364302D01*
X70461940Y-89408658D01*
X70478470Y-89454858D01*
X70490393Y-89502455D01*
X70497592Y-89550991D01*
X70500000Y-89600000D01*
X70500000Y-91600000D01*
X70497592Y-91649009D01*
X70490393Y-91697545D01*
X70478470Y-91745142D01*
X70461940Y-91791342D01*
X70440961Y-91835698D01*
X70415735Y-91877785D01*
X70386505Y-91917197D01*
X70353553Y-91953553D01*
X70317197Y-91986505D01*
X70277785Y-92015735D01*
X70235698Y-92040961D01*
X70191342Y-92061940D01*
X70145142Y-92078470D01*
X70097545Y-92090393D01*
X70049009Y-92097592D01*
X70000000Y-92100000D01*
X69000000Y-92100000D01*
X68950991Y-92097592D01*
X68902455Y-92090393D01*
X68854858Y-92078470D01*
X68808658Y-92061940D01*
X68764302Y-92040961D01*
X68722215Y-92015735D01*
X68682803Y-91986505D01*
X68646447Y-91953553D01*
X68613495Y-91917197D01*
X68584265Y-91877785D01*
X68559039Y-91835698D01*
X68538060Y-91791342D01*
X68521530Y-91745142D01*
X68509607Y-91697545D01*
X68502408Y-91649009D01*
X68500000Y-91600000D01*
X68500000Y-89600000D01*
X68502408Y-89550991D01*
X68509607Y-89502455D01*
X68521530Y-89454858D01*
X68538060Y-89408658D01*
X68559039Y-89364302D01*
X68584265Y-89322215D01*
X68613495Y-89282803D01*
X68646447Y-89246447D01*
X68682803Y-89213495D01*
X68722215Y-89184265D01*
X68764302Y-89159039D01*
X68808658Y-89138060D01*
X68854858Y-89121530D01*
X68902455Y-89109607D01*
X68950991Y-89102408D01*
X69000000Y-89100000D01*
X70000000Y-89100000D01*
X70049009Y-89102408D01*
G37*
G04 #@! TD.AperFunction*
G04 #@! TA.AperFunction,ComponentPad*
G36*
X76549009Y-99802408D02*
G01*
X76597545Y-99809607D01*
X76645142Y-99821530D01*
X76691342Y-99838060D01*
X76735698Y-99859039D01*
X76777785Y-99884265D01*
X76817197Y-99913495D01*
X76853553Y-99946447D01*
X76886505Y-99982803D01*
X76915735Y-100022215D01*
X76940961Y-100064302D01*
X76961940Y-100108658D01*
X76978470Y-100154858D01*
X76990393Y-100202455D01*
X76997592Y-100250991D01*
X77000000Y-100300000D01*
X77000000Y-102300000D01*
X76997592Y-102349009D01*
X76990393Y-102397545D01*
X76978470Y-102445142D01*
X76961940Y-102491342D01*
X76940961Y-102535698D01*
X76915735Y-102577785D01*
X76886505Y-102617197D01*
X76853553Y-102653553D01*
X76817197Y-102686505D01*
X76777785Y-102715735D01*
X76735698Y-102740961D01*
X76691342Y-102761940D01*
X76645142Y-102778470D01*
X76597545Y-102790393D01*
X76549009Y-102797592D01*
X76500000Y-102800000D01*
X75500000Y-102800000D01*
X75450991Y-102797592D01*
X75402455Y-102790393D01*
X75354858Y-102778470D01*
X75308658Y-102761940D01*
X75264302Y-102740961D01*
X75222215Y-102715735D01*
X75182803Y-102686505D01*
X75146447Y-102653553D01*
X75113495Y-102617197D01*
X75084265Y-102577785D01*
X75059039Y-102535698D01*
X75038060Y-102491342D01*
X75021530Y-102445142D01*
X75009607Y-102397545D01*
X75002408Y-102349009D01*
X75000000Y-102300000D01*
X75000000Y-100300000D01*
X75002408Y-100250991D01*
X75009607Y-100202455D01*
X75021530Y-100154858D01*
X75038060Y-100108658D01*
X75059039Y-100064302D01*
X75084265Y-100022215D01*
X75113495Y-99982803D01*
X75146447Y-99946447D01*
X75182803Y-99913495D01*
X75222215Y-99884265D01*
X75264302Y-99859039D01*
X75308658Y-99838060D01*
X75354858Y-99821530D01*
X75402455Y-99809607D01*
X75450991Y-99802408D01*
X75500000Y-99800000D01*
X76500000Y-99800000D01*
X76549009Y-99802408D01*
G37*
G04 #@! TD.AperFunction*
G04 #@! TA.AperFunction,ComponentPad*
G36*
X70049009Y-99802408D02*
G01*
X70097545Y-99809607D01*
X70145142Y-99821530D01*
X70191342Y-99838060D01*
X70235698Y-99859039D01*
X70277785Y-99884265D01*
X70317197Y-99913495D01*
X70353553Y-99946447D01*
X70386505Y-99982803D01*
X70415735Y-100022215D01*
X70440961Y-100064302D01*
X70461940Y-100108658D01*
X70478470Y-100154858D01*
X70490393Y-100202455D01*
X70497592Y-100250991D01*
X70500000Y-100300000D01*
X70500000Y-102300000D01*
X70497592Y-102349009D01*
X70490393Y-102397545D01*
X70478470Y-102445142D01*
X70461940Y-102491342D01*
X70440961Y-102535698D01*
X70415735Y-102577785D01*
X70386505Y-102617197D01*
X70353553Y-102653553D01*
X70317197Y-102686505D01*
X70277785Y-102715735D01*
X70235698Y-102740961D01*
X70191342Y-102761940D01*
X70145142Y-102778470D01*
X70097545Y-102790393D01*
X70049009Y-102797592D01*
X70000000Y-102800000D01*
X69000000Y-102800000D01*
X68950991Y-102797592D01*
X68902455Y-102790393D01*
X68854858Y-102778470D01*
X68808658Y-102761940D01*
X68764302Y-102740961D01*
X68722215Y-102715735D01*
X68682803Y-102686505D01*
X68646447Y-102653553D01*
X68613495Y-102617197D01*
X68584265Y-102577785D01*
X68559039Y-102535698D01*
X68538060Y-102491342D01*
X68521530Y-102445142D01*
X68509607Y-102397545D01*
X68502408Y-102349009D01*
X68500000Y-102300000D01*
X68500000Y-100300000D01*
X68502408Y-100250991D01*
X68509607Y-100202455D01*
X68521530Y-100154858D01*
X68538060Y-100108658D01*
X68559039Y-100064302D01*
X68584265Y-100022215D01*
X68613495Y-99982803D01*
X68646447Y-99946447D01*
X68682803Y-99913495D01*
X68722215Y-99884265D01*
X68764302Y-99859039D01*
X68808658Y-99838060D01*
X68854858Y-99821530D01*
X68902455Y-99809607D01*
X68950991Y-99802408D01*
X69000000Y-99800000D01*
X70000000Y-99800000D01*
X70049009Y-99802408D01*
G37*
G04 #@! TD.AperFunction*
G04 #@! TA.AperFunction,ComponentPad*
G36*
X70049009Y-110502408D02*
G01*
X70097545Y-110509607D01*
X70145142Y-110521530D01*
X70191342Y-110538060D01*
X70235698Y-110559039D01*
X70277785Y-110584265D01*
X70317197Y-110613495D01*
X70353553Y-110646447D01*
X70386505Y-110682803D01*
X70415735Y-110722215D01*
X70440961Y-110764302D01*
X70461940Y-110808658D01*
X70478470Y-110854858D01*
X70490393Y-110902455D01*
X70497592Y-110950991D01*
X70500000Y-111000000D01*
X70500000Y-113000000D01*
X70497592Y-113049009D01*
X70490393Y-113097545D01*
X70478470Y-113145142D01*
X70461940Y-113191342D01*
X70440961Y-113235698D01*
X70415735Y-113277785D01*
X70386505Y-113317197D01*
X70353553Y-113353553D01*
X70317197Y-113386505D01*
X70277785Y-113415735D01*
X70235698Y-113440961D01*
X70191342Y-113461940D01*
X70145142Y-113478470D01*
X70097545Y-113490393D01*
X70049009Y-113497592D01*
X70000000Y-113500000D01*
X69000000Y-113500000D01*
X68950991Y-113497592D01*
X68902455Y-113490393D01*
X68854858Y-113478470D01*
X68808658Y-113461940D01*
X68764302Y-113440961D01*
X68722215Y-113415735D01*
X68682803Y-113386505D01*
X68646447Y-113353553D01*
X68613495Y-113317197D01*
X68584265Y-113277785D01*
X68559039Y-113235698D01*
X68538060Y-113191342D01*
X68521530Y-113145142D01*
X68509607Y-113097545D01*
X68502408Y-113049009D01*
X68500000Y-113000000D01*
X68500000Y-111000000D01*
X68502408Y-110950991D01*
X68509607Y-110902455D01*
X68521530Y-110854858D01*
X68538060Y-110808658D01*
X68559039Y-110764302D01*
X68584265Y-110722215D01*
X68613495Y-110682803D01*
X68646447Y-110646447D01*
X68682803Y-110613495D01*
X68722215Y-110584265D01*
X68764302Y-110559039D01*
X68808658Y-110538060D01*
X68854858Y-110521530D01*
X68902455Y-110509607D01*
X68950991Y-110502408D01*
X69000000Y-110500000D01*
X70000000Y-110500000D01*
X70049009Y-110502408D01*
G37*
G04 #@! TD.AperFunction*
G04 #@! TA.AperFunction,ComponentPad*
G36*
X76549009Y-110502408D02*
G01*
X76597545Y-110509607D01*
X76645142Y-110521530D01*
X76691342Y-110538060D01*
X76735698Y-110559039D01*
X76777785Y-110584265D01*
X76817197Y-110613495D01*
X76853553Y-110646447D01*
X76886505Y-110682803D01*
X76915735Y-110722215D01*
X76940961Y-110764302D01*
X76961940Y-110808658D01*
X76978470Y-110854858D01*
X76990393Y-110902455D01*
X76997592Y-110950991D01*
X77000000Y-111000000D01*
X77000000Y-113000000D01*
X76997592Y-113049009D01*
X76990393Y-113097545D01*
X76978470Y-113145142D01*
X76961940Y-113191342D01*
X76940961Y-113235698D01*
X76915735Y-113277785D01*
X76886505Y-113317197D01*
X76853553Y-113353553D01*
X76817197Y-113386505D01*
X76777785Y-113415735D01*
X76735698Y-113440961D01*
X76691342Y-113461940D01*
X76645142Y-113478470D01*
X76597545Y-113490393D01*
X76549009Y-113497592D01*
X76500000Y-113500000D01*
X75500000Y-113500000D01*
X75450991Y-113497592D01*
X75402455Y-113490393D01*
X75354858Y-113478470D01*
X75308658Y-113461940D01*
X75264302Y-113440961D01*
X75222215Y-113415735D01*
X75182803Y-113386505D01*
X75146447Y-113353553D01*
X75113495Y-113317197D01*
X75084265Y-113277785D01*
X75059039Y-113235698D01*
X75038060Y-113191342D01*
X75021530Y-113145142D01*
X75009607Y-113097545D01*
X75002408Y-113049009D01*
X75000000Y-113000000D01*
X75000000Y-111000000D01*
X75002408Y-110950991D01*
X75009607Y-110902455D01*
X75021530Y-110854858D01*
X75038060Y-110808658D01*
X75059039Y-110764302D01*
X75084265Y-110722215D01*
X75113495Y-110682803D01*
X75146447Y-110646447D01*
X75182803Y-110613495D01*
X75222215Y-110584265D01*
X75264302Y-110559039D01*
X75308658Y-110538060D01*
X75354858Y-110521530D01*
X75402455Y-110509607D01*
X75450991Y-110502408D01*
X75500000Y-110500000D01*
X76500000Y-110500000D01*
X76549009Y-110502408D01*
G37*
G04 #@! TD.AperFunction*
D28*
X23495000Y-33655000D03*
D29*
X23495000Y-41275000D03*
X19050000Y-41275000D03*
D28*
X19050000Y-33655000D03*
D29*
X14605000Y-41275000D03*
D28*
X14605000Y-33655000D03*
X5715000Y-33655000D03*
D29*
X5715000Y-41275000D03*
X2540000Y-41275000D03*
D28*
X2540000Y-33655000D03*
D30*
X22225000Y-28575000D03*
X22225000Y-20955000D03*
X73660000Y-36830000D03*
X47625000Y-36830000D03*
X54610000Y-36830000D03*
X54610000Y-27940000D03*
X45085000Y-28575000D03*
X24130000Y-30480000D03*
X22646471Y-17993529D03*
X60325000Y-2540000D03*
X22225000Y-13970000D03*
X10795000Y-13970000D03*
X25400000Y-20955000D03*
X33655000Y-30480000D03*
X66675000Y-31115000D03*
X57785000Y-22225000D03*
X80645000Y-17780000D03*
X20000000Y-11000000D03*
D31*
X34000000Y-3055000D03*
X18000000Y-3055000D03*
X11000000Y-33000000D03*
X4000000Y-43000000D03*
D30*
X3175000Y-107315000D03*
X36195000Y-8255000D03*
X15240000Y-8890000D03*
X1905000Y-47625000D03*
X11000000Y-44000000D03*
X11000000Y-44000000D03*
X33655000Y-6985000D03*
X13970000Y-7620000D03*
X12700000Y-5080000D03*
X37455000Y-35499990D03*
X40640000Y-29845000D03*
X56515000Y-29845000D03*
X34290000Y-34290000D03*
X30480000Y-33655000D03*
D32*
X65395000Y-42031000D02*
X65395000Y-40031000D01*
X65909000Y-42545000D02*
X65395000Y-42031000D01*
X77277630Y-42545000D02*
X65909000Y-42545000D01*
X78740000Y-44007370D02*
X77277630Y-42545000D01*
X78740000Y-45085000D02*
X78740000Y-44007370D01*
X11175000Y-19685000D02*
X9525000Y-19685000D01*
X28835000Y-18775000D02*
X27925000Y-19685000D01*
X28835000Y-17125000D02*
X28835000Y-18775000D01*
X65325000Y-41505000D02*
X65325000Y-40005000D01*
X55570000Y-41910000D02*
X64920000Y-41910000D01*
X64920000Y-41910000D02*
X65325000Y-41505000D01*
X55165000Y-41505000D02*
X55570000Y-41910000D01*
X55165000Y-40005000D02*
X55165000Y-41505000D01*
X38225000Y-28575000D02*
X22225000Y-28575000D01*
X38295000Y-29745000D02*
X38295000Y-28645000D01*
X38295000Y-28645000D02*
X38225000Y-28575000D01*
X22225000Y-20955000D02*
X22225000Y-19685000D01*
X27925000Y-19685000D02*
X22225000Y-19685000D01*
X22225000Y-19685000D02*
X11175000Y-19685000D01*
X47545000Y-36910000D02*
X47545000Y-40005000D01*
X47625000Y-36830000D02*
X47545000Y-36910000D01*
X55245000Y-36830000D02*
X47625000Y-36830000D01*
X55245000Y-36830000D02*
X54610000Y-36830000D01*
X73660000Y-36830000D02*
X55245000Y-36830000D01*
X45199999Y-28689999D02*
X45085000Y-28575000D01*
X54610000Y-27940000D02*
X53860001Y-28689999D01*
X53860001Y-28689999D02*
X45199999Y-28689999D01*
X35629999Y-29279999D02*
X29140001Y-29279999D01*
X35795000Y-29745000D02*
X35795000Y-29445000D01*
X35795000Y-29445000D02*
X35629999Y-29279999D01*
X29140001Y-29279999D02*
X27940000Y-30480000D01*
X27940000Y-30480000D02*
X24130000Y-30480000D01*
X25426471Y-17993529D02*
X26295000Y-17125000D01*
X22646471Y-17993529D02*
X25426471Y-17993529D01*
X60325000Y-4091000D02*
X68475000Y-12241000D01*
X60325000Y-2540000D02*
X60325000Y-4091000D01*
X56775000Y-26395000D02*
X58955000Y-28575000D01*
X56775000Y-24745000D02*
X56775000Y-26395000D01*
X64245000Y-23285000D02*
X71295000Y-23285000D01*
X58955000Y-28575000D02*
X64245000Y-23285000D01*
X22225000Y-13970000D02*
X10795000Y-13970000D01*
X71295000Y-20745000D02*
X25610000Y-20745000D01*
X25610000Y-20745000D02*
X25400000Y-20955000D01*
X71295000Y-28365000D02*
X67100000Y-28365000D01*
X67100000Y-28365000D02*
X66675000Y-28790000D01*
X66529999Y-28644999D02*
X62160001Y-28644999D01*
X66675000Y-28790000D02*
X66529999Y-28644999D01*
X62160001Y-28644999D02*
X57785000Y-33020000D01*
X57785000Y-33020000D02*
X35560000Y-33020000D01*
X35560000Y-33020000D02*
X33655000Y-31115000D01*
X33655000Y-31115000D02*
X33655000Y-30480000D01*
X71295000Y-30905000D02*
X66885000Y-30905000D01*
X66885000Y-30905000D02*
X66675000Y-31115000D01*
X57785000Y-22225000D02*
X36830000Y-22225000D01*
X36455000Y-22600000D02*
X36455000Y-24745000D01*
X36830000Y-22225000D02*
X36455000Y-22600000D01*
X23495000Y-42406370D02*
X25538630Y-44450000D01*
X23495000Y-41275000D02*
X23495000Y-42406370D01*
X65950000Y-44450000D02*
X69500000Y-48000000D01*
X25538630Y-44450000D02*
X65950000Y-44450000D01*
X13000000Y-48000000D02*
X15240000Y-50240000D01*
X12000000Y-48000000D02*
X13000000Y-48000000D01*
X15240000Y-50240000D02*
X15315000Y-50240000D01*
X15315000Y-50240000D02*
X16510000Y-51435000D01*
X24565000Y-51435000D02*
X27740000Y-48260000D01*
X16510000Y-51435000D02*
X24565000Y-51435000D01*
X27740000Y-48260000D02*
X28000000Y-48000000D01*
X28000000Y-48000000D02*
X31435000Y-51435000D01*
X31435000Y-51435000D02*
X39370000Y-51435000D01*
X42545000Y-48260000D02*
X44000000Y-48260000D01*
X39370000Y-51435000D02*
X42545000Y-48260000D01*
X56190000Y-52070000D02*
X60000000Y-48260000D01*
X44000000Y-48260000D02*
X47810000Y-52070000D01*
X47810000Y-52070000D02*
X56190000Y-52070000D01*
X61000000Y-49260000D02*
X61960000Y-49260000D01*
X60000000Y-48260000D02*
X61000000Y-49260000D01*
X61960000Y-49260000D02*
X64770000Y-52070000D01*
X71930000Y-52070000D02*
X76000000Y-48000000D01*
X64770000Y-52070000D02*
X71930000Y-52070000D01*
X76000000Y-58500000D02*
X71755000Y-62745000D01*
X71755000Y-62745000D02*
X62350000Y-62745000D01*
X60000000Y-60395000D02*
X60000000Y-58500000D01*
X62350000Y-62745000D02*
X60000000Y-60395000D01*
X59000000Y-59500000D02*
X59000000Y-59745000D01*
X60000000Y-58500000D02*
X59000000Y-59500000D01*
X59000000Y-59745000D02*
X55880000Y-62865000D01*
X48265000Y-62865000D02*
X44000000Y-58600000D01*
X55880000Y-62865000D02*
X48265000Y-62865000D01*
X44000000Y-60100000D02*
X41870000Y-62230000D01*
X44000000Y-58600000D02*
X44000000Y-60100000D01*
X41870000Y-62230000D02*
X34925000Y-62230000D01*
X31295000Y-58600000D02*
X28000000Y-58600000D01*
X34925000Y-62230000D02*
X31295000Y-58600000D01*
X28000000Y-60100000D02*
X25400000Y-62700000D01*
X28000000Y-58600000D02*
X28000000Y-60100000D01*
X25400000Y-62700000D02*
X17310000Y-62700000D01*
X13210000Y-58600000D02*
X12000000Y-58600000D01*
X17310000Y-62700000D02*
X13210000Y-58600000D01*
X12000000Y-69300000D02*
X12000000Y-71690000D01*
X12000000Y-71690000D02*
X13335000Y-73025000D01*
X24275000Y-73025000D02*
X28000000Y-69300000D01*
X13335000Y-73025000D02*
X24275000Y-73025000D01*
X29000000Y-70300000D02*
X29000000Y-70910000D01*
X28000000Y-69300000D02*
X29000000Y-70300000D01*
X29000000Y-70910000D02*
X31115000Y-73025000D01*
X40275000Y-73025000D02*
X44000000Y-69300000D01*
X31115000Y-73025000D02*
X40275000Y-73025000D01*
X55740000Y-73560000D02*
X60000000Y-69300000D01*
X44000000Y-69300000D02*
X48260000Y-73560000D01*
X48260000Y-73560000D02*
X55740000Y-73560000D01*
X61000000Y-70300000D02*
X61410000Y-70300000D01*
X60000000Y-69300000D02*
X61000000Y-70300000D01*
X61410000Y-70300000D02*
X64770000Y-73660000D01*
X71640000Y-73660000D02*
X76000000Y-69300000D01*
X64770000Y-73660000D02*
X71640000Y-73660000D01*
X44075000Y-17125000D02*
X44075000Y-19310000D01*
X44075000Y-19310000D02*
X44450000Y-19685000D01*
X44450000Y-19685000D02*
X67945000Y-19685000D01*
X67945000Y-19685000D02*
X69850000Y-17780000D01*
X69850000Y-17780000D02*
X80645000Y-17780000D01*
X75000000Y-81000000D02*
X75000000Y-83750000D01*
X76000000Y-80000000D02*
X75000000Y-81000000D01*
X75000000Y-83750000D02*
X74930000Y-83820000D01*
X63820000Y-83820000D02*
X60000000Y-80000000D01*
X74930000Y-83820000D02*
X63820000Y-83820000D01*
X60000000Y-80000000D02*
X60000000Y-82240000D01*
X60000000Y-82240000D02*
X58420000Y-83820000D01*
X47820000Y-83820000D02*
X44000000Y-80000000D01*
X58420000Y-83820000D02*
X47820000Y-83820000D01*
X43000000Y-81000000D02*
X43000000Y-81460000D01*
X44000000Y-80000000D02*
X43000000Y-81000000D01*
X43000000Y-81460000D02*
X40640000Y-83820000D01*
X31820000Y-83820000D02*
X28000000Y-80000000D01*
X40640000Y-83820000D02*
X31820000Y-83820000D01*
X27000000Y-81000000D02*
X27000000Y-81585000D01*
X28000000Y-80000000D02*
X27000000Y-81000000D01*
X27000000Y-81585000D02*
X24130000Y-84455000D01*
X16455000Y-84455000D02*
X12000000Y-80000000D01*
X24130000Y-84455000D02*
X16455000Y-84455000D01*
X41535000Y-15475000D02*
X41000000Y-14940000D01*
X41535000Y-17125000D02*
X41535000Y-15475000D01*
X41000000Y-14940000D02*
X41000000Y-13000000D01*
X36000000Y-13000000D02*
X34000000Y-11000000D01*
X41000000Y-13000000D02*
X36000000Y-13000000D01*
X34000000Y-11000000D02*
X28000000Y-11000000D01*
X28000000Y-11000000D02*
X20000000Y-11000000D01*
X20000000Y-11000000D02*
X20000000Y-11000000D01*
X24760000Y-93840000D02*
X28000000Y-90600000D01*
X12000000Y-90600000D02*
X15240000Y-93840000D01*
X15240000Y-93840000D02*
X24760000Y-93840000D01*
X29000000Y-91600000D02*
X29000000Y-91865000D01*
X28000000Y-90600000D02*
X29000000Y-91600000D01*
X29000000Y-91865000D02*
X31750000Y-94615000D01*
X39985000Y-94615000D02*
X44000000Y-90600000D01*
X31750000Y-94615000D02*
X39985000Y-94615000D01*
X45000000Y-90600000D02*
X47625000Y-93225000D01*
X44000000Y-90600000D02*
X45000000Y-90600000D01*
X47625000Y-93225000D02*
X55125000Y-93225000D01*
X57750000Y-90600000D02*
X60000000Y-90600000D01*
X55125000Y-93225000D02*
X57750000Y-90600000D01*
X61000000Y-90600000D02*
X63500000Y-93100000D01*
X60000000Y-90600000D02*
X61000000Y-90600000D01*
X63500000Y-93100000D02*
X64525000Y-93100000D01*
X64525000Y-93100000D02*
X65405000Y-93980000D01*
X72620000Y-93980000D02*
X76000000Y-90600000D01*
X65405000Y-93980000D02*
X72620000Y-93980000D01*
X34000000Y-3055000D02*
X18000000Y-3055000D01*
X11000000Y-33000000D02*
X7000000Y-29000000D01*
X4164999Y-42835001D02*
X4000000Y-43000000D01*
X7000000Y-29000000D02*
X4164999Y-31835001D01*
X4164999Y-31835001D02*
X4164999Y-42835001D01*
X75000000Y-102300000D02*
X75000000Y-104070000D01*
X76000000Y-101300000D02*
X75000000Y-102300000D01*
X75000000Y-104070000D02*
X73660000Y-105410000D01*
X64110000Y-105410000D02*
X60000000Y-101300000D01*
X73660000Y-105410000D02*
X64110000Y-105410000D01*
X60000000Y-102800000D02*
X56515000Y-106285000D01*
X60000000Y-101300000D02*
X60000000Y-102800000D01*
X56515000Y-106285000D02*
X45325000Y-106285000D01*
X44000000Y-104960000D02*
X44000000Y-101300000D01*
X45325000Y-106285000D02*
X44000000Y-104960000D01*
X44000000Y-102800000D02*
X40755000Y-106045000D01*
X44000000Y-101300000D02*
X44000000Y-102800000D01*
X40755000Y-106045000D02*
X31115000Y-106045000D01*
X31115000Y-104415000D02*
X28000000Y-101300000D01*
X31115000Y-106045000D02*
X31115000Y-104415000D01*
X28000000Y-102800000D02*
X24755000Y-106045000D01*
X28000000Y-101300000D02*
X28000000Y-102800000D01*
X16745000Y-106045000D02*
X12000000Y-101300000D01*
X24755000Y-106045000D02*
X16745000Y-106045000D01*
X15875000Y-8255000D02*
X15240000Y-8890000D01*
X36195000Y-8255000D02*
X15875000Y-8255000D01*
X3175000Y-107315000D02*
X5985000Y-107315000D01*
X5985000Y-107315000D02*
X12000000Y-101300000D01*
X4780001Y-44749999D02*
X2654999Y-46875001D01*
X10250001Y-44749999D02*
X4780001Y-44749999D01*
X2654999Y-46875001D02*
X1905000Y-47625000D01*
X11000000Y-44000000D02*
X10250001Y-44749999D01*
X12000000Y-113500000D02*
X14070000Y-115570000D01*
X12000000Y-112000000D02*
X12000000Y-113500000D01*
X24430000Y-115570000D02*
X28000000Y-112000000D01*
X14070000Y-115570000D02*
X24430000Y-115570000D01*
X28000000Y-112000000D02*
X33260000Y-112000000D01*
X33260000Y-112000000D02*
X36830000Y-115570000D01*
X40430000Y-115570000D02*
X44000000Y-112000000D01*
X36830000Y-115570000D02*
X40430000Y-115570000D01*
X56430000Y-115570000D02*
X58970000Y-113030000D01*
X48570000Y-115570000D02*
X56430000Y-115570000D01*
X58970000Y-113030000D02*
X60000000Y-112000000D01*
X44000000Y-112000000D02*
X45000000Y-112000000D01*
X45000000Y-112000000D02*
X48570000Y-115570000D01*
X60000000Y-112000000D02*
X62470000Y-112000000D01*
X62470000Y-112000000D02*
X66675000Y-116205000D01*
X71795000Y-116205000D02*
X76000000Y-112000000D01*
X66675000Y-116205000D02*
X71795000Y-116205000D01*
X33655000Y-6985000D02*
X14605000Y-6985000D01*
X14605000Y-6985000D02*
X13970000Y-7620000D01*
X51695000Y-15475000D02*
X52070000Y-15100000D01*
X51695000Y-17125000D02*
X51695000Y-15475000D01*
X52070000Y-15100000D02*
X52070000Y-6350000D01*
X52070000Y-6350000D02*
X50800000Y-5080000D01*
X50800000Y-5080000D02*
X12700000Y-5080000D01*
X7875000Y-22225000D02*
X9525000Y-22225000D01*
X5715000Y-20065000D02*
X7875000Y-22225000D01*
X7620000Y-14605000D02*
X5715000Y-16510000D01*
X54235000Y-17125000D02*
X54235000Y-15475000D01*
X54235000Y-15475000D02*
X53340000Y-14580000D01*
X53340000Y-14580000D02*
X53340000Y-1905000D01*
X53340000Y-1905000D02*
X7620000Y-1905000D01*
X5715000Y-16510000D02*
X5715000Y-20065000D01*
X7620000Y-1905000D02*
X7620000Y-14605000D01*
X39995000Y-38031000D02*
X39995000Y-40031000D01*
X38964000Y-37000000D02*
X39995000Y-38031000D01*
X32183460Y-37000000D02*
X38964000Y-37000000D01*
X32028437Y-37155023D02*
X32183460Y-37000000D01*
X28931563Y-37155023D02*
X32028437Y-37155023D01*
X28776540Y-37000000D02*
X28931563Y-37155023D01*
X25928460Y-37000000D02*
X28776540Y-37000000D01*
X25723437Y-37205023D02*
X25928460Y-37000000D01*
X21266563Y-37205023D02*
X25723437Y-37205023D01*
X21061540Y-37000000D02*
X21266563Y-37205023D01*
X5715000Y-37000000D02*
X21061540Y-37000000D01*
X5715000Y-33655000D02*
X5715000Y-37000000D01*
X15649989Y-35999989D02*
X21475758Y-35999989D01*
X21475758Y-35999989D02*
X21680781Y-36205012D01*
X21680781Y-36205012D02*
X25309219Y-36205012D01*
X25309219Y-36205012D02*
X25514242Y-35999989D01*
X25514242Y-35999989D02*
X29190758Y-35999989D01*
X29190758Y-35999989D02*
X29345781Y-36155012D01*
X36394340Y-35499990D02*
X37455000Y-35499990D01*
X31769242Y-35999989D02*
X35894341Y-35999989D01*
X35894341Y-35999989D02*
X36394340Y-35499990D01*
X31614219Y-36155012D02*
X31769242Y-35999989D01*
X29345781Y-36155012D02*
X31614219Y-36155012D01*
X14605000Y-34955000D02*
X15649989Y-35999989D01*
X14605000Y-33655000D02*
X14605000Y-34955000D01*
X40640000Y-29845000D02*
X56515000Y-29845000D01*
X31200001Y-35155001D02*
X32065002Y-34290000D01*
X29604976Y-34999978D02*
X29759999Y-35155001D01*
X24839978Y-35205001D02*
X25045001Y-34999978D01*
X19050000Y-33655000D02*
X20544998Y-33655000D01*
X33229340Y-34290000D02*
X34290000Y-34290000D01*
X32065002Y-34290000D02*
X33229340Y-34290000D01*
X29759999Y-35155001D02*
X31200001Y-35155001D01*
X25045001Y-34999978D02*
X29604976Y-34999978D01*
X22094999Y-35205001D02*
X24839978Y-35205001D01*
X20544998Y-33655000D02*
X22094999Y-35205001D01*
X23495000Y-33655000D02*
X30480000Y-33655000D01*
X2540000Y-33655000D02*
X2540000Y-29845000D01*
X2540000Y-29845000D02*
X5080000Y-27305000D01*
X51695000Y-26395000D02*
X51695000Y-24745000D01*
X50785000Y-27305000D02*
X51695000Y-26395000D01*
X5080000Y-27305000D02*
X50785000Y-27305000D01*
M02*
