G04 #@! TF.GenerationSoftware,KiCad,Pcbnew,(5.1.5)-3*
G04 #@! TF.CreationDate,2020-01-14T15:58:57+01:00*
G04 #@! TF.ProjectId,calculatrice,63616c63-756c-4617-9472-6963652e6b69,rev?*
G04 #@! TF.SameCoordinates,Original*
G04 #@! TF.FileFunction,Soldermask,Top*
G04 #@! TF.FilePolarity,Negative*
%FSLAX46Y46*%
G04 Gerber Fmt 4.6, Leading zero omitted, Abs format (unit mm)*
G04 Created by KiCad (PCBNEW (5.1.5)-3) date 2020-01-14 15:58:57*
%MOMM*%
%LPD*%
G04 APERTURE LIST*
%ADD10C,0.100000*%
G04 APERTURE END LIST*
D10*
G36*
X79607589Y-114997048D02*
G01*
X79986671Y-115154069D01*
X80327835Y-115382028D01*
X80617972Y-115672165D01*
X80845931Y-116013329D01*
X81002952Y-116392411D01*
X81083000Y-116794842D01*
X81083000Y-117205158D01*
X81002952Y-117607589D01*
X80845931Y-117986671D01*
X80617972Y-118327835D01*
X80327835Y-118617972D01*
X79986671Y-118845931D01*
X79607589Y-119002952D01*
X79205159Y-119083000D01*
X78794841Y-119083000D01*
X78392411Y-119002952D01*
X78013329Y-118845931D01*
X77672165Y-118617972D01*
X77382028Y-118327835D01*
X77154069Y-117986671D01*
X76997048Y-117607589D01*
X76917000Y-117205158D01*
X76917000Y-116794842D01*
X76997048Y-116392411D01*
X77154069Y-116013329D01*
X77382028Y-115672165D01*
X77672165Y-115382028D01*
X78013329Y-115154069D01*
X78392411Y-114997048D01*
X78794841Y-114917000D01*
X79205159Y-114917000D01*
X79607589Y-114997048D01*
G37*
G36*
X3607589Y-114997048D02*
G01*
X3986671Y-115154069D01*
X4327835Y-115382028D01*
X4617972Y-115672165D01*
X4845931Y-116013329D01*
X5002952Y-116392411D01*
X5083000Y-116794842D01*
X5083000Y-117205158D01*
X5002952Y-117607589D01*
X4845931Y-117986671D01*
X4617972Y-118327835D01*
X4327835Y-118617972D01*
X3986671Y-118845931D01*
X3607589Y-119002952D01*
X3205159Y-119083000D01*
X2794841Y-119083000D01*
X2392411Y-119002952D01*
X2013329Y-118845931D01*
X1672165Y-118617972D01*
X1382028Y-118327835D01*
X1154069Y-117986671D01*
X997048Y-117607589D01*
X917000Y-117205158D01*
X917000Y-116794842D01*
X997048Y-116392411D01*
X1154069Y-116013329D01*
X1382028Y-115672165D01*
X1672165Y-115382028D01*
X2013329Y-115154069D01*
X2392411Y-114997048D01*
X2794841Y-114917000D01*
X3205159Y-114917000D01*
X3607589Y-114997048D01*
G37*
G36*
X38178210Y-110458489D02*
G01*
X38264950Y-110484802D01*
X38344889Y-110527530D01*
X38414962Y-110585038D01*
X38472470Y-110655111D01*
X38515198Y-110735050D01*
X38541511Y-110821790D01*
X38551000Y-110918140D01*
X38551000Y-113081860D01*
X38541511Y-113178210D01*
X38515198Y-113264950D01*
X38472470Y-113344889D01*
X38414962Y-113414962D01*
X38344889Y-113472470D01*
X38264950Y-113515198D01*
X38178210Y-113541511D01*
X38081860Y-113551000D01*
X36918140Y-113551000D01*
X36821790Y-113541511D01*
X36735050Y-113515198D01*
X36655111Y-113472470D01*
X36585038Y-113414962D01*
X36527530Y-113344889D01*
X36484802Y-113264950D01*
X36458489Y-113178210D01*
X36449000Y-113081860D01*
X36449000Y-110918140D01*
X36458489Y-110821790D01*
X36484802Y-110735050D01*
X36527530Y-110655111D01*
X36585038Y-110585038D01*
X36655111Y-110527530D01*
X36735050Y-110484802D01*
X36821790Y-110458489D01*
X36918140Y-110449000D01*
X38081860Y-110449000D01*
X38178210Y-110458489D01*
G37*
G36*
X70178210Y-110458489D02*
G01*
X70264950Y-110484802D01*
X70344889Y-110527530D01*
X70414962Y-110585038D01*
X70472470Y-110655111D01*
X70515198Y-110735050D01*
X70541511Y-110821790D01*
X70551000Y-110918140D01*
X70551000Y-113081860D01*
X70541511Y-113178210D01*
X70515198Y-113264950D01*
X70472470Y-113344889D01*
X70414962Y-113414962D01*
X70344889Y-113472470D01*
X70264950Y-113515198D01*
X70178210Y-113541511D01*
X70081860Y-113551000D01*
X68918140Y-113551000D01*
X68821790Y-113541511D01*
X68735050Y-113515198D01*
X68655111Y-113472470D01*
X68585038Y-113414962D01*
X68527530Y-113344889D01*
X68484802Y-113264950D01*
X68458489Y-113178210D01*
X68449000Y-113081860D01*
X68449000Y-110918140D01*
X68458489Y-110821790D01*
X68484802Y-110735050D01*
X68527530Y-110655111D01*
X68585038Y-110585038D01*
X68655111Y-110527530D01*
X68735050Y-110484802D01*
X68821790Y-110458489D01*
X68918140Y-110449000D01*
X70081860Y-110449000D01*
X70178210Y-110458489D01*
G37*
G36*
X60678210Y-110458489D02*
G01*
X60764950Y-110484802D01*
X60844889Y-110527530D01*
X60914962Y-110585038D01*
X60972470Y-110655111D01*
X61015198Y-110735050D01*
X61041511Y-110821790D01*
X61051000Y-110918140D01*
X61051000Y-113081860D01*
X61041511Y-113178210D01*
X61015198Y-113264950D01*
X60972470Y-113344889D01*
X60914962Y-113414962D01*
X60844889Y-113472470D01*
X60764950Y-113515198D01*
X60678210Y-113541511D01*
X60581860Y-113551000D01*
X59418140Y-113551000D01*
X59321790Y-113541511D01*
X59235050Y-113515198D01*
X59155111Y-113472470D01*
X59085038Y-113414962D01*
X59027530Y-113344889D01*
X58984802Y-113264950D01*
X58958489Y-113178210D01*
X58949000Y-113081860D01*
X58949000Y-110918140D01*
X58958489Y-110821790D01*
X58984802Y-110735050D01*
X59027530Y-110655111D01*
X59085038Y-110585038D01*
X59155111Y-110527530D01*
X59235050Y-110484802D01*
X59321790Y-110458489D01*
X59418140Y-110449000D01*
X60581860Y-110449000D01*
X60678210Y-110458489D01*
G37*
G36*
X44678210Y-110458489D02*
G01*
X44764950Y-110484802D01*
X44844889Y-110527530D01*
X44914962Y-110585038D01*
X44972470Y-110655111D01*
X45015198Y-110735050D01*
X45041511Y-110821790D01*
X45051000Y-110918140D01*
X45051000Y-113081860D01*
X45041511Y-113178210D01*
X45015198Y-113264950D01*
X44972470Y-113344889D01*
X44914962Y-113414962D01*
X44844889Y-113472470D01*
X44764950Y-113515198D01*
X44678210Y-113541511D01*
X44581860Y-113551000D01*
X43418140Y-113551000D01*
X43321790Y-113541511D01*
X43235050Y-113515198D01*
X43155111Y-113472470D01*
X43085038Y-113414962D01*
X43027530Y-113344889D01*
X42984802Y-113264950D01*
X42958489Y-113178210D01*
X42949000Y-113081860D01*
X42949000Y-110918140D01*
X42958489Y-110821790D01*
X42984802Y-110735050D01*
X43027530Y-110655111D01*
X43085038Y-110585038D01*
X43155111Y-110527530D01*
X43235050Y-110484802D01*
X43321790Y-110458489D01*
X43418140Y-110449000D01*
X44581860Y-110449000D01*
X44678210Y-110458489D01*
G37*
G36*
X22178210Y-110458489D02*
G01*
X22264950Y-110484802D01*
X22344889Y-110527530D01*
X22414962Y-110585038D01*
X22472470Y-110655111D01*
X22515198Y-110735050D01*
X22541511Y-110821790D01*
X22551000Y-110918140D01*
X22551000Y-113081860D01*
X22541511Y-113178210D01*
X22515198Y-113264950D01*
X22472470Y-113344889D01*
X22414962Y-113414962D01*
X22344889Y-113472470D01*
X22264950Y-113515198D01*
X22178210Y-113541511D01*
X22081860Y-113551000D01*
X20918140Y-113551000D01*
X20821790Y-113541511D01*
X20735050Y-113515198D01*
X20655111Y-113472470D01*
X20585038Y-113414962D01*
X20527530Y-113344889D01*
X20484802Y-113264950D01*
X20458489Y-113178210D01*
X20449000Y-113081860D01*
X20449000Y-110918140D01*
X20458489Y-110821790D01*
X20484802Y-110735050D01*
X20527530Y-110655111D01*
X20585038Y-110585038D01*
X20655111Y-110527530D01*
X20735050Y-110484802D01*
X20821790Y-110458489D01*
X20918140Y-110449000D01*
X22081860Y-110449000D01*
X22178210Y-110458489D01*
G37*
G36*
X28678210Y-110458489D02*
G01*
X28764950Y-110484802D01*
X28844889Y-110527530D01*
X28914962Y-110585038D01*
X28972470Y-110655111D01*
X29015198Y-110735050D01*
X29041511Y-110821790D01*
X29051000Y-110918140D01*
X29051000Y-113081860D01*
X29041511Y-113178210D01*
X29015198Y-113264950D01*
X28972470Y-113344889D01*
X28914962Y-113414962D01*
X28844889Y-113472470D01*
X28764950Y-113515198D01*
X28678210Y-113541511D01*
X28581860Y-113551000D01*
X27418140Y-113551000D01*
X27321790Y-113541511D01*
X27235050Y-113515198D01*
X27155111Y-113472470D01*
X27085038Y-113414962D01*
X27027530Y-113344889D01*
X26984802Y-113264950D01*
X26958489Y-113178210D01*
X26949000Y-113081860D01*
X26949000Y-110918140D01*
X26958489Y-110821790D01*
X26984802Y-110735050D01*
X27027530Y-110655111D01*
X27085038Y-110585038D01*
X27155111Y-110527530D01*
X27235050Y-110484802D01*
X27321790Y-110458489D01*
X27418140Y-110449000D01*
X28581860Y-110449000D01*
X28678210Y-110458489D01*
G37*
G36*
X12678210Y-110458489D02*
G01*
X12764950Y-110484802D01*
X12844889Y-110527530D01*
X12914962Y-110585038D01*
X12972470Y-110655111D01*
X13015198Y-110735050D01*
X13041511Y-110821790D01*
X13051000Y-110918140D01*
X13051000Y-113081860D01*
X13041511Y-113178210D01*
X13015198Y-113264950D01*
X12972470Y-113344889D01*
X12914962Y-113414962D01*
X12844889Y-113472470D01*
X12764950Y-113515198D01*
X12678210Y-113541511D01*
X12581860Y-113551000D01*
X11418140Y-113551000D01*
X11321790Y-113541511D01*
X11235050Y-113515198D01*
X11155111Y-113472470D01*
X11085038Y-113414962D01*
X11027530Y-113344889D01*
X10984802Y-113264950D01*
X10958489Y-113178210D01*
X10949000Y-113081860D01*
X10949000Y-110918140D01*
X10958489Y-110821790D01*
X10984802Y-110735050D01*
X11027530Y-110655111D01*
X11085038Y-110585038D01*
X11155111Y-110527530D01*
X11235050Y-110484802D01*
X11321790Y-110458489D01*
X11418140Y-110449000D01*
X12581860Y-110449000D01*
X12678210Y-110458489D01*
G37*
G36*
X6178210Y-110458489D02*
G01*
X6264950Y-110484802D01*
X6344889Y-110527530D01*
X6414962Y-110585038D01*
X6472470Y-110655111D01*
X6515198Y-110735050D01*
X6541511Y-110821790D01*
X6551000Y-110918140D01*
X6551000Y-113081860D01*
X6541511Y-113178210D01*
X6515198Y-113264950D01*
X6472470Y-113344889D01*
X6414962Y-113414962D01*
X6344889Y-113472470D01*
X6264950Y-113515198D01*
X6178210Y-113541511D01*
X6081860Y-113551000D01*
X4918140Y-113551000D01*
X4821790Y-113541511D01*
X4735050Y-113515198D01*
X4655111Y-113472470D01*
X4585038Y-113414962D01*
X4527530Y-113344889D01*
X4484802Y-113264950D01*
X4458489Y-113178210D01*
X4449000Y-113081860D01*
X4449000Y-110918140D01*
X4458489Y-110821790D01*
X4484802Y-110735050D01*
X4527530Y-110655111D01*
X4585038Y-110585038D01*
X4655111Y-110527530D01*
X4735050Y-110484802D01*
X4821790Y-110458489D01*
X4918140Y-110449000D01*
X6081860Y-110449000D01*
X6178210Y-110458489D01*
G37*
G36*
X76678210Y-110458489D02*
G01*
X76764950Y-110484802D01*
X76844889Y-110527530D01*
X76914962Y-110585038D01*
X76972470Y-110655111D01*
X77015198Y-110735050D01*
X77041511Y-110821790D01*
X77051000Y-110918140D01*
X77051000Y-113081860D01*
X77041511Y-113178210D01*
X77015198Y-113264950D01*
X76972470Y-113344889D01*
X76914962Y-113414962D01*
X76844889Y-113472470D01*
X76764950Y-113515198D01*
X76678210Y-113541511D01*
X76581860Y-113551000D01*
X75418140Y-113551000D01*
X75321790Y-113541511D01*
X75235050Y-113515198D01*
X75155111Y-113472470D01*
X75085038Y-113414962D01*
X75027530Y-113344889D01*
X74984802Y-113264950D01*
X74958489Y-113178210D01*
X74949000Y-113081860D01*
X74949000Y-110918140D01*
X74958489Y-110821790D01*
X74984802Y-110735050D01*
X75027530Y-110655111D01*
X75085038Y-110585038D01*
X75155111Y-110527530D01*
X75235050Y-110484802D01*
X75321790Y-110458489D01*
X75418140Y-110449000D01*
X76581860Y-110449000D01*
X76678210Y-110458489D01*
G37*
G36*
X54178210Y-110458489D02*
G01*
X54264950Y-110484802D01*
X54344889Y-110527530D01*
X54414962Y-110585038D01*
X54472470Y-110655111D01*
X54515198Y-110735050D01*
X54541511Y-110821790D01*
X54551000Y-110918140D01*
X54551000Y-113081860D01*
X54541511Y-113178210D01*
X54515198Y-113264950D01*
X54472470Y-113344889D01*
X54414962Y-113414962D01*
X54344889Y-113472470D01*
X54264950Y-113515198D01*
X54178210Y-113541511D01*
X54081860Y-113551000D01*
X52918140Y-113551000D01*
X52821790Y-113541511D01*
X52735050Y-113515198D01*
X52655111Y-113472470D01*
X52585038Y-113414962D01*
X52527530Y-113344889D01*
X52484802Y-113264950D01*
X52458489Y-113178210D01*
X52449000Y-113081860D01*
X52449000Y-110918140D01*
X52458489Y-110821790D01*
X52484802Y-110735050D01*
X52527530Y-110655111D01*
X52585038Y-110585038D01*
X52655111Y-110527530D01*
X52735050Y-110484802D01*
X52821790Y-110458489D01*
X52918140Y-110449000D01*
X54081860Y-110449000D01*
X54178210Y-110458489D01*
G37*
G36*
X22178210Y-99758489D02*
G01*
X22264950Y-99784802D01*
X22344889Y-99827530D01*
X22414962Y-99885038D01*
X22472470Y-99955111D01*
X22515198Y-100035050D01*
X22541511Y-100121790D01*
X22551000Y-100218140D01*
X22551000Y-102381860D01*
X22541511Y-102478210D01*
X22515198Y-102564950D01*
X22472470Y-102644889D01*
X22414962Y-102714962D01*
X22344889Y-102772470D01*
X22264950Y-102815198D01*
X22178210Y-102841511D01*
X22081860Y-102851000D01*
X20918140Y-102851000D01*
X20821790Y-102841511D01*
X20735050Y-102815198D01*
X20655111Y-102772470D01*
X20585038Y-102714962D01*
X20527530Y-102644889D01*
X20484802Y-102564950D01*
X20458489Y-102478210D01*
X20449000Y-102381860D01*
X20449000Y-100218140D01*
X20458489Y-100121790D01*
X20484802Y-100035050D01*
X20527530Y-99955111D01*
X20585038Y-99885038D01*
X20655111Y-99827530D01*
X20735050Y-99784802D01*
X20821790Y-99758489D01*
X20918140Y-99749000D01*
X22081860Y-99749000D01*
X22178210Y-99758489D01*
G37*
G36*
X6178210Y-99758489D02*
G01*
X6264950Y-99784802D01*
X6344889Y-99827530D01*
X6414962Y-99885038D01*
X6472470Y-99955111D01*
X6515198Y-100035050D01*
X6541511Y-100121790D01*
X6551000Y-100218140D01*
X6551000Y-102381860D01*
X6541511Y-102478210D01*
X6515198Y-102564950D01*
X6472470Y-102644889D01*
X6414962Y-102714962D01*
X6344889Y-102772470D01*
X6264950Y-102815198D01*
X6178210Y-102841511D01*
X6081860Y-102851000D01*
X4918140Y-102851000D01*
X4821790Y-102841511D01*
X4735050Y-102815198D01*
X4655111Y-102772470D01*
X4585038Y-102714962D01*
X4527530Y-102644889D01*
X4484802Y-102564950D01*
X4458489Y-102478210D01*
X4449000Y-102381860D01*
X4449000Y-100218140D01*
X4458489Y-100121790D01*
X4484802Y-100035050D01*
X4527530Y-99955111D01*
X4585038Y-99885038D01*
X4655111Y-99827530D01*
X4735050Y-99784802D01*
X4821790Y-99758489D01*
X4918140Y-99749000D01*
X6081860Y-99749000D01*
X6178210Y-99758489D01*
G37*
G36*
X12678210Y-99758489D02*
G01*
X12764950Y-99784802D01*
X12844889Y-99827530D01*
X12914962Y-99885038D01*
X12972470Y-99955111D01*
X13015198Y-100035050D01*
X13041511Y-100121790D01*
X13051000Y-100218140D01*
X13051000Y-102381860D01*
X13041511Y-102478210D01*
X13015198Y-102564950D01*
X12972470Y-102644889D01*
X12914962Y-102714962D01*
X12844889Y-102772470D01*
X12764950Y-102815198D01*
X12678210Y-102841511D01*
X12581860Y-102851000D01*
X11418140Y-102851000D01*
X11321790Y-102841511D01*
X11235050Y-102815198D01*
X11155111Y-102772470D01*
X11085038Y-102714962D01*
X11027530Y-102644889D01*
X10984802Y-102564950D01*
X10958489Y-102478210D01*
X10949000Y-102381860D01*
X10949000Y-100218140D01*
X10958489Y-100121790D01*
X10984802Y-100035050D01*
X11027530Y-99955111D01*
X11085038Y-99885038D01*
X11155111Y-99827530D01*
X11235050Y-99784802D01*
X11321790Y-99758489D01*
X11418140Y-99749000D01*
X12581860Y-99749000D01*
X12678210Y-99758489D01*
G37*
G36*
X38178210Y-99758489D02*
G01*
X38264950Y-99784802D01*
X38344889Y-99827530D01*
X38414962Y-99885038D01*
X38472470Y-99955111D01*
X38515198Y-100035050D01*
X38541511Y-100121790D01*
X38551000Y-100218140D01*
X38551000Y-102381860D01*
X38541511Y-102478210D01*
X38515198Y-102564950D01*
X38472470Y-102644889D01*
X38414962Y-102714962D01*
X38344889Y-102772470D01*
X38264950Y-102815198D01*
X38178210Y-102841511D01*
X38081860Y-102851000D01*
X36918140Y-102851000D01*
X36821790Y-102841511D01*
X36735050Y-102815198D01*
X36655111Y-102772470D01*
X36585038Y-102714962D01*
X36527530Y-102644889D01*
X36484802Y-102564950D01*
X36458489Y-102478210D01*
X36449000Y-102381860D01*
X36449000Y-100218140D01*
X36458489Y-100121790D01*
X36484802Y-100035050D01*
X36527530Y-99955111D01*
X36585038Y-99885038D01*
X36655111Y-99827530D01*
X36735050Y-99784802D01*
X36821790Y-99758489D01*
X36918140Y-99749000D01*
X38081860Y-99749000D01*
X38178210Y-99758489D01*
G37*
G36*
X44678210Y-99758489D02*
G01*
X44764950Y-99784802D01*
X44844889Y-99827530D01*
X44914962Y-99885038D01*
X44972470Y-99955111D01*
X45015198Y-100035050D01*
X45041511Y-100121790D01*
X45051000Y-100218140D01*
X45051000Y-102381860D01*
X45041511Y-102478210D01*
X45015198Y-102564950D01*
X44972470Y-102644889D01*
X44914962Y-102714962D01*
X44844889Y-102772470D01*
X44764950Y-102815198D01*
X44678210Y-102841511D01*
X44581860Y-102851000D01*
X43418140Y-102851000D01*
X43321790Y-102841511D01*
X43235050Y-102815198D01*
X43155111Y-102772470D01*
X43085038Y-102714962D01*
X43027530Y-102644889D01*
X42984802Y-102564950D01*
X42958489Y-102478210D01*
X42949000Y-102381860D01*
X42949000Y-100218140D01*
X42958489Y-100121790D01*
X42984802Y-100035050D01*
X43027530Y-99955111D01*
X43085038Y-99885038D01*
X43155111Y-99827530D01*
X43235050Y-99784802D01*
X43321790Y-99758489D01*
X43418140Y-99749000D01*
X44581860Y-99749000D01*
X44678210Y-99758489D01*
G37*
G36*
X28678210Y-99758489D02*
G01*
X28764950Y-99784802D01*
X28844889Y-99827530D01*
X28914962Y-99885038D01*
X28972470Y-99955111D01*
X29015198Y-100035050D01*
X29041511Y-100121790D01*
X29051000Y-100218140D01*
X29051000Y-102381860D01*
X29041511Y-102478210D01*
X29015198Y-102564950D01*
X28972470Y-102644889D01*
X28914962Y-102714962D01*
X28844889Y-102772470D01*
X28764950Y-102815198D01*
X28678210Y-102841511D01*
X28581860Y-102851000D01*
X27418140Y-102851000D01*
X27321790Y-102841511D01*
X27235050Y-102815198D01*
X27155111Y-102772470D01*
X27085038Y-102714962D01*
X27027530Y-102644889D01*
X26984802Y-102564950D01*
X26958489Y-102478210D01*
X26949000Y-102381860D01*
X26949000Y-100218140D01*
X26958489Y-100121790D01*
X26984802Y-100035050D01*
X27027530Y-99955111D01*
X27085038Y-99885038D01*
X27155111Y-99827530D01*
X27235050Y-99784802D01*
X27321790Y-99758489D01*
X27418140Y-99749000D01*
X28581860Y-99749000D01*
X28678210Y-99758489D01*
G37*
G36*
X54178210Y-99758489D02*
G01*
X54264950Y-99784802D01*
X54344889Y-99827530D01*
X54414962Y-99885038D01*
X54472470Y-99955111D01*
X54515198Y-100035050D01*
X54541511Y-100121790D01*
X54551000Y-100218140D01*
X54551000Y-102381860D01*
X54541511Y-102478210D01*
X54515198Y-102564950D01*
X54472470Y-102644889D01*
X54414962Y-102714962D01*
X54344889Y-102772470D01*
X54264950Y-102815198D01*
X54178210Y-102841511D01*
X54081860Y-102851000D01*
X52918140Y-102851000D01*
X52821790Y-102841511D01*
X52735050Y-102815198D01*
X52655111Y-102772470D01*
X52585038Y-102714962D01*
X52527530Y-102644889D01*
X52484802Y-102564950D01*
X52458489Y-102478210D01*
X52449000Y-102381860D01*
X52449000Y-100218140D01*
X52458489Y-100121790D01*
X52484802Y-100035050D01*
X52527530Y-99955111D01*
X52585038Y-99885038D01*
X52655111Y-99827530D01*
X52735050Y-99784802D01*
X52821790Y-99758489D01*
X52918140Y-99749000D01*
X54081860Y-99749000D01*
X54178210Y-99758489D01*
G37*
G36*
X60678210Y-99758489D02*
G01*
X60764950Y-99784802D01*
X60844889Y-99827530D01*
X60914962Y-99885038D01*
X60972470Y-99955111D01*
X61015198Y-100035050D01*
X61041511Y-100121790D01*
X61051000Y-100218140D01*
X61051000Y-102381860D01*
X61041511Y-102478210D01*
X61015198Y-102564950D01*
X60972470Y-102644889D01*
X60914962Y-102714962D01*
X60844889Y-102772470D01*
X60764950Y-102815198D01*
X60678210Y-102841511D01*
X60581860Y-102851000D01*
X59418140Y-102851000D01*
X59321790Y-102841511D01*
X59235050Y-102815198D01*
X59155111Y-102772470D01*
X59085038Y-102714962D01*
X59027530Y-102644889D01*
X58984802Y-102564950D01*
X58958489Y-102478210D01*
X58949000Y-102381860D01*
X58949000Y-100218140D01*
X58958489Y-100121790D01*
X58984802Y-100035050D01*
X59027530Y-99955111D01*
X59085038Y-99885038D01*
X59155111Y-99827530D01*
X59235050Y-99784802D01*
X59321790Y-99758489D01*
X59418140Y-99749000D01*
X60581860Y-99749000D01*
X60678210Y-99758489D01*
G37*
G36*
X70178210Y-99758489D02*
G01*
X70264950Y-99784802D01*
X70344889Y-99827530D01*
X70414962Y-99885038D01*
X70472470Y-99955111D01*
X70515198Y-100035050D01*
X70541511Y-100121790D01*
X70551000Y-100218140D01*
X70551000Y-102381860D01*
X70541511Y-102478210D01*
X70515198Y-102564950D01*
X70472470Y-102644889D01*
X70414962Y-102714962D01*
X70344889Y-102772470D01*
X70264950Y-102815198D01*
X70178210Y-102841511D01*
X70081860Y-102851000D01*
X68918140Y-102851000D01*
X68821790Y-102841511D01*
X68735050Y-102815198D01*
X68655111Y-102772470D01*
X68585038Y-102714962D01*
X68527530Y-102644889D01*
X68484802Y-102564950D01*
X68458489Y-102478210D01*
X68449000Y-102381860D01*
X68449000Y-100218140D01*
X68458489Y-100121790D01*
X68484802Y-100035050D01*
X68527530Y-99955111D01*
X68585038Y-99885038D01*
X68655111Y-99827530D01*
X68735050Y-99784802D01*
X68821790Y-99758489D01*
X68918140Y-99749000D01*
X70081860Y-99749000D01*
X70178210Y-99758489D01*
G37*
G36*
X76678210Y-99758489D02*
G01*
X76764950Y-99784802D01*
X76844889Y-99827530D01*
X76914962Y-99885038D01*
X76972470Y-99955111D01*
X77015198Y-100035050D01*
X77041511Y-100121790D01*
X77051000Y-100218140D01*
X77051000Y-102381860D01*
X77041511Y-102478210D01*
X77015198Y-102564950D01*
X76972470Y-102644889D01*
X76914962Y-102714962D01*
X76844889Y-102772470D01*
X76764950Y-102815198D01*
X76678210Y-102841511D01*
X76581860Y-102851000D01*
X75418140Y-102851000D01*
X75321790Y-102841511D01*
X75235050Y-102815198D01*
X75155111Y-102772470D01*
X75085038Y-102714962D01*
X75027530Y-102644889D01*
X74984802Y-102564950D01*
X74958489Y-102478210D01*
X74949000Y-102381860D01*
X74949000Y-100218140D01*
X74958489Y-100121790D01*
X74984802Y-100035050D01*
X75027530Y-99955111D01*
X75085038Y-99885038D01*
X75155111Y-99827530D01*
X75235050Y-99784802D01*
X75321790Y-99758489D01*
X75418140Y-99749000D01*
X76581860Y-99749000D01*
X76678210Y-99758489D01*
G37*
G36*
X70178210Y-89058489D02*
G01*
X70264950Y-89084802D01*
X70344889Y-89127530D01*
X70414962Y-89185038D01*
X70472470Y-89255111D01*
X70515198Y-89335050D01*
X70541511Y-89421790D01*
X70551000Y-89518140D01*
X70551000Y-91681860D01*
X70541511Y-91778210D01*
X70515198Y-91864950D01*
X70472470Y-91944889D01*
X70414962Y-92014962D01*
X70344889Y-92072470D01*
X70264950Y-92115198D01*
X70178210Y-92141511D01*
X70081860Y-92151000D01*
X68918140Y-92151000D01*
X68821790Y-92141511D01*
X68735050Y-92115198D01*
X68655111Y-92072470D01*
X68585038Y-92014962D01*
X68527530Y-91944889D01*
X68484802Y-91864950D01*
X68458489Y-91778210D01*
X68449000Y-91681860D01*
X68449000Y-89518140D01*
X68458489Y-89421790D01*
X68484802Y-89335050D01*
X68527530Y-89255111D01*
X68585038Y-89185038D01*
X68655111Y-89127530D01*
X68735050Y-89084802D01*
X68821790Y-89058489D01*
X68918140Y-89049000D01*
X70081860Y-89049000D01*
X70178210Y-89058489D01*
G37*
G36*
X76678210Y-89058489D02*
G01*
X76764950Y-89084802D01*
X76844889Y-89127530D01*
X76914962Y-89185038D01*
X76972470Y-89255111D01*
X77015198Y-89335050D01*
X77041511Y-89421790D01*
X77051000Y-89518140D01*
X77051000Y-91681860D01*
X77041511Y-91778210D01*
X77015198Y-91864950D01*
X76972470Y-91944889D01*
X76914962Y-92014962D01*
X76844889Y-92072470D01*
X76764950Y-92115198D01*
X76678210Y-92141511D01*
X76581860Y-92151000D01*
X75418140Y-92151000D01*
X75321790Y-92141511D01*
X75235050Y-92115198D01*
X75155111Y-92072470D01*
X75085038Y-92014962D01*
X75027530Y-91944889D01*
X74984802Y-91864950D01*
X74958489Y-91778210D01*
X74949000Y-91681860D01*
X74949000Y-89518140D01*
X74958489Y-89421790D01*
X74984802Y-89335050D01*
X75027530Y-89255111D01*
X75085038Y-89185038D01*
X75155111Y-89127530D01*
X75235050Y-89084802D01*
X75321790Y-89058489D01*
X75418140Y-89049000D01*
X76581860Y-89049000D01*
X76678210Y-89058489D01*
G37*
G36*
X60678210Y-89058489D02*
G01*
X60764950Y-89084802D01*
X60844889Y-89127530D01*
X60914962Y-89185038D01*
X60972470Y-89255111D01*
X61015198Y-89335050D01*
X61041511Y-89421790D01*
X61051000Y-89518140D01*
X61051000Y-91681860D01*
X61041511Y-91778210D01*
X61015198Y-91864950D01*
X60972470Y-91944889D01*
X60914962Y-92014962D01*
X60844889Y-92072470D01*
X60764950Y-92115198D01*
X60678210Y-92141511D01*
X60581860Y-92151000D01*
X59418140Y-92151000D01*
X59321790Y-92141511D01*
X59235050Y-92115198D01*
X59155111Y-92072470D01*
X59085038Y-92014962D01*
X59027530Y-91944889D01*
X58984802Y-91864950D01*
X58958489Y-91778210D01*
X58949000Y-91681860D01*
X58949000Y-89518140D01*
X58958489Y-89421790D01*
X58984802Y-89335050D01*
X59027530Y-89255111D01*
X59085038Y-89185038D01*
X59155111Y-89127530D01*
X59235050Y-89084802D01*
X59321790Y-89058489D01*
X59418140Y-89049000D01*
X60581860Y-89049000D01*
X60678210Y-89058489D01*
G37*
G36*
X54178210Y-89058489D02*
G01*
X54264950Y-89084802D01*
X54344889Y-89127530D01*
X54414962Y-89185038D01*
X54472470Y-89255111D01*
X54515198Y-89335050D01*
X54541511Y-89421790D01*
X54551000Y-89518140D01*
X54551000Y-91681860D01*
X54541511Y-91778210D01*
X54515198Y-91864950D01*
X54472470Y-91944889D01*
X54414962Y-92014962D01*
X54344889Y-92072470D01*
X54264950Y-92115198D01*
X54178210Y-92141511D01*
X54081860Y-92151000D01*
X52918140Y-92151000D01*
X52821790Y-92141511D01*
X52735050Y-92115198D01*
X52655111Y-92072470D01*
X52585038Y-92014962D01*
X52527530Y-91944889D01*
X52484802Y-91864950D01*
X52458489Y-91778210D01*
X52449000Y-91681860D01*
X52449000Y-89518140D01*
X52458489Y-89421790D01*
X52484802Y-89335050D01*
X52527530Y-89255111D01*
X52585038Y-89185038D01*
X52655111Y-89127530D01*
X52735050Y-89084802D01*
X52821790Y-89058489D01*
X52918140Y-89049000D01*
X54081860Y-89049000D01*
X54178210Y-89058489D01*
G37*
G36*
X38178210Y-89058489D02*
G01*
X38264950Y-89084802D01*
X38344889Y-89127530D01*
X38414962Y-89185038D01*
X38472470Y-89255111D01*
X38515198Y-89335050D01*
X38541511Y-89421790D01*
X38551000Y-89518140D01*
X38551000Y-91681860D01*
X38541511Y-91778210D01*
X38515198Y-91864950D01*
X38472470Y-91944889D01*
X38414962Y-92014962D01*
X38344889Y-92072470D01*
X38264950Y-92115198D01*
X38178210Y-92141511D01*
X38081860Y-92151000D01*
X36918140Y-92151000D01*
X36821790Y-92141511D01*
X36735050Y-92115198D01*
X36655111Y-92072470D01*
X36585038Y-92014962D01*
X36527530Y-91944889D01*
X36484802Y-91864950D01*
X36458489Y-91778210D01*
X36449000Y-91681860D01*
X36449000Y-89518140D01*
X36458489Y-89421790D01*
X36484802Y-89335050D01*
X36527530Y-89255111D01*
X36585038Y-89185038D01*
X36655111Y-89127530D01*
X36735050Y-89084802D01*
X36821790Y-89058489D01*
X36918140Y-89049000D01*
X38081860Y-89049000D01*
X38178210Y-89058489D01*
G37*
G36*
X22178210Y-89058489D02*
G01*
X22264950Y-89084802D01*
X22344889Y-89127530D01*
X22414962Y-89185038D01*
X22472470Y-89255111D01*
X22515198Y-89335050D01*
X22541511Y-89421790D01*
X22551000Y-89518140D01*
X22551000Y-91681860D01*
X22541511Y-91778210D01*
X22515198Y-91864950D01*
X22472470Y-91944889D01*
X22414962Y-92014962D01*
X22344889Y-92072470D01*
X22264950Y-92115198D01*
X22178210Y-92141511D01*
X22081860Y-92151000D01*
X20918140Y-92151000D01*
X20821790Y-92141511D01*
X20735050Y-92115198D01*
X20655111Y-92072470D01*
X20585038Y-92014962D01*
X20527530Y-91944889D01*
X20484802Y-91864950D01*
X20458489Y-91778210D01*
X20449000Y-91681860D01*
X20449000Y-89518140D01*
X20458489Y-89421790D01*
X20484802Y-89335050D01*
X20527530Y-89255111D01*
X20585038Y-89185038D01*
X20655111Y-89127530D01*
X20735050Y-89084802D01*
X20821790Y-89058489D01*
X20918140Y-89049000D01*
X22081860Y-89049000D01*
X22178210Y-89058489D01*
G37*
G36*
X44678210Y-89058489D02*
G01*
X44764950Y-89084802D01*
X44844889Y-89127530D01*
X44914962Y-89185038D01*
X44972470Y-89255111D01*
X45015198Y-89335050D01*
X45041511Y-89421790D01*
X45051000Y-89518140D01*
X45051000Y-91681860D01*
X45041511Y-91778210D01*
X45015198Y-91864950D01*
X44972470Y-91944889D01*
X44914962Y-92014962D01*
X44844889Y-92072470D01*
X44764950Y-92115198D01*
X44678210Y-92141511D01*
X44581860Y-92151000D01*
X43418140Y-92151000D01*
X43321790Y-92141511D01*
X43235050Y-92115198D01*
X43155111Y-92072470D01*
X43085038Y-92014962D01*
X43027530Y-91944889D01*
X42984802Y-91864950D01*
X42958489Y-91778210D01*
X42949000Y-91681860D01*
X42949000Y-89518140D01*
X42958489Y-89421790D01*
X42984802Y-89335050D01*
X43027530Y-89255111D01*
X43085038Y-89185038D01*
X43155111Y-89127530D01*
X43235050Y-89084802D01*
X43321790Y-89058489D01*
X43418140Y-89049000D01*
X44581860Y-89049000D01*
X44678210Y-89058489D01*
G37*
G36*
X6178210Y-89058489D02*
G01*
X6264950Y-89084802D01*
X6344889Y-89127530D01*
X6414962Y-89185038D01*
X6472470Y-89255111D01*
X6515198Y-89335050D01*
X6541511Y-89421790D01*
X6551000Y-89518140D01*
X6551000Y-91681860D01*
X6541511Y-91778210D01*
X6515198Y-91864950D01*
X6472470Y-91944889D01*
X6414962Y-92014962D01*
X6344889Y-92072470D01*
X6264950Y-92115198D01*
X6178210Y-92141511D01*
X6081860Y-92151000D01*
X4918140Y-92151000D01*
X4821790Y-92141511D01*
X4735050Y-92115198D01*
X4655111Y-92072470D01*
X4585038Y-92014962D01*
X4527530Y-91944889D01*
X4484802Y-91864950D01*
X4458489Y-91778210D01*
X4449000Y-91681860D01*
X4449000Y-89518140D01*
X4458489Y-89421790D01*
X4484802Y-89335050D01*
X4527530Y-89255111D01*
X4585038Y-89185038D01*
X4655111Y-89127530D01*
X4735050Y-89084802D01*
X4821790Y-89058489D01*
X4918140Y-89049000D01*
X6081860Y-89049000D01*
X6178210Y-89058489D01*
G37*
G36*
X12678210Y-89058489D02*
G01*
X12764950Y-89084802D01*
X12844889Y-89127530D01*
X12914962Y-89185038D01*
X12972470Y-89255111D01*
X13015198Y-89335050D01*
X13041511Y-89421790D01*
X13051000Y-89518140D01*
X13051000Y-91681860D01*
X13041511Y-91778210D01*
X13015198Y-91864950D01*
X12972470Y-91944889D01*
X12914962Y-92014962D01*
X12844889Y-92072470D01*
X12764950Y-92115198D01*
X12678210Y-92141511D01*
X12581860Y-92151000D01*
X11418140Y-92151000D01*
X11321790Y-92141511D01*
X11235050Y-92115198D01*
X11155111Y-92072470D01*
X11085038Y-92014962D01*
X11027530Y-91944889D01*
X10984802Y-91864950D01*
X10958489Y-91778210D01*
X10949000Y-91681860D01*
X10949000Y-89518140D01*
X10958489Y-89421790D01*
X10984802Y-89335050D01*
X11027530Y-89255111D01*
X11085038Y-89185038D01*
X11155111Y-89127530D01*
X11235050Y-89084802D01*
X11321790Y-89058489D01*
X11418140Y-89049000D01*
X12581860Y-89049000D01*
X12678210Y-89058489D01*
G37*
G36*
X28678210Y-89058489D02*
G01*
X28764950Y-89084802D01*
X28844889Y-89127530D01*
X28914962Y-89185038D01*
X28972470Y-89255111D01*
X29015198Y-89335050D01*
X29041511Y-89421790D01*
X29051000Y-89518140D01*
X29051000Y-91681860D01*
X29041511Y-91778210D01*
X29015198Y-91864950D01*
X28972470Y-91944889D01*
X28914962Y-92014962D01*
X28844889Y-92072470D01*
X28764950Y-92115198D01*
X28678210Y-92141511D01*
X28581860Y-92151000D01*
X27418140Y-92151000D01*
X27321790Y-92141511D01*
X27235050Y-92115198D01*
X27155111Y-92072470D01*
X27085038Y-92014962D01*
X27027530Y-91944889D01*
X26984802Y-91864950D01*
X26958489Y-91778210D01*
X26949000Y-91681860D01*
X26949000Y-89518140D01*
X26958489Y-89421790D01*
X26984802Y-89335050D01*
X27027530Y-89255111D01*
X27085038Y-89185038D01*
X27155111Y-89127530D01*
X27235050Y-89084802D01*
X27321790Y-89058489D01*
X27418140Y-89049000D01*
X28581860Y-89049000D01*
X28678210Y-89058489D01*
G37*
G36*
X60678210Y-78458489D02*
G01*
X60764950Y-78484802D01*
X60844889Y-78527530D01*
X60914962Y-78585038D01*
X60972470Y-78655111D01*
X61015198Y-78735050D01*
X61041511Y-78821790D01*
X61051000Y-78918140D01*
X61051000Y-81081860D01*
X61041511Y-81178210D01*
X61015198Y-81264950D01*
X60972470Y-81344889D01*
X60914962Y-81414962D01*
X60844889Y-81472470D01*
X60764950Y-81515198D01*
X60678210Y-81541511D01*
X60581860Y-81551000D01*
X59418140Y-81551000D01*
X59321790Y-81541511D01*
X59235050Y-81515198D01*
X59155111Y-81472470D01*
X59085038Y-81414962D01*
X59027530Y-81344889D01*
X58984802Y-81264950D01*
X58958489Y-81178210D01*
X58949000Y-81081860D01*
X58949000Y-78918140D01*
X58958489Y-78821790D01*
X58984802Y-78735050D01*
X59027530Y-78655111D01*
X59085038Y-78585038D01*
X59155111Y-78527530D01*
X59235050Y-78484802D01*
X59321790Y-78458489D01*
X59418140Y-78449000D01*
X60581860Y-78449000D01*
X60678210Y-78458489D01*
G37*
G36*
X22178210Y-78458489D02*
G01*
X22264950Y-78484802D01*
X22344889Y-78527530D01*
X22414962Y-78585038D01*
X22472470Y-78655111D01*
X22515198Y-78735050D01*
X22541511Y-78821790D01*
X22551000Y-78918140D01*
X22551000Y-81081860D01*
X22541511Y-81178210D01*
X22515198Y-81264950D01*
X22472470Y-81344889D01*
X22414962Y-81414962D01*
X22344889Y-81472470D01*
X22264950Y-81515198D01*
X22178210Y-81541511D01*
X22081860Y-81551000D01*
X20918140Y-81551000D01*
X20821790Y-81541511D01*
X20735050Y-81515198D01*
X20655111Y-81472470D01*
X20585038Y-81414962D01*
X20527530Y-81344889D01*
X20484802Y-81264950D01*
X20458489Y-81178210D01*
X20449000Y-81081860D01*
X20449000Y-78918140D01*
X20458489Y-78821790D01*
X20484802Y-78735050D01*
X20527530Y-78655111D01*
X20585038Y-78585038D01*
X20655111Y-78527530D01*
X20735050Y-78484802D01*
X20821790Y-78458489D01*
X20918140Y-78449000D01*
X22081860Y-78449000D01*
X22178210Y-78458489D01*
G37*
G36*
X28678210Y-78458489D02*
G01*
X28764950Y-78484802D01*
X28844889Y-78527530D01*
X28914962Y-78585038D01*
X28972470Y-78655111D01*
X29015198Y-78735050D01*
X29041511Y-78821790D01*
X29051000Y-78918140D01*
X29051000Y-81081860D01*
X29041511Y-81178210D01*
X29015198Y-81264950D01*
X28972470Y-81344889D01*
X28914962Y-81414962D01*
X28844889Y-81472470D01*
X28764950Y-81515198D01*
X28678210Y-81541511D01*
X28581860Y-81551000D01*
X27418140Y-81551000D01*
X27321790Y-81541511D01*
X27235050Y-81515198D01*
X27155111Y-81472470D01*
X27085038Y-81414962D01*
X27027530Y-81344889D01*
X26984802Y-81264950D01*
X26958489Y-81178210D01*
X26949000Y-81081860D01*
X26949000Y-78918140D01*
X26958489Y-78821790D01*
X26984802Y-78735050D01*
X27027530Y-78655111D01*
X27085038Y-78585038D01*
X27155111Y-78527530D01*
X27235050Y-78484802D01*
X27321790Y-78458489D01*
X27418140Y-78449000D01*
X28581860Y-78449000D01*
X28678210Y-78458489D01*
G37*
G36*
X38178210Y-78458489D02*
G01*
X38264950Y-78484802D01*
X38344889Y-78527530D01*
X38414962Y-78585038D01*
X38472470Y-78655111D01*
X38515198Y-78735050D01*
X38541511Y-78821790D01*
X38551000Y-78918140D01*
X38551000Y-81081860D01*
X38541511Y-81178210D01*
X38515198Y-81264950D01*
X38472470Y-81344889D01*
X38414962Y-81414962D01*
X38344889Y-81472470D01*
X38264950Y-81515198D01*
X38178210Y-81541511D01*
X38081860Y-81551000D01*
X36918140Y-81551000D01*
X36821790Y-81541511D01*
X36735050Y-81515198D01*
X36655111Y-81472470D01*
X36585038Y-81414962D01*
X36527530Y-81344889D01*
X36484802Y-81264950D01*
X36458489Y-81178210D01*
X36449000Y-81081860D01*
X36449000Y-78918140D01*
X36458489Y-78821790D01*
X36484802Y-78735050D01*
X36527530Y-78655111D01*
X36585038Y-78585038D01*
X36655111Y-78527530D01*
X36735050Y-78484802D01*
X36821790Y-78458489D01*
X36918140Y-78449000D01*
X38081860Y-78449000D01*
X38178210Y-78458489D01*
G37*
G36*
X54178210Y-78458489D02*
G01*
X54264950Y-78484802D01*
X54344889Y-78527530D01*
X54414962Y-78585038D01*
X54472470Y-78655111D01*
X54515198Y-78735050D01*
X54541511Y-78821790D01*
X54551000Y-78918140D01*
X54551000Y-81081860D01*
X54541511Y-81178210D01*
X54515198Y-81264950D01*
X54472470Y-81344889D01*
X54414962Y-81414962D01*
X54344889Y-81472470D01*
X54264950Y-81515198D01*
X54178210Y-81541511D01*
X54081860Y-81551000D01*
X52918140Y-81551000D01*
X52821790Y-81541511D01*
X52735050Y-81515198D01*
X52655111Y-81472470D01*
X52585038Y-81414962D01*
X52527530Y-81344889D01*
X52484802Y-81264950D01*
X52458489Y-81178210D01*
X52449000Y-81081860D01*
X52449000Y-78918140D01*
X52458489Y-78821790D01*
X52484802Y-78735050D01*
X52527530Y-78655111D01*
X52585038Y-78585038D01*
X52655111Y-78527530D01*
X52735050Y-78484802D01*
X52821790Y-78458489D01*
X52918140Y-78449000D01*
X54081860Y-78449000D01*
X54178210Y-78458489D01*
G37*
G36*
X6178210Y-78458489D02*
G01*
X6264950Y-78484802D01*
X6344889Y-78527530D01*
X6414962Y-78585038D01*
X6472470Y-78655111D01*
X6515198Y-78735050D01*
X6541511Y-78821790D01*
X6551000Y-78918140D01*
X6551000Y-81081860D01*
X6541511Y-81178210D01*
X6515198Y-81264950D01*
X6472470Y-81344889D01*
X6414962Y-81414962D01*
X6344889Y-81472470D01*
X6264950Y-81515198D01*
X6178210Y-81541511D01*
X6081860Y-81551000D01*
X4918140Y-81551000D01*
X4821790Y-81541511D01*
X4735050Y-81515198D01*
X4655111Y-81472470D01*
X4585038Y-81414962D01*
X4527530Y-81344889D01*
X4484802Y-81264950D01*
X4458489Y-81178210D01*
X4449000Y-81081860D01*
X4449000Y-78918140D01*
X4458489Y-78821790D01*
X4484802Y-78735050D01*
X4527530Y-78655111D01*
X4585038Y-78585038D01*
X4655111Y-78527530D01*
X4735050Y-78484802D01*
X4821790Y-78458489D01*
X4918140Y-78449000D01*
X6081860Y-78449000D01*
X6178210Y-78458489D01*
G37*
G36*
X12678210Y-78458489D02*
G01*
X12764950Y-78484802D01*
X12844889Y-78527530D01*
X12914962Y-78585038D01*
X12972470Y-78655111D01*
X13015198Y-78735050D01*
X13041511Y-78821790D01*
X13051000Y-78918140D01*
X13051000Y-81081860D01*
X13041511Y-81178210D01*
X13015198Y-81264950D01*
X12972470Y-81344889D01*
X12914962Y-81414962D01*
X12844889Y-81472470D01*
X12764950Y-81515198D01*
X12678210Y-81541511D01*
X12581860Y-81551000D01*
X11418140Y-81551000D01*
X11321790Y-81541511D01*
X11235050Y-81515198D01*
X11155111Y-81472470D01*
X11085038Y-81414962D01*
X11027530Y-81344889D01*
X10984802Y-81264950D01*
X10958489Y-81178210D01*
X10949000Y-81081860D01*
X10949000Y-78918140D01*
X10958489Y-78821790D01*
X10984802Y-78735050D01*
X11027530Y-78655111D01*
X11085038Y-78585038D01*
X11155111Y-78527530D01*
X11235050Y-78484802D01*
X11321790Y-78458489D01*
X11418140Y-78449000D01*
X12581860Y-78449000D01*
X12678210Y-78458489D01*
G37*
G36*
X76678210Y-78458489D02*
G01*
X76764950Y-78484802D01*
X76844889Y-78527530D01*
X76914962Y-78585038D01*
X76972470Y-78655111D01*
X77015198Y-78735050D01*
X77041511Y-78821790D01*
X77051000Y-78918140D01*
X77051000Y-81081860D01*
X77041511Y-81178210D01*
X77015198Y-81264950D01*
X76972470Y-81344889D01*
X76914962Y-81414962D01*
X76844889Y-81472470D01*
X76764950Y-81515198D01*
X76678210Y-81541511D01*
X76581860Y-81551000D01*
X75418140Y-81551000D01*
X75321790Y-81541511D01*
X75235050Y-81515198D01*
X75155111Y-81472470D01*
X75085038Y-81414962D01*
X75027530Y-81344889D01*
X74984802Y-81264950D01*
X74958489Y-81178210D01*
X74949000Y-81081860D01*
X74949000Y-78918140D01*
X74958489Y-78821790D01*
X74984802Y-78735050D01*
X75027530Y-78655111D01*
X75085038Y-78585038D01*
X75155111Y-78527530D01*
X75235050Y-78484802D01*
X75321790Y-78458489D01*
X75418140Y-78449000D01*
X76581860Y-78449000D01*
X76678210Y-78458489D01*
G37*
G36*
X70178210Y-78458489D02*
G01*
X70264950Y-78484802D01*
X70344889Y-78527530D01*
X70414962Y-78585038D01*
X70472470Y-78655111D01*
X70515198Y-78735050D01*
X70541511Y-78821790D01*
X70551000Y-78918140D01*
X70551000Y-81081860D01*
X70541511Y-81178210D01*
X70515198Y-81264950D01*
X70472470Y-81344889D01*
X70414962Y-81414962D01*
X70344889Y-81472470D01*
X70264950Y-81515198D01*
X70178210Y-81541511D01*
X70081860Y-81551000D01*
X68918140Y-81551000D01*
X68821790Y-81541511D01*
X68735050Y-81515198D01*
X68655111Y-81472470D01*
X68585038Y-81414962D01*
X68527530Y-81344889D01*
X68484802Y-81264950D01*
X68458489Y-81178210D01*
X68449000Y-81081860D01*
X68449000Y-78918140D01*
X68458489Y-78821790D01*
X68484802Y-78735050D01*
X68527530Y-78655111D01*
X68585038Y-78585038D01*
X68655111Y-78527530D01*
X68735050Y-78484802D01*
X68821790Y-78458489D01*
X68918140Y-78449000D01*
X70081860Y-78449000D01*
X70178210Y-78458489D01*
G37*
G36*
X44678210Y-78458489D02*
G01*
X44764950Y-78484802D01*
X44844889Y-78527530D01*
X44914962Y-78585038D01*
X44972470Y-78655111D01*
X45015198Y-78735050D01*
X45041511Y-78821790D01*
X45051000Y-78918140D01*
X45051000Y-81081860D01*
X45041511Y-81178210D01*
X45015198Y-81264950D01*
X44972470Y-81344889D01*
X44914962Y-81414962D01*
X44844889Y-81472470D01*
X44764950Y-81515198D01*
X44678210Y-81541511D01*
X44581860Y-81551000D01*
X43418140Y-81551000D01*
X43321790Y-81541511D01*
X43235050Y-81515198D01*
X43155111Y-81472470D01*
X43085038Y-81414962D01*
X43027530Y-81344889D01*
X42984802Y-81264950D01*
X42958489Y-81178210D01*
X42949000Y-81081860D01*
X42949000Y-78918140D01*
X42958489Y-78821790D01*
X42984802Y-78735050D01*
X43027530Y-78655111D01*
X43085038Y-78585038D01*
X43155111Y-78527530D01*
X43235050Y-78484802D01*
X43321790Y-78458489D01*
X43418140Y-78449000D01*
X44581860Y-78449000D01*
X44678210Y-78458489D01*
G37*
G36*
X44678210Y-67758489D02*
G01*
X44764950Y-67784802D01*
X44844889Y-67827530D01*
X44914962Y-67885038D01*
X44972470Y-67955111D01*
X45015198Y-68035050D01*
X45041511Y-68121790D01*
X45051000Y-68218140D01*
X45051000Y-70381860D01*
X45041511Y-70478210D01*
X45015198Y-70564950D01*
X44972470Y-70644889D01*
X44914962Y-70714962D01*
X44844889Y-70772470D01*
X44764950Y-70815198D01*
X44678210Y-70841511D01*
X44581860Y-70851000D01*
X43418140Y-70851000D01*
X43321790Y-70841511D01*
X43235050Y-70815198D01*
X43155111Y-70772470D01*
X43085038Y-70714962D01*
X43027530Y-70644889D01*
X42984802Y-70564950D01*
X42958489Y-70478210D01*
X42949000Y-70381860D01*
X42949000Y-68218140D01*
X42958489Y-68121790D01*
X42984802Y-68035050D01*
X43027530Y-67955111D01*
X43085038Y-67885038D01*
X43155111Y-67827530D01*
X43235050Y-67784802D01*
X43321790Y-67758489D01*
X43418140Y-67749000D01*
X44581860Y-67749000D01*
X44678210Y-67758489D01*
G37*
G36*
X12678210Y-67758489D02*
G01*
X12764950Y-67784802D01*
X12844889Y-67827530D01*
X12914962Y-67885038D01*
X12972470Y-67955111D01*
X13015198Y-68035050D01*
X13041511Y-68121790D01*
X13051000Y-68218140D01*
X13051000Y-70381860D01*
X13041511Y-70478210D01*
X13015198Y-70564950D01*
X12972470Y-70644889D01*
X12914962Y-70714962D01*
X12844889Y-70772470D01*
X12764950Y-70815198D01*
X12678210Y-70841511D01*
X12581860Y-70851000D01*
X11418140Y-70851000D01*
X11321790Y-70841511D01*
X11235050Y-70815198D01*
X11155111Y-70772470D01*
X11085038Y-70714962D01*
X11027530Y-70644889D01*
X10984802Y-70564950D01*
X10958489Y-70478210D01*
X10949000Y-70381860D01*
X10949000Y-68218140D01*
X10958489Y-68121790D01*
X10984802Y-68035050D01*
X11027530Y-67955111D01*
X11085038Y-67885038D01*
X11155111Y-67827530D01*
X11235050Y-67784802D01*
X11321790Y-67758489D01*
X11418140Y-67749000D01*
X12581860Y-67749000D01*
X12678210Y-67758489D01*
G37*
G36*
X6178210Y-67758489D02*
G01*
X6264950Y-67784802D01*
X6344889Y-67827530D01*
X6414962Y-67885038D01*
X6472470Y-67955111D01*
X6515198Y-68035050D01*
X6541511Y-68121790D01*
X6551000Y-68218140D01*
X6551000Y-70381860D01*
X6541511Y-70478210D01*
X6515198Y-70564950D01*
X6472470Y-70644889D01*
X6414962Y-70714962D01*
X6344889Y-70772470D01*
X6264950Y-70815198D01*
X6178210Y-70841511D01*
X6081860Y-70851000D01*
X4918140Y-70851000D01*
X4821790Y-70841511D01*
X4735050Y-70815198D01*
X4655111Y-70772470D01*
X4585038Y-70714962D01*
X4527530Y-70644889D01*
X4484802Y-70564950D01*
X4458489Y-70478210D01*
X4449000Y-70381860D01*
X4449000Y-68218140D01*
X4458489Y-68121790D01*
X4484802Y-68035050D01*
X4527530Y-67955111D01*
X4585038Y-67885038D01*
X4655111Y-67827530D01*
X4735050Y-67784802D01*
X4821790Y-67758489D01*
X4918140Y-67749000D01*
X6081860Y-67749000D01*
X6178210Y-67758489D01*
G37*
G36*
X22178210Y-67758489D02*
G01*
X22264950Y-67784802D01*
X22344889Y-67827530D01*
X22414962Y-67885038D01*
X22472470Y-67955111D01*
X22515198Y-68035050D01*
X22541511Y-68121790D01*
X22551000Y-68218140D01*
X22551000Y-70381860D01*
X22541511Y-70478210D01*
X22515198Y-70564950D01*
X22472470Y-70644889D01*
X22414962Y-70714962D01*
X22344889Y-70772470D01*
X22264950Y-70815198D01*
X22178210Y-70841511D01*
X22081860Y-70851000D01*
X20918140Y-70851000D01*
X20821790Y-70841511D01*
X20735050Y-70815198D01*
X20655111Y-70772470D01*
X20585038Y-70714962D01*
X20527530Y-70644889D01*
X20484802Y-70564950D01*
X20458489Y-70478210D01*
X20449000Y-70381860D01*
X20449000Y-68218140D01*
X20458489Y-68121790D01*
X20484802Y-68035050D01*
X20527530Y-67955111D01*
X20585038Y-67885038D01*
X20655111Y-67827530D01*
X20735050Y-67784802D01*
X20821790Y-67758489D01*
X20918140Y-67749000D01*
X22081860Y-67749000D01*
X22178210Y-67758489D01*
G37*
G36*
X28678210Y-67758489D02*
G01*
X28764950Y-67784802D01*
X28844889Y-67827530D01*
X28914962Y-67885038D01*
X28972470Y-67955111D01*
X29015198Y-68035050D01*
X29041511Y-68121790D01*
X29051000Y-68218140D01*
X29051000Y-70381860D01*
X29041511Y-70478210D01*
X29015198Y-70564950D01*
X28972470Y-70644889D01*
X28914962Y-70714962D01*
X28844889Y-70772470D01*
X28764950Y-70815198D01*
X28678210Y-70841511D01*
X28581860Y-70851000D01*
X27418140Y-70851000D01*
X27321790Y-70841511D01*
X27235050Y-70815198D01*
X27155111Y-70772470D01*
X27085038Y-70714962D01*
X27027530Y-70644889D01*
X26984802Y-70564950D01*
X26958489Y-70478210D01*
X26949000Y-70381860D01*
X26949000Y-68218140D01*
X26958489Y-68121790D01*
X26984802Y-68035050D01*
X27027530Y-67955111D01*
X27085038Y-67885038D01*
X27155111Y-67827530D01*
X27235050Y-67784802D01*
X27321790Y-67758489D01*
X27418140Y-67749000D01*
X28581860Y-67749000D01*
X28678210Y-67758489D01*
G37*
G36*
X70178210Y-67758489D02*
G01*
X70264950Y-67784802D01*
X70344889Y-67827530D01*
X70414962Y-67885038D01*
X70472470Y-67955111D01*
X70515198Y-68035050D01*
X70541511Y-68121790D01*
X70551000Y-68218140D01*
X70551000Y-70381860D01*
X70541511Y-70478210D01*
X70515198Y-70564950D01*
X70472470Y-70644889D01*
X70414962Y-70714962D01*
X70344889Y-70772470D01*
X70264950Y-70815198D01*
X70178210Y-70841511D01*
X70081860Y-70851000D01*
X68918140Y-70851000D01*
X68821790Y-70841511D01*
X68735050Y-70815198D01*
X68655111Y-70772470D01*
X68585038Y-70714962D01*
X68527530Y-70644889D01*
X68484802Y-70564950D01*
X68458489Y-70478210D01*
X68449000Y-70381860D01*
X68449000Y-68218140D01*
X68458489Y-68121790D01*
X68484802Y-68035050D01*
X68527530Y-67955111D01*
X68585038Y-67885038D01*
X68655111Y-67827530D01*
X68735050Y-67784802D01*
X68821790Y-67758489D01*
X68918140Y-67749000D01*
X70081860Y-67749000D01*
X70178210Y-67758489D01*
G37*
G36*
X38178210Y-67758489D02*
G01*
X38264950Y-67784802D01*
X38344889Y-67827530D01*
X38414962Y-67885038D01*
X38472470Y-67955111D01*
X38515198Y-68035050D01*
X38541511Y-68121790D01*
X38551000Y-68218140D01*
X38551000Y-70381860D01*
X38541511Y-70478210D01*
X38515198Y-70564950D01*
X38472470Y-70644889D01*
X38414962Y-70714962D01*
X38344889Y-70772470D01*
X38264950Y-70815198D01*
X38178210Y-70841511D01*
X38081860Y-70851000D01*
X36918140Y-70851000D01*
X36821790Y-70841511D01*
X36735050Y-70815198D01*
X36655111Y-70772470D01*
X36585038Y-70714962D01*
X36527530Y-70644889D01*
X36484802Y-70564950D01*
X36458489Y-70478210D01*
X36449000Y-70381860D01*
X36449000Y-68218140D01*
X36458489Y-68121790D01*
X36484802Y-68035050D01*
X36527530Y-67955111D01*
X36585038Y-67885038D01*
X36655111Y-67827530D01*
X36735050Y-67784802D01*
X36821790Y-67758489D01*
X36918140Y-67749000D01*
X38081860Y-67749000D01*
X38178210Y-67758489D01*
G37*
G36*
X54178210Y-67758489D02*
G01*
X54264950Y-67784802D01*
X54344889Y-67827530D01*
X54414962Y-67885038D01*
X54472470Y-67955111D01*
X54515198Y-68035050D01*
X54541511Y-68121790D01*
X54551000Y-68218140D01*
X54551000Y-70381860D01*
X54541511Y-70478210D01*
X54515198Y-70564950D01*
X54472470Y-70644889D01*
X54414962Y-70714962D01*
X54344889Y-70772470D01*
X54264950Y-70815198D01*
X54178210Y-70841511D01*
X54081860Y-70851000D01*
X52918140Y-70851000D01*
X52821790Y-70841511D01*
X52735050Y-70815198D01*
X52655111Y-70772470D01*
X52585038Y-70714962D01*
X52527530Y-70644889D01*
X52484802Y-70564950D01*
X52458489Y-70478210D01*
X52449000Y-70381860D01*
X52449000Y-68218140D01*
X52458489Y-68121790D01*
X52484802Y-68035050D01*
X52527530Y-67955111D01*
X52585038Y-67885038D01*
X52655111Y-67827530D01*
X52735050Y-67784802D01*
X52821790Y-67758489D01*
X52918140Y-67749000D01*
X54081860Y-67749000D01*
X54178210Y-67758489D01*
G37*
G36*
X76678210Y-67758489D02*
G01*
X76764950Y-67784802D01*
X76844889Y-67827530D01*
X76914962Y-67885038D01*
X76972470Y-67955111D01*
X77015198Y-68035050D01*
X77041511Y-68121790D01*
X77051000Y-68218140D01*
X77051000Y-70381860D01*
X77041511Y-70478210D01*
X77015198Y-70564950D01*
X76972470Y-70644889D01*
X76914962Y-70714962D01*
X76844889Y-70772470D01*
X76764950Y-70815198D01*
X76678210Y-70841511D01*
X76581860Y-70851000D01*
X75418140Y-70851000D01*
X75321790Y-70841511D01*
X75235050Y-70815198D01*
X75155111Y-70772470D01*
X75085038Y-70714962D01*
X75027530Y-70644889D01*
X74984802Y-70564950D01*
X74958489Y-70478210D01*
X74949000Y-70381860D01*
X74949000Y-68218140D01*
X74958489Y-68121790D01*
X74984802Y-68035050D01*
X75027530Y-67955111D01*
X75085038Y-67885038D01*
X75155111Y-67827530D01*
X75235050Y-67784802D01*
X75321790Y-67758489D01*
X75418140Y-67749000D01*
X76581860Y-67749000D01*
X76678210Y-67758489D01*
G37*
G36*
X60678210Y-67758489D02*
G01*
X60764950Y-67784802D01*
X60844889Y-67827530D01*
X60914962Y-67885038D01*
X60972470Y-67955111D01*
X61015198Y-68035050D01*
X61041511Y-68121790D01*
X61051000Y-68218140D01*
X61051000Y-70381860D01*
X61041511Y-70478210D01*
X61015198Y-70564950D01*
X60972470Y-70644889D01*
X60914962Y-70714962D01*
X60844889Y-70772470D01*
X60764950Y-70815198D01*
X60678210Y-70841511D01*
X60581860Y-70851000D01*
X59418140Y-70851000D01*
X59321790Y-70841511D01*
X59235050Y-70815198D01*
X59155111Y-70772470D01*
X59085038Y-70714962D01*
X59027530Y-70644889D01*
X58984802Y-70564950D01*
X58958489Y-70478210D01*
X58949000Y-70381860D01*
X58949000Y-68218140D01*
X58958489Y-68121790D01*
X58984802Y-68035050D01*
X59027530Y-67955111D01*
X59085038Y-67885038D01*
X59155111Y-67827530D01*
X59235050Y-67784802D01*
X59321790Y-67758489D01*
X59418140Y-67749000D01*
X60581860Y-67749000D01*
X60678210Y-67758489D01*
G37*
G36*
X22178210Y-57058489D02*
G01*
X22264950Y-57084802D01*
X22344889Y-57127530D01*
X22414962Y-57185038D01*
X22472470Y-57255111D01*
X22515198Y-57335050D01*
X22541511Y-57421790D01*
X22551000Y-57518140D01*
X22551000Y-59681860D01*
X22541511Y-59778210D01*
X22515198Y-59864950D01*
X22472470Y-59944889D01*
X22414962Y-60014962D01*
X22344889Y-60072470D01*
X22264950Y-60115198D01*
X22178210Y-60141511D01*
X22081860Y-60151000D01*
X20918140Y-60151000D01*
X20821790Y-60141511D01*
X20735050Y-60115198D01*
X20655111Y-60072470D01*
X20585038Y-60014962D01*
X20527530Y-59944889D01*
X20484802Y-59864950D01*
X20458489Y-59778210D01*
X20449000Y-59681860D01*
X20449000Y-57518140D01*
X20458489Y-57421790D01*
X20484802Y-57335050D01*
X20527530Y-57255111D01*
X20585038Y-57185038D01*
X20655111Y-57127530D01*
X20735050Y-57084802D01*
X20821790Y-57058489D01*
X20918140Y-57049000D01*
X22081860Y-57049000D01*
X22178210Y-57058489D01*
G37*
G36*
X12678210Y-57058489D02*
G01*
X12764950Y-57084802D01*
X12844889Y-57127530D01*
X12914962Y-57185038D01*
X12972470Y-57255111D01*
X13015198Y-57335050D01*
X13041511Y-57421790D01*
X13051000Y-57518140D01*
X13051000Y-59681860D01*
X13041511Y-59778210D01*
X13015198Y-59864950D01*
X12972470Y-59944889D01*
X12914962Y-60014962D01*
X12844889Y-60072470D01*
X12764950Y-60115198D01*
X12678210Y-60141511D01*
X12581860Y-60151000D01*
X11418140Y-60151000D01*
X11321790Y-60141511D01*
X11235050Y-60115198D01*
X11155111Y-60072470D01*
X11085038Y-60014962D01*
X11027530Y-59944889D01*
X10984802Y-59864950D01*
X10958489Y-59778210D01*
X10949000Y-59681860D01*
X10949000Y-57518140D01*
X10958489Y-57421790D01*
X10984802Y-57335050D01*
X11027530Y-57255111D01*
X11085038Y-57185038D01*
X11155111Y-57127530D01*
X11235050Y-57084802D01*
X11321790Y-57058489D01*
X11418140Y-57049000D01*
X12581860Y-57049000D01*
X12678210Y-57058489D01*
G37*
G36*
X6178210Y-57058489D02*
G01*
X6264950Y-57084802D01*
X6344889Y-57127530D01*
X6414962Y-57185038D01*
X6472470Y-57255111D01*
X6515198Y-57335050D01*
X6541511Y-57421790D01*
X6551000Y-57518140D01*
X6551000Y-59681860D01*
X6541511Y-59778210D01*
X6515198Y-59864950D01*
X6472470Y-59944889D01*
X6414962Y-60014962D01*
X6344889Y-60072470D01*
X6264950Y-60115198D01*
X6178210Y-60141511D01*
X6081860Y-60151000D01*
X4918140Y-60151000D01*
X4821790Y-60141511D01*
X4735050Y-60115198D01*
X4655111Y-60072470D01*
X4585038Y-60014962D01*
X4527530Y-59944889D01*
X4484802Y-59864950D01*
X4458489Y-59778210D01*
X4449000Y-59681860D01*
X4449000Y-57518140D01*
X4458489Y-57421790D01*
X4484802Y-57335050D01*
X4527530Y-57255111D01*
X4585038Y-57185038D01*
X4655111Y-57127530D01*
X4735050Y-57084802D01*
X4821790Y-57058489D01*
X4918140Y-57049000D01*
X6081860Y-57049000D01*
X6178210Y-57058489D01*
G37*
G36*
X38178210Y-57058489D02*
G01*
X38264950Y-57084802D01*
X38344889Y-57127530D01*
X38414962Y-57185038D01*
X38472470Y-57255111D01*
X38515198Y-57335050D01*
X38541511Y-57421790D01*
X38551000Y-57518140D01*
X38551000Y-59681860D01*
X38541511Y-59778210D01*
X38515198Y-59864950D01*
X38472470Y-59944889D01*
X38414962Y-60014962D01*
X38344889Y-60072470D01*
X38264950Y-60115198D01*
X38178210Y-60141511D01*
X38081860Y-60151000D01*
X36918140Y-60151000D01*
X36821790Y-60141511D01*
X36735050Y-60115198D01*
X36655111Y-60072470D01*
X36585038Y-60014962D01*
X36527530Y-59944889D01*
X36484802Y-59864950D01*
X36458489Y-59778210D01*
X36449000Y-59681860D01*
X36449000Y-57518140D01*
X36458489Y-57421790D01*
X36484802Y-57335050D01*
X36527530Y-57255111D01*
X36585038Y-57185038D01*
X36655111Y-57127530D01*
X36735050Y-57084802D01*
X36821790Y-57058489D01*
X36918140Y-57049000D01*
X38081860Y-57049000D01*
X38178210Y-57058489D01*
G37*
G36*
X44678210Y-57058489D02*
G01*
X44764950Y-57084802D01*
X44844889Y-57127530D01*
X44914962Y-57185038D01*
X44972470Y-57255111D01*
X45015198Y-57335050D01*
X45041511Y-57421790D01*
X45051000Y-57518140D01*
X45051000Y-59681860D01*
X45041511Y-59778210D01*
X45015198Y-59864950D01*
X44972470Y-59944889D01*
X44914962Y-60014962D01*
X44844889Y-60072470D01*
X44764950Y-60115198D01*
X44678210Y-60141511D01*
X44581860Y-60151000D01*
X43418140Y-60151000D01*
X43321790Y-60141511D01*
X43235050Y-60115198D01*
X43155111Y-60072470D01*
X43085038Y-60014962D01*
X43027530Y-59944889D01*
X42984802Y-59864950D01*
X42958489Y-59778210D01*
X42949000Y-59681860D01*
X42949000Y-57518140D01*
X42958489Y-57421790D01*
X42984802Y-57335050D01*
X43027530Y-57255111D01*
X43085038Y-57185038D01*
X43155111Y-57127530D01*
X43235050Y-57084802D01*
X43321790Y-57058489D01*
X43418140Y-57049000D01*
X44581860Y-57049000D01*
X44678210Y-57058489D01*
G37*
G36*
X28678210Y-57058489D02*
G01*
X28764950Y-57084802D01*
X28844889Y-57127530D01*
X28914962Y-57185038D01*
X28972470Y-57255111D01*
X29015198Y-57335050D01*
X29041511Y-57421790D01*
X29051000Y-57518140D01*
X29051000Y-59681860D01*
X29041511Y-59778210D01*
X29015198Y-59864950D01*
X28972470Y-59944889D01*
X28914962Y-60014962D01*
X28844889Y-60072470D01*
X28764950Y-60115198D01*
X28678210Y-60141511D01*
X28581860Y-60151000D01*
X27418140Y-60151000D01*
X27321790Y-60141511D01*
X27235050Y-60115198D01*
X27155111Y-60072470D01*
X27085038Y-60014962D01*
X27027530Y-59944889D01*
X26984802Y-59864950D01*
X26958489Y-59778210D01*
X26949000Y-59681860D01*
X26949000Y-57518140D01*
X26958489Y-57421790D01*
X26984802Y-57335050D01*
X27027530Y-57255111D01*
X27085038Y-57185038D01*
X27155111Y-57127530D01*
X27235050Y-57084802D01*
X27321790Y-57058489D01*
X27418140Y-57049000D01*
X28581860Y-57049000D01*
X28678210Y-57058489D01*
G37*
G36*
X54178210Y-56958489D02*
G01*
X54264950Y-56984802D01*
X54344889Y-57027530D01*
X54414962Y-57085038D01*
X54472470Y-57155111D01*
X54515198Y-57235050D01*
X54541511Y-57321790D01*
X54551000Y-57418140D01*
X54551000Y-59581860D01*
X54541511Y-59678210D01*
X54515198Y-59764950D01*
X54472470Y-59844889D01*
X54414962Y-59914962D01*
X54344889Y-59972470D01*
X54264950Y-60015198D01*
X54178210Y-60041511D01*
X54081860Y-60051000D01*
X52918140Y-60051000D01*
X52821790Y-60041511D01*
X52735050Y-60015198D01*
X52655111Y-59972470D01*
X52585038Y-59914962D01*
X52527530Y-59844889D01*
X52484802Y-59764950D01*
X52458489Y-59678210D01*
X52449000Y-59581860D01*
X52449000Y-57418140D01*
X52458489Y-57321790D01*
X52484802Y-57235050D01*
X52527530Y-57155111D01*
X52585038Y-57085038D01*
X52655111Y-57027530D01*
X52735050Y-56984802D01*
X52821790Y-56958489D01*
X52918140Y-56949000D01*
X54081860Y-56949000D01*
X54178210Y-56958489D01*
G37*
G36*
X76678210Y-56958489D02*
G01*
X76764950Y-56984802D01*
X76844889Y-57027530D01*
X76914962Y-57085038D01*
X76972470Y-57155111D01*
X77015198Y-57235050D01*
X77041511Y-57321790D01*
X77051000Y-57418140D01*
X77051000Y-59581860D01*
X77041511Y-59678210D01*
X77015198Y-59764950D01*
X76972470Y-59844889D01*
X76914962Y-59914962D01*
X76844889Y-59972470D01*
X76764950Y-60015198D01*
X76678210Y-60041511D01*
X76581860Y-60051000D01*
X75418140Y-60051000D01*
X75321790Y-60041511D01*
X75235050Y-60015198D01*
X75155111Y-59972470D01*
X75085038Y-59914962D01*
X75027530Y-59844889D01*
X74984802Y-59764950D01*
X74958489Y-59678210D01*
X74949000Y-59581860D01*
X74949000Y-57418140D01*
X74958489Y-57321790D01*
X74984802Y-57235050D01*
X75027530Y-57155111D01*
X75085038Y-57085038D01*
X75155111Y-57027530D01*
X75235050Y-56984802D01*
X75321790Y-56958489D01*
X75418140Y-56949000D01*
X76581860Y-56949000D01*
X76678210Y-56958489D01*
G37*
G36*
X70178210Y-56958489D02*
G01*
X70264950Y-56984802D01*
X70344889Y-57027530D01*
X70414962Y-57085038D01*
X70472470Y-57155111D01*
X70515198Y-57235050D01*
X70541511Y-57321790D01*
X70551000Y-57418140D01*
X70551000Y-59581860D01*
X70541511Y-59678210D01*
X70515198Y-59764950D01*
X70472470Y-59844889D01*
X70414962Y-59914962D01*
X70344889Y-59972470D01*
X70264950Y-60015198D01*
X70178210Y-60041511D01*
X70081860Y-60051000D01*
X68918140Y-60051000D01*
X68821790Y-60041511D01*
X68735050Y-60015198D01*
X68655111Y-59972470D01*
X68585038Y-59914962D01*
X68527530Y-59844889D01*
X68484802Y-59764950D01*
X68458489Y-59678210D01*
X68449000Y-59581860D01*
X68449000Y-57418140D01*
X68458489Y-57321790D01*
X68484802Y-57235050D01*
X68527530Y-57155111D01*
X68585038Y-57085038D01*
X68655111Y-57027530D01*
X68735050Y-56984802D01*
X68821790Y-56958489D01*
X68918140Y-56949000D01*
X70081860Y-56949000D01*
X70178210Y-56958489D01*
G37*
G36*
X60678210Y-56958489D02*
G01*
X60764950Y-56984802D01*
X60844889Y-57027530D01*
X60914962Y-57085038D01*
X60972470Y-57155111D01*
X61015198Y-57235050D01*
X61041511Y-57321790D01*
X61051000Y-57418140D01*
X61051000Y-59581860D01*
X61041511Y-59678210D01*
X61015198Y-59764950D01*
X60972470Y-59844889D01*
X60914962Y-59914962D01*
X60844889Y-59972470D01*
X60764950Y-60015198D01*
X60678210Y-60041511D01*
X60581860Y-60051000D01*
X59418140Y-60051000D01*
X59321790Y-60041511D01*
X59235050Y-60015198D01*
X59155111Y-59972470D01*
X59085038Y-59914962D01*
X59027530Y-59844889D01*
X58984802Y-59764950D01*
X58958489Y-59678210D01*
X58949000Y-59581860D01*
X58949000Y-57418140D01*
X58958489Y-57321790D01*
X58984802Y-57235050D01*
X59027530Y-57155111D01*
X59085038Y-57085038D01*
X59155111Y-57027530D01*
X59235050Y-56984802D01*
X59321790Y-56958489D01*
X59418140Y-56949000D01*
X60581860Y-56949000D01*
X60678210Y-56958489D01*
G37*
G36*
X38178210Y-46718489D02*
G01*
X38264950Y-46744802D01*
X38344889Y-46787530D01*
X38414962Y-46845038D01*
X38472470Y-46915111D01*
X38515198Y-46995050D01*
X38541511Y-47081790D01*
X38551000Y-47178140D01*
X38551000Y-49341860D01*
X38541511Y-49438210D01*
X38515198Y-49524950D01*
X38472470Y-49604889D01*
X38414962Y-49674962D01*
X38344889Y-49732470D01*
X38264950Y-49775198D01*
X38178210Y-49801511D01*
X38081860Y-49811000D01*
X36918140Y-49811000D01*
X36821790Y-49801511D01*
X36735050Y-49775198D01*
X36655111Y-49732470D01*
X36585038Y-49674962D01*
X36527530Y-49604889D01*
X36484802Y-49524950D01*
X36458489Y-49438210D01*
X36449000Y-49341860D01*
X36449000Y-47178140D01*
X36458489Y-47081790D01*
X36484802Y-46995050D01*
X36527530Y-46915111D01*
X36585038Y-46845038D01*
X36655111Y-46787530D01*
X36735050Y-46744802D01*
X36821790Y-46718489D01*
X36918140Y-46709000D01*
X38081860Y-46709000D01*
X38178210Y-46718489D01*
G37*
G36*
X60678210Y-46718489D02*
G01*
X60764950Y-46744802D01*
X60844889Y-46787530D01*
X60914962Y-46845038D01*
X60972470Y-46915111D01*
X61015198Y-46995050D01*
X61041511Y-47081790D01*
X61051000Y-47178140D01*
X61051000Y-49341860D01*
X61041511Y-49438210D01*
X61015198Y-49524950D01*
X60972470Y-49604889D01*
X60914962Y-49674962D01*
X60844889Y-49732470D01*
X60764950Y-49775198D01*
X60678210Y-49801511D01*
X60581860Y-49811000D01*
X59418140Y-49811000D01*
X59321790Y-49801511D01*
X59235050Y-49775198D01*
X59155111Y-49732470D01*
X59085038Y-49674962D01*
X59027530Y-49604889D01*
X58984802Y-49524950D01*
X58958489Y-49438210D01*
X58949000Y-49341860D01*
X58949000Y-47178140D01*
X58958489Y-47081790D01*
X58984802Y-46995050D01*
X59027530Y-46915111D01*
X59085038Y-46845038D01*
X59155111Y-46787530D01*
X59235050Y-46744802D01*
X59321790Y-46718489D01*
X59418140Y-46709000D01*
X60581860Y-46709000D01*
X60678210Y-46718489D01*
G37*
G36*
X54178210Y-46718489D02*
G01*
X54264950Y-46744802D01*
X54344889Y-46787530D01*
X54414962Y-46845038D01*
X54472470Y-46915111D01*
X54515198Y-46995050D01*
X54541511Y-47081790D01*
X54551000Y-47178140D01*
X54551000Y-49341860D01*
X54541511Y-49438210D01*
X54515198Y-49524950D01*
X54472470Y-49604889D01*
X54414962Y-49674962D01*
X54344889Y-49732470D01*
X54264950Y-49775198D01*
X54178210Y-49801511D01*
X54081860Y-49811000D01*
X52918140Y-49811000D01*
X52821790Y-49801511D01*
X52735050Y-49775198D01*
X52655111Y-49732470D01*
X52585038Y-49674962D01*
X52527530Y-49604889D01*
X52484802Y-49524950D01*
X52458489Y-49438210D01*
X52449000Y-49341860D01*
X52449000Y-47178140D01*
X52458489Y-47081790D01*
X52484802Y-46995050D01*
X52527530Y-46915111D01*
X52585038Y-46845038D01*
X52655111Y-46787530D01*
X52735050Y-46744802D01*
X52821790Y-46718489D01*
X52918140Y-46709000D01*
X54081860Y-46709000D01*
X54178210Y-46718489D01*
G37*
G36*
X44678210Y-46718489D02*
G01*
X44764950Y-46744802D01*
X44844889Y-46787530D01*
X44914962Y-46845038D01*
X44972470Y-46915111D01*
X45015198Y-46995050D01*
X45041511Y-47081790D01*
X45051000Y-47178140D01*
X45051000Y-49341860D01*
X45041511Y-49438210D01*
X45015198Y-49524950D01*
X44972470Y-49604889D01*
X44914962Y-49674962D01*
X44844889Y-49732470D01*
X44764950Y-49775198D01*
X44678210Y-49801511D01*
X44581860Y-49811000D01*
X43418140Y-49811000D01*
X43321790Y-49801511D01*
X43235050Y-49775198D01*
X43155111Y-49732470D01*
X43085038Y-49674962D01*
X43027530Y-49604889D01*
X42984802Y-49524950D01*
X42958489Y-49438210D01*
X42949000Y-49341860D01*
X42949000Y-47178140D01*
X42958489Y-47081790D01*
X42984802Y-46995050D01*
X43027530Y-46915111D01*
X43085038Y-46845038D01*
X43155111Y-46787530D01*
X43235050Y-46744802D01*
X43321790Y-46718489D01*
X43418140Y-46709000D01*
X44581860Y-46709000D01*
X44678210Y-46718489D01*
G37*
G36*
X6178210Y-46458489D02*
G01*
X6264950Y-46484802D01*
X6344889Y-46527530D01*
X6414962Y-46585038D01*
X6472470Y-46655111D01*
X6515198Y-46735050D01*
X6541511Y-46821790D01*
X6551000Y-46918140D01*
X6551000Y-49081860D01*
X6541511Y-49178210D01*
X6515198Y-49264950D01*
X6472470Y-49344889D01*
X6414962Y-49414962D01*
X6344889Y-49472470D01*
X6264950Y-49515198D01*
X6178210Y-49541511D01*
X6081860Y-49551000D01*
X4918140Y-49551000D01*
X4821790Y-49541511D01*
X4735050Y-49515198D01*
X4655111Y-49472470D01*
X4585038Y-49414962D01*
X4527530Y-49344889D01*
X4484802Y-49264950D01*
X4458489Y-49178210D01*
X4449000Y-49081860D01*
X4449000Y-46918140D01*
X4458489Y-46821790D01*
X4484802Y-46735050D01*
X4527530Y-46655111D01*
X4585038Y-46585038D01*
X4655111Y-46527530D01*
X4735050Y-46484802D01*
X4821790Y-46458489D01*
X4918140Y-46449000D01*
X6081860Y-46449000D01*
X6178210Y-46458489D01*
G37*
G36*
X12678210Y-46458489D02*
G01*
X12764950Y-46484802D01*
X12844889Y-46527530D01*
X12914962Y-46585038D01*
X12972470Y-46655111D01*
X13015198Y-46735050D01*
X13041511Y-46821790D01*
X13051000Y-46918140D01*
X13051000Y-49081860D01*
X13041511Y-49178210D01*
X13015198Y-49264950D01*
X12972470Y-49344889D01*
X12914962Y-49414962D01*
X12844889Y-49472470D01*
X12764950Y-49515198D01*
X12678210Y-49541511D01*
X12581860Y-49551000D01*
X11418140Y-49551000D01*
X11321790Y-49541511D01*
X11235050Y-49515198D01*
X11155111Y-49472470D01*
X11085038Y-49414962D01*
X11027530Y-49344889D01*
X10984802Y-49264950D01*
X10958489Y-49178210D01*
X10949000Y-49081860D01*
X10949000Y-46918140D01*
X10958489Y-46821790D01*
X10984802Y-46735050D01*
X11027530Y-46655111D01*
X11085038Y-46585038D01*
X11155111Y-46527530D01*
X11235050Y-46484802D01*
X11321790Y-46458489D01*
X11418140Y-46449000D01*
X12581860Y-46449000D01*
X12678210Y-46458489D01*
G37*
G36*
X28678210Y-46458489D02*
G01*
X28764950Y-46484802D01*
X28844889Y-46527530D01*
X28914962Y-46585038D01*
X28972470Y-46655111D01*
X29015198Y-46735050D01*
X29041511Y-46821790D01*
X29051000Y-46918140D01*
X29051000Y-49081860D01*
X29041511Y-49178210D01*
X29015198Y-49264950D01*
X28972470Y-49344889D01*
X28914962Y-49414962D01*
X28844889Y-49472470D01*
X28764950Y-49515198D01*
X28678210Y-49541511D01*
X28581860Y-49551000D01*
X27418140Y-49551000D01*
X27321790Y-49541511D01*
X27235050Y-49515198D01*
X27155111Y-49472470D01*
X27085038Y-49414962D01*
X27027530Y-49344889D01*
X26984802Y-49264950D01*
X26958489Y-49178210D01*
X26949000Y-49081860D01*
X26949000Y-46918140D01*
X26958489Y-46821790D01*
X26984802Y-46735050D01*
X27027530Y-46655111D01*
X27085038Y-46585038D01*
X27155111Y-46527530D01*
X27235050Y-46484802D01*
X27321790Y-46458489D01*
X27418140Y-46449000D01*
X28581860Y-46449000D01*
X28678210Y-46458489D01*
G37*
G36*
X76678210Y-46458489D02*
G01*
X76764950Y-46484802D01*
X76844889Y-46527530D01*
X76914962Y-46585038D01*
X76972470Y-46655111D01*
X77015198Y-46735050D01*
X77041511Y-46821790D01*
X77051000Y-46918140D01*
X77051000Y-49081860D01*
X77041511Y-49178210D01*
X77015198Y-49264950D01*
X76972470Y-49344889D01*
X76914962Y-49414962D01*
X76844889Y-49472470D01*
X76764950Y-49515198D01*
X76678210Y-49541511D01*
X76581860Y-49551000D01*
X75418140Y-49551000D01*
X75321790Y-49541511D01*
X75235050Y-49515198D01*
X75155111Y-49472470D01*
X75085038Y-49414962D01*
X75027530Y-49344889D01*
X74984802Y-49264950D01*
X74958489Y-49178210D01*
X74949000Y-49081860D01*
X74949000Y-46918140D01*
X74958489Y-46821790D01*
X74984802Y-46735050D01*
X75027530Y-46655111D01*
X75085038Y-46585038D01*
X75155111Y-46527530D01*
X75235050Y-46484802D01*
X75321790Y-46458489D01*
X75418140Y-46449000D01*
X76581860Y-46449000D01*
X76678210Y-46458489D01*
G37*
G36*
X70178210Y-46458489D02*
G01*
X70264950Y-46484802D01*
X70344889Y-46527530D01*
X70414962Y-46585038D01*
X70472470Y-46655111D01*
X70515198Y-46735050D01*
X70541511Y-46821790D01*
X70551000Y-46918140D01*
X70551000Y-49081860D01*
X70541511Y-49178210D01*
X70515198Y-49264950D01*
X70472470Y-49344889D01*
X70414962Y-49414962D01*
X70344889Y-49472470D01*
X70264950Y-49515198D01*
X70178210Y-49541511D01*
X70081860Y-49551000D01*
X68918140Y-49551000D01*
X68821790Y-49541511D01*
X68735050Y-49515198D01*
X68655111Y-49472470D01*
X68585038Y-49414962D01*
X68527530Y-49344889D01*
X68484802Y-49264950D01*
X68458489Y-49178210D01*
X68449000Y-49081860D01*
X68449000Y-46918140D01*
X68458489Y-46821790D01*
X68484802Y-46735050D01*
X68527530Y-46655111D01*
X68585038Y-46585038D01*
X68655111Y-46527530D01*
X68735050Y-46484802D01*
X68821790Y-46458489D01*
X68918140Y-46449000D01*
X70081860Y-46449000D01*
X70178210Y-46458489D01*
G37*
G36*
X22178210Y-46458489D02*
G01*
X22264950Y-46484802D01*
X22344889Y-46527530D01*
X22414962Y-46585038D01*
X22472470Y-46655111D01*
X22515198Y-46735050D01*
X22541511Y-46821790D01*
X22551000Y-46918140D01*
X22551000Y-49081860D01*
X22541511Y-49178210D01*
X22515198Y-49264950D01*
X22472470Y-49344889D01*
X22414962Y-49414962D01*
X22344889Y-49472470D01*
X22264950Y-49515198D01*
X22178210Y-49541511D01*
X22081860Y-49551000D01*
X20918140Y-49551000D01*
X20821790Y-49541511D01*
X20735050Y-49515198D01*
X20655111Y-49472470D01*
X20585038Y-49414962D01*
X20527530Y-49344889D01*
X20484802Y-49264950D01*
X20458489Y-49178210D01*
X20449000Y-49081860D01*
X20449000Y-46918140D01*
X20458489Y-46821790D01*
X20484802Y-46735050D01*
X20527530Y-46655111D01*
X20585038Y-46585038D01*
X20655111Y-46527530D01*
X20735050Y-46484802D01*
X20821790Y-46458489D01*
X20918140Y-46449000D01*
X22081860Y-46449000D01*
X22178210Y-46458489D01*
G37*
G36*
X78977142Y-44303242D02*
G01*
X79125101Y-44364529D01*
X79258255Y-44453499D01*
X79371501Y-44566745D01*
X79460471Y-44699899D01*
X79521758Y-44847858D01*
X79553000Y-45004925D01*
X79553000Y-45165075D01*
X79521758Y-45322142D01*
X79460471Y-45470101D01*
X79371501Y-45603255D01*
X79258255Y-45716501D01*
X79125101Y-45805471D01*
X78977142Y-45866758D01*
X78820075Y-45898000D01*
X78659925Y-45898000D01*
X78502858Y-45866758D01*
X78354899Y-45805471D01*
X78221745Y-45716501D01*
X78108499Y-45603255D01*
X78019529Y-45470101D01*
X77958242Y-45322142D01*
X77927000Y-45165075D01*
X77927000Y-45004925D01*
X77958242Y-44847858D01*
X78019529Y-44699899D01*
X78108499Y-44566745D01*
X78221745Y-44453499D01*
X78354899Y-44364529D01*
X78502858Y-44303242D01*
X78659925Y-44272000D01*
X78820075Y-44272000D01*
X78977142Y-44303242D01*
G37*
G36*
X19298228Y-40456703D02*
G01*
X19453100Y-40520853D01*
X19592481Y-40613985D01*
X19711015Y-40732519D01*
X19804147Y-40871900D01*
X19868297Y-41026772D01*
X19901000Y-41191184D01*
X19901000Y-41358816D01*
X19868297Y-41523228D01*
X19804147Y-41678100D01*
X19711015Y-41817481D01*
X19592481Y-41936015D01*
X19453100Y-42029147D01*
X19298228Y-42093297D01*
X19133816Y-42126000D01*
X18966184Y-42126000D01*
X18801772Y-42093297D01*
X18646900Y-42029147D01*
X18507519Y-41936015D01*
X18388985Y-41817481D01*
X18295853Y-41678100D01*
X18231703Y-41523228D01*
X18199000Y-41358816D01*
X18199000Y-41191184D01*
X18231703Y-41026772D01*
X18295853Y-40871900D01*
X18388985Y-40732519D01*
X18507519Y-40613985D01*
X18646900Y-40520853D01*
X18801772Y-40456703D01*
X18966184Y-40424000D01*
X19133816Y-40424000D01*
X19298228Y-40456703D01*
G37*
G36*
X14853228Y-40456703D02*
G01*
X15008100Y-40520853D01*
X15147481Y-40613985D01*
X15266015Y-40732519D01*
X15359147Y-40871900D01*
X15423297Y-41026772D01*
X15456000Y-41191184D01*
X15456000Y-41358816D01*
X15423297Y-41523228D01*
X15359147Y-41678100D01*
X15266015Y-41817481D01*
X15147481Y-41936015D01*
X15008100Y-42029147D01*
X14853228Y-42093297D01*
X14688816Y-42126000D01*
X14521184Y-42126000D01*
X14356772Y-42093297D01*
X14201900Y-42029147D01*
X14062519Y-41936015D01*
X13943985Y-41817481D01*
X13850853Y-41678100D01*
X13786703Y-41523228D01*
X13754000Y-41358816D01*
X13754000Y-41191184D01*
X13786703Y-41026772D01*
X13850853Y-40871900D01*
X13943985Y-40732519D01*
X14062519Y-40613985D01*
X14201900Y-40520853D01*
X14356772Y-40456703D01*
X14521184Y-40424000D01*
X14688816Y-40424000D01*
X14853228Y-40456703D01*
G37*
G36*
X23743228Y-40456703D02*
G01*
X23898100Y-40520853D01*
X24037481Y-40613985D01*
X24156015Y-40732519D01*
X24249147Y-40871900D01*
X24313297Y-41026772D01*
X24346000Y-41191184D01*
X24346000Y-41358816D01*
X24313297Y-41523228D01*
X24249147Y-41678100D01*
X24156015Y-41817481D01*
X24037481Y-41936015D01*
X23898100Y-42029147D01*
X23743228Y-42093297D01*
X23578816Y-42126000D01*
X23411184Y-42126000D01*
X23246772Y-42093297D01*
X23091900Y-42029147D01*
X22952519Y-41936015D01*
X22833985Y-41817481D01*
X22740853Y-41678100D01*
X22676703Y-41523228D01*
X22644000Y-41358816D01*
X22644000Y-41191184D01*
X22676703Y-41026772D01*
X22740853Y-40871900D01*
X22833985Y-40732519D01*
X22952519Y-40613985D01*
X23091900Y-40520853D01*
X23246772Y-40456703D01*
X23411184Y-40424000D01*
X23578816Y-40424000D01*
X23743228Y-40456703D01*
G37*
G36*
X5963228Y-40456703D02*
G01*
X6118100Y-40520853D01*
X6257481Y-40613985D01*
X6376015Y-40732519D01*
X6469147Y-40871900D01*
X6533297Y-41026772D01*
X6566000Y-41191184D01*
X6566000Y-41358816D01*
X6533297Y-41523228D01*
X6469147Y-41678100D01*
X6376015Y-41817481D01*
X6257481Y-41936015D01*
X6118100Y-42029147D01*
X5963228Y-42093297D01*
X5798816Y-42126000D01*
X5631184Y-42126000D01*
X5466772Y-42093297D01*
X5311900Y-42029147D01*
X5172519Y-41936015D01*
X5053985Y-41817481D01*
X4960853Y-41678100D01*
X4896703Y-41523228D01*
X4864000Y-41358816D01*
X4864000Y-41191184D01*
X4896703Y-41026772D01*
X4960853Y-40871900D01*
X5053985Y-40732519D01*
X5172519Y-40613985D01*
X5311900Y-40520853D01*
X5466772Y-40456703D01*
X5631184Y-40424000D01*
X5798816Y-40424000D01*
X5963228Y-40456703D01*
G37*
G36*
X2788228Y-40456703D02*
G01*
X2943100Y-40520853D01*
X3082481Y-40613985D01*
X3201015Y-40732519D01*
X3294147Y-40871900D01*
X3358297Y-41026772D01*
X3391000Y-41191184D01*
X3391000Y-41358816D01*
X3358297Y-41523228D01*
X3294147Y-41678100D01*
X3201015Y-41817481D01*
X3082481Y-41936015D01*
X2943100Y-42029147D01*
X2788228Y-42093297D01*
X2623816Y-42126000D01*
X2456184Y-42126000D01*
X2291772Y-42093297D01*
X2136900Y-42029147D01*
X1997519Y-41936015D01*
X1878985Y-41817481D01*
X1785853Y-41678100D01*
X1721703Y-41523228D01*
X1689000Y-41358816D01*
X1689000Y-41191184D01*
X1721703Y-41026772D01*
X1785853Y-40871900D01*
X1878985Y-40732519D01*
X1997519Y-40613985D01*
X2136900Y-40520853D01*
X2291772Y-40456703D01*
X2456184Y-40424000D01*
X2623816Y-40424000D01*
X2788228Y-40456703D01*
G37*
G36*
X10623254Y-38032818D02*
G01*
X10991791Y-38185471D01*
X10996513Y-38187427D01*
X11332436Y-38411884D01*
X11618116Y-38697564D01*
X11830204Y-39014975D01*
X11842574Y-39033489D01*
X11997182Y-39406746D01*
X12076000Y-39802993D01*
X12076000Y-40207007D01*
X11997182Y-40603254D01*
X11943638Y-40732520D01*
X11842573Y-40976513D01*
X11618116Y-41312436D01*
X11332436Y-41598116D01*
X10996513Y-41822573D01*
X10996512Y-41822574D01*
X10996511Y-41822574D01*
X10623254Y-41977182D01*
X10227007Y-42056000D01*
X9822993Y-42056000D01*
X9426746Y-41977182D01*
X9053489Y-41822574D01*
X9053488Y-41822574D01*
X9053487Y-41822573D01*
X8717564Y-41598116D01*
X8431884Y-41312436D01*
X8207427Y-40976513D01*
X8106362Y-40732520D01*
X8052818Y-40603254D01*
X7974000Y-40207007D01*
X7974000Y-39802993D01*
X8052818Y-39406746D01*
X8207426Y-39033489D01*
X8219797Y-39014975D01*
X8431884Y-38697564D01*
X8717564Y-38411884D01*
X9053487Y-38187427D01*
X9058209Y-38185471D01*
X9426746Y-38032818D01*
X9822993Y-37954000D01*
X10227007Y-37954000D01*
X10623254Y-38032818D01*
G37*
G36*
X71123254Y-38032818D02*
G01*
X71491791Y-38185471D01*
X71496513Y-38187427D01*
X71832436Y-38411884D01*
X72118116Y-38697564D01*
X72330204Y-39014975D01*
X72342574Y-39033489D01*
X72497182Y-39406746D01*
X72576000Y-39802993D01*
X72576000Y-40207007D01*
X72497182Y-40603254D01*
X72443638Y-40732520D01*
X72342573Y-40976513D01*
X72118116Y-41312436D01*
X71832436Y-41598116D01*
X71496513Y-41822573D01*
X71496512Y-41822574D01*
X71496511Y-41822574D01*
X71123254Y-41977182D01*
X70727007Y-42056000D01*
X70322993Y-42056000D01*
X69926746Y-41977182D01*
X69553489Y-41822574D01*
X69553488Y-41822574D01*
X69553487Y-41822573D01*
X69217564Y-41598116D01*
X68931884Y-41312436D01*
X68707427Y-40976513D01*
X68606362Y-40732520D01*
X68552818Y-40603254D01*
X68474000Y-40207007D01*
X68474000Y-39802993D01*
X68552818Y-39406746D01*
X68707426Y-39033489D01*
X68719797Y-39014975D01*
X68931884Y-38697564D01*
X69217564Y-38411884D01*
X69553487Y-38187427D01*
X69558209Y-38185471D01*
X69926746Y-38032818D01*
X70322993Y-37954000D01*
X70727007Y-37954000D01*
X71123254Y-38032818D01*
G37*
G36*
X65491823Y-38966313D02*
G01*
X65652242Y-39014976D01*
X65686877Y-39033489D01*
X65800078Y-39093996D01*
X65929659Y-39200341D01*
X66036004Y-39329922D01*
X66036005Y-39329924D01*
X66115024Y-39477758D01*
X66163687Y-39638178D01*
X66176000Y-39763197D01*
X66176000Y-40246804D01*
X66163687Y-40371823D01*
X66115024Y-40532242D01*
X66071331Y-40613985D01*
X66036004Y-40680078D01*
X65929659Y-40809659D01*
X65800077Y-40916005D01*
X65652241Y-40995024D01*
X65491822Y-41043687D01*
X65325000Y-41060117D01*
X65158177Y-41043687D01*
X64997758Y-40995024D01*
X64849924Y-40916005D01*
X64849922Y-40916004D01*
X64720341Y-40809659D01*
X64613995Y-40680077D01*
X64534976Y-40532241D01*
X64486313Y-40371822D01*
X64474000Y-40246803D01*
X64474000Y-39763196D01*
X64486313Y-39638177D01*
X64534976Y-39477758D01*
X64613995Y-39329924D01*
X64613996Y-39329922D01*
X64720342Y-39200341D01*
X64849923Y-39093996D01*
X64963124Y-39033489D01*
X64997759Y-39014976D01*
X65158178Y-38966313D01*
X65325000Y-38949883D01*
X65491823Y-38966313D01*
G37*
G36*
X50242023Y-38965590D02*
G01*
X50342682Y-38996125D01*
X50393013Y-39011392D01*
X50532165Y-39085771D01*
X50654133Y-39185867D01*
X50754229Y-39307835D01*
X50828608Y-39446987D01*
X50828608Y-39446988D01*
X50874410Y-39597977D01*
X50886000Y-39715655D01*
X50886000Y-40294345D01*
X50874410Y-40412023D01*
X50860856Y-40456703D01*
X50828608Y-40563013D01*
X50766036Y-40680076D01*
X50754229Y-40702165D01*
X50654133Y-40824133D01*
X50595924Y-40871903D01*
X50532164Y-40924229D01*
X50393012Y-40998608D01*
X50342681Y-41013875D01*
X50242022Y-41044410D01*
X50085000Y-41059875D01*
X49927977Y-41044410D01*
X49827318Y-41013875D01*
X49776987Y-40998608D01*
X49637835Y-40924229D01*
X49627813Y-40916004D01*
X49515867Y-40824133D01*
X49415771Y-40702164D01*
X49341393Y-40563013D01*
X49341392Y-40563012D01*
X49326125Y-40512681D01*
X49295590Y-40412022D01*
X49284000Y-40294344D01*
X49284000Y-39715655D01*
X49295590Y-39597977D01*
X49341392Y-39446988D01*
X49341392Y-39446987D01*
X49362902Y-39406745D01*
X49415771Y-39307835D01*
X49515868Y-39185867D01*
X49637836Y-39085771D01*
X49776988Y-39011392D01*
X49827319Y-38996125D01*
X49927978Y-38965590D01*
X50085000Y-38950125D01*
X50242023Y-38965590D01*
G37*
G36*
X45162023Y-38965590D02*
G01*
X45262682Y-38996125D01*
X45313013Y-39011392D01*
X45452165Y-39085771D01*
X45574133Y-39185867D01*
X45674229Y-39307835D01*
X45748608Y-39446987D01*
X45748608Y-39446988D01*
X45794410Y-39597977D01*
X45806000Y-39715655D01*
X45806000Y-40294345D01*
X45794410Y-40412023D01*
X45780856Y-40456703D01*
X45748608Y-40563013D01*
X45686036Y-40680076D01*
X45674229Y-40702165D01*
X45574133Y-40824133D01*
X45515924Y-40871903D01*
X45452164Y-40924229D01*
X45313012Y-40998608D01*
X45262681Y-41013875D01*
X45162022Y-41044410D01*
X45005000Y-41059875D01*
X44847977Y-41044410D01*
X44747318Y-41013875D01*
X44696987Y-40998608D01*
X44557835Y-40924229D01*
X44547813Y-40916004D01*
X44435867Y-40824133D01*
X44335771Y-40702164D01*
X44261393Y-40563013D01*
X44261392Y-40563012D01*
X44246125Y-40512681D01*
X44215590Y-40412022D01*
X44204000Y-40294344D01*
X44204000Y-39715655D01*
X44215590Y-39597977D01*
X44261392Y-39446988D01*
X44261392Y-39446987D01*
X44282902Y-39406745D01*
X44335771Y-39307835D01*
X44435868Y-39185867D01*
X44557836Y-39085771D01*
X44696988Y-39011392D01*
X44747319Y-38996125D01*
X44847978Y-38965590D01*
X45005000Y-38950125D01*
X45162023Y-38965590D01*
G37*
G36*
X52782023Y-38965590D02*
G01*
X52882682Y-38996125D01*
X52933013Y-39011392D01*
X53072165Y-39085771D01*
X53194133Y-39185867D01*
X53294229Y-39307835D01*
X53368608Y-39446987D01*
X53368608Y-39446988D01*
X53414410Y-39597977D01*
X53426000Y-39715655D01*
X53426000Y-40294345D01*
X53414410Y-40412023D01*
X53400856Y-40456703D01*
X53368608Y-40563013D01*
X53306036Y-40680076D01*
X53294229Y-40702165D01*
X53194133Y-40824133D01*
X53135924Y-40871903D01*
X53072164Y-40924229D01*
X52933012Y-40998608D01*
X52882681Y-41013875D01*
X52782022Y-41044410D01*
X52625000Y-41059875D01*
X52467977Y-41044410D01*
X52367318Y-41013875D01*
X52316987Y-40998608D01*
X52177835Y-40924229D01*
X52167813Y-40916004D01*
X52055867Y-40824133D01*
X51955771Y-40702164D01*
X51881393Y-40563013D01*
X51881392Y-40563012D01*
X51866125Y-40512681D01*
X51835590Y-40412022D01*
X51824000Y-40294344D01*
X51824000Y-39715655D01*
X51835590Y-39597977D01*
X51881392Y-39446988D01*
X51881392Y-39446987D01*
X51902902Y-39406745D01*
X51955771Y-39307835D01*
X52055868Y-39185867D01*
X52177836Y-39085771D01*
X52316988Y-39011392D01*
X52367319Y-38996125D01*
X52467978Y-38965590D01*
X52625000Y-38950125D01*
X52782023Y-38965590D01*
G37*
G36*
X55322023Y-38965590D02*
G01*
X55422682Y-38996125D01*
X55473013Y-39011392D01*
X55612165Y-39085771D01*
X55734133Y-39185867D01*
X55834229Y-39307835D01*
X55908608Y-39446987D01*
X55908608Y-39446988D01*
X55954410Y-39597977D01*
X55966000Y-39715655D01*
X55966000Y-40294345D01*
X55954410Y-40412023D01*
X55940856Y-40456703D01*
X55908608Y-40563013D01*
X55846036Y-40680076D01*
X55834229Y-40702165D01*
X55734133Y-40824133D01*
X55675924Y-40871903D01*
X55612164Y-40924229D01*
X55473012Y-40998608D01*
X55422681Y-41013875D01*
X55322022Y-41044410D01*
X55165000Y-41059875D01*
X55007977Y-41044410D01*
X54907318Y-41013875D01*
X54856987Y-40998608D01*
X54717835Y-40924229D01*
X54707813Y-40916004D01*
X54595867Y-40824133D01*
X54495771Y-40702164D01*
X54421393Y-40563013D01*
X54421392Y-40563012D01*
X54406125Y-40512681D01*
X54375590Y-40412022D01*
X54364000Y-40294344D01*
X54364000Y-39715655D01*
X54375590Y-39597977D01*
X54421392Y-39446988D01*
X54421392Y-39446987D01*
X54442902Y-39406745D01*
X54495771Y-39307835D01*
X54595868Y-39185867D01*
X54717836Y-39085771D01*
X54856988Y-39011392D01*
X54907319Y-38996125D01*
X55007978Y-38965590D01*
X55165000Y-38950125D01*
X55322023Y-38965590D01*
G37*
G36*
X57862023Y-38965590D02*
G01*
X57962682Y-38996125D01*
X58013013Y-39011392D01*
X58152165Y-39085771D01*
X58274133Y-39185867D01*
X58374229Y-39307835D01*
X58448608Y-39446987D01*
X58448608Y-39446988D01*
X58494410Y-39597977D01*
X58506000Y-39715655D01*
X58506000Y-40294345D01*
X58494410Y-40412023D01*
X58480856Y-40456703D01*
X58448608Y-40563013D01*
X58386036Y-40680076D01*
X58374229Y-40702165D01*
X58274133Y-40824133D01*
X58215924Y-40871903D01*
X58152164Y-40924229D01*
X58013012Y-40998608D01*
X57962681Y-41013875D01*
X57862022Y-41044410D01*
X57705000Y-41059875D01*
X57547977Y-41044410D01*
X57447318Y-41013875D01*
X57396987Y-40998608D01*
X57257835Y-40924229D01*
X57247813Y-40916004D01*
X57135867Y-40824133D01*
X57035771Y-40702164D01*
X56961393Y-40563013D01*
X56961392Y-40563012D01*
X56946125Y-40512681D01*
X56915590Y-40412022D01*
X56904000Y-40294344D01*
X56904000Y-39715655D01*
X56915590Y-39597977D01*
X56961392Y-39446988D01*
X56961392Y-39446987D01*
X56982902Y-39406745D01*
X57035771Y-39307835D01*
X57135868Y-39185867D01*
X57257836Y-39085771D01*
X57396988Y-39011392D01*
X57447319Y-38996125D01*
X57547978Y-38965590D01*
X57705000Y-38950125D01*
X57862023Y-38965590D01*
G37*
G36*
X60402023Y-38965590D02*
G01*
X60502682Y-38996125D01*
X60553013Y-39011392D01*
X60692165Y-39085771D01*
X60814133Y-39185867D01*
X60914229Y-39307835D01*
X60988608Y-39446987D01*
X60988608Y-39446988D01*
X61034410Y-39597977D01*
X61046000Y-39715655D01*
X61046000Y-40294345D01*
X61034410Y-40412023D01*
X61020856Y-40456703D01*
X60988608Y-40563013D01*
X60926036Y-40680076D01*
X60914229Y-40702165D01*
X60814133Y-40824133D01*
X60755924Y-40871903D01*
X60692164Y-40924229D01*
X60553012Y-40998608D01*
X60502681Y-41013875D01*
X60402022Y-41044410D01*
X60245000Y-41059875D01*
X60087977Y-41044410D01*
X59987318Y-41013875D01*
X59936987Y-40998608D01*
X59797835Y-40924229D01*
X59787813Y-40916004D01*
X59675867Y-40824133D01*
X59575771Y-40702164D01*
X59501393Y-40563013D01*
X59501392Y-40563012D01*
X59486125Y-40512681D01*
X59455590Y-40412022D01*
X59444000Y-40294344D01*
X59444000Y-39715655D01*
X59455590Y-39597977D01*
X59501392Y-39446988D01*
X59501392Y-39446987D01*
X59522902Y-39406745D01*
X59575771Y-39307835D01*
X59675868Y-39185867D01*
X59797836Y-39085771D01*
X59936988Y-39011392D01*
X59987319Y-38996125D01*
X60087978Y-38965590D01*
X60245000Y-38950125D01*
X60402023Y-38965590D01*
G37*
G36*
X62942023Y-38965590D02*
G01*
X63042682Y-38996125D01*
X63093013Y-39011392D01*
X63232165Y-39085771D01*
X63354133Y-39185867D01*
X63454229Y-39307835D01*
X63528608Y-39446987D01*
X63528608Y-39446988D01*
X63574410Y-39597977D01*
X63586000Y-39715655D01*
X63586000Y-40294345D01*
X63574410Y-40412023D01*
X63560856Y-40456703D01*
X63528608Y-40563013D01*
X63466036Y-40680076D01*
X63454229Y-40702165D01*
X63354133Y-40824133D01*
X63295924Y-40871903D01*
X63232164Y-40924229D01*
X63093012Y-40998608D01*
X63042681Y-41013875D01*
X62942022Y-41044410D01*
X62785000Y-41059875D01*
X62627977Y-41044410D01*
X62527318Y-41013875D01*
X62476987Y-40998608D01*
X62337835Y-40924229D01*
X62327813Y-40916004D01*
X62215867Y-40824133D01*
X62115771Y-40702164D01*
X62041393Y-40563013D01*
X62041392Y-40563012D01*
X62026125Y-40512681D01*
X61995590Y-40412022D01*
X61984000Y-40294344D01*
X61984000Y-39715655D01*
X61995590Y-39597977D01*
X62041392Y-39446988D01*
X62041392Y-39446987D01*
X62062902Y-39406745D01*
X62115771Y-39307835D01*
X62215868Y-39185867D01*
X62337836Y-39085771D01*
X62476988Y-39011392D01*
X62527319Y-38996125D01*
X62627978Y-38965590D01*
X62785000Y-38950125D01*
X62942023Y-38965590D01*
G37*
G36*
X47702023Y-38965590D02*
G01*
X47802682Y-38996125D01*
X47853013Y-39011392D01*
X47992165Y-39085771D01*
X48114133Y-39185867D01*
X48214229Y-39307835D01*
X48288608Y-39446987D01*
X48288608Y-39446988D01*
X48334410Y-39597977D01*
X48346000Y-39715655D01*
X48346000Y-40294345D01*
X48334410Y-40412023D01*
X48320856Y-40456703D01*
X48288608Y-40563013D01*
X48226036Y-40680076D01*
X48214229Y-40702165D01*
X48114133Y-40824133D01*
X48055924Y-40871903D01*
X47992164Y-40924229D01*
X47853012Y-40998608D01*
X47802681Y-41013875D01*
X47702022Y-41044410D01*
X47545000Y-41059875D01*
X47387977Y-41044410D01*
X47287318Y-41013875D01*
X47236987Y-40998608D01*
X47097835Y-40924229D01*
X47087813Y-40916004D01*
X46975867Y-40824133D01*
X46875771Y-40702164D01*
X46801393Y-40563013D01*
X46801392Y-40563012D01*
X46786125Y-40512681D01*
X46755590Y-40412022D01*
X46744000Y-40294344D01*
X46744000Y-39715655D01*
X46755590Y-39597977D01*
X46801392Y-39446988D01*
X46801392Y-39446987D01*
X46822902Y-39406745D01*
X46875771Y-39307835D01*
X46975868Y-39185867D01*
X47097836Y-39085771D01*
X47236988Y-39011392D01*
X47287319Y-38996125D01*
X47387978Y-38965590D01*
X47545000Y-38950125D01*
X47702023Y-38965590D01*
G37*
G36*
X29922023Y-38965590D02*
G01*
X30022682Y-38996125D01*
X30073013Y-39011392D01*
X30212165Y-39085771D01*
X30334133Y-39185867D01*
X30434229Y-39307835D01*
X30508608Y-39446987D01*
X30508608Y-39446988D01*
X30554410Y-39597977D01*
X30566000Y-39715655D01*
X30566000Y-40294345D01*
X30554410Y-40412023D01*
X30540856Y-40456703D01*
X30508608Y-40563013D01*
X30446036Y-40680076D01*
X30434229Y-40702165D01*
X30334133Y-40824133D01*
X30275924Y-40871903D01*
X30212164Y-40924229D01*
X30073012Y-40998608D01*
X30022681Y-41013875D01*
X29922022Y-41044410D01*
X29765000Y-41059875D01*
X29607977Y-41044410D01*
X29507318Y-41013875D01*
X29456987Y-40998608D01*
X29317835Y-40924229D01*
X29307813Y-40916004D01*
X29195867Y-40824133D01*
X29095771Y-40702164D01*
X29021393Y-40563013D01*
X29021392Y-40563012D01*
X29006125Y-40512681D01*
X28975590Y-40412022D01*
X28964000Y-40294344D01*
X28964000Y-39715655D01*
X28975590Y-39597977D01*
X29021392Y-39446988D01*
X29021392Y-39446987D01*
X29042902Y-39406745D01*
X29095771Y-39307835D01*
X29195868Y-39185867D01*
X29317836Y-39085771D01*
X29456988Y-39011392D01*
X29507319Y-38996125D01*
X29607978Y-38965590D01*
X29765000Y-38950125D01*
X29922023Y-38965590D01*
G37*
G36*
X27382023Y-38965590D02*
G01*
X27482682Y-38996125D01*
X27533013Y-39011392D01*
X27672165Y-39085771D01*
X27794133Y-39185867D01*
X27894229Y-39307835D01*
X27968608Y-39446987D01*
X27968608Y-39446988D01*
X28014410Y-39597977D01*
X28026000Y-39715655D01*
X28026000Y-40294345D01*
X28014410Y-40412023D01*
X28000856Y-40456703D01*
X27968608Y-40563013D01*
X27906036Y-40680076D01*
X27894229Y-40702165D01*
X27794133Y-40824133D01*
X27735924Y-40871903D01*
X27672164Y-40924229D01*
X27533012Y-40998608D01*
X27482681Y-41013875D01*
X27382022Y-41044410D01*
X27225000Y-41059875D01*
X27067977Y-41044410D01*
X26967318Y-41013875D01*
X26916987Y-40998608D01*
X26777835Y-40924229D01*
X26767813Y-40916004D01*
X26655867Y-40824133D01*
X26555771Y-40702164D01*
X26481393Y-40563013D01*
X26481392Y-40563012D01*
X26466125Y-40512681D01*
X26435590Y-40412022D01*
X26424000Y-40294344D01*
X26424000Y-39715655D01*
X26435590Y-39597977D01*
X26481392Y-39446988D01*
X26481392Y-39446987D01*
X26502902Y-39406745D01*
X26555771Y-39307835D01*
X26655868Y-39185867D01*
X26777836Y-39085771D01*
X26916988Y-39011392D01*
X26967319Y-38996125D01*
X27067978Y-38965590D01*
X27225000Y-38950125D01*
X27382023Y-38965590D01*
G37*
G36*
X40082023Y-38965590D02*
G01*
X40182682Y-38996125D01*
X40233013Y-39011392D01*
X40372165Y-39085771D01*
X40494133Y-39185867D01*
X40594229Y-39307835D01*
X40668608Y-39446987D01*
X40668608Y-39446988D01*
X40714410Y-39597977D01*
X40726000Y-39715655D01*
X40726000Y-40294345D01*
X40714410Y-40412023D01*
X40700856Y-40456703D01*
X40668608Y-40563013D01*
X40606036Y-40680076D01*
X40594229Y-40702165D01*
X40494133Y-40824133D01*
X40435924Y-40871903D01*
X40372164Y-40924229D01*
X40233012Y-40998608D01*
X40182681Y-41013875D01*
X40082022Y-41044410D01*
X39925000Y-41059875D01*
X39767977Y-41044410D01*
X39667318Y-41013875D01*
X39616987Y-40998608D01*
X39477835Y-40924229D01*
X39467813Y-40916004D01*
X39355867Y-40824133D01*
X39255771Y-40702164D01*
X39181393Y-40563013D01*
X39181392Y-40563012D01*
X39166125Y-40512681D01*
X39135590Y-40412022D01*
X39124000Y-40294344D01*
X39124000Y-39715655D01*
X39135590Y-39597977D01*
X39181392Y-39446988D01*
X39181392Y-39446987D01*
X39202902Y-39406745D01*
X39255771Y-39307835D01*
X39355868Y-39185867D01*
X39477836Y-39085771D01*
X39616988Y-39011392D01*
X39667319Y-38996125D01*
X39767978Y-38965590D01*
X39925000Y-38950125D01*
X40082023Y-38965590D01*
G37*
G36*
X37542023Y-38965590D02*
G01*
X37642682Y-38996125D01*
X37693013Y-39011392D01*
X37832165Y-39085771D01*
X37954133Y-39185867D01*
X38054229Y-39307835D01*
X38128608Y-39446987D01*
X38128608Y-39446988D01*
X38174410Y-39597977D01*
X38186000Y-39715655D01*
X38186000Y-40294345D01*
X38174410Y-40412023D01*
X38160856Y-40456703D01*
X38128608Y-40563013D01*
X38066036Y-40680076D01*
X38054229Y-40702165D01*
X37954133Y-40824133D01*
X37895924Y-40871903D01*
X37832164Y-40924229D01*
X37693012Y-40998608D01*
X37642681Y-41013875D01*
X37542022Y-41044410D01*
X37385000Y-41059875D01*
X37227977Y-41044410D01*
X37127318Y-41013875D01*
X37076987Y-40998608D01*
X36937835Y-40924229D01*
X36927813Y-40916004D01*
X36815867Y-40824133D01*
X36715771Y-40702164D01*
X36641393Y-40563013D01*
X36641392Y-40563012D01*
X36626125Y-40512681D01*
X36595590Y-40412022D01*
X36584000Y-40294344D01*
X36584000Y-39715655D01*
X36595590Y-39597977D01*
X36641392Y-39446988D01*
X36641392Y-39446987D01*
X36662902Y-39406745D01*
X36715771Y-39307835D01*
X36815868Y-39185867D01*
X36937836Y-39085771D01*
X37076988Y-39011392D01*
X37127319Y-38996125D01*
X37227978Y-38965590D01*
X37385000Y-38950125D01*
X37542023Y-38965590D01*
G37*
G36*
X35002023Y-38965590D02*
G01*
X35102682Y-38996125D01*
X35153013Y-39011392D01*
X35292165Y-39085771D01*
X35414133Y-39185867D01*
X35514229Y-39307835D01*
X35588608Y-39446987D01*
X35588608Y-39446988D01*
X35634410Y-39597977D01*
X35646000Y-39715655D01*
X35646000Y-40294345D01*
X35634410Y-40412023D01*
X35620856Y-40456703D01*
X35588608Y-40563013D01*
X35526036Y-40680076D01*
X35514229Y-40702165D01*
X35414133Y-40824133D01*
X35355924Y-40871903D01*
X35292164Y-40924229D01*
X35153012Y-40998608D01*
X35102681Y-41013875D01*
X35002022Y-41044410D01*
X34845000Y-41059875D01*
X34687977Y-41044410D01*
X34587318Y-41013875D01*
X34536987Y-40998608D01*
X34397835Y-40924229D01*
X34387813Y-40916004D01*
X34275867Y-40824133D01*
X34175771Y-40702164D01*
X34101393Y-40563013D01*
X34101392Y-40563012D01*
X34086125Y-40512681D01*
X34055590Y-40412022D01*
X34044000Y-40294344D01*
X34044000Y-39715655D01*
X34055590Y-39597977D01*
X34101392Y-39446988D01*
X34101392Y-39446987D01*
X34122902Y-39406745D01*
X34175771Y-39307835D01*
X34275868Y-39185867D01*
X34397836Y-39085771D01*
X34536988Y-39011392D01*
X34587319Y-38996125D01*
X34687978Y-38965590D01*
X34845000Y-38950125D01*
X35002023Y-38965590D01*
G37*
G36*
X32462023Y-38965590D02*
G01*
X32562682Y-38996125D01*
X32613013Y-39011392D01*
X32752165Y-39085771D01*
X32874133Y-39185867D01*
X32974229Y-39307835D01*
X33048608Y-39446987D01*
X33048608Y-39446988D01*
X33094410Y-39597977D01*
X33106000Y-39715655D01*
X33106000Y-40294345D01*
X33094410Y-40412023D01*
X33080856Y-40456703D01*
X33048608Y-40563013D01*
X32986036Y-40680076D01*
X32974229Y-40702165D01*
X32874133Y-40824133D01*
X32815924Y-40871903D01*
X32752164Y-40924229D01*
X32613012Y-40998608D01*
X32562681Y-41013875D01*
X32462022Y-41044410D01*
X32305000Y-41059875D01*
X32147977Y-41044410D01*
X32047318Y-41013875D01*
X31996987Y-40998608D01*
X31857835Y-40924229D01*
X31847813Y-40916004D01*
X31735867Y-40824133D01*
X31635771Y-40702164D01*
X31561393Y-40563013D01*
X31561392Y-40563012D01*
X31546125Y-40512681D01*
X31515590Y-40412022D01*
X31504000Y-40294344D01*
X31504000Y-39715655D01*
X31515590Y-39597977D01*
X31561392Y-39446988D01*
X31561392Y-39446987D01*
X31582902Y-39406745D01*
X31635771Y-39307835D01*
X31735868Y-39185867D01*
X31857836Y-39085771D01*
X31996988Y-39011392D01*
X32047319Y-38996125D01*
X32147978Y-38965590D01*
X32305000Y-38950125D01*
X32462023Y-38965590D01*
G37*
G36*
X42622023Y-38965590D02*
G01*
X42722682Y-38996125D01*
X42773013Y-39011392D01*
X42912165Y-39085771D01*
X43034133Y-39185867D01*
X43134229Y-39307835D01*
X43208608Y-39446987D01*
X43208608Y-39446988D01*
X43254410Y-39597977D01*
X43266000Y-39715655D01*
X43266000Y-40294345D01*
X43254410Y-40412023D01*
X43240856Y-40456703D01*
X43208608Y-40563013D01*
X43146036Y-40680076D01*
X43134229Y-40702165D01*
X43034133Y-40824133D01*
X42975924Y-40871903D01*
X42912164Y-40924229D01*
X42773012Y-40998608D01*
X42722681Y-41013875D01*
X42622022Y-41044410D01*
X42465000Y-41059875D01*
X42307977Y-41044410D01*
X42207318Y-41013875D01*
X42156987Y-40998608D01*
X42017835Y-40924229D01*
X42007813Y-40916004D01*
X41895867Y-40824133D01*
X41795771Y-40702164D01*
X41721393Y-40563013D01*
X41721392Y-40563012D01*
X41706125Y-40512681D01*
X41675590Y-40412022D01*
X41664000Y-40294344D01*
X41664000Y-39715655D01*
X41675590Y-39597977D01*
X41721392Y-39446988D01*
X41721392Y-39446987D01*
X41742902Y-39406745D01*
X41795771Y-39307835D01*
X41895868Y-39185867D01*
X42017836Y-39085771D01*
X42156988Y-39011392D01*
X42207319Y-38996125D01*
X42307978Y-38965590D01*
X42465000Y-38950125D01*
X42622023Y-38965590D01*
G37*
G36*
X78977142Y-36683242D02*
G01*
X79125101Y-36744529D01*
X79258255Y-36833499D01*
X79371501Y-36946745D01*
X79460471Y-37079899D01*
X79521758Y-37227858D01*
X79553000Y-37384925D01*
X79553000Y-37545075D01*
X79521758Y-37702142D01*
X79460471Y-37850101D01*
X79371501Y-37983255D01*
X79258255Y-38096501D01*
X79125101Y-38185471D01*
X78977142Y-38246758D01*
X78820075Y-38278000D01*
X78659925Y-38278000D01*
X78502858Y-38246758D01*
X78354899Y-38185471D01*
X78221745Y-38096501D01*
X78108499Y-37983255D01*
X78019529Y-37850101D01*
X77958242Y-37702142D01*
X77927000Y-37545075D01*
X77927000Y-37384925D01*
X77958242Y-37227858D01*
X78019529Y-37079899D01*
X78108499Y-36946745D01*
X78221745Y-36833499D01*
X78354899Y-36744529D01*
X78502858Y-36683242D01*
X78659925Y-36652000D01*
X78820075Y-36652000D01*
X78977142Y-36683242D01*
G37*
G36*
X60631564Y-33914389D02*
G01*
X60822833Y-33993615D01*
X60822835Y-33993616D01*
X60974341Y-34094849D01*
X60994973Y-34108635D01*
X61141365Y-34255027D01*
X61256385Y-34427167D01*
X61335611Y-34618436D01*
X61376000Y-34821484D01*
X61376000Y-35028516D01*
X61335611Y-35231564D01*
X61256385Y-35422833D01*
X61256384Y-35422835D01*
X61141365Y-35594973D01*
X60994973Y-35741365D01*
X60822835Y-35856384D01*
X60822834Y-35856385D01*
X60822833Y-35856385D01*
X60631564Y-35935611D01*
X60428516Y-35976000D01*
X60221484Y-35976000D01*
X60018436Y-35935611D01*
X59827167Y-35856385D01*
X59827166Y-35856385D01*
X59827165Y-35856384D01*
X59655027Y-35741365D01*
X59508635Y-35594973D01*
X59393616Y-35422835D01*
X59393615Y-35422833D01*
X59314389Y-35231564D01*
X59274000Y-35028516D01*
X59274000Y-34821484D01*
X59314389Y-34618436D01*
X59393615Y-34427167D01*
X59508635Y-34255027D01*
X59655027Y-34108635D01*
X59675659Y-34094849D01*
X59827165Y-33993616D01*
X59827167Y-33993615D01*
X60018436Y-33914389D01*
X60221484Y-33874000D01*
X60428516Y-33874000D01*
X60631564Y-33914389D01*
G37*
G36*
X3391000Y-34506000D02*
G01*
X1689000Y-34506000D01*
X1689000Y-32804000D01*
X3391000Y-32804000D01*
X3391000Y-34506000D01*
G37*
G36*
X24346000Y-34506000D02*
G01*
X22644000Y-34506000D01*
X22644000Y-32804000D01*
X24346000Y-32804000D01*
X24346000Y-34506000D01*
G37*
G36*
X19901000Y-34506000D02*
G01*
X18199000Y-34506000D01*
X18199000Y-32804000D01*
X19901000Y-32804000D01*
X19901000Y-34506000D01*
G37*
G36*
X15456000Y-34506000D02*
G01*
X13754000Y-34506000D01*
X13754000Y-32804000D01*
X15456000Y-32804000D01*
X15456000Y-34506000D01*
G37*
G36*
X6566000Y-34506000D02*
G01*
X4864000Y-34506000D01*
X4864000Y-32804000D01*
X6566000Y-32804000D01*
X6566000Y-34506000D01*
G37*
G36*
X71626694Y-32543633D02*
G01*
X71799095Y-32595931D01*
X71957983Y-32680858D01*
X72097249Y-32795151D01*
X72211542Y-32934417D01*
X72296469Y-33093305D01*
X72348767Y-33265706D01*
X72366425Y-33445000D01*
X72348767Y-33624294D01*
X72296469Y-33796695D01*
X72211542Y-33955583D01*
X72097249Y-34094849D01*
X71957983Y-34209142D01*
X71799095Y-34294069D01*
X71626694Y-34346367D01*
X71492331Y-34359600D01*
X71097669Y-34359600D01*
X70963306Y-34346367D01*
X70790905Y-34294069D01*
X70632017Y-34209142D01*
X70492751Y-34094849D01*
X70378458Y-33955583D01*
X70293531Y-33796695D01*
X70241233Y-33624294D01*
X70223575Y-33445000D01*
X70241233Y-33265706D01*
X70293531Y-33093305D01*
X70378458Y-32934417D01*
X70492751Y-32795151D01*
X70632017Y-32680858D01*
X70790905Y-32595931D01*
X70963306Y-32543633D01*
X71097669Y-32530400D01*
X71492331Y-32530400D01*
X71626694Y-32543633D01*
G37*
G36*
X71626694Y-30003633D02*
G01*
X71799095Y-30055931D01*
X71957983Y-30140858D01*
X72097249Y-30255151D01*
X72211542Y-30394417D01*
X72296469Y-30553305D01*
X72348767Y-30725706D01*
X72366425Y-30905000D01*
X72348767Y-31084294D01*
X72296469Y-31256695D01*
X72211542Y-31415583D01*
X72097249Y-31554849D01*
X71957983Y-31669142D01*
X71799095Y-31754069D01*
X71626694Y-31806367D01*
X71492331Y-31819600D01*
X71097669Y-31819600D01*
X70963306Y-31806367D01*
X70790905Y-31754069D01*
X70632017Y-31669142D01*
X70492751Y-31554849D01*
X70378458Y-31415583D01*
X70293531Y-31256695D01*
X70241233Y-31084294D01*
X70223575Y-30905000D01*
X70241233Y-30725706D01*
X70293531Y-30553305D01*
X70378458Y-30394417D01*
X70492751Y-30255151D01*
X70632017Y-30140858D01*
X70790905Y-30055931D01*
X70963306Y-30003633D01*
X71097669Y-29990400D01*
X71492331Y-29990400D01*
X71626694Y-30003633D01*
G37*
G36*
X35984890Y-29119017D02*
G01*
X36103364Y-29168091D01*
X36172173Y-29214068D01*
X36209988Y-29239335D01*
X36300665Y-29330012D01*
X36371910Y-29436638D01*
X36420983Y-29555110D01*
X36446000Y-29680881D01*
X36446000Y-29809119D01*
X36420983Y-29934890D01*
X36392509Y-30003633D01*
X36371909Y-30053364D01*
X36300665Y-30159988D01*
X36209988Y-30250665D01*
X36103364Y-30321909D01*
X36103363Y-30321910D01*
X36103362Y-30321910D01*
X35984890Y-30370983D01*
X35859119Y-30396000D01*
X35730881Y-30396000D01*
X35605110Y-30370983D01*
X35486638Y-30321910D01*
X35486637Y-30321910D01*
X35486636Y-30321909D01*
X35380012Y-30250665D01*
X35289335Y-30159988D01*
X35218091Y-30053364D01*
X35197492Y-30003633D01*
X35169017Y-29934890D01*
X35144000Y-29809119D01*
X35144000Y-29680881D01*
X35169017Y-29555110D01*
X35218090Y-29436638D01*
X35289335Y-29330012D01*
X35380012Y-29239335D01*
X35417827Y-29214068D01*
X35486636Y-29168091D01*
X35605110Y-29119017D01*
X35730881Y-29094000D01*
X35859119Y-29094000D01*
X35984890Y-29119017D01*
G37*
G36*
X38946000Y-30396000D02*
G01*
X37644000Y-30396000D01*
X37644000Y-29094000D01*
X38946000Y-29094000D01*
X38946000Y-30396000D01*
G37*
G36*
X71626694Y-27463633D02*
G01*
X71799095Y-27515931D01*
X71957983Y-27600858D01*
X72097249Y-27715151D01*
X72211542Y-27854417D01*
X72296469Y-28013305D01*
X72348767Y-28185706D01*
X72366425Y-28365000D01*
X72348767Y-28544294D01*
X72296469Y-28716695D01*
X72211542Y-28875583D01*
X72097249Y-29014849D01*
X71957983Y-29129142D01*
X71799095Y-29214069D01*
X71626694Y-29266367D01*
X71492331Y-29279600D01*
X71097669Y-29279600D01*
X70963306Y-29266367D01*
X70790905Y-29214069D01*
X70632017Y-29129142D01*
X70492751Y-29014849D01*
X70378458Y-28875583D01*
X70293531Y-28716695D01*
X70241233Y-28544294D01*
X70223575Y-28365000D01*
X70241233Y-28185706D01*
X70293531Y-28013305D01*
X70378458Y-27854417D01*
X70492751Y-27715151D01*
X70632017Y-27600858D01*
X70790905Y-27515931D01*
X70963306Y-27463633D01*
X71097669Y-27450400D01*
X71492331Y-27450400D01*
X71626694Y-27463633D01*
G37*
G36*
X71626694Y-24923633D02*
G01*
X71799095Y-24975931D01*
X71957983Y-25060858D01*
X72097249Y-25175151D01*
X72211542Y-25314417D01*
X72296469Y-25473305D01*
X72348767Y-25645706D01*
X72366425Y-25825000D01*
X72348767Y-26004294D01*
X72296469Y-26176695D01*
X72211542Y-26335583D01*
X72097249Y-26474849D01*
X71957983Y-26589142D01*
X71799095Y-26674069D01*
X71626694Y-26726367D01*
X71492331Y-26739600D01*
X71097669Y-26739600D01*
X70963306Y-26726367D01*
X70790905Y-26674069D01*
X70632017Y-26589142D01*
X70492751Y-26474849D01*
X70378458Y-26335583D01*
X70293531Y-26176695D01*
X70241233Y-26004294D01*
X70223575Y-25825000D01*
X70241233Y-25645706D01*
X70293531Y-25473305D01*
X70378458Y-25314417D01*
X70492751Y-25175151D01*
X70632017Y-25060858D01*
X70790905Y-24975931D01*
X70963306Y-24923633D01*
X71097669Y-24910400D01*
X71492331Y-24910400D01*
X71626694Y-24923633D01*
G37*
G36*
X31541822Y-23556313D02*
G01*
X31702241Y-23604976D01*
X31850077Y-23683995D01*
X31979659Y-23790341D01*
X32086004Y-23919922D01*
X32086005Y-23919924D01*
X32165024Y-24067758D01*
X32213687Y-24228177D01*
X32226000Y-24353196D01*
X32226000Y-25136803D01*
X32213687Y-25261822D01*
X32165024Y-25422242D01*
X32136287Y-25476005D01*
X32086004Y-25570078D01*
X31979659Y-25699659D01*
X31850078Y-25806004D01*
X31850076Y-25806005D01*
X31702242Y-25885024D01*
X31541823Y-25933687D01*
X31375000Y-25950117D01*
X31208178Y-25933687D01*
X31047759Y-25885024D01*
X30899925Y-25806005D01*
X30899923Y-25806004D01*
X30770342Y-25699659D01*
X30663997Y-25570078D01*
X30655951Y-25555025D01*
X30584975Y-25422239D01*
X30536313Y-25261826D01*
X30524000Y-25136804D01*
X30524000Y-24353197D01*
X30536313Y-24228178D01*
X30584976Y-24067759D01*
X30663995Y-23919923D01*
X30770341Y-23790341D01*
X30899922Y-23683996D01*
X30915094Y-23675886D01*
X31047758Y-23604976D01*
X31208177Y-23556313D01*
X31375000Y-23539883D01*
X31541822Y-23556313D01*
G37*
G36*
X44241822Y-23556313D02*
G01*
X44402241Y-23604976D01*
X44550077Y-23683995D01*
X44679659Y-23790341D01*
X44786004Y-23919922D01*
X44786005Y-23919924D01*
X44865024Y-24067758D01*
X44913687Y-24228177D01*
X44926000Y-24353196D01*
X44926000Y-25136803D01*
X44913687Y-25261822D01*
X44865024Y-25422242D01*
X44836287Y-25476005D01*
X44786004Y-25570078D01*
X44679659Y-25699659D01*
X44550078Y-25806004D01*
X44550076Y-25806005D01*
X44402242Y-25885024D01*
X44241823Y-25933687D01*
X44075000Y-25950117D01*
X43908178Y-25933687D01*
X43747759Y-25885024D01*
X43599925Y-25806005D01*
X43599923Y-25806004D01*
X43470342Y-25699659D01*
X43363997Y-25570078D01*
X43355951Y-25555025D01*
X43284975Y-25422239D01*
X43236313Y-25261826D01*
X43224000Y-25136804D01*
X43224000Y-24353197D01*
X43236313Y-24228178D01*
X43284976Y-24067759D01*
X43363995Y-23919923D01*
X43470341Y-23790341D01*
X43599922Y-23683996D01*
X43615094Y-23675886D01*
X43747758Y-23604976D01*
X43908177Y-23556313D01*
X44075000Y-23539883D01*
X44241822Y-23556313D01*
G37*
G36*
X34081822Y-23556313D02*
G01*
X34242241Y-23604976D01*
X34390077Y-23683995D01*
X34519659Y-23790341D01*
X34626004Y-23919922D01*
X34626005Y-23919924D01*
X34705024Y-24067758D01*
X34753687Y-24228177D01*
X34766000Y-24353196D01*
X34766000Y-25136803D01*
X34753687Y-25261822D01*
X34705024Y-25422242D01*
X34676287Y-25476005D01*
X34626004Y-25570078D01*
X34519659Y-25699659D01*
X34390078Y-25806004D01*
X34390076Y-25806005D01*
X34242242Y-25885024D01*
X34081823Y-25933687D01*
X33915000Y-25950117D01*
X33748178Y-25933687D01*
X33587759Y-25885024D01*
X33439925Y-25806005D01*
X33439923Y-25806004D01*
X33310342Y-25699659D01*
X33203997Y-25570078D01*
X33195951Y-25555025D01*
X33124975Y-25422239D01*
X33076313Y-25261826D01*
X33064000Y-25136804D01*
X33064000Y-24353197D01*
X33076313Y-24228178D01*
X33124976Y-24067759D01*
X33203995Y-23919923D01*
X33310341Y-23790341D01*
X33439922Y-23683996D01*
X33455094Y-23675886D01*
X33587758Y-23604976D01*
X33748177Y-23556313D01*
X33915000Y-23539883D01*
X34081822Y-23556313D01*
G37*
G36*
X36621822Y-23556313D02*
G01*
X36782241Y-23604976D01*
X36930077Y-23683995D01*
X37059659Y-23790341D01*
X37166004Y-23919922D01*
X37166005Y-23919924D01*
X37245024Y-24067758D01*
X37293687Y-24228177D01*
X37306000Y-24353196D01*
X37306000Y-25136803D01*
X37293687Y-25261822D01*
X37245024Y-25422242D01*
X37216287Y-25476005D01*
X37166004Y-25570078D01*
X37059659Y-25699659D01*
X36930078Y-25806004D01*
X36930076Y-25806005D01*
X36782242Y-25885024D01*
X36621823Y-25933687D01*
X36455000Y-25950117D01*
X36288178Y-25933687D01*
X36127759Y-25885024D01*
X35979925Y-25806005D01*
X35979923Y-25806004D01*
X35850342Y-25699659D01*
X35743997Y-25570078D01*
X35735951Y-25555025D01*
X35664975Y-25422239D01*
X35616313Y-25261826D01*
X35604000Y-25136804D01*
X35604000Y-24353197D01*
X35616313Y-24228178D01*
X35664976Y-24067759D01*
X35743995Y-23919923D01*
X35850341Y-23790341D01*
X35979922Y-23683996D01*
X35995094Y-23675886D01*
X36127758Y-23604976D01*
X36288177Y-23556313D01*
X36455000Y-23539883D01*
X36621822Y-23556313D01*
G37*
G36*
X39161822Y-23556313D02*
G01*
X39322241Y-23604976D01*
X39470077Y-23683995D01*
X39599659Y-23790341D01*
X39706004Y-23919922D01*
X39706005Y-23919924D01*
X39785024Y-24067758D01*
X39833687Y-24228177D01*
X39846000Y-24353196D01*
X39846000Y-25136803D01*
X39833687Y-25261822D01*
X39785024Y-25422242D01*
X39756287Y-25476005D01*
X39706004Y-25570078D01*
X39599659Y-25699659D01*
X39470078Y-25806004D01*
X39470076Y-25806005D01*
X39322242Y-25885024D01*
X39161823Y-25933687D01*
X38995000Y-25950117D01*
X38828178Y-25933687D01*
X38667759Y-25885024D01*
X38519925Y-25806005D01*
X38519923Y-25806004D01*
X38390342Y-25699659D01*
X38283997Y-25570078D01*
X38275951Y-25555025D01*
X38204975Y-25422239D01*
X38156313Y-25261826D01*
X38144000Y-25136804D01*
X38144000Y-24353197D01*
X38156313Y-24228178D01*
X38204976Y-24067759D01*
X38283995Y-23919923D01*
X38390341Y-23790341D01*
X38519922Y-23683996D01*
X38535094Y-23675886D01*
X38667758Y-23604976D01*
X38828177Y-23556313D01*
X38995000Y-23539883D01*
X39161822Y-23556313D01*
G37*
G36*
X26461822Y-23556313D02*
G01*
X26622241Y-23604976D01*
X26770077Y-23683995D01*
X26899659Y-23790341D01*
X27006004Y-23919922D01*
X27006005Y-23919924D01*
X27085024Y-24067758D01*
X27133687Y-24228177D01*
X27146000Y-24353196D01*
X27146000Y-25136803D01*
X27133687Y-25261822D01*
X27085024Y-25422242D01*
X27056287Y-25476005D01*
X27006004Y-25570078D01*
X26899659Y-25699659D01*
X26770078Y-25806004D01*
X26770076Y-25806005D01*
X26622242Y-25885024D01*
X26461823Y-25933687D01*
X26295000Y-25950117D01*
X26128178Y-25933687D01*
X25967759Y-25885024D01*
X25819925Y-25806005D01*
X25819923Y-25806004D01*
X25690342Y-25699659D01*
X25583997Y-25570078D01*
X25575951Y-25555025D01*
X25504975Y-25422239D01*
X25456313Y-25261826D01*
X25444000Y-25136804D01*
X25444000Y-24353197D01*
X25456313Y-24228178D01*
X25504976Y-24067759D01*
X25583995Y-23919923D01*
X25690341Y-23790341D01*
X25819922Y-23683996D01*
X25835094Y-23675886D01*
X25967758Y-23604976D01*
X26128177Y-23556313D01*
X26295000Y-23539883D01*
X26461822Y-23556313D01*
G37*
G36*
X29001822Y-23556313D02*
G01*
X29162241Y-23604976D01*
X29310077Y-23683995D01*
X29439659Y-23790341D01*
X29546004Y-23919922D01*
X29546005Y-23919924D01*
X29625024Y-24067758D01*
X29673687Y-24228177D01*
X29686000Y-24353196D01*
X29686000Y-25136803D01*
X29673687Y-25261822D01*
X29625024Y-25422242D01*
X29596287Y-25476005D01*
X29546004Y-25570078D01*
X29439659Y-25699659D01*
X29310078Y-25806004D01*
X29310076Y-25806005D01*
X29162242Y-25885024D01*
X29001823Y-25933687D01*
X28835000Y-25950117D01*
X28668178Y-25933687D01*
X28507759Y-25885024D01*
X28359925Y-25806005D01*
X28359923Y-25806004D01*
X28230342Y-25699659D01*
X28123997Y-25570078D01*
X28115951Y-25555025D01*
X28044975Y-25422239D01*
X27996313Y-25261826D01*
X27984000Y-25136804D01*
X27984000Y-24353197D01*
X27996313Y-24228178D01*
X28044976Y-24067759D01*
X28123995Y-23919923D01*
X28230341Y-23790341D01*
X28359922Y-23683996D01*
X28375094Y-23675886D01*
X28507758Y-23604976D01*
X28668177Y-23556313D01*
X28835000Y-23539883D01*
X29001822Y-23556313D01*
G37*
G36*
X59481822Y-23556313D02*
G01*
X59642241Y-23604976D01*
X59790077Y-23683995D01*
X59919659Y-23790341D01*
X60026004Y-23919922D01*
X60026005Y-23919924D01*
X60105024Y-24067758D01*
X60153687Y-24228177D01*
X60166000Y-24353196D01*
X60166000Y-25136803D01*
X60153687Y-25261822D01*
X60105024Y-25422242D01*
X60076287Y-25476005D01*
X60026004Y-25570078D01*
X59919659Y-25699659D01*
X59790078Y-25806004D01*
X59790076Y-25806005D01*
X59642242Y-25885024D01*
X59481823Y-25933687D01*
X59315000Y-25950117D01*
X59148178Y-25933687D01*
X58987759Y-25885024D01*
X58839925Y-25806005D01*
X58839923Y-25806004D01*
X58710342Y-25699659D01*
X58603997Y-25570078D01*
X58595951Y-25555025D01*
X58524975Y-25422239D01*
X58476313Y-25261826D01*
X58464000Y-25136804D01*
X58464000Y-24353197D01*
X58476313Y-24228178D01*
X58524976Y-24067759D01*
X58603995Y-23919923D01*
X58710341Y-23790341D01*
X58839922Y-23683996D01*
X58855094Y-23675886D01*
X58987758Y-23604976D01*
X59148177Y-23556313D01*
X59315000Y-23539883D01*
X59481822Y-23556313D01*
G37*
G36*
X56941822Y-23556313D02*
G01*
X57102241Y-23604976D01*
X57250077Y-23683995D01*
X57379659Y-23790341D01*
X57486004Y-23919922D01*
X57486005Y-23919924D01*
X57565024Y-24067758D01*
X57613687Y-24228177D01*
X57626000Y-24353196D01*
X57626000Y-25136803D01*
X57613687Y-25261822D01*
X57565024Y-25422242D01*
X57536287Y-25476005D01*
X57486004Y-25570078D01*
X57379659Y-25699659D01*
X57250078Y-25806004D01*
X57250076Y-25806005D01*
X57102242Y-25885024D01*
X56941823Y-25933687D01*
X56775000Y-25950117D01*
X56608178Y-25933687D01*
X56447759Y-25885024D01*
X56299925Y-25806005D01*
X56299923Y-25806004D01*
X56170342Y-25699659D01*
X56063997Y-25570078D01*
X56055951Y-25555025D01*
X55984975Y-25422239D01*
X55936313Y-25261826D01*
X55924000Y-25136804D01*
X55924000Y-24353197D01*
X55936313Y-24228178D01*
X55984976Y-24067759D01*
X56063995Y-23919923D01*
X56170341Y-23790341D01*
X56299922Y-23683996D01*
X56315094Y-23675886D01*
X56447758Y-23604976D01*
X56608177Y-23556313D01*
X56775000Y-23539883D01*
X56941822Y-23556313D01*
G37*
G36*
X41701822Y-23556313D02*
G01*
X41862241Y-23604976D01*
X42010077Y-23683995D01*
X42139659Y-23790341D01*
X42246004Y-23919922D01*
X42246005Y-23919924D01*
X42325024Y-24067758D01*
X42373687Y-24228177D01*
X42386000Y-24353196D01*
X42386000Y-25136803D01*
X42373687Y-25261822D01*
X42325024Y-25422242D01*
X42296287Y-25476005D01*
X42246004Y-25570078D01*
X42139659Y-25699659D01*
X42010078Y-25806004D01*
X42010076Y-25806005D01*
X41862242Y-25885024D01*
X41701823Y-25933687D01*
X41535000Y-25950117D01*
X41368178Y-25933687D01*
X41207759Y-25885024D01*
X41059925Y-25806005D01*
X41059923Y-25806004D01*
X40930342Y-25699659D01*
X40823997Y-25570078D01*
X40815951Y-25555025D01*
X40744975Y-25422239D01*
X40696313Y-25261826D01*
X40684000Y-25136804D01*
X40684000Y-24353197D01*
X40696313Y-24228178D01*
X40744976Y-24067759D01*
X40823995Y-23919923D01*
X40930341Y-23790341D01*
X41059922Y-23683996D01*
X41075094Y-23675886D01*
X41207758Y-23604976D01*
X41368177Y-23556313D01*
X41535000Y-23539883D01*
X41701822Y-23556313D01*
G37*
G36*
X54401822Y-23556313D02*
G01*
X54562241Y-23604976D01*
X54710077Y-23683995D01*
X54839659Y-23790341D01*
X54946004Y-23919922D01*
X54946005Y-23919924D01*
X55025024Y-24067758D01*
X55073687Y-24228177D01*
X55086000Y-24353196D01*
X55086000Y-25136803D01*
X55073687Y-25261822D01*
X55025024Y-25422242D01*
X54996287Y-25476005D01*
X54946004Y-25570078D01*
X54839659Y-25699659D01*
X54710078Y-25806004D01*
X54710076Y-25806005D01*
X54562242Y-25885024D01*
X54401823Y-25933687D01*
X54235000Y-25950117D01*
X54068178Y-25933687D01*
X53907759Y-25885024D01*
X53759925Y-25806005D01*
X53759923Y-25806004D01*
X53630342Y-25699659D01*
X53523997Y-25570078D01*
X53515951Y-25555025D01*
X53444975Y-25422239D01*
X53396313Y-25261826D01*
X53384000Y-25136804D01*
X53384000Y-24353197D01*
X53396313Y-24228178D01*
X53444976Y-24067759D01*
X53523995Y-23919923D01*
X53630341Y-23790341D01*
X53759922Y-23683996D01*
X53775094Y-23675886D01*
X53907758Y-23604976D01*
X54068177Y-23556313D01*
X54235000Y-23539883D01*
X54401822Y-23556313D01*
G37*
G36*
X51861822Y-23556313D02*
G01*
X52022241Y-23604976D01*
X52170077Y-23683995D01*
X52299659Y-23790341D01*
X52406004Y-23919922D01*
X52406005Y-23919924D01*
X52485024Y-24067758D01*
X52533687Y-24228177D01*
X52546000Y-24353196D01*
X52546000Y-25136803D01*
X52533687Y-25261822D01*
X52485024Y-25422242D01*
X52456287Y-25476005D01*
X52406004Y-25570078D01*
X52299659Y-25699659D01*
X52170078Y-25806004D01*
X52170076Y-25806005D01*
X52022242Y-25885024D01*
X51861823Y-25933687D01*
X51695000Y-25950117D01*
X51528178Y-25933687D01*
X51367759Y-25885024D01*
X51219925Y-25806005D01*
X51219923Y-25806004D01*
X51090342Y-25699659D01*
X50983997Y-25570078D01*
X50975951Y-25555025D01*
X50904975Y-25422239D01*
X50856313Y-25261826D01*
X50844000Y-25136804D01*
X50844000Y-24353197D01*
X50856313Y-24228178D01*
X50904976Y-24067759D01*
X50983995Y-23919923D01*
X51090341Y-23790341D01*
X51219922Y-23683996D01*
X51235094Y-23675886D01*
X51367758Y-23604976D01*
X51528177Y-23556313D01*
X51695000Y-23539883D01*
X51861822Y-23556313D01*
G37*
G36*
X49321822Y-23556313D02*
G01*
X49482241Y-23604976D01*
X49630077Y-23683995D01*
X49759659Y-23790341D01*
X49866004Y-23919922D01*
X49866005Y-23919924D01*
X49945024Y-24067758D01*
X49993687Y-24228177D01*
X50006000Y-24353196D01*
X50006000Y-25136803D01*
X49993687Y-25261822D01*
X49945024Y-25422242D01*
X49916287Y-25476005D01*
X49866004Y-25570078D01*
X49759659Y-25699659D01*
X49630078Y-25806004D01*
X49630076Y-25806005D01*
X49482242Y-25885024D01*
X49321823Y-25933687D01*
X49155000Y-25950117D01*
X48988178Y-25933687D01*
X48827759Y-25885024D01*
X48679925Y-25806005D01*
X48679923Y-25806004D01*
X48550342Y-25699659D01*
X48443997Y-25570078D01*
X48435951Y-25555025D01*
X48364975Y-25422239D01*
X48316313Y-25261826D01*
X48304000Y-25136804D01*
X48304000Y-24353197D01*
X48316313Y-24228178D01*
X48364976Y-24067759D01*
X48443995Y-23919923D01*
X48550341Y-23790341D01*
X48679922Y-23683996D01*
X48695094Y-23675886D01*
X48827758Y-23604976D01*
X48988177Y-23556313D01*
X49155000Y-23539883D01*
X49321822Y-23556313D01*
G37*
G36*
X46781822Y-23556313D02*
G01*
X46942241Y-23604976D01*
X47090077Y-23683995D01*
X47219659Y-23790341D01*
X47326004Y-23919922D01*
X47326005Y-23919924D01*
X47405024Y-24067758D01*
X47453687Y-24228177D01*
X47466000Y-24353196D01*
X47466000Y-25136803D01*
X47453687Y-25261822D01*
X47405024Y-25422242D01*
X47376287Y-25476005D01*
X47326004Y-25570078D01*
X47219659Y-25699659D01*
X47090078Y-25806004D01*
X47090076Y-25806005D01*
X46942242Y-25885024D01*
X46781823Y-25933687D01*
X46615000Y-25950117D01*
X46448178Y-25933687D01*
X46287759Y-25885024D01*
X46139925Y-25806005D01*
X46139923Y-25806004D01*
X46010342Y-25699659D01*
X45903997Y-25570078D01*
X45895951Y-25555025D01*
X45824975Y-25422239D01*
X45776313Y-25261826D01*
X45764000Y-25136804D01*
X45764000Y-24353197D01*
X45776313Y-24228178D01*
X45824976Y-24067759D01*
X45903995Y-23919923D01*
X46010341Y-23790341D01*
X46139922Y-23683996D01*
X46155094Y-23675886D01*
X46287758Y-23604976D01*
X46448177Y-23556313D01*
X46615000Y-23539883D01*
X46781822Y-23556313D01*
G37*
G36*
X10041823Y-23926313D02*
G01*
X10202242Y-23974976D01*
X10334906Y-24045886D01*
X10350078Y-24053996D01*
X10479659Y-24160341D01*
X10586004Y-24289922D01*
X10586005Y-24289924D01*
X10665024Y-24437758D01*
X10713687Y-24598177D01*
X10730117Y-24765000D01*
X10713687Y-24931823D01*
X10665024Y-25092242D01*
X10641205Y-25136804D01*
X10586004Y-25240078D01*
X10479659Y-25369659D01*
X10350078Y-25476004D01*
X10350076Y-25476005D01*
X10202242Y-25555024D01*
X10041823Y-25603687D01*
X9916804Y-25616000D01*
X9133196Y-25616000D01*
X9008177Y-25603687D01*
X8847758Y-25555024D01*
X8699924Y-25476005D01*
X8699922Y-25476004D01*
X8570341Y-25369659D01*
X8463996Y-25240078D01*
X8408795Y-25136804D01*
X8384976Y-25092242D01*
X8336313Y-24931823D01*
X8319883Y-24765000D01*
X8336313Y-24598177D01*
X8384976Y-24437758D01*
X8463995Y-24289924D01*
X8463996Y-24289922D01*
X8570341Y-24160341D01*
X8699922Y-24053996D01*
X8715094Y-24045886D01*
X8847758Y-23974976D01*
X9008177Y-23926313D01*
X9133196Y-23914000D01*
X9916804Y-23914000D01*
X10041823Y-23926313D01*
G37*
G36*
X2421823Y-23926313D02*
G01*
X2582242Y-23974976D01*
X2714906Y-24045886D01*
X2730078Y-24053996D01*
X2859659Y-24160341D01*
X2966004Y-24289922D01*
X2966005Y-24289924D01*
X3045024Y-24437758D01*
X3093687Y-24598177D01*
X3110117Y-24765000D01*
X3093687Y-24931823D01*
X3045024Y-25092242D01*
X3021205Y-25136804D01*
X2966004Y-25240078D01*
X2859659Y-25369659D01*
X2730078Y-25476004D01*
X2730076Y-25476005D01*
X2582242Y-25555024D01*
X2421823Y-25603687D01*
X2296804Y-25616000D01*
X1513196Y-25616000D01*
X1388177Y-25603687D01*
X1227758Y-25555024D01*
X1079924Y-25476005D01*
X1079922Y-25476004D01*
X950341Y-25369659D01*
X843996Y-25240078D01*
X788795Y-25136804D01*
X764976Y-25092242D01*
X716313Y-24931823D01*
X699883Y-24765000D01*
X716313Y-24598177D01*
X764976Y-24437758D01*
X843995Y-24289924D01*
X843996Y-24289922D01*
X950341Y-24160341D01*
X1079922Y-24053996D01*
X1095094Y-24045886D01*
X1227758Y-23974976D01*
X1388177Y-23926313D01*
X1513196Y-23914000D01*
X2296804Y-23914000D01*
X2421823Y-23926313D01*
G37*
G36*
X71626694Y-22383633D02*
G01*
X71799095Y-22435931D01*
X71957983Y-22520858D01*
X72097249Y-22635151D01*
X72211542Y-22774417D01*
X72296469Y-22933305D01*
X72348767Y-23105706D01*
X72366425Y-23285000D01*
X72348767Y-23464294D01*
X72296469Y-23636695D01*
X72211542Y-23795583D01*
X72097249Y-23934849D01*
X71957983Y-24049142D01*
X71799095Y-24134069D01*
X71626694Y-24186367D01*
X71492331Y-24199600D01*
X71097669Y-24199600D01*
X70963306Y-24186367D01*
X70790905Y-24134069D01*
X70632017Y-24049142D01*
X70492751Y-23934849D01*
X70378458Y-23795583D01*
X70293531Y-23636695D01*
X70241233Y-23464294D01*
X70223575Y-23285000D01*
X70241233Y-23105706D01*
X70293531Y-22933305D01*
X70378458Y-22774417D01*
X70492751Y-22635151D01*
X70632017Y-22520858D01*
X70790905Y-22435931D01*
X70963306Y-22383633D01*
X71097669Y-22370400D01*
X71492331Y-22370400D01*
X71626694Y-22383633D01*
G37*
G36*
X10041823Y-21386313D02*
G01*
X10202242Y-21434976D01*
X10334906Y-21505886D01*
X10350078Y-21513996D01*
X10479659Y-21620341D01*
X10586004Y-21749922D01*
X10586005Y-21749924D01*
X10665024Y-21897758D01*
X10713687Y-22058177D01*
X10730117Y-22225000D01*
X10713687Y-22391823D01*
X10665024Y-22552242D01*
X10620708Y-22635151D01*
X10586004Y-22700078D01*
X10479659Y-22829659D01*
X10350078Y-22936004D01*
X10350076Y-22936005D01*
X10202242Y-23015024D01*
X10041823Y-23063687D01*
X9916804Y-23076000D01*
X9133196Y-23076000D01*
X9008177Y-23063687D01*
X8847758Y-23015024D01*
X8699924Y-22936005D01*
X8699922Y-22936004D01*
X8570341Y-22829659D01*
X8463996Y-22700078D01*
X8429292Y-22635151D01*
X8384976Y-22552242D01*
X8336313Y-22391823D01*
X8319883Y-22225000D01*
X8336313Y-22058177D01*
X8384976Y-21897758D01*
X8463995Y-21749924D01*
X8463996Y-21749922D01*
X8570341Y-21620341D01*
X8699922Y-21513996D01*
X8715094Y-21505886D01*
X8847758Y-21434976D01*
X9008177Y-21386313D01*
X9133196Y-21374000D01*
X9916804Y-21374000D01*
X10041823Y-21386313D01*
G37*
G36*
X2421823Y-21386313D02*
G01*
X2582242Y-21434976D01*
X2714906Y-21505886D01*
X2730078Y-21513996D01*
X2859659Y-21620341D01*
X2966004Y-21749922D01*
X2966005Y-21749924D01*
X3045024Y-21897758D01*
X3093687Y-22058177D01*
X3110117Y-22225000D01*
X3093687Y-22391823D01*
X3045024Y-22552242D01*
X3000708Y-22635151D01*
X2966004Y-22700078D01*
X2859659Y-22829659D01*
X2730078Y-22936004D01*
X2730076Y-22936005D01*
X2582242Y-23015024D01*
X2421823Y-23063687D01*
X2296804Y-23076000D01*
X1513196Y-23076000D01*
X1388177Y-23063687D01*
X1227758Y-23015024D01*
X1079924Y-22936005D01*
X1079922Y-22936004D01*
X950341Y-22829659D01*
X843996Y-22700078D01*
X809292Y-22635151D01*
X764976Y-22552242D01*
X716313Y-22391823D01*
X699883Y-22225000D01*
X716313Y-22058177D01*
X764976Y-21897758D01*
X843995Y-21749924D01*
X843996Y-21749922D01*
X950341Y-21620341D01*
X1079922Y-21513996D01*
X1095094Y-21505886D01*
X1227758Y-21434976D01*
X1388177Y-21386313D01*
X1513196Y-21374000D01*
X2296804Y-21374000D01*
X2421823Y-21386313D01*
G37*
G36*
X72362000Y-21659600D02*
G01*
X70228000Y-21659600D01*
X70228000Y-19830400D01*
X72362000Y-19830400D01*
X72362000Y-21659600D01*
G37*
G36*
X10041823Y-18846313D02*
G01*
X10202242Y-18894976D01*
X10334906Y-18965886D01*
X10350078Y-18973996D01*
X10479659Y-19080341D01*
X10586004Y-19209922D01*
X10586005Y-19209924D01*
X10665024Y-19357758D01*
X10713687Y-19518177D01*
X10730117Y-19685000D01*
X10713687Y-19851823D01*
X10665024Y-20012242D01*
X10594114Y-20144906D01*
X10586004Y-20160078D01*
X10479659Y-20289659D01*
X10350078Y-20396004D01*
X10350076Y-20396005D01*
X10202242Y-20475024D01*
X10041823Y-20523687D01*
X9916804Y-20536000D01*
X9133196Y-20536000D01*
X9008177Y-20523687D01*
X8847758Y-20475024D01*
X8699924Y-20396005D01*
X8699922Y-20396004D01*
X8570341Y-20289659D01*
X8463996Y-20160078D01*
X8455886Y-20144906D01*
X8384976Y-20012242D01*
X8336313Y-19851823D01*
X8319883Y-19685000D01*
X8336313Y-19518177D01*
X8384976Y-19357758D01*
X8463995Y-19209924D01*
X8463996Y-19209922D01*
X8570341Y-19080341D01*
X8699922Y-18973996D01*
X8715094Y-18965886D01*
X8847758Y-18894976D01*
X9008177Y-18846313D01*
X9133196Y-18834000D01*
X9916804Y-18834000D01*
X10041823Y-18846313D01*
G37*
G36*
X2421823Y-18846313D02*
G01*
X2582242Y-18894976D01*
X2714906Y-18965886D01*
X2730078Y-18973996D01*
X2859659Y-19080341D01*
X2966004Y-19209922D01*
X2966005Y-19209924D01*
X3045024Y-19357758D01*
X3093687Y-19518177D01*
X3110117Y-19685000D01*
X3093687Y-19851823D01*
X3045024Y-20012242D01*
X2974114Y-20144906D01*
X2966004Y-20160078D01*
X2859659Y-20289659D01*
X2730078Y-20396004D01*
X2730076Y-20396005D01*
X2582242Y-20475024D01*
X2421823Y-20523687D01*
X2296804Y-20536000D01*
X1513196Y-20536000D01*
X1388177Y-20523687D01*
X1227758Y-20475024D01*
X1079924Y-20396005D01*
X1079922Y-20396004D01*
X950341Y-20289659D01*
X843996Y-20160078D01*
X835886Y-20144906D01*
X764976Y-20012242D01*
X716313Y-19851823D01*
X699883Y-19685000D01*
X716313Y-19518177D01*
X764976Y-19357758D01*
X843995Y-19209924D01*
X843996Y-19209922D01*
X950341Y-19080341D01*
X1079922Y-18973996D01*
X1095094Y-18965886D01*
X1227758Y-18894976D01*
X1388177Y-18846313D01*
X1513196Y-18834000D01*
X2296804Y-18834000D01*
X2421823Y-18846313D01*
G37*
G36*
X44241822Y-15936313D02*
G01*
X44402241Y-15984976D01*
X44550077Y-16063995D01*
X44679659Y-16170341D01*
X44786004Y-16299922D01*
X44786005Y-16299924D01*
X44865024Y-16447758D01*
X44913687Y-16608177D01*
X44926000Y-16733196D01*
X44926000Y-17516803D01*
X44913687Y-17641822D01*
X44865024Y-17802242D01*
X44836287Y-17856005D01*
X44786004Y-17950078D01*
X44679659Y-18079659D01*
X44550078Y-18186004D01*
X44550076Y-18186005D01*
X44402242Y-18265024D01*
X44241823Y-18313687D01*
X44075000Y-18330117D01*
X43908178Y-18313687D01*
X43747759Y-18265024D01*
X43599925Y-18186005D01*
X43599923Y-18186004D01*
X43470342Y-18079659D01*
X43363997Y-17950078D01*
X43355951Y-17935025D01*
X43284975Y-17802239D01*
X43236313Y-17641826D01*
X43224000Y-17516804D01*
X43224000Y-16733197D01*
X43236313Y-16608178D01*
X43284976Y-16447759D01*
X43363995Y-16299923D01*
X43470341Y-16170341D01*
X43599922Y-16063996D01*
X43615094Y-16055886D01*
X43747758Y-15984976D01*
X43908177Y-15936313D01*
X44075000Y-15919883D01*
X44241822Y-15936313D01*
G37*
G36*
X26461822Y-15936313D02*
G01*
X26622241Y-15984976D01*
X26770077Y-16063995D01*
X26899659Y-16170341D01*
X27006004Y-16299922D01*
X27006005Y-16299924D01*
X27085024Y-16447758D01*
X27133687Y-16608177D01*
X27146000Y-16733196D01*
X27146000Y-17516803D01*
X27133687Y-17641822D01*
X27085024Y-17802242D01*
X27056287Y-17856005D01*
X27006004Y-17950078D01*
X26899659Y-18079659D01*
X26770078Y-18186004D01*
X26770076Y-18186005D01*
X26622242Y-18265024D01*
X26461823Y-18313687D01*
X26295000Y-18330117D01*
X26128178Y-18313687D01*
X25967759Y-18265024D01*
X25819925Y-18186005D01*
X25819923Y-18186004D01*
X25690342Y-18079659D01*
X25583997Y-17950078D01*
X25575951Y-17935025D01*
X25504975Y-17802239D01*
X25456313Y-17641826D01*
X25444000Y-17516804D01*
X25444000Y-16733197D01*
X25456313Y-16608178D01*
X25504976Y-16447759D01*
X25583995Y-16299923D01*
X25690341Y-16170341D01*
X25819922Y-16063996D01*
X25835094Y-16055886D01*
X25967758Y-15984976D01*
X26128177Y-15936313D01*
X26295000Y-15919883D01*
X26461822Y-15936313D01*
G37*
G36*
X29001822Y-15936313D02*
G01*
X29162241Y-15984976D01*
X29310077Y-16063995D01*
X29439659Y-16170341D01*
X29546004Y-16299922D01*
X29546005Y-16299924D01*
X29625024Y-16447758D01*
X29673687Y-16608177D01*
X29686000Y-16733196D01*
X29686000Y-17516803D01*
X29673687Y-17641822D01*
X29625024Y-17802242D01*
X29596287Y-17856005D01*
X29546004Y-17950078D01*
X29439659Y-18079659D01*
X29310078Y-18186004D01*
X29310076Y-18186005D01*
X29162242Y-18265024D01*
X29001823Y-18313687D01*
X28835000Y-18330117D01*
X28668178Y-18313687D01*
X28507759Y-18265024D01*
X28359925Y-18186005D01*
X28359923Y-18186004D01*
X28230342Y-18079659D01*
X28123997Y-17950078D01*
X28115951Y-17935025D01*
X28044975Y-17802239D01*
X27996313Y-17641826D01*
X27984000Y-17516804D01*
X27984000Y-16733197D01*
X27996313Y-16608178D01*
X28044976Y-16447759D01*
X28123995Y-16299923D01*
X28230341Y-16170341D01*
X28359922Y-16063996D01*
X28375094Y-16055886D01*
X28507758Y-15984976D01*
X28668177Y-15936313D01*
X28835000Y-15919883D01*
X29001822Y-15936313D01*
G37*
G36*
X31541822Y-15936313D02*
G01*
X31702241Y-15984976D01*
X31850077Y-16063995D01*
X31979659Y-16170341D01*
X32086004Y-16299922D01*
X32086005Y-16299924D01*
X32165024Y-16447758D01*
X32213687Y-16608177D01*
X32226000Y-16733196D01*
X32226000Y-17516803D01*
X32213687Y-17641822D01*
X32165024Y-17802242D01*
X32136287Y-17856005D01*
X32086004Y-17950078D01*
X31979659Y-18079659D01*
X31850078Y-18186004D01*
X31850076Y-18186005D01*
X31702242Y-18265024D01*
X31541823Y-18313687D01*
X31375000Y-18330117D01*
X31208178Y-18313687D01*
X31047759Y-18265024D01*
X30899925Y-18186005D01*
X30899923Y-18186004D01*
X30770342Y-18079659D01*
X30663997Y-17950078D01*
X30655951Y-17935025D01*
X30584975Y-17802239D01*
X30536313Y-17641826D01*
X30524000Y-17516804D01*
X30524000Y-16733197D01*
X30536313Y-16608178D01*
X30584976Y-16447759D01*
X30663995Y-16299923D01*
X30770341Y-16170341D01*
X30899922Y-16063996D01*
X30915094Y-16055886D01*
X31047758Y-15984976D01*
X31208177Y-15936313D01*
X31375000Y-15919883D01*
X31541822Y-15936313D01*
G37*
G36*
X34081822Y-15936313D02*
G01*
X34242241Y-15984976D01*
X34390077Y-16063995D01*
X34519659Y-16170341D01*
X34626004Y-16299922D01*
X34626005Y-16299924D01*
X34705024Y-16447758D01*
X34753687Y-16608177D01*
X34766000Y-16733196D01*
X34766000Y-17516803D01*
X34753687Y-17641822D01*
X34705024Y-17802242D01*
X34676287Y-17856005D01*
X34626004Y-17950078D01*
X34519659Y-18079659D01*
X34390078Y-18186004D01*
X34390076Y-18186005D01*
X34242242Y-18265024D01*
X34081823Y-18313687D01*
X33915000Y-18330117D01*
X33748178Y-18313687D01*
X33587759Y-18265024D01*
X33439925Y-18186005D01*
X33439923Y-18186004D01*
X33310342Y-18079659D01*
X33203997Y-17950078D01*
X33195951Y-17935025D01*
X33124975Y-17802239D01*
X33076313Y-17641826D01*
X33064000Y-17516804D01*
X33064000Y-16733197D01*
X33076313Y-16608178D01*
X33124976Y-16447759D01*
X33203995Y-16299923D01*
X33310341Y-16170341D01*
X33439922Y-16063996D01*
X33455094Y-16055886D01*
X33587758Y-15984976D01*
X33748177Y-15936313D01*
X33915000Y-15919883D01*
X34081822Y-15936313D01*
G37*
G36*
X36621822Y-15936313D02*
G01*
X36782241Y-15984976D01*
X36930077Y-16063995D01*
X37059659Y-16170341D01*
X37166004Y-16299922D01*
X37166005Y-16299924D01*
X37245024Y-16447758D01*
X37293687Y-16608177D01*
X37306000Y-16733196D01*
X37306000Y-17516803D01*
X37293687Y-17641822D01*
X37245024Y-17802242D01*
X37216287Y-17856005D01*
X37166004Y-17950078D01*
X37059659Y-18079659D01*
X36930078Y-18186004D01*
X36930076Y-18186005D01*
X36782242Y-18265024D01*
X36621823Y-18313687D01*
X36455000Y-18330117D01*
X36288178Y-18313687D01*
X36127759Y-18265024D01*
X35979925Y-18186005D01*
X35979923Y-18186004D01*
X35850342Y-18079659D01*
X35743997Y-17950078D01*
X35735951Y-17935025D01*
X35664975Y-17802239D01*
X35616313Y-17641826D01*
X35604000Y-17516804D01*
X35604000Y-16733197D01*
X35616313Y-16608178D01*
X35664976Y-16447759D01*
X35743995Y-16299923D01*
X35850341Y-16170341D01*
X35979922Y-16063996D01*
X35995094Y-16055886D01*
X36127758Y-15984976D01*
X36288177Y-15936313D01*
X36455000Y-15919883D01*
X36621822Y-15936313D01*
G37*
G36*
X39161822Y-15936313D02*
G01*
X39322241Y-15984976D01*
X39470077Y-16063995D01*
X39599659Y-16170341D01*
X39706004Y-16299922D01*
X39706005Y-16299924D01*
X39785024Y-16447758D01*
X39833687Y-16608177D01*
X39846000Y-16733196D01*
X39846000Y-17516803D01*
X39833687Y-17641822D01*
X39785024Y-17802242D01*
X39756287Y-17856005D01*
X39706004Y-17950078D01*
X39599659Y-18079659D01*
X39470078Y-18186004D01*
X39470076Y-18186005D01*
X39322242Y-18265024D01*
X39161823Y-18313687D01*
X38995000Y-18330117D01*
X38828178Y-18313687D01*
X38667759Y-18265024D01*
X38519925Y-18186005D01*
X38519923Y-18186004D01*
X38390342Y-18079659D01*
X38283997Y-17950078D01*
X38275951Y-17935025D01*
X38204975Y-17802239D01*
X38156313Y-17641826D01*
X38144000Y-17516804D01*
X38144000Y-16733197D01*
X38156313Y-16608178D01*
X38204976Y-16447759D01*
X38283995Y-16299923D01*
X38390341Y-16170341D01*
X38519922Y-16063996D01*
X38535094Y-16055886D01*
X38667758Y-15984976D01*
X38828177Y-15936313D01*
X38995000Y-15919883D01*
X39161822Y-15936313D01*
G37*
G36*
X41701822Y-15936313D02*
G01*
X41862241Y-15984976D01*
X42010077Y-16063995D01*
X42139659Y-16170341D01*
X42246004Y-16299922D01*
X42246005Y-16299924D01*
X42325024Y-16447758D01*
X42373687Y-16608177D01*
X42386000Y-16733196D01*
X42386000Y-17516803D01*
X42373687Y-17641822D01*
X42325024Y-17802242D01*
X42296287Y-17856005D01*
X42246004Y-17950078D01*
X42139659Y-18079659D01*
X42010078Y-18186004D01*
X42010076Y-18186005D01*
X41862242Y-18265024D01*
X41701823Y-18313687D01*
X41535000Y-18330117D01*
X41368178Y-18313687D01*
X41207759Y-18265024D01*
X41059925Y-18186005D01*
X41059923Y-18186004D01*
X40930342Y-18079659D01*
X40823997Y-17950078D01*
X40815951Y-17935025D01*
X40744975Y-17802239D01*
X40696313Y-17641826D01*
X40684000Y-17516804D01*
X40684000Y-16733197D01*
X40696313Y-16608178D01*
X40744976Y-16447759D01*
X40823995Y-16299923D01*
X40930341Y-16170341D01*
X41059922Y-16063996D01*
X41075094Y-16055886D01*
X41207758Y-15984976D01*
X41368177Y-15936313D01*
X41535000Y-15919883D01*
X41701822Y-15936313D01*
G37*
G36*
X46781822Y-15936313D02*
G01*
X46942241Y-15984976D01*
X47090077Y-16063995D01*
X47219659Y-16170341D01*
X47326004Y-16299922D01*
X47326005Y-16299924D01*
X47405024Y-16447758D01*
X47453687Y-16608177D01*
X47466000Y-16733196D01*
X47466000Y-17516803D01*
X47453687Y-17641822D01*
X47405024Y-17802242D01*
X47376287Y-17856005D01*
X47326004Y-17950078D01*
X47219659Y-18079659D01*
X47090078Y-18186004D01*
X47090076Y-18186005D01*
X46942242Y-18265024D01*
X46781823Y-18313687D01*
X46615000Y-18330117D01*
X46448178Y-18313687D01*
X46287759Y-18265024D01*
X46139925Y-18186005D01*
X46139923Y-18186004D01*
X46010342Y-18079659D01*
X45903997Y-17950078D01*
X45895951Y-17935025D01*
X45824975Y-17802239D01*
X45776313Y-17641826D01*
X45764000Y-17516804D01*
X45764000Y-16733197D01*
X45776313Y-16608178D01*
X45824976Y-16447759D01*
X45903995Y-16299923D01*
X46010341Y-16170341D01*
X46139922Y-16063996D01*
X46155094Y-16055886D01*
X46287758Y-15984976D01*
X46448177Y-15936313D01*
X46615000Y-15919883D01*
X46781822Y-15936313D01*
G37*
G36*
X49321822Y-15936313D02*
G01*
X49482241Y-15984976D01*
X49630077Y-16063995D01*
X49759659Y-16170341D01*
X49866004Y-16299922D01*
X49866005Y-16299924D01*
X49945024Y-16447758D01*
X49993687Y-16608177D01*
X50006000Y-16733196D01*
X50006000Y-17516803D01*
X49993687Y-17641822D01*
X49945024Y-17802242D01*
X49916287Y-17856005D01*
X49866004Y-17950078D01*
X49759659Y-18079659D01*
X49630078Y-18186004D01*
X49630076Y-18186005D01*
X49482242Y-18265024D01*
X49321823Y-18313687D01*
X49155000Y-18330117D01*
X48988178Y-18313687D01*
X48827759Y-18265024D01*
X48679925Y-18186005D01*
X48679923Y-18186004D01*
X48550342Y-18079659D01*
X48443997Y-17950078D01*
X48435951Y-17935025D01*
X48364975Y-17802239D01*
X48316313Y-17641826D01*
X48304000Y-17516804D01*
X48304000Y-16733197D01*
X48316313Y-16608178D01*
X48364976Y-16447759D01*
X48443995Y-16299923D01*
X48550341Y-16170341D01*
X48679922Y-16063996D01*
X48695094Y-16055886D01*
X48827758Y-15984976D01*
X48988177Y-15936313D01*
X49155000Y-15919883D01*
X49321822Y-15936313D01*
G37*
G36*
X51861822Y-15936313D02*
G01*
X52022241Y-15984976D01*
X52170077Y-16063995D01*
X52299659Y-16170341D01*
X52406004Y-16299922D01*
X52406005Y-16299924D01*
X52485024Y-16447758D01*
X52533687Y-16608177D01*
X52546000Y-16733196D01*
X52546000Y-17516803D01*
X52533687Y-17641822D01*
X52485024Y-17802242D01*
X52456287Y-17856005D01*
X52406004Y-17950078D01*
X52299659Y-18079659D01*
X52170078Y-18186004D01*
X52170076Y-18186005D01*
X52022242Y-18265024D01*
X51861823Y-18313687D01*
X51695000Y-18330117D01*
X51528178Y-18313687D01*
X51367759Y-18265024D01*
X51219925Y-18186005D01*
X51219923Y-18186004D01*
X51090342Y-18079659D01*
X50983997Y-17950078D01*
X50975951Y-17935025D01*
X50904975Y-17802239D01*
X50856313Y-17641826D01*
X50844000Y-17516804D01*
X50844000Y-16733197D01*
X50856313Y-16608178D01*
X50904976Y-16447759D01*
X50983995Y-16299923D01*
X51090341Y-16170341D01*
X51219922Y-16063996D01*
X51235094Y-16055886D01*
X51367758Y-15984976D01*
X51528177Y-15936313D01*
X51695000Y-15919883D01*
X51861822Y-15936313D01*
G37*
G36*
X54401822Y-15936313D02*
G01*
X54562241Y-15984976D01*
X54710077Y-16063995D01*
X54839659Y-16170341D01*
X54946004Y-16299922D01*
X54946005Y-16299924D01*
X55025024Y-16447758D01*
X55073687Y-16608177D01*
X55086000Y-16733196D01*
X55086000Y-17516803D01*
X55073687Y-17641822D01*
X55025024Y-17802242D01*
X54996287Y-17856005D01*
X54946004Y-17950078D01*
X54839659Y-18079659D01*
X54710078Y-18186004D01*
X54710076Y-18186005D01*
X54562242Y-18265024D01*
X54401823Y-18313687D01*
X54235000Y-18330117D01*
X54068178Y-18313687D01*
X53907759Y-18265024D01*
X53759925Y-18186005D01*
X53759923Y-18186004D01*
X53630342Y-18079659D01*
X53523997Y-17950078D01*
X53515951Y-17935025D01*
X53444975Y-17802239D01*
X53396313Y-17641826D01*
X53384000Y-17516804D01*
X53384000Y-16733197D01*
X53396313Y-16608178D01*
X53444976Y-16447759D01*
X53523995Y-16299923D01*
X53630341Y-16170341D01*
X53759922Y-16063996D01*
X53775094Y-16055886D01*
X53907758Y-15984976D01*
X54068177Y-15936313D01*
X54235000Y-15919883D01*
X54401822Y-15936313D01*
G37*
G36*
X56941822Y-15936313D02*
G01*
X57102241Y-15984976D01*
X57250077Y-16063995D01*
X57379659Y-16170341D01*
X57486004Y-16299922D01*
X57486005Y-16299924D01*
X57565024Y-16447758D01*
X57613687Y-16608177D01*
X57626000Y-16733196D01*
X57626000Y-17516803D01*
X57613687Y-17641822D01*
X57565024Y-17802242D01*
X57536287Y-17856005D01*
X57486004Y-17950078D01*
X57379659Y-18079659D01*
X57250078Y-18186004D01*
X57250076Y-18186005D01*
X57102242Y-18265024D01*
X56941823Y-18313687D01*
X56775000Y-18330117D01*
X56608178Y-18313687D01*
X56447759Y-18265024D01*
X56299925Y-18186005D01*
X56299923Y-18186004D01*
X56170342Y-18079659D01*
X56063997Y-17950078D01*
X56055951Y-17935025D01*
X55984975Y-17802239D01*
X55936313Y-17641826D01*
X55924000Y-17516804D01*
X55924000Y-16733197D01*
X55936313Y-16608178D01*
X55984976Y-16447759D01*
X56063995Y-16299923D01*
X56170341Y-16170341D01*
X56299922Y-16063996D01*
X56315094Y-16055886D01*
X56447758Y-15984976D01*
X56608177Y-15936313D01*
X56775000Y-15919883D01*
X56941822Y-15936313D01*
G37*
G36*
X59481822Y-15936313D02*
G01*
X59642241Y-15984976D01*
X59790077Y-16063995D01*
X59919659Y-16170341D01*
X60026004Y-16299922D01*
X60026005Y-16299924D01*
X60105024Y-16447758D01*
X60153687Y-16608177D01*
X60166000Y-16733196D01*
X60166000Y-17516803D01*
X60153687Y-17641822D01*
X60105024Y-17802242D01*
X60076287Y-17856005D01*
X60026004Y-17950078D01*
X59919659Y-18079659D01*
X59790078Y-18186004D01*
X59790076Y-18186005D01*
X59642242Y-18265024D01*
X59481823Y-18313687D01*
X59315000Y-18330117D01*
X59148178Y-18313687D01*
X58987759Y-18265024D01*
X58839925Y-18186005D01*
X58839923Y-18186004D01*
X58710342Y-18079659D01*
X58603997Y-17950078D01*
X58595951Y-17935025D01*
X58524975Y-17802239D01*
X58476313Y-17641826D01*
X58464000Y-17516804D01*
X58464000Y-16733197D01*
X58476313Y-16608178D01*
X58524976Y-16447759D01*
X58603995Y-16299923D01*
X58710341Y-16170341D01*
X58839922Y-16063996D01*
X58855094Y-16055886D01*
X58987758Y-15984976D01*
X59148177Y-15936313D01*
X59315000Y-15919883D01*
X59481822Y-15936313D01*
G37*
G36*
X10041823Y-16306313D02*
G01*
X10202242Y-16354976D01*
X10334906Y-16425886D01*
X10350078Y-16433996D01*
X10479659Y-16540341D01*
X10586004Y-16669922D01*
X10586005Y-16669924D01*
X10665024Y-16817758D01*
X10713687Y-16978177D01*
X10730117Y-17145000D01*
X10713687Y-17311823D01*
X10665024Y-17472242D01*
X10641205Y-17516804D01*
X10586004Y-17620078D01*
X10479659Y-17749659D01*
X10350078Y-17856004D01*
X10350076Y-17856005D01*
X10202242Y-17935024D01*
X10041823Y-17983687D01*
X9916804Y-17996000D01*
X9133196Y-17996000D01*
X9008177Y-17983687D01*
X8847758Y-17935024D01*
X8699924Y-17856005D01*
X8699922Y-17856004D01*
X8570341Y-17749659D01*
X8463996Y-17620078D01*
X8408795Y-17516804D01*
X8384976Y-17472242D01*
X8336313Y-17311823D01*
X8319883Y-17145000D01*
X8336313Y-16978177D01*
X8384976Y-16817758D01*
X8463995Y-16669924D01*
X8463996Y-16669922D01*
X8570341Y-16540341D01*
X8699922Y-16433996D01*
X8715094Y-16425886D01*
X8847758Y-16354976D01*
X9008177Y-16306313D01*
X9133196Y-16294000D01*
X9916804Y-16294000D01*
X10041823Y-16306313D01*
G37*
G36*
X2421823Y-16306313D02*
G01*
X2582242Y-16354976D01*
X2714906Y-16425886D01*
X2730078Y-16433996D01*
X2859659Y-16540341D01*
X2966004Y-16669922D01*
X2966005Y-16669924D01*
X3045024Y-16817758D01*
X3093687Y-16978177D01*
X3110117Y-17145000D01*
X3093687Y-17311823D01*
X3045024Y-17472242D01*
X3021205Y-17516804D01*
X2966004Y-17620078D01*
X2859659Y-17749659D01*
X2730078Y-17856004D01*
X2730076Y-17856005D01*
X2582242Y-17935024D01*
X2421823Y-17983687D01*
X2296804Y-17996000D01*
X1513196Y-17996000D01*
X1388177Y-17983687D01*
X1227758Y-17935024D01*
X1079924Y-17856005D01*
X1079922Y-17856004D01*
X950341Y-17749659D01*
X843996Y-17620078D01*
X788795Y-17516804D01*
X764976Y-17472242D01*
X716313Y-17311823D01*
X699883Y-17145000D01*
X716313Y-16978177D01*
X764976Y-16817758D01*
X843995Y-16669924D01*
X843996Y-16669922D01*
X950341Y-16540341D01*
X1079922Y-16433996D01*
X1095094Y-16425886D01*
X1227758Y-16354976D01*
X1388177Y-16306313D01*
X1513196Y-16294000D01*
X2296804Y-16294000D01*
X2421823Y-16306313D01*
G37*
G36*
X26686000Y-13986000D02*
G01*
X25384000Y-13986000D01*
X25384000Y-12684000D01*
X26686000Y-12684000D01*
X26686000Y-13986000D01*
G37*
G36*
X28724890Y-12709017D02*
G01*
X28843364Y-12758091D01*
X28949988Y-12829335D01*
X29040665Y-12920012D01*
X29111909Y-13026636D01*
X29160983Y-13145110D01*
X29186000Y-13270882D01*
X29186000Y-13399118D01*
X29160983Y-13524890D01*
X29111909Y-13643364D01*
X29040665Y-13749988D01*
X28949988Y-13840665D01*
X28843364Y-13911909D01*
X28843363Y-13911910D01*
X28843362Y-13911910D01*
X28724890Y-13960983D01*
X28599119Y-13986000D01*
X28470881Y-13986000D01*
X28345110Y-13960983D01*
X28226638Y-13911910D01*
X28226637Y-13911910D01*
X28226636Y-13911909D01*
X28120012Y-13840665D01*
X28029335Y-13749988D01*
X27958091Y-13643364D01*
X27909017Y-13524890D01*
X27884000Y-13399118D01*
X27884000Y-13270882D01*
X27909017Y-13145110D01*
X27958091Y-13026636D01*
X28029335Y-12920012D01*
X28120012Y-12829335D01*
X28226636Y-12758091D01*
X28345110Y-12709017D01*
X28470881Y-12684000D01*
X28599119Y-12684000D01*
X28724890Y-12709017D01*
G37*
G36*
X76265997Y-11381341D02*
G01*
X76350666Y-11398183D01*
X76405709Y-11420983D01*
X76510177Y-11464255D01*
X76653736Y-11560178D01*
X76775822Y-11682264D01*
X76871745Y-11825823D01*
X76937817Y-11985335D01*
X76971500Y-12154671D01*
X76971500Y-12327329D01*
X76937817Y-12496665D01*
X76871745Y-12656177D01*
X76775822Y-12799736D01*
X76653736Y-12921822D01*
X76510177Y-13017745D01*
X76416738Y-13056449D01*
X76350666Y-13083817D01*
X76265997Y-13100659D01*
X76181329Y-13117500D01*
X76008671Y-13117500D01*
X75924003Y-13100658D01*
X75839334Y-13083817D01*
X75773262Y-13056449D01*
X75679823Y-13017745D01*
X75536264Y-12921822D01*
X75414178Y-12799736D01*
X75318255Y-12656177D01*
X75252183Y-12496665D01*
X75218500Y-12327329D01*
X75218500Y-12154671D01*
X75252183Y-11985335D01*
X75318255Y-11825823D01*
X75414178Y-11682264D01*
X75536264Y-11560178D01*
X75679823Y-11464255D01*
X75784291Y-11420983D01*
X75839334Y-11398183D01*
X75924003Y-11381341D01*
X76008671Y-11364500D01*
X76181329Y-11364500D01*
X76265997Y-11381341D01*
G37*
G36*
X68645997Y-11381341D02*
G01*
X68730666Y-11398183D01*
X68785709Y-11420983D01*
X68890177Y-11464255D01*
X69033736Y-11560178D01*
X69155822Y-11682264D01*
X69251745Y-11825823D01*
X69317817Y-11985335D01*
X69351500Y-12154671D01*
X69351500Y-12327329D01*
X69317817Y-12496665D01*
X69251745Y-12656177D01*
X69155822Y-12799736D01*
X69033736Y-12921822D01*
X68890177Y-13017745D01*
X68796738Y-13056449D01*
X68730666Y-13083817D01*
X68645997Y-13100659D01*
X68561329Y-13117500D01*
X68388671Y-13117500D01*
X68304003Y-13100658D01*
X68219334Y-13083817D01*
X68153262Y-13056449D01*
X68059823Y-13017745D01*
X67916264Y-12921822D01*
X67794178Y-12799736D01*
X67698255Y-12656177D01*
X67632183Y-12496665D01*
X67598500Y-12327329D01*
X67598500Y-12154671D01*
X67632183Y-11985335D01*
X67698255Y-11825823D01*
X67794178Y-11682264D01*
X67916264Y-11560178D01*
X68059823Y-11464255D01*
X68164291Y-11420983D01*
X68219334Y-11398183D01*
X68304003Y-11381341D01*
X68388671Y-11364500D01*
X68561329Y-11364500D01*
X68645997Y-11381341D01*
G37*
G36*
X59366231Y-9769003D02*
G01*
X59560412Y-9849436D01*
X59560414Y-9849437D01*
X59735173Y-9966207D01*
X59883793Y-10114827D01*
X60000395Y-10289335D01*
X60000564Y-10289588D01*
X60080997Y-10483769D01*
X60122000Y-10689908D01*
X60122000Y-10900092D01*
X60080997Y-11106231D01*
X60045528Y-11191859D01*
X60000563Y-11300414D01*
X59883793Y-11475173D01*
X59735173Y-11623793D01*
X59560414Y-11740563D01*
X59560413Y-11740564D01*
X59560412Y-11740564D01*
X59366231Y-11820997D01*
X59160092Y-11862000D01*
X58949908Y-11862000D01*
X58743769Y-11820997D01*
X58549588Y-11740564D01*
X58549587Y-11740564D01*
X58549586Y-11740563D01*
X58374827Y-11623793D01*
X58226207Y-11475173D01*
X58109437Y-11300414D01*
X58064472Y-11191859D01*
X58029003Y-11106231D01*
X57988000Y-10900092D01*
X57988000Y-10689908D01*
X58029003Y-10483769D01*
X58109436Y-10289588D01*
X58109605Y-10289335D01*
X58226207Y-10114827D01*
X58374827Y-9966207D01*
X58549586Y-9849437D01*
X58549588Y-9849436D01*
X58743769Y-9769003D01*
X58949908Y-9728000D01*
X59160092Y-9728000D01*
X59366231Y-9769003D01*
G37*
G36*
X57582000Y-11862000D02*
G01*
X55448000Y-11862000D01*
X55448000Y-9728000D01*
X57582000Y-9728000D01*
X57582000Y-11862000D01*
G37*
G36*
X48999473Y-10070938D02*
G01*
X49127049Y-10123782D01*
X49241859Y-10200495D01*
X49339505Y-10298141D01*
X49416218Y-10412951D01*
X49469062Y-10540527D01*
X49496000Y-10675956D01*
X49496000Y-10814044D01*
X49469062Y-10949473D01*
X49416218Y-11077049D01*
X49339505Y-11191859D01*
X49241859Y-11289505D01*
X49127049Y-11366218D01*
X48999473Y-11419062D01*
X48864044Y-11446000D01*
X48725956Y-11446000D01*
X48590527Y-11419062D01*
X48462951Y-11366218D01*
X48348141Y-11289505D01*
X48250495Y-11191859D01*
X48173782Y-11077049D01*
X48120938Y-10949473D01*
X48094000Y-10814044D01*
X48094000Y-10675956D01*
X48120938Y-10540527D01*
X48173782Y-10412951D01*
X48250495Y-10298141D01*
X48348141Y-10200495D01*
X48462951Y-10123782D01*
X48590527Y-10070938D01*
X48725956Y-10044000D01*
X48864044Y-10044000D01*
X48999473Y-10070938D01*
G37*
G36*
X5096000Y-11446000D02*
G01*
X3794000Y-11446000D01*
X3794000Y-10144000D01*
X5096000Y-10144000D01*
X5096000Y-11446000D01*
G37*
G36*
X46996000Y-11446000D02*
G01*
X45594000Y-11446000D01*
X45594000Y-10044000D01*
X46996000Y-10044000D01*
X46996000Y-11446000D01*
G37*
G36*
X2134890Y-10169017D02*
G01*
X2253364Y-10218091D01*
X2359988Y-10289335D01*
X2450665Y-10380012D01*
X2521909Y-10486636D01*
X2570983Y-10605110D01*
X2596000Y-10730882D01*
X2596000Y-10859118D01*
X2570983Y-10984890D01*
X2521909Y-11103364D01*
X2450665Y-11209988D01*
X2359988Y-11300665D01*
X2253364Y-11371909D01*
X2253363Y-11371910D01*
X2253362Y-11371910D01*
X2134890Y-11420983D01*
X2009119Y-11446000D01*
X1880881Y-11446000D01*
X1755110Y-11420983D01*
X1636638Y-11371910D01*
X1636637Y-11371910D01*
X1636636Y-11371909D01*
X1530012Y-11300665D01*
X1439335Y-11209988D01*
X1368091Y-11103364D01*
X1319017Y-10984890D01*
X1294000Y-10859118D01*
X1294000Y-10730882D01*
X1319017Y-10605110D01*
X1368091Y-10486636D01*
X1439335Y-10380012D01*
X1530012Y-10289335D01*
X1636636Y-10218091D01*
X1755110Y-10169017D01*
X1880881Y-10144000D01*
X2009119Y-10144000D01*
X2134890Y-10169017D01*
G37*
G36*
X10623254Y-6532818D02*
G01*
X10970466Y-6676638D01*
X10996513Y-6687427D01*
X11332436Y-6911884D01*
X11618116Y-7197564D01*
X11753372Y-7399988D01*
X11842574Y-7533489D01*
X11997182Y-7906746D01*
X12076000Y-8302993D01*
X12076000Y-8707007D01*
X11997182Y-9103254D01*
X11842574Y-9476511D01*
X11842573Y-9476513D01*
X11618116Y-9812436D01*
X11332436Y-10098116D01*
X10996513Y-10322573D01*
X10996512Y-10322574D01*
X10996511Y-10322574D01*
X10623254Y-10477182D01*
X10227007Y-10556000D01*
X9822993Y-10556000D01*
X9426746Y-10477182D01*
X9053489Y-10322574D01*
X9053488Y-10322574D01*
X9053487Y-10322573D01*
X8717564Y-10098116D01*
X8431884Y-9812436D01*
X8207427Y-9476513D01*
X8207426Y-9476511D01*
X8052818Y-9103254D01*
X7974000Y-8707007D01*
X7974000Y-8302993D01*
X8052818Y-7906746D01*
X8207426Y-7533489D01*
X8296629Y-7399988D01*
X8431884Y-7197564D01*
X8717564Y-6911884D01*
X9053487Y-6687427D01*
X9079534Y-6676638D01*
X9426746Y-6532818D01*
X9822993Y-6454000D01*
X10227007Y-6454000D01*
X10623254Y-6532818D01*
G37*
G36*
X71123254Y-6532818D02*
G01*
X71470466Y-6676638D01*
X71496513Y-6687427D01*
X71832436Y-6911884D01*
X72118116Y-7197564D01*
X72253372Y-7399988D01*
X72342574Y-7533489D01*
X72497182Y-7906746D01*
X72576000Y-8302993D01*
X72576000Y-8707007D01*
X72497182Y-9103254D01*
X72342574Y-9476511D01*
X72342573Y-9476513D01*
X72118116Y-9812436D01*
X71832436Y-10098116D01*
X71496513Y-10322573D01*
X71496512Y-10322574D01*
X71496511Y-10322574D01*
X71123254Y-10477182D01*
X70727007Y-10556000D01*
X70322993Y-10556000D01*
X69926746Y-10477182D01*
X69553489Y-10322574D01*
X69553488Y-10322574D01*
X69553487Y-10322573D01*
X69217564Y-10098116D01*
X68931884Y-9812436D01*
X68707427Y-9476513D01*
X68707426Y-9476511D01*
X68552818Y-9103254D01*
X68474000Y-8707007D01*
X68474000Y-8302993D01*
X68552818Y-7906746D01*
X68707426Y-7533489D01*
X68796629Y-7399988D01*
X68931884Y-7197564D01*
X69217564Y-6911884D01*
X69553487Y-6687427D01*
X69579534Y-6676638D01*
X69926746Y-6532818D01*
X70322993Y-6454000D01*
X70727007Y-6454000D01*
X71123254Y-6532818D01*
G37*
G36*
X57166000Y-7636000D02*
G01*
X55864000Y-7636000D01*
X55864000Y-6334000D01*
X57166000Y-6334000D01*
X57166000Y-7636000D01*
G37*
G36*
X59204890Y-6359017D02*
G01*
X59323364Y-6408091D01*
X59429988Y-6479335D01*
X59520665Y-6570012D01*
X59591910Y-6676638D01*
X59596379Y-6687427D01*
X59640983Y-6795110D01*
X59666000Y-6920882D01*
X59666000Y-7049118D01*
X59640983Y-7174890D01*
X59591909Y-7293364D01*
X59520665Y-7399988D01*
X59429988Y-7490665D01*
X59323364Y-7561909D01*
X59323363Y-7561910D01*
X59323362Y-7561910D01*
X59204890Y-7610983D01*
X59079119Y-7636000D01*
X58950881Y-7636000D01*
X58825110Y-7610983D01*
X58706638Y-7561910D01*
X58706637Y-7561910D01*
X58706636Y-7561909D01*
X58600012Y-7490665D01*
X58509335Y-7399988D01*
X58438091Y-7293364D01*
X58389017Y-7174890D01*
X58364000Y-7049118D01*
X58364000Y-6920882D01*
X58389017Y-6795110D01*
X58433621Y-6687427D01*
X58438090Y-6676638D01*
X58509335Y-6570012D01*
X58600012Y-6479335D01*
X58706636Y-6408091D01*
X58825110Y-6359017D01*
X58950881Y-6334000D01*
X59079119Y-6334000D01*
X59204890Y-6359017D01*
G37*
G36*
X79598254Y-1027818D02*
G01*
X79971511Y-1182426D01*
X79971513Y-1182427D01*
X80307436Y-1406884D01*
X80593116Y-1692564D01*
X80817574Y-2028489D01*
X80972182Y-2401746D01*
X81051000Y-2797993D01*
X81051000Y-3202007D01*
X80972182Y-3598254D01*
X80817574Y-3971511D01*
X80817573Y-3971513D01*
X80593116Y-4307436D01*
X80307436Y-4593116D01*
X79971513Y-4817573D01*
X79971512Y-4817574D01*
X79971511Y-4817574D01*
X79598254Y-4972182D01*
X79202007Y-5051000D01*
X78797993Y-5051000D01*
X78401746Y-4972182D01*
X78028489Y-4817574D01*
X78028488Y-4817574D01*
X78028487Y-4817573D01*
X77692564Y-4593116D01*
X77406884Y-4307436D01*
X77182427Y-3971513D01*
X77182426Y-3971511D01*
X77027818Y-3598254D01*
X76949000Y-3202007D01*
X76949000Y-2797993D01*
X77027818Y-2401746D01*
X77182426Y-2028489D01*
X77406884Y-1692564D01*
X77692564Y-1406884D01*
X78028487Y-1182427D01*
X78028489Y-1182426D01*
X78401746Y-1027818D01*
X78797993Y-949000D01*
X79202007Y-949000D01*
X79598254Y-1027818D01*
G37*
G36*
X3598254Y-1027818D02*
G01*
X3971511Y-1182426D01*
X3971513Y-1182427D01*
X4307436Y-1406884D01*
X4593116Y-1692564D01*
X4817574Y-2028489D01*
X4972182Y-2401746D01*
X5051000Y-2797993D01*
X5051000Y-3202007D01*
X4972182Y-3598254D01*
X4817574Y-3971511D01*
X4817573Y-3971513D01*
X4593116Y-4307436D01*
X4307436Y-4593116D01*
X3971513Y-4817573D01*
X3971512Y-4817574D01*
X3971511Y-4817574D01*
X3598254Y-4972182D01*
X3202007Y-5051000D01*
X2797993Y-5051000D01*
X2401746Y-4972182D01*
X2028489Y-4817574D01*
X2028488Y-4817574D01*
X2028487Y-4817573D01*
X1692564Y-4593116D01*
X1406884Y-4307436D01*
X1182427Y-3971513D01*
X1182426Y-3971511D01*
X1027818Y-3598254D01*
X949000Y-3202007D01*
X949000Y-2797993D01*
X1027818Y-2401746D01*
X1182426Y-2028489D01*
X1406884Y-1692564D01*
X1692564Y-1406884D01*
X2028487Y-1182427D01*
X2028489Y-1182426D01*
X2401746Y-1027818D01*
X2797993Y-949000D01*
X3202007Y-949000D01*
X3598254Y-1027818D01*
G37*
M02*
